<svg width="56" height="82" viewBox="0 0 56 82" fill="none" xmlns="http://www.w3.org/2000/svg">
<rect x="1" y="1" width="54" height="80" rx="27" stroke="white" stroke-width="2"/>
<path d="M27.2929 57.7071C27.6834 58.0976 28.3166 58.0976 28.7071 57.7071L35.0711 51.3431C35.4616 50.9526 35.4616 50.3195 35.0711 49.9289C34.6805 49.5384 34.0474 49.5384 33.6569 49.9289L28 55.5858L22.3431 49.9289C21.9526 49.5384 21.3195 49.5384 20.9289 49.9289C20.5384 50.3195 20.5384 50.9526 20.9289 51.3431L27.2929 57.7071ZM28 25L27 25L27 57L28 57L29 57L29 25L28 25Z" fill="white"/>
</svg>
