<svg width="38" height="38" viewBox="0 0 38 38" fill="none" xmlns="http://www.w3.org/2000/svg">
<path d="M30.78 20.5833C30.4317 20.5833 30.0675 20.4725 29.7192 20.3933C29.0138 20.2379 28.3206 20.0315 27.645 19.7758C26.9105 19.5086 26.1031 19.5225 25.3782 19.8148C24.6533 20.1071 24.0621 20.6572 23.7184 21.3592L23.37 22.0717C21.8279 21.2138 20.4108 20.1483 19.1584 18.905C17.9151 17.6526 16.8496 16.2355 15.9917 14.6933L16.6567 14.25C17.3587 13.9063 17.9088 13.3151 18.2011 12.5902C18.4934 11.8653 18.5073 11.0579 18.24 10.3233C17.9886 9.64633 17.7824 8.95342 17.6225 8.24916C17.5434 7.90083 17.48 7.53666 17.4325 7.1725C17.2403 6.05723 16.6561 5.04725 15.7853 4.32446C14.9144 3.60166 13.8141 3.21354 12.6825 3.22999H7.93254C7.25017 3.22359 6.57443 3.36428 5.95133 3.6425C5.32822 3.92072 4.77238 4.32993 4.32164 4.84227C3.87089 5.35462 3.53583 5.95807 3.33927 6.61154C3.1427 7.26502 3.08925 7.95317 3.18254 8.62916C4.02604 15.2623 7.05542 21.4255 11.7922 26.145C16.5289 30.8645 22.703 33.8715 29.3392 34.6908H29.9409C31.1084 34.6925 32.2357 34.2642 33.1075 33.4875C33.6084 33.0395 34.0086 32.4903 34.2815 31.8762C34.5545 31.2621 34.694 30.597 34.6909 29.925V25.175C34.6715 24.0752 34.271 23.0162 33.5577 22.1788C32.8445 21.3414 31.8627 20.7775 30.78 20.5833ZM31.5717 30.0833C31.5714 30.3081 31.5233 30.5303 31.4304 30.7351C31.3376 30.9398 31.2023 31.1225 31.0334 31.2708C30.8565 31.4236 30.6496 31.5377 30.426 31.6059C30.2024 31.674 29.9671 31.6947 29.735 31.6667C23.8053 30.9064 18.2974 28.1936 14.0802 23.9563C9.86293 19.719 7.17635 14.1983 6.4442 8.26499C6.419 8.03306 6.44109 7.79843 6.50912 7.57528C6.57716 7.35213 6.68973 7.14508 6.84004 6.96666C6.98841 6.79777 7.17105 6.66241 7.3758 6.56959C7.58056 6.47677 7.80273 6.42861 8.02754 6.42833H12.7775C13.1457 6.42014 13.5053 6.54055 13.7943 6.76886C14.0833 6.99716 14.2836 7.31906 14.3609 7.67916C14.4242 8.11194 14.5034 8.53944 14.5984 8.96166C14.7813 9.79631 15.0247 10.6165 15.3267 11.4158L13.11 12.445C12.9205 12.532 12.75 12.6555 12.6084 12.8085C12.4667 12.9615 12.3567 13.1411 12.2846 13.3367C12.2125 13.5324 12.1798 13.7404 12.1883 13.9487C12.1968 14.1571 12.2464 14.3617 12.3342 14.5508C14.6129 19.4319 18.5365 23.3554 23.4175 25.6342C23.803 25.7925 24.2354 25.7925 24.6209 25.6342C24.8183 25.5635 24.9998 25.4544 25.1547 25.313C25.3097 25.1717 25.435 25.001 25.5234 24.8108L26.505 22.5942C27.3236 22.8869 28.159 23.1301 29.0067 23.3225C29.4289 23.4175 29.8564 23.4967 30.2892 23.56C30.6493 23.6372 30.9712 23.8376 31.1995 24.1266C31.4278 24.4156 31.5482 24.7751 31.54 25.1433L31.5717 30.0833Z" fill="#2D2D2D"/>
</svg>
