<svg width="38" height="38" viewBox="0 0 38 38" fill="none" xmlns="http://www.w3.org/2000/svg">
<path d="M31.7182 31.6588H6.28198C4.94395 31.6572 3.66117 31.125 2.71504 30.1789C1.76891 29.2327 1.23668 27.95 1.23511 26.6119V11.3882C1.23668 10.0502 1.76891 8.76737 2.71504 7.82124C3.66117 6.87511 4.94395 6.34288 6.28198 6.34131H31.7182C33.0563 6.34288 34.339 6.87511 35.2852 7.82124C36.2313 8.76737 36.7635 10.0502 36.7651 11.3882V26.6119C36.7635 27.95 36.2313 29.2327 35.2852 30.1789C34.339 31.125 33.0563 31.6572 31.7182 31.6588ZM6.28198 8.12256C5.41588 8.12256 4.58526 8.46661 3.97284 9.07904C3.36041 9.69146 3.01636 10.5221 3.01636 11.3882V26.6119C3.01636 27.478 3.36041 28.3087 3.97284 28.9211C4.58526 29.5335 5.41588 29.8776 6.28198 29.8776H31.7182C32.5843 29.8776 33.415 29.5335 34.0274 28.9211C34.6398 28.3087 34.9839 27.478 34.9839 26.6119V11.3882C34.9839 10.5221 34.6398 9.69146 34.0274 9.07904C33.415 8.46661 32.5843 8.12256 31.7182 8.12256H6.28198Z" fill="#222222"/>
<path d="M18.9999 22.6099C17.9012 22.6117 16.8319 22.2552 15.954 21.5946L2.08993 11.109C1.99197 11.0403 1.90888 10.9525 1.8456 10.8509C1.78233 10.7493 1.74018 10.636 1.72166 10.5178C1.70315 10.3996 1.70865 10.2788 1.73784 10.1628C1.76703 10.0467 1.81932 9.93771 1.89157 9.84231C1.96382 9.74691 2.05455 9.66704 2.15835 9.60749C2.26216 9.54794 2.3769 9.50991 2.49572 9.49569C2.61455 9.48147 2.73502 9.49134 2.84995 9.52472C2.96487 9.55809 3.07189 9.61429 3.16461 9.68994L17.0287 20.1874C17.598 20.6124 18.2895 20.8421 18.9999 20.8421C19.7104 20.8421 20.4018 20.6124 20.9712 20.1874L34.8352 9.68994C34.928 9.61429 35.035 9.55809 35.1499 9.52472C35.2648 9.49134 35.3853 9.48147 35.5041 9.49569C35.623 9.50991 35.7377 9.54794 35.8415 9.60749C35.9453 9.66704 36.036 9.74691 36.1083 9.84231C36.1805 9.93771 36.2328 10.0467 36.262 10.1628C36.2912 10.2788 36.2967 10.3996 36.2782 10.5178C36.2597 10.636 36.2175 10.7493 36.1543 10.8509C36.091 10.9525 36.0079 11.0403 35.9099 11.109L22.0459 21.5946C21.1679 22.2552 20.0986 22.6117 18.9999 22.6099Z" fill="#222222"/>
<path d="M2.47592 29.1769C2.29528 29.1772 2.11884 29.1225 1.96999 29.0202C1.82115 28.9178 1.70695 28.7726 1.64253 28.6039C1.57812 28.4351 1.56655 28.2508 1.60935 28.0753C1.65214 27.8998 1.74729 27.7415 1.88217 27.6213L12.8072 17.8779C12.9835 17.7204 13.2152 17.6394 13.4513 17.6528C13.6874 17.6662 13.9084 17.7727 14.0659 17.9491C14.2234 18.1255 14.3044 18.3572 14.291 18.5932C14.2776 18.8293 14.171 19.0504 13.9947 19.2079L3.06967 28.9513C2.90743 29.0989 2.69525 29.1795 2.47592 29.1769ZM35.524 29.1769C35.3047 29.1795 35.0925 29.0989 34.9303 28.9513L24.0053 19.2079C23.8289 19.0504 23.7223 18.8293 23.709 18.5932C23.6956 18.3572 23.7766 18.1255 23.934 17.9491C24.0915 17.7727 24.3126 17.6662 24.5487 17.6528C24.7847 17.6394 25.0164 17.7204 25.1928 17.8779L36.1119 27.6213C36.2467 27.7415 36.3419 27.8998 36.3847 28.0753C36.4275 28.2508 36.4159 28.4351 36.3515 28.6039C36.2871 28.7726 36.1729 28.9178 36.024 29.0202C35.8752 29.1225 35.6987 29.1772 35.5181 29.1769H35.524Z" fill="#222222"/>
</svg>
