<svg width="55" height="55" viewBox="0 0 55 55" fill="none" xmlns="http://www.w3.org/2000/svg">
<circle cx="27.1717" cy="27.5152" r="26.6717" stroke="#4BBA72"/>
<path d="M28.2647 42.2021C24.5649 42.2021 24.1288 42.1826 22.685 42.1194C21.5591 42.0824 20.4477 41.8535 19.3988 41.4426C18.5012 41.0933 17.6861 40.5612 17.0051 39.88C16.3242 39.1988 15.7924 38.3834 15.4434 37.4857C15.0483 36.433 14.8352 35.3207 14.8132 34.1965C14.729 32.7557 14.729 32.2835 14.729 28.6123C14.729 24.902 14.7486 24.4689 14.8132 23.0326C14.8357 21.9099 15.0488 20.7992 15.4434 19.7479C15.792 18.8491 16.3242 18.0328 17.006 17.3512C17.6878 16.6696 18.5043 16.1377 19.4033 15.7895C20.4541 15.3927 21.565 15.1791 22.688 15.1578C24.1243 15.0766 24.5965 15.0766 28.2647 15.0766C31.9945 15.0766 32.4232 15.0962 33.8444 15.1578C34.9694 15.1789 36.0853 15.3924 37.1381 15.7895C38.0369 16.1381 38.8531 16.6701 39.5349 17.3517C40.2167 18.0332 40.7491 18.8493 41.098 19.7479C41.4996 20.8157 41.7147 21.9437 41.7312 23.0822C41.8154 24.523 41.8154 24.9937 41.8154 28.6634C41.8154 32.3331 41.7944 32.8144 41.7312 34.2386C41.7087 35.3639 41.4951 36.4771 41.0995 37.5308C40.7497 38.4292 40.2168 39.245 39.5349 39.9264C38.8529 40.6079 38.0367 41.1401 37.1381 41.4892C36.0853 41.8833 34.9739 42.0968 33.8504 42.1194C32.4141 42.2021 31.9434 42.2021 28.2647 42.2021ZM28.2136 17.4574C24.5349 17.4574 24.1529 17.4754 22.7166 17.5401C21.8588 17.5513 21.0093 17.7095 20.2049 18.0078C19.6183 18.2327 19.0853 18.578 18.6402 19.0215C18.1952 19.4649 17.848 19.9968 17.6211 20.5826C17.3203 21.3948 17.1624 22.2535 17.1534 23.1198C17.0737 24.5771 17.0737 24.9592 17.0737 28.6123C17.0737 32.2218 17.0872 32.6595 17.1534 34.1078C17.1669 34.965 17.3248 35.8148 17.6211 36.6194C18.0813 37.803 19.0198 38.7385 20.2064 39.1927C21.0097 39.4929 21.8591 39.6511 22.7166 39.6604C24.1724 39.7446 24.5559 39.7446 28.2136 39.7446C31.9028 39.7446 32.2848 39.7266 33.709 39.6604C34.5669 39.65 35.4166 39.4918 36.2207 39.1927C36.8042 38.9661 37.3342 38.6206 37.7769 38.1781C38.2197 37.7356 38.5655 37.2058 38.7925 36.6224C39.0932 35.8103 39.2512 34.95 39.2602 34.0837H39.2767C39.3414 32.6459 39.3414 32.2624 39.3414 28.5882C39.3414 24.914 39.3249 24.5275 39.2602 23.0912C39.2466 22.2347 39.0885 21.3865 38.7925 20.5826C38.5661 19.9984 38.2205 19.4677 37.7777 19.0244C37.3349 18.5811 36.8046 18.2349 36.2207 18.0078C35.4168 17.7081 34.567 17.5498 33.709 17.5401C32.2547 17.4574 31.8742 17.4574 28.2136 17.4574ZM28.2647 35.5591C26.8894 35.56 25.5448 35.153 24.4008 34.3896C23.2569 33.6263 22.365 32.5408 21.838 31.2705C21.3111 30.0002 21.1726 28.6021 21.4403 27.2532C21.7079 25.9042 22.3696 24.6649 23.3417 23.692C24.3137 22.7191 25.5524 22.0564 26.9012 21.7876C28.2499 21.5187 29.6481 21.656 30.9188 22.1818C32.1896 22.7077 33.2758 23.5986 34.0402 24.7419C34.8046 25.8852 35.2127 27.2295 35.213 28.6048C35.2106 30.4474 34.478 32.214 33.1756 33.5175C31.8733 34.821 30.1073 35.5551 28.2647 35.5591ZM28.2647 24.0899C27.3723 24.0899 26.5 24.3545 25.758 24.8503C25.016 25.346 24.4377 26.0507 24.0962 26.8751C23.7548 27.6996 23.6654 28.6068 23.8395 29.482C24.0136 30.3572 24.4433 31.1612 25.0743 31.7922C25.7053 32.4232 26.5092 32.8529 27.3845 33.027C28.2597 33.2011 29.1669 33.1117 29.9913 32.7702C30.8158 32.4287 31.5204 31.8504 32.0162 31.1084C32.512 30.3665 32.7766 29.4941 32.7766 28.6018C32.7738 27.406 32.2976 26.26 31.452 25.4144C30.6065 24.5689 29.4605 24.0926 28.2647 24.0899ZM35.4837 23.0175C35.2708 23.0167 35.0602 22.974 34.8638 22.8918C34.6674 22.8096 34.4891 22.6895 34.3391 22.5384C34.0362 22.2332 33.8669 21.8202 33.8685 21.3902C33.8701 20.9603 34.0424 20.5485 34.3476 20.2456C34.6528 19.9427 35.0658 19.7734 35.4958 19.775C35.9257 19.7766 36.3375 19.9489 36.6404 20.2541C36.9433 20.5593 37.1126 20.9723 37.111 21.4023C37.1094 21.8323 36.9371 22.244 36.6319 22.5469C36.3267 22.8499 35.9137 23.0191 35.4837 23.0175Z" fill="#4BBA72"/>
</svg>
