<svg width="55" height="56" viewBox="0 0 55 56" fill="none" xmlns="http://www.w3.org/2000/svg">
<circle cx="27.1717" cy="27.8588" r="26.6717" stroke="#4BBA72"/>
<path fill-rule="evenodd" clip-rule="evenodd" d="M25.0653 21.9078H29.6327V24.1829C30.2906 22.8744 31.9778 21.6988 34.5123 21.6988C39.3711 21.6988 40.5246 24.3034 40.5246 29.0823V37.9328H35.6056V30.1706C35.6056 27.4491 34.9477 25.9144 33.2727 25.9144C30.9497 25.9144 29.9844 27.5684 29.9844 30.1694V37.9328H25.0653V21.9078ZM16.6304 37.7238H21.5494V21.6988H16.6304V37.7238ZM22.2541 16.4735C22.2543 16.8858 22.1725 17.2941 22.0135 17.6745C21.8546 18.0549 21.6216 18.4 21.3281 18.6896C20.7334 19.2806 19.9284 19.6115 19.0899 19.6094C18.2529 19.6089 17.4498 19.2789 16.8542 18.6908C16.5618 18.4002 16.3296 18.0548 16.1709 17.6743C16.0122 17.2938 15.9302 16.8858 15.9294 16.4735C15.9294 15.641 16.2615 14.8441 16.8555 14.2563C17.4505 13.6674 18.254 13.3373 19.0912 13.3376C19.9299 13.3376 20.7341 13.6685 21.3281 14.2563C21.9208 14.8441 22.2541 15.641 22.2541 16.4735Z" fill="#4BBA72"/>
</svg>
