<svg width="40" height="40" viewBox="0 0 40 40" fill="none" xmlns="http://www.w3.org/2000/svg">
<path d="M31.5426 29.6819C29.7497 28.9787 27.3181 28.4506 24.6137 28.171C28.1121 23.5373 31.9853 17.6302 31.9853 13.7675C31.9852 7.27885 26.6087 2 20 2C13.3913 2 8.01479 7.27885 8.01479 13.7675C8.01479 16.1474 9.53916 19.6423 12.5454 24.1548C13.4675 25.539 14.4502 26.9025 15.4024 28.1693C12.6937 28.4483 10.2579 28.9763 8.4618 29.6801C5.60062 30.8011 5 32.0879 5 32.97C5 36.2371 12.7283 38 20 38C27.2716 38 35 36.2371 35 32.9701C34.9999 32.0886 34.4001 30.8026 31.5426 29.6819ZM9.16061 13.7675C9.16061 7.89922 14.0231 3.125 20 3.125C25.9768 3.125 30.8394 7.89922 30.8394 13.7675C30.8394 15.9485 29.398 19.2193 26.5553 23.489C24.3024 26.8728 21.6858 30.1074 20.0003 32.1712C16.6387 28.0475 9.16061 18.6747 9.16061 13.7675ZM19.5531 33.4223C19.6068 33.488 19.6748 33.541 19.7521 33.5775C19.8295 33.6139 19.9142 33.6328 20 33.6328C20.0857 33.6328 20.1704 33.6139 20.2478 33.5775C20.3251 33.541 20.3931 33.488 20.4468 33.4223L20.6158 33.2155C21.032 32.7073 21.4465 32.1979 21.8595 31.6872C24.7068 31.9251 25.8476 32.6086 25.9404 32.8417C25.8933 32.9528 25.5131 33.299 24.2874 33.6121C23.125 33.9091 21.6023 34.0727 20 34.0727C18.3976 34.0727 16.875 33.9091 15.7125 33.6121C14.4869 33.299 14.1067 32.9528 14.0596 32.8417C14.1524 32.6085 15.2942 31.9246 18.1439 31.6869C18.6797 32.3535 19.1589 32.9398 19.5531 33.4223ZM30.0291 35.5926C27.3584 36.4195 23.7967 36.875 20 36.875C16.2032 36.875 12.6415 36.4195 9.97084 35.5926C7.57573 34.8509 6.14582 33.8705 6.14582 32.9701C6.14582 31.5363 9.9008 29.7618 16.2043 29.2237C16.585 29.7185 16.9562 30.1935 17.3116 30.643C15.5882 30.8544 12.9116 31.4132 12.9116 32.8418C12.9116 34.7014 17.3672 35.1976 20 35.1976C22.6328 35.1976 27.0885 34.7014 27.0885 32.8418C27.0885 31.415 24.4174 30.8558 22.6955 30.6438C23.0696 30.1732 23.4406 29.7001 23.8084 29.2247C30.1039 29.7642 33.8541 31.5379 33.8541 32.97C33.8541 33.8705 32.4242 34.8509 30.0291 35.5926ZM26.1021 13.7539C26.1021 10.4503 23.3647 7.7626 20 7.7626C16.6352 7.7626 13.8978 10.4503 13.8978 13.7539C13.8978 17.0575 16.6352 19.7451 20 19.7451C23.3647 19.7451 26.1021 17.0575 26.1021 13.7539ZM20 18.6201C17.267 18.6201 15.0436 16.4371 15.0436 13.7539C15.0436 11.0706 17.267 8.8876 20 8.8876C22.7329 8.8876 24.9563 11.0706 24.9563 13.7539C24.9563 16.4371 22.733 18.6201 20 18.6201Z" fill="#2D2D2D" stroke="#2D2D2D"/>
</svg>
