<svg width="32" height="38" viewBox="0 0 32 38" fill="none" xmlns="http://www.w3.org/2000/svg">
<path d="M30.9731 34.3167L30.4915 30.2339C30.4907 30.2271 30.4898 30.2203 30.4887 30.2136C30.3564 29.3794 29.9766 28.6072 29.4009 28.0016C28.8252 27.396 28.0815 26.9865 27.2706 26.8285L22.3589 25.8826H22.3585L21.0283 25.6264C22.3175 25.3699 23.5866 25.0172 24.8256 24.5714C25.3788 24.3715 25.8472 23.9816 26.1511 23.4679C26.4551 22.9542 26.5756 22.3485 26.4924 21.754L25.7259 16.3746H26.1535C26.4276 16.3743 26.6904 16.2627 26.8842 16.0642C27.078 15.8658 27.187 15.5967 27.1873 15.3161V13.1672C27.187 12.8865 27.078 12.6175 26.8842 12.419C26.6904 12.2206 26.4276 12.109 26.1535 12.1087H25.3033C25.2369 11.9464 25.1528 11.7923 25.0527 11.6493L24.6252 8.64838C24.3221 6.52347 23.2821 4.58125 21.6954 3.17685C20.1086 1.77246 18.0812 0.999742 15.9837 1H15.5962C13.4695 1.00287 11.4166 1.799 9.82178 3.23943C8.22692 4.67986 7.19931 6.66589 6.93122 8.82592L6.52899 12.1087H5.68798C5.41387 12.109 5.15108 12.2206 4.95726 12.419C4.76344 12.6175 4.65442 12.8865 4.65413 13.1672V15.3161C4.65442 15.5968 4.76344 15.8658 4.95726 16.0642C5.15108 16.2627 5.41387 16.3743 5.68798 16.3746H6.00636L5.34226 21.7946C5.27294 22.3797 5.39966 22.9716 5.70168 23.4733C6.0037 23.9751 6.46313 24.357 7.00477 24.5566C8.28219 25.019 9.59191 25.382 10.9227 25.6424L9.78945 25.8706L9.78183 25.8721L4.92581 26.8498C4.17034 27.0031 3.47382 27.3755 2.91921 27.9226C2.3646 28.4697 1.97528 29.1685 1.79762 29.9357C1.79542 29.9449 1.79352 29.9542 1.79192 29.9635L1.05729 34.155C0.981096 34.4958 0.980902 34.8497 1.05672 35.1906C1.13254 35.5314 1.28242 35.8504 1.49522 36.1237C1.70802 36.3971 1.97827 36.6178 2.28587 36.7695C2.59348 36.9213 2.93052 37 3.27195 37H28.7274C29.0553 37 29.3793 36.9274 29.6772 36.7871C29.9751 36.6468 30.2398 36.4421 30.4532 36.1872C30.6665 35.9323 30.8235 35.6331 30.9132 35.3102C31.003 34.9874 31.0234 34.6484 30.9731 34.3167ZM25.4794 13.165L26.1572 13.1671L26.1535 15.3199H25.4794V13.165ZM24.7943 17.1423L25.4729 21.9063C25.5222 22.2589 25.4505 22.618 25.2701 22.9225C25.0897 23.2271 24.8118 23.4581 24.4837 23.5764C23.0561 24.0903 21.5873 24.4751 20.0942 24.7266V22.6932L20.4667 22.4546C21.0096 22.1084 21.4678 21.6394 21.8061 21.0836H21.8902C22.4849 21.083 23.0551 20.8409 23.4756 20.4104C23.8962 19.98 24.1329 19.3963 24.1336 18.7874V17.6082C24.3788 17.4938 24.6024 17.3361 24.7943 17.1423ZM17.9205 22.8416C17.3199 23.2228 16.6274 23.4248 15.9208 23.4248C15.2142 23.4248 14.5216 23.2228 13.9211 22.8416L12.8532 22.1576C12.8515 22.1564 12.8496 22.1553 12.8478 22.1541L11.9207 21.5603C11.4655 21.271 11.0902 20.8673 10.8305 20.3876C10.5708 19.9078 10.4354 19.368 10.4371 18.8195V11.6833C10.9434 11.6122 11.4279 11.4269 11.8557 11.141C12.2836 10.855 12.6442 10.4754 12.9115 10.0296C13.2389 10.361 13.5939 10.6626 13.9723 10.931L14.0723 11.0007C16.4161 12.6271 18.9463 12.248 21.4042 11.8167V18.8196C21.4047 19.2339 21.3276 19.6445 21.1771 20.029H17.7235C17.6186 19.725 17.4243 19.4617 17.1673 19.2754C16.9103 19.089 16.6032 18.9887 16.2883 18.9883H15.4135C15.01 18.9888 14.6232 19.1531 14.3379 19.4453C14.0526 19.7374 13.8921 20.1334 13.8917 20.5465V20.5662C13.8922 20.9793 14.0526 21.3753 14.3379 21.6674C14.6232 21.9595 15.0101 22.1239 15.4135 22.1243H16.2883C16.6032 22.1239 16.9103 22.0237 17.1673 21.8373C17.4243 21.651 17.6186 21.3877 17.7235 21.0837H20.5002C20.3258 21.2652 20.1312 21.4252 19.9205 21.5604L17.9205 22.8416ZM19.064 23.3532V25.7542C19.0638 25.8142 19.0503 25.8733 19.0245 25.9272C18.9987 25.981 18.9614 26.0282 18.9152 26.0651L16.0061 28.3833L13.2221 26.0717C13.1435 26.0069 13.0932 25.9129 13.082 25.8103C13.0817 25.8064 13.0817 25.8025 13.0814 25.7987C13.0805 25.788 13.0796 25.7771 13.0796 25.7662V23.5468L13.3749 23.7359C14.1395 24.2212 15.0212 24.4784 15.9208 24.4783C16.8204 24.4783 17.7022 24.2211 18.4667 23.7358L19.064 23.3532ZM16.78 20.5465V20.5661C16.7798 20.6996 16.728 20.8276 16.6358 20.922C16.5436 21.0163 16.4186 21.0694 16.2883 21.0696H15.4135C15.2832 21.0694 15.1582 21.0163 15.066 20.922C14.9738 20.8276 14.922 20.6996 14.9218 20.5661V20.5465C14.922 20.413 14.9738 20.285 15.066 20.1906C15.1582 20.0962 15.2832 20.0431 15.4135 20.0429H16.2883C16.4186 20.0431 16.5436 20.0962 16.6358 20.1906C16.728 20.285 16.7798 20.413 16.78 20.5465ZM22.2851 19.96C22.3842 19.5884 22.4344 19.2048 22.4343 18.8196V17.819H23.1035V18.7874C23.103 19.0457 23.024 19.2974 22.8773 19.5076C22.7306 19.7178 22.5236 19.876 22.2851 19.9601V19.96ZM24.4493 13.0101V15.4732C24.4489 15.8155 24.3159 16.1437 24.0795 16.3857C23.8431 16.6278 23.5226 16.764 23.1882 16.7643H22.4343V11.7189H23.1882C23.5226 11.7193 23.8431 11.8555 24.0795 12.0975C24.3159 12.3396 24.4489 12.6678 24.4493 13.0101ZM7.95326 8.9572C8.18977 7.05197 9.0962 5.30025 10.503 4.02978C11.9097 2.75932 13.7204 2.05716 15.5963 2.05469H15.9838C17.8338 2.05442 19.622 2.73593 21.0216 3.9746C22.4212 5.21327 23.3385 6.92634 23.6058 8.80054L23.8874 10.7765C23.6615 10.7021 23.4256 10.6642 23.1883 10.6642H21.9453C21.9427 10.6642 21.9402 10.6644 21.9377 10.6642H21.9193L21.9172 10.6644C21.9012 10.6644 21.8851 10.6653 21.8692 10.6669L21.8623 10.6677C21.8524 10.6688 21.8426 10.6694 21.8328 10.6712L21.4802 10.7331C19.0376 11.164 16.7304 11.5709 14.6503 10.1276L14.5566 10.0622C14.0383 9.69457 13.5717 9.2557 13.1702 8.75793C13.1114 8.68504 13.0346 8.62966 12.9478 8.59759C12.8609 8.56551 12.7673 8.55792 12.6766 8.5756C12.5859 8.59328 12.5015 8.63558 12.4323 8.69809C12.3631 8.76059 12.3115 8.841 12.283 8.9309C12.1226 9.43947 11.8074 9.88211 11.3835 10.194C10.9596 10.5059 10.4494 10.6707 9.92742 10.6643L9.92515 10.6644L9.92213 10.6642H8.6532C8.33109 10.6643 8.01267 10.7345 7.719 10.87L7.95326 8.9572ZM7.39217 13.01C7.39257 12.6677 7.52555 12.3396 7.76194 12.0976C7.99833 11.8556 8.31883 11.7194 8.65314 11.719H9.40699V16.7643H8.65314C8.3188 16.764 7.99826 16.6278 7.76185 16.3857C7.52544 16.1437 7.39247 15.8155 7.39211 15.4732L7.39217 13.01ZM5.6842 15.3161L5.68791 13.1634H6.36197V15.3183L5.6842 15.3161ZM7.34836 23.5624C7.02758 23.444 6.75555 23.2176 6.57678 22.9204C6.39802 22.6231 6.3231 22.2725 6.3643 21.9259L6.96151 17.0517C7.1756 17.2933 7.4367 17.4864 7.72804 17.6186C8.01937 17.7507 8.33449 17.819 8.65314 17.819H9.40699V18.8196C9.40473 19.547 9.58434 20.2629 9.92871 20.8992C10.2731 21.5354 10.7708 22.0709 11.3744 22.4545L12.0495 22.8869V24.7712C10.449 24.5199 8.87499 24.1151 7.34836 23.5624ZM12.2199 26.4561C12.3086 26.6234 12.4287 26.7711 12.5732 26.8909L15.4212 29.2555C15.5834 29.3914 15.7861 29.4666 15.9957 29.4687C16.2054 29.4708 16.4094 29.3996 16.5742 29.267L19.5477 26.8976C19.6902 26.7836 19.81 26.6427 19.9006 26.4824L21.6844 26.8259C21.6181 27.0324 21.4937 27.2143 21.3269 27.3488L16.0276 31.5714C16.006 31.5887 15.9791 31.598 15.9516 31.5977C15.9241 31.5974 15.8975 31.5876 15.8761 31.5698L10.7996 27.3544C10.6314 27.2147 10.5089 27.0258 10.4485 26.8128L12.2199 26.4561ZM29.6731 35.4985C29.5565 35.6387 29.4116 35.7512 29.2483 35.8284C29.085 35.9056 28.9073 35.9454 28.7274 35.9453H3.27195C3.08466 35.9453 2.89979 35.902 2.73119 35.8185C2.56258 35.735 2.4146 35.6135 2.29834 35.4632C2.18207 35.3129 2.10053 35.1376 2.05982 34.9504C2.01911 34.7632 2.02029 34.569 2.06326 34.3824C2.06536 34.3732 2.06722 34.3638 2.06882 34.3544L2.80324 30.1644C2.93721 29.5971 3.22701 29.081 3.63837 28.677C4.04974 28.273 4.56548 27.998 5.12463 27.8846L9.43446 27.017C9.54287 27.4727 9.79469 27.8792 10.1511 28.1739L15.2276 32.3891C15.4294 32.5578 15.6813 32.6511 15.9418 32.6537C16.2023 32.6563 16.4559 32.568 16.6608 32.4033L21.9602 28.1807C22.3265 27.8896 22.5879 27.482 22.7032 27.0222L27.0799 27.865C27.6809 27.9821 28.2323 28.2851 28.6597 28.7333C29.0872 29.1814 29.37 29.753 29.47 30.3709L29.9514 34.4526C29.9523 34.4593 29.9532 34.4659 29.9543 34.4727C29.9828 34.6543 29.9724 34.8401 29.9238 35.0173C29.8753 35.1944 29.7897 35.3586 29.673 35.4985H29.6731Z" fill="#1E1F27" stroke="#2D2D2D" stroke-width="0.5"/>
</svg>
