<svg width="55" height="55" viewBox="0 0 55 55" fill="none" xmlns="http://www.w3.org/2000/svg">
<circle cx="27.1717" cy="27.2022" r="26.6717" stroke="#4BBA72"/>
<path d="M40.555 19.0122C39.575 19.435 38.5086 19.7392 37.4101 19.8577C38.5506 19.1802 39.4046 18.1098 39.812 16.8473C38.7418 17.484 37.5695 17.9304 36.3469 18.1668C35.8359 17.6205 35.2179 17.1853 34.5314 16.8884C33.8449 16.5914 33.1046 16.439 32.3566 16.4406C29.3302 16.4406 26.8963 18.8937 26.8963 21.9041C26.8963 22.3268 26.9476 22.7495 27.0308 23.1563C22.4993 22.9193 18.4577 20.7544 15.7708 17.4398C15.2813 18.276 15.0247 19.2282 15.0279 20.1972C15.0279 22.093 15.9918 23.7647 17.4618 24.7479C16.5955 24.7138 15.7495 24.4757 14.9926 24.053V24.1202C14.9926 26.7751 16.8693 28.9752 19.3704 29.4812C18.9008 29.6032 18.4177 29.6656 17.9325 29.6669C17.577 29.6669 17.2408 29.6317 16.9013 29.5837C17.5931 31.7486 19.6074 33.321 22.0061 33.3722C20.1294 34.8422 17.7788 35.7069 15.2264 35.7069C14.7685 35.7069 14.3457 35.6908 13.907 35.6396C16.3281 37.1928 19.2007 38.0895 22.2943 38.0895C32.3374 38.0895 37.8329 29.7694 37.8329 22.5478C37.8329 22.3108 37.8329 22.0738 37.8168 21.8368C38.8801 21.0586 39.812 20.0947 40.555 19.0122Z" fill="#4BBA72"/>
</svg>
