<svg width="147" height="153" viewBox="0 0 147 153" fill="none" xmlns="http://www.w3.org/2000/svg">
<circle cx="73.9888" cy="43" r="40" stroke="#4BBA72" stroke-width="5"/>
<g clip-path="url(#clip0_1397_1642)">
<path d="M73.2786 61.7935C72.499 59.7404 71.8205 57.7207 70.9649 55.7806C70.3671 54.4262 69.2554 53.4442 67.9918 52.6692C67.2501 52.214 66.5099 51.7556 65.7745 51.2909C62.7935 49.4065 61.805 46.5322 61.9126 43.1804C61.9632 41.6175 62.2194 40.0609 63.0133 38.6652C63.2062 38.3262 63.4355 37.9649 63.7408 37.7453C64.0333 37.5336 64.522 37.3139 64.7845 37.4269C65.0376 37.5352 65.191 38.0524 65.2479 38.4137C65.4551 39.7188 65.5041 41.0573 65.7951 42.34C66.1968 44.113 67.0793 45.6282 68.773 46.7025C68.599 45.8669 68.3998 45.1443 68.3033 44.409C67.9823 41.9803 68.5801 39.7761 70.0508 37.8328C70.6565 37.0322 71.305 36.2556 72.0087 35.5441C74.2417 33.2921 74.7858 30.5897 74.2354 27.5594C73.9381 25.9233 73.4763 24.2856 73.4573 22.6431C73.4447 21.459 73.946 20.2287 74.411 19.1003C74.5976 18.6467 75.2776 18.2075 75.7774 18.1502C76.0494 18.1183 76.5728 18.8536 76.7088 19.3231C77.2924 21.3285 78.216 23.1619 79.2851 24.9349C82.1396 29.6618 81.4011 34.1945 78.5133 38.5824C77.963 39.418 77.2513 40.1453 76.6393 40.9427C75.6445 42.2414 74.9724 43.6737 74.887 45.4356C75.0641 45.3544 75.1622 45.3274 75.2381 45.2733C76.5444 44.3358 77.7985 43.3125 79.1633 42.469C82.4369 40.4461 84.0516 37.4524 84.4486 33.7059C84.5656 32.5998 84.5514 31.4793 84.6842 30.3764C84.7364 29.9451 84.9531 29.2607 85.2203 29.1923C85.6015 29.0968 86.2056 29.3483 86.5203 29.6554C86.9995 30.1218 87.4202 30.7154 87.6795 31.3329C89.1535 34.8486 89.4508 38.4455 88.2599 42.1172C87.4138 44.7289 85.6236 46.5306 83.37 47.9423C82.7216 48.3481 82.0748 48.7571 81.428 49.1678C77.6625 51.5519 75.7948 54.988 75.79 59.4603C75.79 60.2242 75.79 60.9882 75.79 61.8189C77.1105 61.9813 78.4406 62.1054 79.7563 62.3139C83.2894 62.8725 86.6832 63.8943 89.8904 65.505C89.9853 65.5527 90.077 65.6036 90.1704 65.653C90.7618 65.9729 90.9263 66.4917 90.6638 67.0631C90.3902 67.6599 89.862 67.792 89.2626 67.523C88.7818 67.3066 88.3184 67.0519 87.8329 66.8466C78.2255 62.7866 68.6781 62.9091 59.1972 67.2859C59.1007 67.3305 59.0074 67.3782 58.9125 67.4228C58.1582 67.7793 57.5477 67.644 57.2883 67.0615C57.0227 66.4662 57.2725 65.9044 58.0174 65.532C62.0264 63.5267 66.2822 62.411 70.7277 61.9908C71.5596 61.9128 72.3946 61.8619 73.2755 61.7951L73.2786 61.7935ZM75.9197 20.6664C75.8675 21.9508 76.0083 23.0999 76.4463 24.2299C76.9429 25.5111 77.4695 26.7938 77.7969 28.1228C78.5481 31.169 78.1258 34.0131 76.043 36.4848C75.4136 37.2328 74.8127 38.0063 74.2022 38.7686C72.9592 40.3204 72.2317 42.0806 72.1463 44.0812C72.0878 45.4833 72.3013 46.8377 72.9655 48.2128C73.519 47.4759 73.9223 46.8743 73.878 45.9863C73.7958 44.3311 74.2671 42.7698 75.1606 41.3899C75.8343 40.3506 76.6915 39.4355 77.4 38.4185C79.9145 34.8152 81.1386 30.9876 79.0985 26.7302C78.1322 24.7137 77.0267 22.7656 75.9213 20.668L75.9197 20.6664ZM74.9835 20.6282C74.8902 20.6218 74.7984 20.6155 74.7051 20.6091C74.6118 21.0866 74.4979 21.5608 74.4268 22.0431C74.1722 23.7779 74.7763 25.3933 75.121 27.0485C75.8533 30.5674 75.2634 33.733 72.6112 36.3431C72.0103 36.9336 71.4694 37.5956 70.9618 38.2705C68.8647 41.0604 68.5975 44.0462 70.2185 47.1338C70.5854 47.8325 71.2828 48.3561 71.8284 48.9593L72.0577 48.7826C72.004 48.6171 71.9549 48.4484 71.8948 48.2845C70.5411 44.6335 71.025 41.2594 73.4083 38.1766C74.0393 37.3601 74.7035 36.5707 75.3361 35.7558C76.2407 34.5924 76.954 33.3351 77.1042 31.8263C77.2956 29.9085 76.9461 28.0719 76.2218 26.3084C75.4737 24.4893 74.7083 22.6845 74.9819 20.6266L74.9835 20.6282ZM86.8319 32.0252C86.9141 33.4194 87.0833 34.8152 87.0596 36.2062C86.9963 39.9575 85.5335 42.9782 82.2851 45.0027C81.39 45.5613 80.5123 46.1486 79.6267 46.7216C76.4527 48.7731 74.6007 51.6347 74.3303 55.4655C74.2196 57.0427 74.2781 58.6072 74.7273 60.1399C74.8158 59.7961 74.8142 59.4555 74.8158 59.1165C74.8285 56.1451 75.7726 53.5063 77.5992 51.1763C78.7996 49.6452 80.4032 48.633 82.0147 47.6176C83.555 46.6483 85.1349 45.695 86.1566 44.1146C88.6632 40.2297 88.3279 36.1553 86.8319 32.0252ZM85.5809 32.3833C85.5572 32.6093 85.5256 32.8337 85.5098 33.0613C85.1682 37.6402 83.3083 41.2992 79.206 43.6021C78.9988 43.7183 78.8059 43.8568 78.6019 43.9793C75.0135 46.1581 72.8643 49.2744 72.4515 53.5254C72.2649 55.4448 72.6255 57.2719 73.3387 59.0465C73.3814 58.3828 73.3403 57.7271 73.3229 57.0714C73.1964 52.4686 74.8395 48.7476 78.7157 46.147C79.8323 45.3974 80.9599 44.6653 82.0874 43.9316C85.8782 41.4631 86.7164 37.0338 85.5809 32.3833ZM71.3002 54.3928C71.6908 53.4554 71.4125 52.8156 70.8273 52.3477C69.597 51.3641 68.3571 50.3853 67.0555 49.502C64.9221 48.0537 63.5889 46.1454 63.3754 43.5241C63.3153 42.7984 63.2869 42.0695 63.2442 41.3405C62.1988 45.5884 63.4672 48.7269 67.0919 50.9567C68.6196 51.8957 70.1679 52.7901 71.3002 54.3928ZM64.4825 41.1082C64.386 41.2291 64.337 41.2626 64.3338 41.3008C64.0365 44.4234 64.9569 46.9667 67.685 48.7365C68.9833 49.5784 70.1821 50.5747 71.4283 51.4978C71.5042 51.5535 71.6023 51.5805 71.694 51.6235C72.2206 50.0463 72.238 50.3805 71.063 49.4781C70.375 48.9497 69.6302 48.4929 68.8853 48.0457C66.6823 46.7263 65.3207 44.8037 64.7466 42.3018C64.6612 41.9278 64.5805 41.5522 64.4825 41.1098V41.1082Z" fill="#4BBA72"/>
<path d="M66.986 26.6268C69.0672 26.6172 70.6977 28.2358 70.7183 30.3303C70.7372 32.4072 69.0925 34.0847 67.035 34.0847C64.9633 34.0847 63.3185 32.4566 63.2885 30.378C63.2584 28.3281 64.9253 26.6379 66.9844 26.6283L66.986 26.6268ZM64.2911 30.3366C64.2943 31.8788 65.5358 33.1266 67.0397 33.1027C68.5216 33.0789 69.7504 31.8343 69.7488 30.3621C69.7456 28.8804 68.5168 27.6103 67.065 27.5865C65.5547 27.5626 64.2896 28.8183 64.2927 30.3366H64.2911Z" fill="#4BBA72"/>
<path d="M86.0996 19.9676C87.7143 19.9804 88.9874 21.2902 88.97 22.9183C88.9526 24.5322 87.6336 25.8118 86.0142 25.7879C84.4422 25.764 83.1897 24.4717 83.1865 22.8722C83.1849 21.2504 84.4849 19.9549 86.0996 19.9676ZM87.9705 22.9024C87.9831 21.8329 87.1529 20.9719 86.1012 20.9607C85.0558 20.9496 84.1797 21.8027 84.1623 22.8499C84.1449 23.8956 85.0021 24.7773 86.0474 24.7868C87.1165 24.7964 87.9578 23.9719 87.9705 22.9024Z" fill="#4BBA72"/>
<path d="M69.8547 19.4998C69.8547 21.112 68.5295 22.4426 66.9448 22.4187C65.3665 22.3948 64.0839 21.1104 64.0666 19.5364C64.0507 17.9051 65.3222 16.608 66.948 16.6C68.5848 16.5921 69.8532 17.8589 69.8547 19.4998ZM65.074 19.4011C65.0313 20.4738 65.822 21.3571 66.8752 21.4097C67.9095 21.4622 68.8252 20.6298 68.8806 19.5889C68.9343 18.5719 68.0772 17.617 67.0619 17.5597C66.0387 17.5024 65.1167 18.3571 65.0755 19.4011H65.074Z" fill="#4BBA72"/>
<path d="M67.0145 65.6545C67.9096 65.949 68.7573 66.1018 69.4769 66.4917C70.7547 67.184 70.7642 68.7803 69.5022 69.4981C67.848 70.4403 66.1194 70.4324 64.4731 69.4695C63.287 68.7756 63.2696 67.235 64.4668 66.557C65.2417 66.1177 66.1637 65.9442 67.0145 65.653V65.6545ZM67.0398 69.2737C67.6645 69.1018 68.3003 69.0127 68.8569 68.7533C69.6319 68.392 69.6445 67.6265 68.887 67.2493C67.6677 66.6429 66.3946 66.6524 65.1705 67.2429C64.9175 67.3639 64.6439 67.7586 64.6518 68.0196C64.6597 68.2838 64.9539 68.661 65.2132 68.7692C65.7825 69.0079 66.4088 69.1082 67.0414 69.2737H67.0398Z" fill="#4BBA72"/>
<path d="M60.6585 27.5736C59.1925 27.5482 58.095 26.3816 58.1392 24.8919C58.1819 23.4754 59.3617 22.3454 60.7661 22.3772C62.1783 22.4091 63.2917 23.5677 63.2885 25.0017C63.2853 26.4755 62.1372 27.5991 60.6585 27.5736ZM60.7455 23.3831C59.8773 23.3672 59.1213 24.0913 59.1024 24.9571C59.0834 25.815 59.8235 26.5901 60.6775 26.6092C61.5347 26.6283 62.2969 25.8898 62.3127 25.024C62.3286 24.147 61.6137 23.399 60.7439 23.3831H60.7455Z" fill="#4BBA72"/>
<path d="M80.1486 69.4917C79.3816 69.1591 78.583 68.9474 77.9472 68.5018C77.1723 67.9575 77.2292 66.9596 77.9251 66.3007C78.9847 65.298 81.3838 65.2805 82.4655 66.2657C83.2198 66.9516 83.2467 68.0259 82.3959 68.5798C81.7633 68.992 80.9773 69.167 80.1486 69.4917ZM80.3384 68.3633C80.68 68.2567 81.156 68.1771 81.564 67.9654C82.1824 67.6471 82.1982 67.1267 81.5609 66.8784C80.9742 66.6508 80.283 66.5267 79.6663 66.5999C79.2235 66.6524 78.8265 67.1012 78.4074 67.375C78.8012 67.663 79.1808 67.975 79.5935 68.2296C79.758 68.3315 80 68.3092 80.3368 68.3633H80.3384Z" fill="#4BBA72"/>
<path d="M73.9746 67.889C72.7679 67.8827 71.8428 67.2063 71.8365 66.3245C71.8301 65.4381 72.8549 64.7012 74.0442 64.7362C75.2445 64.7712 76.1744 65.4874 76.1412 66.3548C76.108 67.2365 75.1781 67.8954 73.9746 67.8906V67.889ZM73.992 67.133C74.4222 66.8179 74.7669 66.5649 75.1117 66.3102C74.7195 66.1176 74.3289 65.7818 73.9351 65.777C73.5824 65.7739 73.225 66.1367 72.8692 66.3373C73.2044 66.5744 73.5381 66.8116 73.992 67.1315V67.133Z" fill="#4BBA72"/>
<path d="M65.8456 29.7111C65.8282 30.927 66.2853 31.4284 67.1582 31.6321C67.4413 31.6973 67.6675 32.0045 67.9205 32.2003C67.6185 32.3371 67.3069 32.6061 67.0159 32.5854C65.7223 32.4947 64.7354 31.3122 64.8714 30.0183C64.9015 29.727 65.2146 29.4676 65.3981 29.1923C65.5989 29.4246 65.7998 29.657 65.8456 29.7095V29.7111Z" fill="#4BBA72"/>
<path d="M86.3132 24.3588C85.2631 24.3301 84.4945 23.4309 84.6858 22.616C84.738 22.3964 85.0306 22.2357 85.2124 22.0479C85.3595 22.2309 85.622 22.4075 85.6331 22.5969C85.6584 23.0855 85.8672 23.2877 86.3211 23.4023C86.5013 23.4484 86.7639 23.7874 86.7275 23.9243C86.6721 24.1344 86.3922 24.284 86.3132 24.3572V24.3588Z" fill="#4BBA72"/>
<path d="M67.1694 20.9927C66.151 20.929 65.4567 20.1205 65.5959 19.2993C65.6338 19.0749 65.8963 18.8902 66.0561 18.6881C66.2174 18.8775 66.3755 19.0685 66.5384 19.2579C66.7488 19.5014 66.9654 19.7401 67.1726 19.9884C67.3339 20.181 67.6265 20.4038 67.6043 20.5773C67.579 20.7683 67.258 20.9195 67.171 20.9943L67.1694 20.9927Z" fill="#4BBA72"/>
<path d="M59.4976 24.7391C59.5719 24.6484 59.7126 24.3316 59.9151 24.2839C60.0716 24.2473 60.3152 24.5401 60.5018 24.7072C60.6884 24.8759 60.8734 25.0558 61.0205 25.2595C61.1455 25.4314 61.3257 25.6733 61.2815 25.8277C61.2356 25.9868 60.9588 26.1651 60.7691 26.1826C60.1317 26.2383 59.5181 25.6017 59.4976 24.7407V24.7391Z" fill="#4BBA72"/>
</g>
<path d="M23.1903 122L18.2763 109.4H20.3643L25.4043 122H23.1903ZM13.1283 122L18.1503 109.4H20.2563L15.3423 122H13.1283ZM15.4863 118.904V117.05H23.0283V118.904H15.4863ZM26.6682 122V109.4H28.6842V122H26.6682ZM34.7922 125.834C34.1562 125.834 33.5802 125.78 33.0642 125.672C32.5602 125.564 32.1342 125.438 31.7862 125.294C31.4382 125.15 31.1682 125.012 30.9762 124.88L31.7502 123.26C31.9182 123.344 32.1402 123.446 32.4162 123.566C32.7042 123.698 33.0402 123.812 33.4242 123.908C33.8082 124.004 34.2402 124.052 34.7202 124.052C35.2362 124.052 35.6982 123.944 36.1062 123.728C36.5142 123.524 36.8322 123.206 37.0602 122.774C37.2882 122.342 37.4022 121.79 37.4022 121.118V113H39.4182V121.064C39.4182 122.084 39.2262 122.948 38.8422 123.656C38.4582 124.376 37.9182 124.916 37.2222 125.276C36.5262 125.648 35.7162 125.834 34.7922 125.834ZM34.4862 121.82C33.6702 121.82 32.9562 121.634 32.3442 121.262C31.7442 120.89 31.2702 120.374 30.9222 119.714C30.5862 119.042 30.4182 118.268 30.4182 117.392C30.4182 116.456 30.5862 115.646 30.9222 114.962C31.2702 114.278 31.7442 113.744 32.3442 113.36C32.9562 112.976 33.6702 112.784 34.4862 112.784C35.2182 112.784 35.8542 112.976 36.3942 113.36C36.9462 113.744 37.3722 114.284 37.6722 114.98C37.9722 115.664 38.1222 116.474 38.1222 117.41C38.1222 118.298 37.9722 119.072 37.6722 119.732C37.3722 120.392 36.9462 120.908 36.3942 121.28C35.8542 121.64 35.2182 121.82 34.4862 121.82ZM35.0442 120.11C35.5002 120.11 35.8962 119.99 36.2322 119.75C36.5802 119.51 36.8502 119.186 37.0422 118.778C37.2342 118.358 37.3302 117.878 37.3302 117.338C37.3302 116.786 37.2342 116.306 37.0422 115.898C36.8502 115.478 36.5802 115.154 36.2322 114.926C35.8842 114.686 35.4822 114.566 35.0262 114.566C34.5462 114.566 34.1202 114.686 33.7482 114.926C33.3882 115.154 33.1002 115.478 32.8842 115.898C32.6802 116.306 32.5782 116.786 32.5782 117.338C32.5782 117.878 32.6802 118.358 32.8842 118.778C33.1002 119.186 33.3942 119.51 33.7662 119.75C34.1382 119.99 34.5642 120.11 35.0442 120.11ZM47.1348 122L47.0448 120.308V117.374C47.0448 116.762 46.9788 116.252 46.8468 115.844C46.7268 115.424 46.5228 115.106 46.2348 114.89C45.9588 114.662 45.5868 114.548 45.1188 114.548C44.6868 114.548 44.3088 114.638 43.9848 114.818C43.6608 114.998 43.3848 115.28 43.1568 115.664L41.3928 115.016C41.5848 114.62 41.8368 114.254 42.1488 113.918C42.4728 113.57 42.8748 113.294 43.3548 113.09C43.8468 112.886 44.4348 112.784 45.1188 112.784C45.9948 112.784 46.7268 112.958 47.3148 113.306C47.9028 113.642 48.3348 114.128 48.6108 114.764C48.8988 115.4 49.0428 116.168 49.0428 117.068L48.9888 122H47.1348ZM44.5428 122.216C43.4628 122.216 42.6228 121.976 42.0228 121.496C41.4348 121.016 41.1408 120.338 41.1408 119.462C41.1408 118.526 41.4528 117.812 42.0768 117.32C42.7128 116.828 43.5948 116.582 44.7228 116.582H47.1348V118.13H45.3708C44.5668 118.13 44.0028 118.244 43.6788 118.472C43.3548 118.688 43.1928 119 43.1928 119.408C43.1928 119.756 43.3308 120.032 43.6068 120.236C43.8948 120.428 44.2908 120.524 44.7948 120.524C45.2508 120.524 45.6468 120.422 45.9828 120.218C46.3188 120.014 46.5768 119.744 46.7568 119.408C46.9488 119.072 47.0448 118.694 47.0448 118.274H47.6388C47.6388 119.498 47.3928 120.464 46.9008 121.172C46.4088 121.868 45.6228 122.216 44.5428 122.216ZM55.0983 122.216C54.2223 122.216 53.4423 122.018 52.7583 121.622C52.0863 121.214 51.5523 120.656 51.1563 119.948C50.7723 119.24 50.5803 118.424 50.5803 117.5C50.5803 116.576 50.7783 115.76 51.1743 115.052C51.5703 114.344 52.1103 113.792 52.7943 113.396C53.4903 112.988 54.2823 112.784 55.1703 112.784C55.9743 112.784 56.7003 112.994 57.3483 113.414C57.9963 113.822 58.5063 114.416 58.8783 115.196C59.2623 115.976 59.4543 116.906 59.4543 117.986H52.3803L52.6503 117.734C52.6503 118.286 52.7703 118.766 53.0103 119.174C53.2503 119.57 53.5683 119.876 53.9643 120.092C54.3603 120.308 54.7983 120.416 55.2783 120.416C55.8303 120.416 56.2863 120.296 56.6463 120.056C57.0063 119.804 57.2883 119.48 57.4923 119.084L59.2743 119.84C59.0223 120.32 58.6983 120.74 58.3023 121.1C57.9183 121.46 57.4563 121.736 56.9163 121.928C56.3883 122.12 55.7823 122.216 55.0983 122.216ZM52.7763 116.69L52.4883 116.438H57.5643L57.2943 116.69C57.2943 116.198 57.1863 115.796 56.9703 115.484C56.7543 115.16 56.4783 114.92 56.1423 114.764C55.8183 114.596 55.4763 114.512 55.1163 114.512C54.7563 114.512 54.3963 114.596 54.0363 114.764C53.6763 114.92 53.3763 115.16 53.1363 115.484C52.8963 115.796 52.7763 116.198 52.7763 116.69ZM60.8903 117.518V115.772H66.2903V117.518H60.8903ZM68.7767 122V109.4H73.2227C74.0867 109.4 74.8487 109.574 75.5087 109.922C76.1687 110.27 76.6847 110.756 77.0567 111.38C77.4287 111.992 77.6147 112.706 77.6147 113.522C77.6147 114.314 77.4407 115.022 77.0927 115.646C76.7447 116.27 76.2587 116.762 75.6347 117.122C75.0227 117.47 74.3087 117.644 73.4927 117.644H70.8647V122H68.7767ZM70.8647 115.718H73.4567C74.0567 115.718 74.5487 115.514 74.9327 115.106C75.3167 114.698 75.5087 114.17 75.5087 113.522C75.5087 112.862 75.2927 112.328 74.8607 111.92C74.4287 111.512 73.8707 111.308 73.1867 111.308H70.8647V115.718ZM83.0504 122.216C82.1504 122.216 81.3464 122.018 80.6384 121.622C79.9424 121.214 79.3964 120.656 79.0004 119.948C78.6044 119.24 78.4064 118.424 78.4064 117.5C78.4064 116.576 78.5984 115.76 78.9824 115.052C79.3784 114.344 79.9244 113.792 80.6204 113.396C81.3164 112.988 82.1144 112.784 83.0144 112.784C83.9144 112.784 84.7124 112.988 85.4084 113.396C86.1044 113.792 86.6444 114.344 87.0284 115.052C87.4244 115.76 87.6224 116.576 87.6224 117.5C87.6224 118.424 87.4304 119.24 87.0464 119.948C86.6624 120.656 86.1224 121.214 85.4264 121.622C84.7304 122.018 83.9384 122.216 83.0504 122.216ZM83.0504 120.362C83.5424 120.362 83.9804 120.242 84.3644 120.002C84.7484 119.75 85.0484 119.414 85.2644 118.994C85.4804 118.562 85.5884 118.064 85.5884 117.5C85.5884 116.936 85.4744 116.444 85.2464 116.024C85.0304 115.592 84.7304 115.256 84.3464 115.016C83.9624 114.764 83.5184 114.638 83.0144 114.638C82.5104 114.638 82.0664 114.758 81.6824 114.998C81.2984 115.238 80.9984 115.574 80.7824 116.006C80.5664 116.438 80.4584 116.936 80.4584 117.5C80.4584 118.064 80.5664 118.562 80.7824 118.994C81.0104 119.414 81.3164 119.75 81.7004 120.002C82.0964 120.242 82.5464 120.362 83.0504 120.362ZM97.3694 122L100.375 113H102.409L99.3494 122H97.3694ZM91.3394 122L94.2734 113H96.0554L93.1574 122H91.3394ZM91.1594 122L88.0994 113H90.1334L93.0674 122H91.1594ZM97.3514 122L94.4714 113H96.2534L99.1874 122H97.3514ZM107.481 122.216C106.605 122.216 105.825 122.018 105.141 121.622C104.469 121.214 103.935 120.656 103.539 119.948C103.155 119.24 102.963 118.424 102.963 117.5C102.963 116.576 103.161 115.76 103.557 115.052C103.953 114.344 104.493 113.792 105.177 113.396C105.873 112.988 106.665 112.784 107.553 112.784C108.357 112.784 109.083 112.994 109.731 113.414C110.379 113.822 110.889 114.416 111.261 115.196C111.645 115.976 111.837 116.906 111.837 117.986H104.763L105.033 117.734C105.033 118.286 105.153 118.766 105.393 119.174C105.633 119.57 105.951 119.876 106.347 120.092C106.743 120.308 107.181 120.416 107.661 120.416C108.213 120.416 108.669 120.296 109.029 120.056C109.389 119.804 109.671 119.48 109.875 119.084L111.657 119.84C111.405 120.32 111.081 120.74 110.685 121.1C110.301 121.46 109.839 121.736 109.299 121.928C108.771 122.12 108.165 122.216 107.481 122.216ZM105.159 116.69L104.871 116.438H109.947L109.677 116.69C109.677 116.198 109.569 115.796 109.353 115.484C109.137 115.16 108.861 114.92 108.525 114.764C108.201 114.596 107.859 114.512 107.499 114.512C107.139 114.512 106.779 114.596 106.419 114.764C106.059 114.92 105.759 115.16 105.519 115.484C105.279 115.796 105.159 116.198 105.159 116.69ZM114.713 117.212C114.713 116.24 114.899 115.442 115.271 114.818C115.643 114.194 116.123 113.732 116.711 113.432C117.311 113.12 117.935 112.964 118.583 112.964V114.89C118.031 114.89 117.509 114.968 117.017 115.124C116.537 115.268 116.147 115.508 115.847 115.844C115.547 116.18 115.397 116.624 115.397 117.176L114.713 117.212ZM113.381 122V113H115.397V122H113.381ZM123.934 122.216C123.058 122.216 122.278 122.018 121.594 121.622C120.922 121.214 120.388 120.656 119.992 119.948C119.608 119.24 119.416 118.424 119.416 117.5C119.416 116.576 119.614 115.76 120.01 115.052C120.406 114.344 120.946 113.792 121.63 113.396C122.326 112.988 123.118 112.784 124.006 112.784C124.81 112.784 125.536 112.994 126.184 113.414C126.832 113.822 127.342 114.416 127.714 115.196C128.098 115.976 128.29 116.906 128.29 117.986H121.216L121.486 117.734C121.486 118.286 121.606 118.766 121.846 119.174C122.086 119.57 122.404 119.876 122.8 120.092C123.196 120.308 123.634 120.416 124.114 120.416C124.666 120.416 125.122 120.296 125.482 120.056C125.842 119.804 126.124 119.48 126.328 119.084L128.11 119.84C127.858 120.32 127.534 120.74 127.138 121.1C126.754 121.46 126.292 121.736 125.752 121.928C125.224 122.12 124.618 122.216 123.934 122.216ZM121.612 116.69L121.324 116.438H126.4L126.13 116.69C126.13 116.198 126.022 115.796 125.806 115.484C125.59 115.16 125.314 114.92 124.978 114.764C124.654 114.596 124.312 114.512 123.952 114.512C123.592 114.512 123.232 114.596 122.872 114.764C122.512 114.92 122.212 115.16 121.972 115.484C121.732 115.796 121.612 116.198 121.612 116.69ZM136.332 122L136.242 120.326V109.4H138.24V122H136.332ZM133.398 122.216C132.582 122.216 131.868 122.024 131.256 121.64C130.656 121.244 130.182 120.692 129.834 119.984C129.498 119.276 129.33 118.448 129.33 117.5C129.33 116.54 129.498 115.712 129.834 115.016C130.182 114.308 130.656 113.762 131.256 113.378C131.868 112.982 132.582 112.784 133.398 112.784C134.154 112.784 134.802 112.982 135.342 113.378C135.894 113.762 136.314 114.308 136.602 115.016C136.89 115.712 137.034 116.54 137.034 117.5C137.034 118.448 136.89 119.276 136.602 119.984C136.314 120.692 135.894 121.244 135.342 121.64C134.802 122.024 134.154 122.216 133.398 122.216ZM133.902 120.38C134.358 120.38 134.76 120.26 135.108 120.02C135.468 119.768 135.744 119.426 135.936 118.994C136.14 118.562 136.242 118.064 136.242 117.5C136.242 116.936 136.14 116.438 135.936 116.006C135.744 115.574 135.468 115.238 135.108 114.998C134.76 114.758 134.352 114.638 133.884 114.638C133.404 114.638 132.978 114.758 132.606 114.998C132.234 115.238 131.94 115.574 131.724 116.006C131.52 116.438 131.412 116.936 131.4 117.5C131.412 118.064 131.52 118.562 131.724 118.994C131.94 119.426 132.234 119.768 132.606 120.02C132.99 120.26 133.422 120.38 133.902 120.38ZM28.1537 147V134.4H32.5997C33.4637 134.4 34.2257 134.574 34.8857 134.922C35.5457 135.27 36.0617 135.756 36.4337 136.38C36.8057 136.992 36.9917 137.706 36.9917 138.522C36.9917 139.314 36.8177 140.022 36.4697 140.646C36.1217 141.27 35.6357 141.762 35.0117 142.122C34.3997 142.47 33.6857 142.644 32.8697 142.644H30.2417V147H28.1537ZM30.2417 140.718H32.8337C33.4337 140.718 33.9257 140.514 34.3097 140.106C34.6937 139.698 34.8857 139.17 34.8857 138.522C34.8857 137.862 34.6697 137.328 34.2377 136.92C33.8057 136.512 33.2477 136.308 32.5637 136.308H30.2417V140.718ZM44.4404 147L44.3324 145.344V138H46.3304V147H44.4404ZM38.2124 142.608V138H40.2284V142.608H38.2124ZM40.2284 142.608C40.2284 143.316 40.3124 143.868 40.4804 144.264C40.6484 144.66 40.8764 144.936 41.1644 145.092C41.4644 145.248 41.8064 145.326 42.1904 145.326C42.8744 145.338 43.4024 145.116 43.7744 144.66C44.1464 144.204 44.3324 143.55 44.3324 142.698H45.0884C45.0884 143.646 44.9444 144.462 44.6564 145.146C44.3804 145.818 43.9844 146.334 43.4684 146.694C42.9644 147.042 42.3524 147.216 41.6324 147.216C40.9244 147.216 40.3124 147.072 39.7964 146.784C39.2924 146.496 38.9024 146.046 38.6264 145.434C38.3504 144.822 38.2124 144.036 38.2124 143.076V142.608H40.2284ZM49.9026 142.212C49.9026 141.24 50.0886 140.442 50.4606 139.818C50.8326 139.194 51.3126 138.732 51.9006 138.432C52.5006 138.12 53.1246 137.964 53.7726 137.964V139.89C53.2206 139.89 52.6986 139.968 52.2066 140.124C51.7266 140.268 51.3366 140.508 51.0366 140.844C50.7366 141.18 50.5866 141.624 50.5866 142.176L49.9026 142.212ZM48.5706 147V138H50.5866V147H48.5706ZM55.2357 147V138H57.2337V147H55.2357ZM56.2437 136.29C55.9197 136.29 55.6377 136.176 55.3977 135.948C55.1697 135.708 55.0557 135.426 55.0557 135.102C55.0557 134.778 55.1697 134.502 55.3977 134.274C55.6377 134.046 55.9197 133.932 56.2437 133.932C56.5677 133.932 56.8437 134.046 57.0717 134.274C57.3117 134.502 57.4317 134.778 57.4317 135.102C57.4317 135.426 57.3117 135.708 57.0717 135.948C56.8437 136.176 56.5677 136.29 56.2437 136.29ZM60.5097 147V137.046C60.5097 136.098 60.7437 135.372 61.2117 134.868C61.6917 134.352 62.4117 134.094 63.3717 134.094C63.6837 134.094 64.0137 134.148 64.3617 134.256C64.7217 134.352 65.0637 134.484 65.3877 134.652L64.6497 136.146C64.4217 136.038 64.2177 135.96 64.0377 135.912C63.8697 135.864 63.7197 135.84 63.5877 135.84C63.2277 135.84 62.9577 135.96 62.7777 136.2C62.6097 136.428 62.5257 136.806 62.5257 137.334V147H60.5097ZM58.9617 139.656V138H64.8837V139.656H58.9617ZM66.6439 147V138H68.6419V147H66.6439ZM67.6519 136.29C67.3279 136.29 67.0459 136.176 66.8059 135.948C66.5779 135.708 66.4639 135.426 66.4639 135.102C66.4639 134.778 66.5779 134.502 66.8059 134.274C67.0459 134.046 67.3279 133.932 67.6519 133.932C67.9759 133.932 68.2519 134.046 68.4799 134.274C68.7199 134.502 68.8399 134.778 68.8399 135.102C68.8399 135.426 68.7199 135.708 68.4799 135.948C68.2519 136.176 67.9759 136.29 67.6519 136.29ZM75.2299 147.216C74.3059 147.216 73.4899 147.018 72.7819 146.622C72.0739 146.214 71.5159 145.656 71.1079 144.948C70.7119 144.24 70.5139 143.424 70.5139 142.5C70.5139 141.576 70.7119 140.76 71.1079 140.052C71.5159 139.344 72.0679 138.792 72.7639 138.396C73.4719 137.988 74.2819 137.784 75.1939 137.784C76.0819 137.784 76.8859 138 77.6059 138.432C78.3259 138.852 78.8599 139.458 79.2079 140.25L77.3359 140.97C77.1439 140.574 76.8499 140.256 76.4539 140.016C76.0579 139.776 75.6079 139.656 75.1039 139.656C74.6119 139.656 74.1739 139.782 73.7899 140.034C73.4059 140.274 73.1059 140.61 72.8899 141.042C72.6739 141.462 72.5659 141.948 72.5659 142.5C72.5659 143.052 72.6739 143.544 72.8899 143.976C73.1179 144.396 73.4239 144.732 73.8079 144.984C74.2039 145.224 74.6479 145.344 75.1399 145.344C75.6439 145.344 76.0939 145.218 76.4899 144.966C76.8859 144.702 77.1799 144.348 77.3719 143.904L79.2439 144.624C78.8959 145.44 78.3619 146.076 77.6419 146.532C76.9339 146.988 76.1299 147.216 75.2299 147.216ZM86.2989 147L86.2089 145.308V142.374C86.2089 141.762 86.1429 141.252 86.0109 140.844C85.8909 140.424 85.6869 140.106 85.3989 139.89C85.1229 139.662 84.7509 139.548 84.2829 139.548C83.8509 139.548 83.4729 139.638 83.1489 139.818C82.8249 139.998 82.5489 140.28 82.3209 140.664L80.5569 140.016C80.7489 139.62 81.0009 139.254 81.3129 138.918C81.6369 138.57 82.0389 138.294 82.5189 138.09C83.0109 137.886 83.5989 137.784 84.2829 137.784C85.1589 137.784 85.8909 137.958 86.4789 138.306C87.0669 138.642 87.4989 139.128 87.7749 139.764C88.0629 140.4 88.2069 141.168 88.2069 142.068L88.1529 147H86.2989ZM83.7069 147.216C82.6269 147.216 81.7869 146.976 81.1869 146.496C80.5989 146.016 80.3049 145.338 80.3049 144.462C80.3049 143.526 80.6169 142.812 81.2409 142.32C81.8769 141.828 82.7589 141.582 83.8869 141.582H86.2989V143.13H84.5349C83.7309 143.13 83.1669 143.244 82.8429 143.472C82.5189 143.688 82.3569 144 82.3569 144.408C82.3569 144.756 82.4949 145.032 82.7709 145.236C83.0589 145.428 83.4549 145.524 83.9589 145.524C84.4149 145.524 84.8109 145.422 85.1469 145.218C85.4829 145.014 85.7409 144.744 85.9209 144.408C86.1129 144.072 86.2089 143.694 86.2089 143.274H86.8029C86.8029 144.498 86.5569 145.464 86.0649 146.172C85.5729 146.868 84.7869 147.216 83.7069 147.216ZM93.8303 147.216C92.8823 147.216 92.1563 146.982 91.6523 146.514C91.1603 146.034 90.9143 145.35 90.9143 144.462V135.192H92.9123V144.084C92.9123 144.504 93.0083 144.822 93.2003 145.038C93.4043 145.254 93.6983 145.362 94.0823 145.362C94.2023 145.362 94.3343 145.338 94.4783 145.29C94.6223 145.242 94.7843 145.152 94.9643 145.02L95.7023 146.55C95.3903 146.766 95.0783 146.928 94.7663 147.036C94.4543 147.156 94.1423 147.216 93.8303 147.216ZM89.4203 139.728V138H95.3423V139.728H89.4203ZM97.4407 147V138H99.4387V147H97.4407ZM98.4487 136.29C98.1247 136.29 97.8427 136.176 97.6027 135.948C97.3747 135.708 97.2607 135.426 97.2607 135.102C97.2607 134.778 97.3747 134.502 97.6027 134.274C97.8427 134.046 98.1247 133.932 98.4487 133.932C98.7727 133.932 99.0487 134.046 99.2767 134.274C99.5167 134.502 99.6367 134.778 99.6367 135.102C99.6367 135.426 99.5167 135.708 99.2767 135.948C99.0487 136.176 98.7727 136.29 98.4487 136.29ZM105.955 147.216C105.055 147.216 104.251 147.018 103.543 146.622C102.847 146.214 102.301 145.656 101.905 144.948C101.509 144.24 101.311 143.424 101.311 142.5C101.311 141.576 101.503 140.76 101.887 140.052C102.283 139.344 102.829 138.792 103.525 138.396C104.221 137.988 105.019 137.784 105.919 137.784C106.819 137.784 107.617 137.988 108.313 138.396C109.009 138.792 109.549 139.344 109.933 140.052C110.329 140.76 110.527 141.576 110.527 142.5C110.527 143.424 110.335 144.24 109.951 144.948C109.567 145.656 109.027 146.214 108.331 146.622C107.635 147.018 106.843 147.216 105.955 147.216ZM105.955 145.362C106.447 145.362 106.885 145.242 107.269 145.002C107.653 144.75 107.953 144.414 108.169 143.994C108.385 143.562 108.493 143.064 108.493 142.5C108.493 141.936 108.379 141.444 108.151 141.024C107.935 140.592 107.635 140.256 107.251 140.016C106.867 139.764 106.423 139.638 105.919 139.638C105.415 139.638 104.971 139.758 104.587 139.998C104.203 140.238 103.903 140.574 103.687 141.006C103.471 141.438 103.363 141.936 103.363 142.5C103.363 143.064 103.471 143.562 103.687 143.994C103.915 144.414 104.221 144.75 104.605 145.002C105.001 145.242 105.451 145.362 105.955 145.362ZM112.274 147V138H114.164L114.29 139.656V147H112.274ZM118.376 147V142.392H120.392V147H118.376ZM118.376 142.392C118.376 141.672 118.292 141.12 118.124 140.736C117.968 140.34 117.74 140.064 117.44 139.908C117.152 139.752 116.81 139.674 116.414 139.674C115.742 139.662 115.22 139.884 114.848 140.34C114.476 140.796 114.29 141.45 114.29 142.302H113.534C113.534 141.354 113.672 140.544 113.948 139.872C114.224 139.188 114.62 138.672 115.136 138.324C115.652 137.964 116.264 137.784 116.972 137.784C117.692 137.784 118.304 137.928 118.808 138.216C119.324 138.504 119.714 138.954 119.978 139.566C120.254 140.166 120.392 140.952 120.392 141.924V142.392H118.376Z" fill="#4BBA72"/>
<defs>
<clipPath id="clip0_1397_1642">
<rect width="33.6" height="53.6" fill="white" transform="translate(57.1887 16.6)"/>
</clipPath>
</defs>
</svg>
