<svg width="147" height="153" viewBox="0 0 147 153" fill="none" xmlns="http://www.w3.org/2000/svg">
<circle cx="73.9888" cy="43" r="40" stroke="#4BBA72" stroke-width="5"/>
<g clip-path="url(#clip0_1397_1677)">
<path d="M68.8882 23H80.6197C81.2468 23.0458 81.8374 23.216 82.3948 23.5046C82.5377 23.5786 82.6711 23.6641 82.8005 23.7563C83.2488 24.0765 83.6504 24.4439 83.9579 24.9048C84.4326 25.5655 84.7571 26.3124 85.1702 27.0087C85.1966 27.0619 85.2217 27.1157 85.2487 27.1689C85.349 27.395 85.481 27.6049 85.603 27.8195C85.8109 28.2495 86.0567 28.6599 86.2694 29.0878C86.3899 29.33 86.4177 29.3334 86.6554 29.2177C87.0333 29.0333 87.4011 28.8288 87.7776 28.6424C87.798 28.6303 87.8189 28.6202 87.8406 28.6108C87.9889 28.5724 88.1075 28.4769 88.2395 28.4062C88.4982 28.2824 88.7373 28.1203 88.9994 28.0019C89.0773 27.9749 89.164 27.9218 89.2229 28.022C89.2723 28.1068 89.2148 28.1822 89.1721 28.2542C88.7915 28.8954 88.3912 29.5251 88.0228 30.1738C87.6456 30.7961 87.2629 31.4151 86.9026 32.0476C86.2159 33.1423 85.5671 34.2592 84.9027 35.3674C84.8918 35.3896 84.8796 35.4104 84.8661 35.4313C84.7929 35.5315 84.7198 35.6325 84.669 35.7468C84.6575 35.7724 84.644 35.7966 84.6311 35.8215C84.5004 36.1452 84.2647 36.2569 83.9139 36.2454C83.2982 36.2259 82.6819 36.2488 82.0656 36.2421C79.9268 36.1849 77.7874 36.1936 75.6486 36.1882C75.4298 36.1882 75.209 36.234 74.9937 36.164C74.8305 36.0328 74.9903 35.9796 75.0641 35.9285C75.3824 35.7078 75.7211 35.5181 76.0461 35.3088C76.4423 35.0538 76.844 34.8076 77.2435 34.5573C77.4013 34.4584 77.442 34.3702 77.3262 34.2202C77.2645 34.1401 77.2232 34.0473 77.1765 33.9585C76.8521 33.3307 76.4823 32.7272 76.1613 32.0974C75.463 30.8318 74.7763 29.5595 74.074 28.2959C73.3479 26.9899 72.5196 25.76 71.4252 24.7211C70.7452 24.0759 69.9813 23.5645 69.1225 23.1877C69.0311 23.1474 68.8977 23.148 68.8902 23.0007L68.8882 23Z" fill="#4BBA72"/>
<path d="M94.7886 44.7453V45.906C94.6152 47.1285 93.81 47.876 92.8239 48.4876C92.767 48.5233 92.7067 48.5529 92.6485 48.5879C91.5784 49.1726 90.4257 49.4949 89.2216 49.653C89.0963 49.6691 88.973 49.6987 88.8464 49.7075C88.2321 49.7815 87.6144 49.7512 86.9981 49.7606C86.7177 49.7653 86.4421 49.7263 86.1644 49.7068C86.0093 49.696 85.9274 49.6052 85.8542 49.4828C85.3652 48.668 84.8945 47.8424 84.4035 47.0289C84.2241 46.7759 84.0947 46.494 83.9369 46.2289C83.8387 46.017 83.6911 45.8326 83.5868 45.6241C83.5461 45.5534 83.4987 45.4861 83.4635 45.4128C83.2129 44.9627 82.9264 44.5334 82.6772 44.0826C82.6636 44.0624 82.6521 44.0415 82.6406 44.02C82.2884 43.4367 81.9586 42.8399 81.6031 42.2585C81.4351 41.984 81.4568 41.877 81.7473 41.7082C82.3311 41.3684 82.9122 41.0252 83.4919 40.6794C84.4198 40.1263 85.3497 39.5759 86.2768 39.0222C87.458 38.3171 88.6452 37.6214 89.8304 36.923C89.9395 36.8584 90.0458 36.7904 90.1548 36.7251C90.3729 36.5946 90.4657 36.6121 90.5889 36.8261C90.681 36.9862 90.7833 37.1416 90.8639 37.3085C90.9939 37.5494 91.1233 37.7902 91.2689 38.0224C91.4226 38.3305 91.6062 38.6219 91.7721 38.9233C91.8121 38.9966 91.8473 39.0727 91.8886 39.146C92.295 39.8821 92.7013 40.6188 93.1077 41.3556C93.6292 42.2242 94.0836 43.1305 94.599 44.0025C94.7351 44.2326 94.7297 44.4971 94.7893 44.746L94.7886 44.7453Z" fill="#4BBA72"/>
<path d="M77.6115 50.8492C78.1221 49.9335 78.6335 49.0171 79.1434 48.1007C79.2403 47.9271 79.3331 47.7508 79.4333 47.5645C79.5491 47.629 79.5539 47.7306 79.5606 47.8363C79.6121 48.6403 79.6731 49.4444 79.715 50.2491C79.7259 50.459 79.8038 50.5074 80.0049 50.5068C82.3564 50.4946 84.7071 50.5 87.0586 50.4832C88.5431 50.4724 90.0101 50.313 91.4255 49.8373C91.8888 49.6819 92.3432 49.5002 92.7577 49.2344C93.1986 49.046 93.5548 48.7271 93.9876 48.4412C93.9226 48.5952 93.8732 48.7137 93.8237 48.8321C93.7763 48.8509 93.775 48.892 93.7736 48.9337C93.4478 49.4174 93.2067 49.9483 92.9243 50.4563C92.5918 51.0538 92.2769 51.6613 91.9538 52.2642C91.9179 52.5017 91.7709 52.6908 91.6667 52.8967C91.4736 53.2775 91.2352 53.6341 91.0524 54.021C91.0239 54.0809 90.9921 54.1421 90.9203 54.165C90.5444 54.7497 90.2519 55.3808 89.9092 55.9843C89.8516 56.0859 89.8042 56.1929 89.752 56.2972C89.7724 56.388 89.7283 56.4634 89.685 56.534C89.3477 57.0877 89.0843 57.6825 88.7368 58.2309C88.3047 58.9205 87.792 59.5369 87.0992 59.9883C86.8581 60.1451 86.5967 60.2622 86.3366 60.3833C86.0928 60.4573 85.8531 60.5448 85.6045 60.6073C85.0512 60.7359 84.4863 60.7379 83.9235 60.7648C83.8152 60.7702 83.7028 60.7702 83.6154 60.6847C82.4491 60.6242 81.2815 60.6639 80.1146 60.6396C79.9297 60.6356 79.965 60.752 79.9636 60.8556C79.9521 61.7296 79.9413 62.6043 79.9311 63.4783C79.9297 63.5786 79.9311 63.6782 79.8762 63.8013C79.8024 63.6862 79.7279 63.5719 79.6554 63.4561C79.2057 62.7402 78.8136 61.9887 78.3402 61.2869C78.1506 61.1772 78.1052 60.9653 77.9995 60.7984C77.7171 60.3517 77.4435 59.8988 77.176 59.442C76.7351 58.7019 76.2935 57.9618 75.8547 57.221C75.5851 56.7937 75.3406 56.3517 75.0657 55.9278C74.9573 55.7609 74.8957 55.5961 75.0399 55.4191C75.4503 54.7005 75.8269 53.9631 76.2421 53.2465C76.3287 53.1019 76.3958 52.9471 76.4757 52.7991C76.7419 52.3147 77.0317 51.843 77.2803 51.3485C77.3697 51.1702 77.4503 50.9831 77.6115 50.8499V50.8492Z" fill="#4BBA72"/>
<path d="M65.336 24.0112C65.6739 23.8255 65.997 23.6109 66.3769 23.5079C67.3623 23.2401 68.2847 23.4258 69.1652 23.8901C70.4303 24.5582 71.3988 25.5513 72.2339 26.6864C72.7878 27.44 73.2464 28.2481 73.6398 29.0958C73.7347 29.2997 73.7319 29.4524 73.6128 29.6449C72.7201 31.0861 71.8356 32.5327 70.9525 33.9793C70.4987 34.7234 70.0524 35.4723 69.6034 36.2184C69.5424 36.4977 69.3636 36.7157 69.2051 36.9391C69.0954 37.0938 68.943 37.0003 68.8191 36.929C68.4161 36.6995 68.0227 36.4539 67.6237 36.2164C67.2465 35.9924 66.8666 35.7724 66.4887 35.5496C65.7674 35.0955 65.0129 34.6958 64.2842 34.2531C63.6496 33.8709 63.013 33.4908 62.3689 33.1234C61.6984 32.6989 60.9968 32.3261 60.3222 31.9083C60.0852 31.7609 60.075 31.7387 60.2308 31.4992C60.566 30.9845 60.8884 30.4617 61.2284 29.9496C61.5528 29.4127 61.9212 28.9041 62.2375 28.3618C62.6222 27.8329 62.9567 27.2711 63.311 26.7221C63.4383 26.5377 63.5642 26.352 63.6774 26.1576C64.0309 25.6368 64.358 25.0999 64.7068 24.5764C64.8693 24.3328 65.0739 24.1417 65.336 24.0112Z" fill="#4BBA72"/>
<path d="M53.1887 45.9113C53.1887 45.6732 53.1887 45.4343 53.1887 45.1961C53.2707 44.3443 53.5802 43.5746 54.0251 42.8486C54.7146 41.7256 55.3932 40.5973 56.082 39.4737C56.1592 39.3478 56.1856 39.2671 56.0339 39.1769C55.4271 38.8163 54.8263 38.4469 54.2229 38.0802C53.9899 37.9309 53.7569 37.7815 53.5213 37.6294C53.5768 37.5325 53.6614 37.5736 53.7265 37.5736C56.7768 37.5763 59.8272 37.5823 62.8776 37.583C63.0239 37.583 63.1079 37.6294 63.1763 37.7519C63.2779 37.9342 63.3943 38.1085 63.5041 38.2861C63.6294 38.3325 63.6646 38.4557 63.7208 38.5539C64.0256 39.0868 64.3527 39.6062 64.6588 40.1377C65.311 41.2237 65.9334 42.3265 66.5944 43.407C66.9594 43.9998 67.296 44.6094 67.6665 45.1995C67.7085 45.3327 67.9002 45.4639 67.7654 45.5958C67.6252 45.7317 67.4796 45.5628 67.3434 45.4996C67.3136 45.4854 67.2845 45.47 67.2534 45.4572C66.6452 45.1544 66.0485 44.8294 65.4343 44.5381C65.3963 44.5199 65.357 44.5024 65.3239 44.4775C65.1742 44.3685 65.0726 44.3961 64.9852 44.5637C64.7956 44.9283 64.5545 45.2634 64.354 45.622C63.926 46.346 63.4939 47.0673 63.053 47.7838C62.5288 48.6363 62.0486 49.5144 61.515 50.3608C61.1919 50.928 60.8641 51.4918 60.5959 52.088C60.2756 52.8139 59.981 53.5487 59.8062 54.3258C59.5699 55.2523 59.5028 56.1896 59.6125 57.1396C59.6146 57.1564 59.6186 57.1732 59.6166 57.1894C59.5997 57.2957 59.7067 57.4572 59.5604 57.4975C59.4364 57.5319 59.3809 57.3744 59.322 57.2755C59.0904 56.8691 58.8493 56.4681 58.6041 56.0705C58.5384 55.946 58.4788 55.8181 58.3941 55.7038C58.3007 55.5282 58.1937 55.3599 58.0846 55.1931C57.7318 54.562 57.3369 53.9557 56.9699 53.3334C56.5554 52.5919 56.0948 51.8774 55.6668 51.144C55.4264 50.7322 55.1717 50.3285 54.974 49.8938C54.653 49.328 54.3272 48.7642 53.9635 48.2239C53.7928 47.7986 53.545 47.407 53.4129 46.9637C53.31 46.6171 53.2239 46.27 53.1901 45.91L53.1887 45.9113Z" fill="#4BBA72"/>
<path d="M72.2495 36.3343C72.3646 36.088 72.4798 35.8424 72.6146 35.5544C72.8238 36.5798 73.2837 37.4364 73.8661 38.2343C74.0483 38.3857 74.1614 38.593 74.3036 38.776C74.4316 38.9704 74.5847 39.1467 74.7161 39.3385C75.2267 39.9972 75.7401 40.6545 76.2359 41.3247C76.3916 41.5353 76.5386 41.7499 76.6619 41.9807C76.9863 42.5089 77.2199 43.074 77.3337 43.6816C77.499 44.5597 77.4204 45.4135 77.0499 46.2364C76.6754 47.0687 76.0997 47.7375 75.3717 48.2791C75.2064 48.4022 75.178 48.5186 75.2545 48.7063C75.497 49.3058 75.6487 49.9356 75.8458 50.5499C75.9325 50.8863 75.9121 50.9428 75.6419 51.1063C75.5105 51.1359 75.3873 51.1965 75.2525 51.212C75.0121 51.2396 74.9206 51.1703 74.9152 50.9294C74.9078 50.5613 74.9132 50.194 74.8231 49.8313C74.7581 49.5709 74.687 49.3132 74.6132 49.0555C74.5353 48.7851 74.3903 48.6115 74.0991 48.5819C73.9264 48.5099 73.7496 48.4459 73.5803 48.3639C71.9529 47.5639 71.0948 46.1798 70.685 44.4951C70.5049 43.7543 70.5266 42.9852 70.6112 42.2155C70.8042 40.4641 71.3014 38.7941 71.8858 37.143C72.0274 36.8826 72.0551 36.5711 72.2482 36.3336L72.2495 36.3343Z" fill="#4BBA72"/>
<path d="M60.7666 53.4297C60.9319 53.0408 61.0978 52.6519 61.2631 52.2623C61.6559 51.5114 62.0887 50.7841 62.5932 50.1005C63.1357 50.0581 63.6768 49.9955 64.2234 50.0123C66.1292 50.0709 68.0357 50.0944 69.9422 50.0628C70.1616 50.0588 70.381 50.0816 70.6005 50.0688C70.8815 50.0628 71.1633 50.0527 71.4443 50.0783C71.6367 50.1052 71.6543 50.2445 71.6516 50.3965C71.6434 50.9341 71.6685 51.471 71.6631 52.0086C71.6502 53.1841 71.6434 54.3595 71.6678 55.5349C71.6753 55.9057 71.5886 56.2697 71.6082 56.6364C71.6692 57.7587 71.6604 58.8823 71.6522 60.0053C71.6488 60.5334 71.6251 60.5355 71.1003 60.5617C70.5835 60.5873 70.0823 60.3969 69.5636 60.4614C68.9229 60.555 68.2876 60.4493 67.6496 60.413C67.3205 60.3942 66.9907 60.4251 66.6608 60.4157C66.5349 60.4123 66.4048 60.4278 66.2985 60.3363C65.5555 60.3047 64.8126 60.236 64.0703 60.2502C63.0395 60.2704 62.09 60.09 61.2814 59.4118C60.0785 58.1704 60.0657 56.666 60.3163 55.103C60.4084 54.5297 60.6055 53.9847 60.7666 53.4297Z" fill="#4BBA72"/>
<path d="M73.5106 41.9948C73.5038 41.9995 73.4964 42.0042 73.4903 42.0103C73.0683 42.451 73.0623 42.9408 73.2946 43.4737C73.39 43.6931 73.4117 43.9413 73.5221 44.1761C73.7883 43.9999 73.9325 43.7361 74.1181 43.51C74.2414 43.469 74.2603 43.5269 74.2326 43.6291C74.0199 43.9063 73.8831 44.2273 73.7077 44.526C73.6799 44.5731 73.6596 44.6424 73.6731 44.6922C73.7578 45.0064 73.8506 45.3179 73.9454 45.6288C73.986 45.7607 74.0477 45.7351 74.114 45.6423C74.2651 45.433 74.4188 45.2258 74.5712 45.0179C74.6707 45.0179 74.6592 45.0784 74.6403 45.143C74.4987 45.3994 74.3626 45.6597 74.2136 45.9114C74.1303 46.052 74.1208 46.1825 74.1608 46.3413C74.2915 46.8628 74.475 47.3667 74.6423 47.8761C74.668 47.9534 74.7168 48.0288 74.6674 48.1183C74.54 48.1089 74.5373 47.9992 74.5089 47.9205C74.2935 47.3203 74.0653 46.7242 73.8784 46.1153C73.7713 45.7654 73.6088 45.4942 73.2661 45.3395C73.1523 45.2883 73.0548 45.2029 72.9498 45.1329C72.92 45.1053 72.8848 45.073 72.9078 45.032C72.9309 44.991 72.9756 44.999 73.0148 45.0158C73.1848 45.0596 73.3271 45.1787 73.5499 45.2022C73.4259 44.7804 73.3528 44.3551 73.172 43.9817C73.0636 43.759 72.7527 43.6648 72.5232 43.5282C72.473 43.4986 72.4168 43.4804 72.3823 43.4293C72.3714 43.3876 72.3112 43.3486 72.3654 43.3028C72.4073 43.2678 72.4561 43.2853 72.5008 43.3075C72.6789 43.3492 72.8279 43.4764 73.0406 43.4925C72.855 42.8197 72.8421 42.091 72.1852 41.6517C72.1825 41.5669 72.2184 41.5568 72.2834 41.6012C72.3538 41.651 72.425 41.7008 72.4954 41.7506C72.5665 41.7842 72.6322 41.791 72.6288 41.6873C72.6268 41.6227 72.6376 41.5548 72.6098 41.4915C72.58 41.1228 72.5421 40.7541 72.5983 40.3841C72.6667 40.2764 72.58 40.1398 72.6762 40.0052C72.7873 40.2387 72.6654 40.4762 72.7555 40.6841C72.8347 41.1248 72.8428 41.5763 72.9471 42.0137C72.9641 42.0857 72.9471 42.1926 73.0169 42.2162C73.1063 42.2465 73.1483 42.1368 73.2065 42.083C73.2729 42.0211 73.3359 41.9558 73.4002 41.8919C73.4957 41.8643 73.5546 41.8757 73.5113 41.9955L73.5106 41.9948Z" fill="#EEF5EF"/>
</g>
<path d="M25.6576 122V109.4H33.4156V111.308H27.7456V114.656H32.7496V116.528H27.7456V120.092H33.4696V122H25.6576ZM40.1088 122.216C39.1848 122.216 38.3688 122.018 37.6608 121.622C36.9528 121.214 36.3948 120.656 35.9868 119.948C35.5908 119.24 35.3928 118.424 35.3928 117.5C35.3928 116.576 35.5908 115.76 35.9868 115.052C36.3948 114.344 36.9468 113.792 37.6428 113.396C38.3508 112.988 39.1608 112.784 40.0728 112.784C40.9608 112.784 41.7648 113 42.4848 113.432C43.2048 113.852 43.7388 114.458 44.0868 115.25L42.2148 115.97C42.0228 115.574 41.7288 115.256 41.3328 115.016C40.9368 114.776 40.4868 114.656 39.9828 114.656C39.4908 114.656 39.0528 114.782 38.6688 115.034C38.2848 115.274 37.9848 115.61 37.7688 116.042C37.5528 116.462 37.4448 116.948 37.4448 117.5C37.4448 118.052 37.5528 118.544 37.7688 118.976C37.9968 119.396 38.3028 119.732 38.6868 119.984C39.0828 120.224 39.5268 120.344 40.0188 120.344C40.5228 120.344 40.9728 120.218 41.3688 119.966C41.7648 119.702 42.0588 119.348 42.2508 118.904L44.1228 119.624C43.7748 120.44 43.2408 121.076 42.5208 121.532C41.8128 121.988 41.0088 122.216 40.1088 122.216ZM49.8278 122.216C48.9278 122.216 48.1238 122.018 47.4158 121.622C46.7198 121.214 46.1738 120.656 45.7778 119.948C45.3818 119.24 45.1838 118.424 45.1838 117.5C45.1838 116.576 45.3758 115.76 45.7598 115.052C46.1558 114.344 46.7018 113.792 47.3978 113.396C48.0938 112.988 48.8918 112.784 49.7918 112.784C50.6918 112.784 51.4898 112.988 52.1858 113.396C52.8818 113.792 53.4218 114.344 53.8058 115.052C54.2018 115.76 54.3998 116.576 54.3998 117.5C54.3998 118.424 54.2078 119.24 53.8238 119.948C53.4398 120.656 52.8998 121.214 52.2038 121.622C51.5078 122.018 50.7158 122.216 49.8278 122.216ZM49.8278 120.362C50.3198 120.362 50.7578 120.242 51.1418 120.002C51.5258 119.75 51.8258 119.414 52.0418 118.994C52.2578 118.562 52.3658 118.064 52.3658 117.5C52.3658 116.936 52.2518 116.444 52.0238 116.024C51.8078 115.592 51.5078 115.256 51.1238 115.016C50.7398 114.764 50.2958 114.638 49.7918 114.638C49.2878 114.638 48.8438 114.758 48.4598 114.998C48.0758 115.238 47.7758 115.574 47.5598 116.006C47.3438 116.438 47.2358 116.936 47.2358 117.5C47.2358 118.064 47.3438 118.562 47.5598 118.994C47.7878 119.414 48.0938 119.75 48.4778 120.002C48.8738 120.242 49.3238 120.362 49.8278 120.362ZM56.0388 117.518V115.772H61.4388V117.518H56.0388ZM63.9252 122V109.4H71.7552V111.308H66.0132V114.836H70.9272V116.744H66.0132V122H63.9252ZM74.5999 117.212C74.5999 116.24 74.7859 115.442 75.1579 114.818C75.5299 114.194 76.0099 113.732 76.5979 113.432C77.1979 113.12 77.8219 112.964 78.4699 112.964V114.89C77.9179 114.89 77.3959 114.968 76.9039 115.124C76.4239 115.268 76.0339 115.508 75.7339 115.844C75.4339 116.18 75.2839 116.624 75.2839 117.176L74.5999 117.212ZM73.2679 122V113H75.2839V122H73.2679ZM79.9329 122V113H81.9309V122H79.9329ZM80.9409 111.29C80.6169 111.29 80.3349 111.176 80.0949 110.948C79.8669 110.708 79.7529 110.426 79.7529 110.102C79.7529 109.778 79.8669 109.502 80.0949 109.274C80.3349 109.046 80.6169 108.932 80.9409 108.932C81.2649 108.932 81.5409 109.046 81.7689 109.274C82.0089 109.502 82.1289 109.778 82.1289 110.102C82.1289 110.426 82.0089 110.708 81.7689 110.948C81.5409 111.176 81.2649 111.29 80.9409 111.29ZM88.3209 122.216C87.4449 122.216 86.6649 122.018 85.9809 121.622C85.3089 121.214 84.7749 120.656 84.3789 119.948C83.9949 119.24 83.8029 118.424 83.8029 117.5C83.8029 116.576 84.0009 115.76 84.3969 115.052C84.7929 114.344 85.3329 113.792 86.0169 113.396C86.7129 112.988 87.5049 112.784 88.3929 112.784C89.1969 112.784 89.9229 112.994 90.5709 113.414C91.2189 113.822 91.7289 114.416 92.1009 115.196C92.4849 115.976 92.6769 116.906 92.6769 117.986H85.6029L85.8729 117.734C85.8729 118.286 85.9929 118.766 86.2329 119.174C86.4729 119.57 86.7909 119.876 87.1869 120.092C87.5829 120.308 88.0209 120.416 88.5009 120.416C89.0529 120.416 89.5089 120.296 89.8689 120.056C90.2289 119.804 90.5109 119.48 90.7149 119.084L92.4969 119.84C92.2449 120.32 91.9209 120.74 91.5249 121.1C91.1409 121.46 90.6789 121.736 90.1389 121.928C89.6109 122.12 89.0049 122.216 88.3209 122.216ZM85.9989 116.69L85.7109 116.438H90.7869L90.5169 116.69C90.5169 116.198 90.4089 115.796 90.1929 115.484C89.9769 115.16 89.7009 114.92 89.3649 114.764C89.0409 114.596 88.6989 114.512 88.3389 114.512C87.9789 114.512 87.6189 114.596 87.2589 114.764C86.8989 114.92 86.5989 115.16 86.3589 115.484C86.1189 115.796 85.9989 116.198 85.9989 116.69ZM94.221 122V113H96.111L96.237 114.656V122H94.221ZM100.323 122V117.392H102.339V122H100.323ZM100.323 117.392C100.323 116.672 100.239 116.12 100.071 115.736C99.915 115.34 99.687 115.064 99.387 114.908C99.099 114.752 98.757 114.674 98.361 114.674C97.689 114.662 97.167 114.884 96.795 115.34C96.423 115.796 96.237 116.45 96.237 117.302H95.481C95.481 116.354 95.619 115.544 95.895 114.872C96.171 114.188 96.567 113.672 97.083 113.324C97.599 112.964 98.211 112.784 98.919 112.784C99.639 112.784 100.251 112.928 100.755 113.216C101.271 113.504 101.661 113.954 101.925 114.566C102.201 115.166 102.339 115.952 102.339 116.924V117.392H100.323ZM110.879 122L110.789 120.326V109.4H112.787V122H110.879ZM107.945 122.216C107.129 122.216 106.415 122.024 105.803 121.64C105.203 121.244 104.729 120.692 104.381 119.984C104.045 119.276 103.877 118.448 103.877 117.5C103.877 116.54 104.045 115.712 104.381 115.016C104.729 114.308 105.203 113.762 105.803 113.378C106.415 112.982 107.129 112.784 107.945 112.784C108.701 112.784 109.349 112.982 109.889 113.378C110.441 113.762 110.861 114.308 111.149 115.016C111.437 115.712 111.581 116.54 111.581 117.5C111.581 118.448 111.437 119.276 111.149 119.984C110.861 120.692 110.441 121.244 109.889 121.64C109.349 122.024 108.701 122.216 107.945 122.216ZM108.449 120.38C108.905 120.38 109.307 120.26 109.655 120.02C110.015 119.768 110.291 119.426 110.483 118.994C110.687 118.562 110.789 118.064 110.789 117.5C110.789 116.936 110.687 116.438 110.483 116.006C110.291 115.574 110.015 115.238 109.655 114.998C109.307 114.758 108.899 114.638 108.431 114.638C107.951 114.638 107.525 114.758 107.153 114.998C106.781 115.238 106.487 115.574 106.271 116.006C106.067 116.438 105.959 116.936 105.947 117.5C105.959 118.064 106.067 118.562 106.271 118.994C106.487 119.426 106.781 119.768 107.153 120.02C107.537 120.26 107.969 120.38 108.449 120.38ZM115.016 122V109.4H117.032V122H115.016ZM120.692 125.816C120.404 125.816 120.08 125.762 119.72 125.654C119.372 125.546 119.036 125.408 118.712 125.24L119.468 123.602C119.696 123.71 119.906 123.794 120.098 123.854C120.29 123.926 120.446 123.962 120.566 123.962C120.854 123.962 121.094 123.884 121.286 123.728C121.49 123.584 121.652 123.368 121.772 123.08L122.834 120.596L125.876 113H128.072L123.896 122.954C123.644 123.53 123.386 124.034 123.122 124.466C122.87 124.898 122.552 125.228 122.168 125.456C121.784 125.696 121.292 125.816 120.692 125.816ZM122.294 122L118.262 113H120.458L123.59 120.578L124.238 122H122.294ZM57.3685 147V134.4H61.5265C62.3905 134.4 63.1345 134.532 63.7585 134.796C64.3945 135.06 64.8865 135.456 65.2345 135.984C65.5825 136.5 65.7565 137.148 65.7565 137.928C65.7565 138.468 65.6245 138.954 65.3605 139.386C65.1085 139.818 64.7485 140.178 64.2805 140.466C64.8925 140.766 65.3605 141.168 65.6845 141.672C66.0085 142.176 66.1705 142.776 66.1705 143.472C66.1705 144.216 66.0025 144.852 65.6665 145.38C65.3305 145.908 64.8565 146.31 64.2445 146.586C63.6325 146.862 62.9065 147 62.0665 147H57.3685ZM59.4205 145.128H61.9045C62.5645 145.128 63.0865 144.966 63.4705 144.642C63.8545 144.318 64.0465 143.88 64.0465 143.328C64.0465 142.728 63.8305 142.26 63.3985 141.924C62.9785 141.588 62.3845 141.42 61.6165 141.42H59.4205V145.128ZM59.4205 139.692H61.7065C62.3065 139.692 62.7745 139.536 63.1105 139.224C63.4585 138.9 63.6325 138.456 63.6325 137.892C63.6325 137.316 63.4345 136.878 63.0385 136.578C62.6545 136.266 62.1145 136.11 61.4185 136.11H59.4205V139.692ZM74.042 147L73.934 145.344V138H75.932V147H74.042ZM67.814 142.608V138H69.83V142.608H67.814ZM69.83 142.608C69.83 143.316 69.914 143.868 70.082 144.264C70.25 144.66 70.478 144.936 70.766 145.092C71.066 145.248 71.408 145.326 71.792 145.326C72.476 145.338 73.004 145.116 73.376 144.66C73.748 144.204 73.934 143.55 73.934 142.698H74.69C74.69 143.646 74.546 144.462 74.258 145.146C73.982 145.818 73.586 146.334 73.07 146.694C72.566 147.042 71.954 147.216 71.234 147.216C70.526 147.216 69.914 147.072 69.398 146.784C68.894 146.496 68.504 146.046 68.228 145.434C67.952 144.822 67.814 144.036 67.814 143.076V142.608H69.83ZM78.2982 147V138H80.2962V147H78.2982ZM79.3062 136.29C78.9822 136.29 78.7002 136.176 78.4602 135.948C78.2322 135.708 78.1182 135.426 78.1182 135.102C78.1182 134.778 78.2322 134.502 78.4602 134.274C78.7002 134.046 78.9822 133.932 79.3062 133.932C79.6302 133.932 79.9062 134.046 80.1342 134.274C80.3742 134.502 80.4942 134.778 80.4942 135.102C80.4942 135.426 80.3742 135.708 80.1342 135.948C79.9062 136.176 79.6302 136.29 79.3062 136.29ZM82.6722 147V134.4H84.6882V147H82.6722ZM93.4241 147L93.3341 145.326V134.4H95.3321V147H93.4241ZM90.4901 147.216C89.6741 147.216 88.9601 147.024 88.3481 146.64C87.7481 146.244 87.2741 145.692 86.9261 144.984C86.5901 144.276 86.4221 143.448 86.4221 142.5C86.4221 141.54 86.5901 140.712 86.9261 140.016C87.2741 139.308 87.7481 138.762 88.3481 138.378C88.9601 137.982 89.6741 137.784 90.4901 137.784C91.2461 137.784 91.8941 137.982 92.4341 138.378C92.9861 138.762 93.4061 139.308 93.6941 140.016C93.9821 140.712 94.1261 141.54 94.1261 142.5C94.1261 143.448 93.9821 144.276 93.6941 144.984C93.4061 145.692 92.9861 146.244 92.4341 146.64C91.8941 147.024 91.2461 147.216 90.4901 147.216ZM90.9941 145.38C91.4501 145.38 91.8521 145.26 92.2001 145.02C92.5601 144.768 92.8361 144.426 93.0281 143.994C93.2321 143.562 93.3341 143.064 93.3341 142.5C93.3341 141.936 93.2321 141.438 93.0281 141.006C92.8361 140.574 92.5601 140.238 92.2001 139.998C91.8521 139.758 91.4441 139.638 90.9761 139.638C90.4961 139.638 90.0701 139.758 89.6981 139.998C89.3261 140.238 89.0321 140.574 88.8161 141.006C88.6121 141.438 88.5041 141.936 88.4921 142.5C88.5041 143.064 88.6121 143.562 88.8161 143.994C89.0321 144.426 89.3261 144.768 89.6981 145.02C90.0821 145.26 90.5141 145.38 90.9941 145.38Z" fill="#4BBA72"/>
<defs>
<clipPath id="clip0_1397_1677">
<rect width="41.6" height="40.8" fill="white" transform="translate(53.1887 23)"/>
</clipPath>
</defs>
</svg>
