<svg width="147" height="153" viewBox="0 0 147 153" fill="none" xmlns="http://www.w3.org/2000/svg">
<circle cx="73.9888" cy="43" r="40" stroke="#4BBA72" stroke-width="5"/>
<g clip-path="url(#clip0_1397_1659)">
<path d="M66.7718 37.7083C66.6645 36.0755 66.5967 34.4383 65.7784 32.9498C65.5137 32.4689 65.2621 32.1629 64.6166 32.2394C60.1423 32.7749 57.9632 29.7717 57.2258 26.0471C57.0836 25.3345 57.3527 24.9411 58.0835 24.8252C59.5341 24.5957 60.9803 24.5301 62.4265 24.8405C64.8923 25.3717 66.4917 27.4176 66.6186 30.152C66.647 30.7509 66.4151 31.4001 67.0693 32.1214C67.3625 30.764 68.2727 29.8132 68.3536 28.4361C68.5659 24.8077 70.4387 22.705 73.9635 21.9116C75.7357 21.5116 77.5014 21.105 79.0198 19.9859C79.6083 19.5531 80.1947 19.9181 80.0984 20.611C79.6061 24.128 78.6981 27.4984 75.6613 29.7673C74.1079 30.928 72.2722 31.0963 70.4497 30.528C69.5701 30.2525 69.2485 30.5105 68.9203 31.2755C67.6885 34.1542 67.8767 37.0285 68.8831 39.8963C69.5745 41.8678 70.7341 43.599 71.8696 45.3345C73.3312 47.5706 74.2895 49.9618 74.2654 52.6897C74.2545 53.8176 74.738 54.2613 75.8757 54.2744C77.7705 54.2941 79.663 54.2919 81.5578 54.2744C82.7086 54.2635 83.2272 53.8219 83.1768 52.705C83.0368 49.6034 84.168 46.9629 85.9074 44.4842C87.6402 42.0165 88.9661 39.3411 89.2855 36.3006C89.8347 31.07 86.5856 26.6766 81.3587 25.4678C81.0042 25.387 80.6367 25.3564 80.291 25.2493C79.9234 25.1356 79.8052 24.8274 79.8577 24.4667C79.9059 24.1433 80.105 23.9203 80.4419 23.9269C80.8379 23.9356 81.2449 23.964 81.63 24.0536C88.4979 25.6274 92.2108 31.929 90.2876 38.7312C89.6072 41.1356 88.5066 43.3411 87.0648 45.3739C85.5092 47.5662 84.529 49.905 84.6318 52.6766C84.7062 54.6591 83.5663 55.6799 81.5753 55.6995C79.7899 55.717 78.0046 55.6842 76.2214 55.7148C75.3616 55.7301 74.5608 55.5902 73.8125 55.1684C73.1014 54.4252 72.7995 53.5487 72.8104 52.5127C72.8367 50.1039 71.9178 47.9968 70.6028 46.0318C68.8831 43.4613 67.3319 40.8121 66.7761 37.7083H66.7718Z" fill="#4BBA72"/>
<path d="M74.2634 56.7792C77.0246 56.5913 79.7901 56.7421 82.5535 56.6984C83.0545 56.6896 83.433 56.8907 83.4068 57.4503C83.3783 58.023 82.9429 58.1191 82.4681 58.1191C80.6128 58.1191 78.7574 58.117 76.8999 58.1279C76.5039 58.1301 76.11 58.1847 75.714 58.2153C75.4646 58.1913 75.213 58.1694 74.9636 58.1454C74.0031 58.0492 73.8521 57.7541 74.2634 56.7792Z" fill="#4BBA72"/>
<path d="M76.6438 59.0154C78.4641 59.035 80.2845 59.0569 82.1048 59.07C82.6343 59.0744 83.2207 59.0635 83.2207 59.7782C83.2207 60.4864 82.6387 60.4908 82.107 60.4952C80.7965 60.5061 79.4859 60.5258 78.1753 60.5411C77.1667 60.5236 76.1559 60.5017 75.1472 60.493C74.6199 60.4886 74.178 60.3553 74.2042 59.7279C74.2283 59.1618 74.6571 59.07 75.1341 59.0656C75.6373 59.0613 76.1406 59.0307 76.6438 59.0132V59.0154Z" fill="#4BBA72"/>
<path d="M79.0506 61.4044C80.057 61.4153 81.0635 61.4307 82.0721 61.4372C82.5885 61.4416 83.0479 61.5443 83.0129 62.1869C82.9845 62.7465 82.5688 62.8492 82.0874 62.847C81.5842 62.847 81.0832 62.8776 80.58 62.8951C78.8756 62.8798 77.1712 62.8602 75.4668 62.8536C74.9176 62.8536 74.3794 62.8055 74.4078 62.0973C74.4341 61.4525 74.9679 61.4438 75.458 61.4416C76.6548 61.4328 77.8516 61.4175 79.0506 61.4066V61.4044Z" fill="#4BBA72"/>
<path d="M81.2449 63.7017C80.9386 64.9301 79.9452 65.2907 78.8885 65.3869C77.6895 65.4962 76.7596 64.9344 75.9829 63.6995C77.8711 63.6995 79.5536 63.6995 81.2361 63.6995L81.2449 63.7017Z" fill="#4BBA72"/>
<path d="M80.7876 36.9213C81.9188 36.7486 82.8487 36.6044 83.7764 36.4645C84.1505 36.4077 84.5093 36.412 84.7478 36.7771C84.995 37.1574 84.8025 37.4809 84.5859 37.7781C82.0785 41.2142 79.5646 44.6459 77.0507 48.0754C76.7772 48.447 76.4599 48.7617 75.9567 48.4667C75.4688 48.1803 75.5848 47.7497 75.7117 47.3104C76.1492 45.8109 76.5212 44.2896 77.0222 42.812C77.3592 41.8197 76.9916 41.7016 76.1558 41.8699C75.657 41.9705 75.1515 42.0404 74.6439 42.0885C74.1889 42.1322 73.655 42.3115 73.3771 41.7607C73.1408 41.2951 73.4668 40.9322 73.7228 40.5781C75.0268 38.7836 76.333 36.9913 77.637 35.1989C78.7507 33.671 79.8643 32.1432 80.978 30.6153C81.2624 30.224 81.5644 29.7913 82.1267 30.0623C82.689 30.3333 82.5402 30.8186 82.4001 31.2951C81.8707 33.1049 81.3587 34.9213 80.7855 36.9191L80.7876 36.9213Z" fill="#4BBA72"/>
</g>
<path d="M3.75523 122V109.4H11.5132V111.308H5.84323V114.656H10.8472V116.528H5.84323V120.092H11.5672V122H3.75523ZM13.9944 122V113H15.8844L16.0104 114.656V122H13.9944ZM20.0964 122V117.392H22.1124V122H20.0964ZM20.0964 117.392C20.0964 116.672 20.0124 116.12 19.8444 115.736C19.6884 115.34 19.4604 115.064 19.1604 114.908C18.8724 114.752 18.5304 114.674 18.1344 114.674C17.4624 114.662 16.9404 114.884 16.5684 115.34C16.1964 115.796 16.0104 116.45 16.0104 117.302H15.2544C15.2544 116.354 15.3924 115.544 15.6684 114.872C15.9444 114.188 16.3404 113.672 16.8564 113.324C17.3724 112.964 17.9844 112.784 18.6924 112.784C19.4124 112.784 20.0244 112.928 20.5284 113.216C21.0444 113.504 21.4344 113.954 21.6984 114.566C21.9744 115.166 22.1124 115.952 22.1124 116.924V117.392H20.0964ZM28.1686 122.216C27.2926 122.216 26.5126 122.018 25.8286 121.622C25.1566 121.214 24.6226 120.656 24.2266 119.948C23.8426 119.24 23.6506 118.424 23.6506 117.5C23.6506 116.576 23.8486 115.76 24.2446 115.052C24.6406 114.344 25.1806 113.792 25.8646 113.396C26.5606 112.988 27.3526 112.784 28.2406 112.784C29.0446 112.784 29.7706 112.994 30.4186 113.414C31.0666 113.822 31.5766 114.416 31.9486 115.196C32.3326 115.976 32.5246 116.906 32.5246 117.986H25.4506L25.7206 117.734C25.7206 118.286 25.8406 118.766 26.0806 119.174C26.3206 119.57 26.6386 119.876 27.0346 120.092C27.4306 120.308 27.8686 120.416 28.3486 120.416C28.9006 120.416 29.3566 120.296 29.7166 120.056C30.0766 119.804 30.3586 119.48 30.5626 119.084L32.3446 119.84C32.0926 120.32 31.7686 120.74 31.3726 121.1C30.9886 121.46 30.5266 121.736 29.9866 121.928C29.4586 122.12 28.8526 122.216 28.1686 122.216ZM25.8466 116.69L25.5586 116.438H30.6346L30.3646 116.69C30.3646 116.198 30.2566 115.796 30.0406 115.484C29.8246 115.16 29.5486 114.92 29.2126 114.764C28.8886 114.596 28.5466 114.512 28.1866 114.512C27.8266 114.512 27.4666 114.596 27.1066 114.764C26.7466 114.92 26.4466 115.16 26.2066 115.484C25.9666 115.796 25.8466 116.198 25.8466 116.69ZM35.4006 117.212C35.4006 116.24 35.5866 115.442 35.9586 114.818C36.3306 114.194 36.8106 113.732 37.3986 113.432C37.9986 113.12 38.6226 112.964 39.2706 112.964V114.89C38.7186 114.89 38.1966 114.968 37.7046 115.124C37.2246 115.268 36.8346 115.508 36.5346 115.844C36.2346 116.18 36.0846 116.624 36.0846 117.176L35.4006 117.212ZM34.0686 122V113H36.0846V122H34.0686ZM44.4777 125.834C43.8417 125.834 43.2657 125.78 42.7497 125.672C42.2457 125.564 41.8197 125.438 41.4717 125.294C41.1237 125.15 40.8537 125.012 40.6617 124.88L41.4357 123.26C41.6037 123.344 41.8257 123.446 42.1017 123.566C42.3897 123.698 42.7257 123.812 43.1097 123.908C43.4937 124.004 43.9257 124.052 44.4057 124.052C44.9217 124.052 45.3837 123.944 45.7917 123.728C46.1997 123.524 46.5177 123.206 46.7457 122.774C46.9737 122.342 47.0877 121.79 47.0877 121.118V113H49.1037V121.064C49.1037 122.084 48.9117 122.948 48.5277 123.656C48.1437 124.376 47.6037 124.916 46.9077 125.276C46.2117 125.648 45.4017 125.834 44.4777 125.834ZM44.1717 121.82C43.3557 121.82 42.6417 121.634 42.0297 121.262C41.4297 120.89 40.9557 120.374 40.6077 119.714C40.2717 119.042 40.1037 118.268 40.1037 117.392C40.1037 116.456 40.2717 115.646 40.6077 114.962C40.9557 114.278 41.4297 113.744 42.0297 113.36C42.6417 112.976 43.3557 112.784 44.1717 112.784C44.9037 112.784 45.5397 112.976 46.0797 113.36C46.6317 113.744 47.0577 114.284 47.3577 114.98C47.6577 115.664 47.8077 116.474 47.8077 117.41C47.8077 118.298 47.6577 119.072 47.3577 119.732C47.0577 120.392 46.6317 120.908 46.0797 121.28C45.5397 121.64 44.9037 121.82 44.1717 121.82ZM44.7297 120.11C45.1857 120.11 45.5817 119.99 45.9177 119.75C46.2657 119.51 46.5357 119.186 46.7277 118.778C46.9197 118.358 47.0157 117.878 47.0157 117.338C47.0157 116.786 46.9197 116.306 46.7277 115.898C46.5357 115.478 46.2657 115.154 45.9177 114.926C45.5697 114.686 45.1677 114.566 44.7117 114.566C44.2317 114.566 43.8057 114.686 43.4337 114.926C43.0737 115.154 42.7857 115.478 42.5697 115.898C42.3657 116.306 42.2637 116.786 42.2637 117.338C42.2637 117.878 42.3657 118.358 42.5697 118.778C42.7857 119.186 43.0797 119.51 43.4517 119.75C43.8237 119.99 44.2497 120.11 44.7297 120.11ZM52.7524 125.816C52.4644 125.816 52.1404 125.762 51.7804 125.654C51.4324 125.546 51.0964 125.408 50.7724 125.24L51.5284 123.602C51.7564 123.71 51.9664 123.794 52.1584 123.854C52.3504 123.926 52.5064 123.962 52.6264 123.962C52.9144 123.962 53.1544 123.884 53.3464 123.728C53.5504 123.584 53.7124 123.368 53.8324 123.08L54.8944 120.596L57.9364 113H60.1324L55.9564 122.954C55.7044 123.53 55.4464 124.034 55.1824 124.466C54.9304 124.898 54.6124 125.228 54.2284 125.456C53.8444 125.696 53.3524 125.816 52.7524 125.816ZM54.3544 122L50.3224 113H52.5184L55.6504 120.578L56.2984 122H54.3544ZM66.0521 122V109.4H73.8101V111.308H68.1401V114.656H73.1441V116.528H68.1401V120.092H73.8641V122H66.0521ZM77.1913 122V112.046C77.1913 111.098 77.4253 110.372 77.8933 109.868C78.3733 109.352 79.0933 109.094 80.0533 109.094C80.3653 109.094 80.6953 109.148 81.0433 109.256C81.4033 109.352 81.7453 109.484 82.0693 109.652L81.3313 111.146C81.1033 111.038 80.8993 110.96 80.7193 110.912C80.5513 110.864 80.4013 110.84 80.2693 110.84C79.9093 110.84 79.6393 110.96 79.4593 111.2C79.2913 111.428 79.2073 111.806 79.2073 112.334V122H77.1913ZM75.6433 114.656V113H81.5653V114.656H75.6433ZM84.0995 122V112.046C84.0995 111.098 84.3335 110.372 84.8015 109.868C85.2815 109.352 86.0015 109.094 86.9615 109.094C87.2735 109.094 87.6035 109.148 87.9515 109.256C88.3115 109.352 88.6535 109.484 88.9775 109.652L88.2395 111.146C88.0115 111.038 87.8075 110.96 87.6275 110.912C87.4595 110.864 87.3095 110.84 87.1775 110.84C86.8175 110.84 86.5475 110.96 86.3675 111.2C86.1995 111.428 86.1155 111.806 86.1155 112.334V122H84.0995ZM82.5515 114.656V113H88.4735V114.656H82.5515ZM90.2337 122V113H92.2317V122H90.2337ZM91.2417 111.29C90.9177 111.29 90.6357 111.176 90.3957 110.948C90.1677 110.708 90.0537 110.426 90.0537 110.102C90.0537 109.778 90.1677 109.502 90.3957 109.274C90.6357 109.046 90.9177 108.932 91.2417 108.932C91.5657 108.932 91.8417 109.046 92.0697 109.274C92.3097 109.502 92.4297 109.778 92.4297 110.102C92.4297 110.426 92.3097 110.708 92.0697 110.948C91.8417 111.176 91.5657 111.29 91.2417 111.29ZM98.8197 122.216C97.8957 122.216 97.0797 122.018 96.3717 121.622C95.6637 121.214 95.1057 120.656 94.6977 119.948C94.3017 119.24 94.1037 118.424 94.1037 117.5C94.1037 116.576 94.3017 115.76 94.6977 115.052C95.1057 114.344 95.6577 113.792 96.3537 113.396C97.0617 112.988 97.8717 112.784 98.7837 112.784C99.6717 112.784 100.476 113 101.196 113.432C101.916 113.852 102.45 114.458 102.798 115.25L100.926 115.97C100.734 115.574 100.44 115.256 100.044 115.016C99.6477 114.776 99.1977 114.656 98.6937 114.656C98.2017 114.656 97.7637 114.782 97.3797 115.034C96.9957 115.274 96.6957 115.61 96.4797 116.042C96.2637 116.462 96.1557 116.948 96.1557 117.5C96.1557 118.052 96.2637 118.544 96.4797 118.976C96.7077 119.396 97.0137 119.732 97.3977 119.984C97.7937 120.224 98.2377 120.344 98.7297 120.344C99.2337 120.344 99.6837 120.218 100.08 119.966C100.476 119.702 100.77 119.348 100.962 118.904L102.834 119.624C102.486 120.44 101.952 121.076 101.232 121.532C100.524 121.988 99.7197 122.216 98.8197 122.216ZM104.525 122V113H106.523V122H104.525ZM105.533 111.29C105.209 111.29 104.927 111.176 104.687 110.948C104.459 110.708 104.345 110.426 104.345 110.102C104.345 109.778 104.459 109.502 104.687 109.274C104.927 109.046 105.209 108.932 105.533 108.932C105.857 108.932 106.133 109.046 106.361 109.274C106.601 109.502 106.721 109.778 106.721 110.102C106.721 110.426 106.601 110.708 106.361 110.948C106.133 111.176 105.857 111.29 105.533 111.29ZM112.913 122.216C112.037 122.216 111.257 122.018 110.573 121.622C109.901 121.214 109.367 120.656 108.971 119.948C108.587 119.24 108.395 118.424 108.395 117.5C108.395 116.576 108.593 115.76 108.989 115.052C109.385 114.344 109.925 113.792 110.609 113.396C111.305 112.988 112.097 112.784 112.985 112.784C113.789 112.784 114.515 112.994 115.163 113.414C115.811 113.822 116.321 114.416 116.693 115.196C117.077 115.976 117.269 116.906 117.269 117.986H110.195L110.465 117.734C110.465 118.286 110.585 118.766 110.825 119.174C111.065 119.57 111.383 119.876 111.779 120.092C112.175 120.308 112.613 120.416 113.093 120.416C113.645 120.416 114.101 120.296 114.461 120.056C114.821 119.804 115.103 119.48 115.307 119.084L117.089 119.84C116.837 120.32 116.513 120.74 116.117 121.1C115.733 121.46 115.271 121.736 114.731 121.928C114.203 122.12 113.597 122.216 112.913 122.216ZM110.591 116.69L110.303 116.438H115.379L115.109 116.69C115.109 116.198 115.001 115.796 114.785 115.484C114.569 115.16 114.293 114.92 113.957 114.764C113.633 114.596 113.291 114.512 112.931 114.512C112.571 114.512 112.211 114.596 111.851 114.764C111.491 114.92 111.191 115.16 110.951 115.484C110.711 115.796 110.591 116.198 110.591 116.69ZM118.813 122V113H120.703L120.829 114.656V122H118.813ZM124.915 122V117.392H126.931V122H124.915ZM124.915 117.392C124.915 116.672 124.831 116.12 124.663 115.736C124.507 115.34 124.279 115.064 123.979 114.908C123.691 114.752 123.349 114.674 122.953 114.674C122.281 114.662 121.759 114.884 121.387 115.34C121.015 115.796 120.829 116.45 120.829 117.302H120.073C120.073 116.354 120.211 115.544 120.487 114.872C120.763 114.188 121.159 113.672 121.675 113.324C122.191 112.964 122.803 112.784 123.511 112.784C124.231 112.784 124.843 112.928 125.347 113.216C125.863 113.504 126.253 113.954 126.517 114.566C126.793 115.166 126.931 115.952 126.931 116.924V117.392H124.915ZM132.555 122.216C131.607 122.216 130.881 121.982 130.377 121.514C129.885 121.034 129.639 120.35 129.639 119.462V110.192H131.637V119.084C131.637 119.504 131.733 119.822 131.925 120.038C132.129 120.254 132.423 120.362 132.807 120.362C132.927 120.362 133.059 120.338 133.203 120.29C133.347 120.242 133.509 120.152 133.689 120.02L134.427 121.55C134.115 121.766 133.803 121.928 133.491 122.036C133.179 122.156 132.867 122.216 132.555 122.216ZM128.145 114.728V113H134.067V114.728H128.145ZM50.9001 147.216C50.2401 147.216 49.6341 147.138 49.0821 146.982C48.5421 146.826 48.0621 146.61 47.6421 146.334C47.2341 146.058 46.8921 145.752 46.6161 145.416C46.3521 145.068 46.1661 144.708 46.0581 144.336L48.1101 143.706C48.2661 144.15 48.5721 144.54 49.0281 144.876C49.4841 145.212 50.0481 145.386 50.7201 145.398C51.5001 145.398 52.1181 145.236 52.5741 144.912C53.0301 144.588 53.2581 144.162 53.2581 143.634C53.2581 143.154 53.0661 142.764 52.6821 142.464C52.2981 142.152 51.7821 141.912 51.1341 141.744L49.5861 141.348C48.9981 141.192 48.4641 140.964 47.9841 140.664C47.5161 140.364 47.1441 139.986 46.8681 139.53C46.6041 139.074 46.4721 138.534 46.4721 137.91C46.4721 136.734 46.8561 135.822 47.6241 135.174C48.3921 134.514 49.4901 134.184 50.9181 134.184C51.7221 134.184 52.4241 134.31 53.0241 134.562C53.6361 134.802 54.1401 135.138 54.5361 135.57C54.9321 135.99 55.2261 136.47 55.4181 137.01L53.4021 137.658C53.2221 137.178 52.9101 136.782 52.4661 136.47C52.0221 136.158 51.4701 136.002 50.8101 136.002C50.1261 136.002 49.5861 136.164 49.1901 136.488C48.8061 136.812 48.6141 137.262 48.6141 137.838C48.6141 138.306 48.7641 138.672 49.0641 138.936C49.3761 139.188 49.7961 139.38 50.3241 139.512L51.8721 139.89C53.0001 140.166 53.8761 140.64 54.5001 141.312C55.1241 141.984 55.4361 142.728 55.4361 143.544C55.4361 144.264 55.2621 144.9 54.9141 145.452C54.5661 146.004 54.0501 146.436 53.3661 146.748C52.6941 147.06 51.8721 147.216 50.9001 147.216ZM58.7904 150.816C58.5024 150.816 58.1784 150.762 57.8184 150.654C57.4704 150.546 57.1344 150.408 56.8104 150.24L57.5664 148.602C57.7944 148.71 58.0044 148.794 58.1964 148.854C58.3884 148.926 58.5444 148.962 58.6644 148.962C58.9524 148.962 59.1924 148.884 59.3844 148.728C59.5884 148.584 59.7504 148.368 59.8704 148.08L60.9324 145.596L63.9744 138H66.1704L61.9944 147.954C61.7424 148.53 61.4844 149.034 61.2204 149.466C60.9684 149.898 60.6504 150.228 60.2664 150.456C59.8824 150.696 59.3904 150.816 58.7904 150.816ZM60.3924 147L56.3604 138H58.5564L61.6884 145.578L62.3364 147H60.3924ZM70.6464 147.216C70.0464 147.216 69.4944 147.126 68.9904 146.946C68.4864 146.766 68.0544 146.514 67.6944 146.19C67.3344 145.854 67.0584 145.464 66.8664 145.02L68.6124 144.246C68.7924 144.582 69.0564 144.864 69.4044 145.092C69.7644 145.32 70.1604 145.434 70.5924 145.434C71.0604 145.434 71.4324 145.356 71.7084 145.2C71.9964 145.032 72.1404 144.804 72.1404 144.516C72.1404 144.24 72.0324 144.03 71.8164 143.886C71.6004 143.73 71.2944 143.604 70.8984 143.508L70.0524 143.274C69.2004 143.058 68.5344 142.716 68.0544 142.248C67.5744 141.768 67.3344 141.222 67.3344 140.61C67.3344 139.71 67.6224 139.014 68.1984 138.522C68.7864 138.03 69.6264 137.784 70.7184 137.784C71.2704 137.784 71.7744 137.868 72.2304 138.036C72.6984 138.192 73.1004 138.42 73.4364 138.72C73.7724 139.008 74.0064 139.35 74.1384 139.746L72.4644 140.502C72.3444 140.202 72.1164 139.974 71.7804 139.818C71.4444 139.65 71.0724 139.566 70.6644 139.566C70.2564 139.566 69.9384 139.656 69.7104 139.836C69.4824 140.004 69.3684 140.244 69.3684 140.556C69.3684 140.736 69.4704 140.904 69.6744 141.06C69.8784 141.204 70.1724 141.324 70.5564 141.42L71.6184 141.672C72.2064 141.816 72.6864 142.044 73.0584 142.356C73.4304 142.656 73.7064 142.998 73.8864 143.382C74.0664 143.754 74.1564 144.132 74.1564 144.516C74.1564 145.056 74.0004 145.53 73.6884 145.938C73.3884 146.346 72.9744 146.664 72.4464 146.892C71.9184 147.108 71.3184 147.216 70.6464 147.216ZM79.3372 147.216C78.3892 147.216 77.6632 146.982 77.1592 146.514C76.6672 146.034 76.4212 145.35 76.4212 144.462V135.192H78.4192V144.084C78.4192 144.504 78.5152 144.822 78.7072 145.038C78.9112 145.254 79.2052 145.362 79.5892 145.362C79.7092 145.362 79.8412 145.338 79.9852 145.29C80.1292 145.242 80.2912 145.152 80.4712 145.02L81.2092 146.55C80.8972 146.766 80.5852 146.928 80.2732 147.036C79.9612 147.156 79.6492 147.216 79.3372 147.216ZM74.9272 139.728V138H80.8492V139.728H74.9272ZM86.7125 147.216C85.8365 147.216 85.0565 147.018 84.3725 146.622C83.7005 146.214 83.1665 145.656 82.7705 144.948C82.3865 144.24 82.1945 143.424 82.1945 142.5C82.1945 141.576 82.3925 140.76 82.7885 140.052C83.1845 139.344 83.7245 138.792 84.4085 138.396C85.1045 137.988 85.8965 137.784 86.7845 137.784C87.5885 137.784 88.3145 137.994 88.9625 138.414C89.6105 138.822 90.1205 139.416 90.4925 140.196C90.8765 140.976 91.0685 141.906 91.0685 142.986H83.9945L84.2645 142.734C84.2645 143.286 84.3845 143.766 84.6245 144.174C84.8645 144.57 85.1825 144.876 85.5785 145.092C85.9745 145.308 86.4125 145.416 86.8925 145.416C87.4445 145.416 87.9005 145.296 88.2605 145.056C88.6205 144.804 88.9025 144.48 89.1065 144.084L90.8885 144.84C90.6365 145.32 90.3125 145.74 89.9165 146.1C89.5325 146.46 89.0705 146.736 88.5305 146.928C88.0025 147.12 87.3965 147.216 86.7125 147.216ZM84.3905 141.69L84.1025 141.438H89.1785L88.9085 141.69C88.9085 141.198 88.8005 140.796 88.5845 140.484C88.3685 140.16 88.0925 139.92 87.7565 139.764C87.4325 139.596 87.0905 139.512 86.7305 139.512C86.3705 139.512 86.0105 139.596 85.6505 139.764C85.2905 139.92 84.9905 140.16 84.7505 140.484C84.5105 140.796 84.3905 141.198 84.3905 141.69ZM92.6126 147V138H94.5026L94.5926 139.206C94.8686 138.738 95.2226 138.384 95.6546 138.144C96.0866 137.904 96.5786 137.784 97.1306 137.784C97.8506 137.784 98.4626 137.946 98.9666 138.27C99.4706 138.594 99.8366 139.086 100.065 139.746C100.329 139.11 100.701 138.624 101.181 138.288C101.661 137.952 102.225 137.784 102.873 137.784C103.917 137.784 104.721 138.12 105.285 138.792C105.849 139.452 106.125 140.472 106.113 141.852V147H104.115V142.392C104.115 141.672 104.037 141.12 103.881 140.736C103.725 140.34 103.515 140.064 103.251 139.908C102.987 139.752 102.681 139.674 102.333 139.674C101.709 139.662 101.223 139.884 100.875 140.34C100.539 140.796 100.371 141.45 100.371 142.302V147H98.3546V142.392C98.3546 141.672 98.2766 141.12 98.1206 140.736C97.9766 140.34 97.7726 140.064 97.5086 139.908C97.2446 139.752 96.9386 139.674 96.5906 139.674C95.9666 139.662 95.4806 139.884 95.1326 140.34C94.7966 140.796 94.6286 141.45 94.6286 142.302V147H92.6126Z" fill="#4BBA72"/>
<defs>
<clipPath id="clip0_1397_1659">
<rect width="33.6" height="45.6" fill="white" transform="translate(57.1887 19.8)"/>
</clipPath>
</defs>
</svg>
