<svg width="50" height="50" viewBox="0 0 50 50" fill="none" xmlns="http://www.w3.org/2000/svg">
<path d="M43.2672 13.0055C44.0148 12.6133 44.5312 11.8383 44.5312 10.9375C44.5312 9.64531 43.4797 8.59375 42.1875 8.59375C41.1703 8.59375 40.3109 9.24922 39.9875 10.1562H33.5539C33.1578 5.78281 29.475 2.34375 25 2.34375C20.525 2.34375 16.8422 5.78281 16.4461 10.1562H10.0125C9.68906 9.24922 8.82969 8.59375 7.8125 8.59375C6.52031 8.59375 5.46875 9.64531 5.46875 10.9375C5.46875 11.8383 5.98516 12.6133 6.73281 13.0055L0.848437 26.2453C0.803906 26.3453 0.78125 26.4531 0.78125 26.5625C0.78125 30.4391 3.93594 33.5938 7.8125 33.5938C11.6891 33.5938 14.8438 30.4391 14.8438 26.5625C14.8438 26.4531 14.8211 26.3453 14.7766 26.2453L8.89219 13.0055C9.41172 12.7328 9.81328 12.2773 10.0125 11.7188H16.4461C16.6602 14.0789 17.8289 16.1656 19.5656 17.5875L21.7984 41.4062H9.375C7.65156 41.4062 6.25 42.8078 6.25 44.5312C6.25 46.2547 7.65156 47.6562 9.375 47.6562H40.625C42.3484 47.6562 43.75 46.2547 43.75 44.5312C43.75 42.8078 42.3484 41.4062 40.625 41.4062H28.2016L30.4344 17.5875C32.1711 16.1656 33.3398 14.0781 33.5539 11.7188H39.9875C40.1867 12.2773 40.5883 12.7328 41.1078 13.0055L35.2234 26.2453C35.1789 26.3453 35.1562 26.4531 35.1562 26.5625C35.1562 30.4391 38.3109 33.5938 42.1875 33.5938C46.0641 33.5938 49.2188 30.4391 49.2188 26.5625C49.2188 26.4531 49.1961 26.3453 49.1516 26.2453L43.2672 13.0055ZM42.1875 10.1562C42.618 10.1562 42.9688 10.507 42.9688 10.9375C42.9688 11.368 42.618 11.7188 42.1875 11.7188C41.757 11.7188 41.4062 11.368 41.4062 10.9375C41.4062 10.507 41.757 10.1562 42.1875 10.1562ZM7.8125 10.1562C8.24297 10.1562 8.59375 10.507 8.59375 10.9375C8.59375 11.368 8.24297 11.7188 7.8125 11.7188C7.38203 11.7188 7.03125 11.368 7.03125 10.9375C7.03125 10.507 7.38203 10.1562 7.8125 10.1562ZM7.8125 14.4234L12.8602 25.7812H2.76484L7.8125 14.4234ZM7.8125 32.0312C5.0625 32.0312 2.78359 29.9898 2.40234 27.3438H13.2219C12.8414 29.9898 10.5625 32.0312 7.8125 32.0312ZM21.2344 18.65C22.1516 19.0992 23.1555 19.3945 24.2188 19.4914V41.4062H23.368L21.2344 18.65ZM42.1875 44.5312C42.1875 45.393 41.4867 46.0938 40.625 46.0938H9.375C8.51328 46.0938 7.8125 45.393 7.8125 44.5312C7.8125 43.6695 8.51328 42.9688 9.375 42.9688H40.625C41.4867 42.9688 42.1875 43.6695 42.1875 44.5312ZM26.632 41.4062H25.7812V19.4914C26.8445 19.3953 27.8492 19.1 28.7656 18.65L26.632 41.4062ZM25 17.9688C21.1234 17.9688 17.9688 14.8141 17.9688 10.9375C17.9688 7.06094 21.1234 3.90625 25 3.90625C28.8766 3.90625 32.0312 7.06094 32.0312 10.9375C32.0312 14.8141 28.8766 17.9688 25 17.9688ZM47.2352 25.7812H37.1398L42.1875 14.4234L47.2352 25.7812ZM42.1875 32.0312C39.4375 32.0312 37.1586 29.9898 36.7773 27.3438H47.5969C47.2164 29.9898 44.9375 32.0312 42.1875 32.0312Z" fill="#2D2D2D"/>
<path d="M25.7812 7.92344V5.46875H24.2188V7.92344C22.875 8.27266 21.875 9.48594 21.875 10.9375C21.875 12.6609 23.2766 14.0625 25 14.0625C26.7234 14.0625 28.125 12.6609 28.125 10.9375C28.125 9.48594 27.125 8.27266 25.7812 7.92344ZM25 12.5C24.1383 12.5 23.4375 11.7992 23.4375 10.9375C23.4375 10.0758 24.1383 9.375 25 9.375C25.8617 9.375 26.5625 10.0758 26.5625 10.9375C26.5625 11.7992 25.8617 12.5 25 12.5Z" fill="#2D2D2D"/>
</svg>
