<svg width="50" height="50" viewBox="0 0 50 50" fill="none" xmlns="http://www.w3.org/2000/svg">
<g clip-path="url(#clip0_158_400)">
<path d="M7.41821 50.0002C7.05614 49.919 6.6931 49.8456 6.33397 49.7556C0.685783 48.33 -1.80071 41.8644 1.43927 36.976C3.78485 33.437 6.16566 29.9224 8.53082 26.397C10.0897 24.0741 11.6387 21.7444 13.2102 19.4294C14.135 18.0674 14.588 16.5831 14.5802 14.9324C14.5616 10.8474 14.5734 6.76332 14.5734 2.67827C14.5734 2.50117 14.5734 2.32407 14.5734 2.0775C14.2319 2.0775 13.9285 2.08337 13.6252 2.07652C12.9529 2.06185 12.5057 1.6509 12.4998 1.05208C12.4949 0.453268 12.949 0.00513594 13.6046 0.00415749C18.422 -0.000734787 23.2394 -0.000734787 28.0578 0.00415749C28.7085 0.00415749 29.1733 0.463053 29.1655 1.05404C29.1577 1.63524 28.7183 2.05402 28.0823 2.07457C27.775 2.08435 27.4677 2.07652 27.0743 2.07652C27.0743 2.29668 27.0743 2.48454 27.0743 2.67142C27.0743 6.82105 27.0704 10.9707 27.0773 15.1203C27.0802 16.6594 27.5274 18.0645 28.3925 19.3414C29.4238 20.8628 30.4425 22.3922 31.471 23.9166C31.742 24.3187 31.7998 24.7307 31.5316 25.1485C31.286 25.5301 30.9064 25.7042 30.4797 25.5829C30.2204 25.5095 29.9327 25.3295 29.782 25.1123C28.6283 23.4381 27.4785 21.7601 26.3825 20.0488C25.45 18.5919 25.0145 16.9676 24.9979 15.2348C24.9959 15.041 24.9979 14.8463 24.9979 14.5782C24.4734 14.5782 23.9743 14.5782 23.4752 14.5782C22.9703 14.5782 22.4664 14.5841 21.9614 14.5763C21.2931 14.5665 20.8371 14.1507 20.8283 13.5548C20.8195 12.9442 21.2892 12.5088 21.9839 12.5029C22.8137 12.4961 23.6435 12.501 24.4743 12.501C24.6319 12.501 24.7904 12.501 24.9724 12.501V8.32787C24.7503 8.32787 24.5311 8.32787 24.3119 8.32787C23.4977 8.32787 22.6836 8.34157 21.8704 8.32102C21.25 8.30536 20.8106 7.83864 20.8273 7.26233C20.8429 6.70951 21.2862 6.26333 21.8802 6.25452C22.9008 6.23887 23.9224 6.24963 24.9695 6.24963V2.10686H16.6684C16.6684 2.31135 16.6684 2.4865 16.6684 2.66164C16.6684 6.69776 16.6518 10.7339 16.6743 14.769C16.687 16.9559 16.0754 18.9177 14.8503 20.7308C10.9439 26.5124 7.05908 32.3088 3.185 38.113C0.753303 41.7568 2.52937 46.5727 6.71072 47.6882C7.31546 47.8496 7.96326 47.9083 8.59247 47.9122C12.2542 47.9328 15.9159 47.921 19.5777 47.923C20.3008 47.923 20.7128 48.2185 20.8048 48.7782C20.9026 49.374 20.5572 49.7126 20.112 49.9983H7.41821V50.0002Z" fill="#2D2D2D"/>
<path d="M29.3932 50.0001C29.0468 49.9198 28.6984 49.8504 28.3549 49.7584C22.9034 48.3015 21.0784 41.5922 25.0611 37.5541C28.5555 34.0102 32.094 30.5102 35.6128 26.9917C36.2685 26.3362 36.9084 25.6649 37.5836 25.0289C39.7247 23.0114 42.2406 22.39 45.0187 23.3166C47.7606 24.2315 49.3683 26.2256 49.9085 29.07C49.929 29.1805 49.9692 29.2872 50.0005 29.3948V31.0552C49.9711 31.1453 49.9271 31.2333 49.9134 31.3263C49.6687 32.8869 48.9916 34.2342 47.879 35.3497C43.7064 39.5306 39.528 43.7047 35.3496 47.8788C34.42 48.8073 33.3123 49.4326 32.0421 49.7682C31.7153 49.8543 31.3836 49.9238 31.0548 50.0001H29.3942H29.3932ZM33.5775 31.9623C36.062 34.4456 38.4957 36.878 40.9479 39.33C42.7523 37.5277 44.6106 35.7078 46.4258 33.8458C48.4504 31.7705 48.4074 28.5328 46.373 26.5142C44.3376 24.4947 41.1123 24.4879 39.0378 26.5162C37.8635 27.6649 36.7137 28.8381 35.5522 29.9985C34.8868 30.6639 34.2174 31.3253 33.5765 31.9623H33.5775ZM32.0245 33.5718C31.9854 33.5963 31.9394 33.6159 31.9071 33.6481C30.0664 35.4876 28.1974 37.2988 26.3978 39.1784C25.1287 40.5032 24.7167 42.1372 25.1512 43.9229C26.1043 47.8406 30.8884 49.2545 33.7996 46.4669C35.6549 44.69 37.4418 42.8417 39.2579 41.0237C39.301 40.9807 39.3284 40.922 39.347 40.8956C36.9055 38.4533 34.4807 36.0287 32.0245 33.5718Z" fill="#2D2D2D"/>
</g>
<defs>
<clipPath id="clip0_158_400">
<rect width="50" height="50" fill="white"/>
</clipPath>
</defs>
</svg>
