<svg width="50" height="50" viewBox="0 0 50 50" fill="none" xmlns="http://www.w3.org/2000/svg">
<path d="M3.82035 6.88645C3.91534 6.82782 5.58753 5.77703 6.58911 3.91998C6.98964 4.66239 7.57366 5.45446 8.41413 6.06677C7.90033 6.63864 7.21802 7.51978 6.68274 8.64499C6.61741 8.51808 6.54696 8.38934 6.47095 8.25924C6.25631 7.89201 5.785 7.76805 5.418 7.9828C5.051 8.19732 4.92726 8.66874 5.14167 9.03586C5.78137 10.1307 5.94839 11.1294 5.94964 11.1369C6.00725 11.5084 6.32483 11.7837 6.70069 11.7885C6.70387 11.7885 6.70717 11.7885 6.71035 11.7885C7.08201 11.7885 7.40141 11.5224 7.46776 11.1558C7.96759 8.39116 10.1354 6.51399 10.1561 6.49638C10.357 6.32629 10.4572 6.06541 10.4215 5.80464C10.3859 5.54376 10.2194 5.31936 9.9802 5.20937C7.80897 4.21199 7.30108 1.44788 7.29653 1.42197C7.23188 1.0419 6.89783 0.770231 6.51015 0.781594C6.12451 0.795342 5.80875 1.09258 5.77148 1.47651C5.52878 3.97917 3.03567 5.56172 3.01056 5.5774C2.65003 5.80112 2.53834 6.27448 2.76127 6.63568C2.98408 6.99734 3.45834 7.1096 3.82035 6.88645Z" fill="white"/>
<path d="M24.9748 21.2983C24.5497 21.2983 24.2051 21.6431 24.2051 22.068V24.8841C24.2051 25.309 24.5497 25.6536 24.9748 25.6536C25.3999 25.6536 25.7444 25.309 25.7444 24.8841V22.068C25.7446 21.6431 25.4001 21.2983 24.9748 21.2983Z" fill="white"/>
<path d="M49.583 22.143L41.6542 18.057C41.6329 18.0427 41.6116 18.0284 41.5887 18.0161L34.9249 14.4656C34.5496 14.2658 34.0835 14.4079 33.8837 14.7831C33.6837 15.1582 33.8258 15.6242 34.2009 15.8242L39.6264 18.7148L25.0113 27.059L10.4172 18.7188L15.8503 15.8241C16.2254 15.6241 16.3677 15.1581 16.1677 14.7829C15.9679 14.4078 15.5015 14.2657 15.1264 14.4655L8.57413 17.9565C8.38847 18.0103 8.22235 18.1325 8.11895 18.3135C7.90818 18.6827 8.03658 19.1529 8.40574 19.3635L23.4638 27.9608L17.0402 31.395L2.37122 22.8676L5.98307 21.0062C6.36098 20.8114 6.50937 20.3473 6.31462 19.9694C6.11987 19.5916 5.65606 19.4439 5.27769 19.6378L0.417126 22.1428C0.167269 22.2716 0.00751468 22.5262 0.000242805 22.8075C-0.00680183 23.0887 0.139886 23.3513 0.382925 23.4926L16.6376 32.9417C16.757 33.011 16.8907 33.0459 17.0244 33.0459C17.149 33.0459 17.2738 33.0155 17.3872 32.955L24.2048 29.3103V46.5914L9.59412 38.2416V31.7066C9.59412 31.2817 9.2495 30.937 8.82444 30.937C8.39938 30.937 8.05476 31.2817 8.05476 31.7066V38.6882C8.05476 38.9645 8.20269 39.2196 8.44255 39.3567L24.3827 48.466C24.4399 48.535 24.5083 48.5955 24.5883 48.6418C24.7077 48.7112 24.8412 48.7458 24.9746 48.7458C24.9916 48.7458 25.0087 48.7436 25.0256 48.7426C25.0427 48.7437 25.0597 48.7458 25.0766 48.7458C25.2103 48.7458 25.3436 48.7112 25.463 48.6418C25.5428 48.5955 25.6115 48.5351 25.6685 48.466L41.6087 39.3567C41.8484 39.2196 41.9965 38.9645 41.9965 38.6882V31.8084C41.9965 31.3834 41.6519 31.0387 41.2268 31.0387C40.8017 31.0387 40.4571 31.3834 40.4571 31.8084V38.2414L25.8465 46.5913V28.3715L41.2393 19.5749L47.6289 22.8677L32.9599 31.3951L29.2725 29.4235C28.8974 29.2238 28.4315 29.3646 28.2308 29.7394C28.0303 30.1143 28.1717 30.5805 28.5466 30.7812L32.6126 32.955C32.7262 33.0155 32.851 33.0459 32.9756 33.0459C33.1094 33.0459 33.2431 33.011 33.3624 32.9417L49.6172 23.4926C49.8602 23.3513 50.0069 23.0887 49.9997 22.8075C49.9927 22.5265 49.8329 22.2717 49.583 22.143Z" fill="white"/>
<path d="M12.104 7.68481C12.1081 7.70924 12.1146 7.73299 12.1211 7.75708C12.1273 7.78048 12.1333 7.80366 12.1417 7.82616C12.1505 7.84957 12.1616 7.87195 12.1727 7.89456C12.1834 7.9166 12.194 7.93853 12.2069 7.95944C12.2191 7.97944 12.2336 7.9983 12.2479 8.01727C12.2642 8.0392 12.2808 8.06068 12.2995 8.08079C12.3053 8.08704 12.3092 8.0942 12.3152 8.10022L24.4285 20.2921L24.4287 20.2923C24.4332 20.2967 24.4385 20.3004 24.443 20.3047C24.4739 20.3342 24.5067 20.3616 24.5418 20.3855C24.5442 20.3872 24.5462 20.3892 24.5487 20.3908C24.5862 20.4157 24.6261 20.4361 24.6671 20.4539C24.6722 20.4562 24.6769 20.459 24.6821 20.4612C24.6834 20.4616 24.6844 20.4625 24.6855 20.463C24.693 20.466 24.7011 20.4671 24.7086 20.4698C24.7388 20.4809 24.7694 20.4901 24.8008 20.4974C24.8091 20.4993 24.8171 20.5027 24.8255 20.5045C24.8314 20.5056 24.8372 20.5059 24.8429 20.5068C24.8857 20.5143 24.929 20.5191 24.9729 20.5192C24.9734 20.5192 24.9739 20.5193 24.9743 20.5193H24.9746H24.9748C24.9752 20.5193 24.9758 20.5192 24.9764 20.5192C25.0201 20.5191 25.0634 20.5142 25.1063 20.5067C25.1121 20.5057 25.1178 20.5055 25.1236 20.5043C25.1322 20.5026 25.1401 20.4992 25.1485 20.4972C25.1797 20.4899 25.2101 20.4808 25.2401 20.4698C25.2478 20.467 25.2559 20.4659 25.2636 20.4628C25.265 20.4623 25.2659 20.4615 25.2671 20.4609C25.2724 20.4588 25.2771 20.4558 25.2824 20.4535C25.3232 20.4357 25.363 20.4155 25.4002 20.3907C25.4012 20.39 25.4022 20.3894 25.4032 20.3886C25.4039 20.3881 25.4045 20.3873 25.4054 20.3869C25.4066 20.3861 25.4075 20.3849 25.4087 20.3841C25.4431 20.3605 25.4753 20.3337 25.5059 20.3046C25.5104 20.3002 25.5159 20.2965 25.5203 20.2921L25.5206 20.2919L37.6338 8.09999C37.6398 8.09397 37.6438 8.08681 37.6496 8.08068C37.6684 8.06056 37.6849 8.03898 37.7013 8.01705C37.7156 7.99807 37.7299 7.97921 37.7422 7.95933C37.755 7.93831 37.7656 7.91626 37.7765 7.89411C37.7876 7.8715 37.7986 7.84923 37.8073 7.82593C37.8157 7.80321 37.8217 7.77992 37.8282 7.7564C37.8347 7.73253 37.841 7.7089 37.8451 7.68459C37.8492 7.6605 37.8508 7.63607 37.8525 7.61141C37.8542 7.5863 37.8558 7.56153 37.8551 7.53631C37.8544 7.51313 37.8517 7.49006 37.8489 7.46677C37.8456 7.43893 37.8416 7.41166 37.8351 7.38428C37.8328 7.37485 37.833 7.36542 37.8305 7.35599C37.8272 7.3436 37.8209 7.33281 37.8169 7.32065C37.8083 7.29361 37.7983 7.26713 37.7865 7.24112C37.7767 7.21941 37.7659 7.19862 37.7543 7.17817C37.7418 7.15612 37.7283 7.13465 37.7133 7.11363C37.698 7.09204 37.6818 7.0717 37.6644 7.05205C37.6558 7.04205 37.6493 7.03091 37.64 7.02125L32.5273 1.75119C32.3825 1.602 32.183 1.51758 31.9749 1.51758H17.9741C17.7659 1.51758 17.5667 1.602 17.4217 1.75119L12.309 7.02125C12.2999 7.03057 12.2939 7.04137 12.2854 7.05102C12.2675 7.07125 12.2508 7.09215 12.2351 7.11442C12.2207 7.13488 12.2075 7.15567 12.1953 7.17703C12.1833 7.19805 12.1722 7.21941 12.1621 7.2418C12.1506 7.26748 12.1408 7.29327 12.1323 7.31974C12.1283 7.33213 12.122 7.34303 12.1186 7.35576C12.116 7.3653 12.1161 7.37485 12.1138 7.38451C12.1075 7.41166 12.1035 7.43893 12.1002 7.46643C12.0973 7.48995 12.0946 7.51313 12.0939 7.53642C12.0932 7.56153 12.0948 7.58641 12.0966 7.61153C12.0985 7.63652 12.1 7.66084 12.104 7.68481ZM24.9745 17.6994L22.1819 10.8062H24.9745H27.7671L24.9745 17.6994ZM18.2999 3.05751H31.6494L35.6263 7.15681L31.7112 8.21918L29.5912 4.18079C29.3937 3.80436 28.9279 3.65983 28.5518 3.85708C28.1753 4.05467 28.0305 4.51984 28.2281 4.89628L30.6352 9.48142C30.7707 9.73934 31.0361 9.8933 31.3167 9.8933C31.3836 9.8933 31.4514 9.88467 31.5184 9.86649L34.5175 9.05272L27.124 16.4942L29.6231 10.3254C29.7192 10.0881 29.6912 9.81854 29.548 9.60618C29.4048 9.39393 29.1657 9.26667 28.9097 9.26667H24.9747H21.0398C20.7838 9.26667 20.5446 9.39405 20.4016 9.60618C20.2584 9.81854 20.2303 10.0881 20.3264 10.3254L22.8254 16.4942L15.4319 9.05272L18.431 9.86649C18.4981 9.88467 18.5658 9.8933 18.6327 9.8933C18.9131 9.8933 19.1787 9.73934 19.3141 9.48142L21.7214 4.89628C21.919 4.51984 21.774 4.05455 21.3977 3.85708C21.0215 3.65971 20.556 3.80424 20.3584 4.18079L18.2383 8.21918L14.3232 7.15681L18.2999 3.05751Z" fill="white"/>
<path d="M39.9183 12.1682C40.0134 12.1096 41.6854 11.0587 42.6869 9.20173C43.0874 9.94414 43.6715 10.7362 44.512 11.3485C43.9982 11.9205 43.316 12.8014 42.7808 13.9265C42.7153 13.7998 42.6449 13.671 42.5689 13.5408C42.3542 13.1735 41.8829 13.0498 41.5159 13.2643C41.1489 13.4788 41.0252 13.9503 41.2396 14.3173C41.8793 15.4121 42.0462 16.411 42.0474 16.4185C42.1052 16.7901 42.4227 17.0654 42.7984 17.0701C42.8017 17.0701 42.8049 17.0701 42.8082 17.0701C43.1798 17.0701 43.4991 16.804 43.5655 16.4375C44.0653 13.6728 46.2332 11.7955 46.2537 11.778C46.4548 11.6079 46.5548 11.347 46.5192 11.0863C46.4836 10.8254 46.3172 10.6009 46.0779 10.4909C43.9067 9.49363 43.3987 6.72941 43.3942 6.70361C43.3297 6.3232 42.9965 6.05369 42.6078 6.06323C42.2222 6.07698 41.9064 6.37422 41.8692 6.75815C41.6264 9.2607 39.1334 10.8434 39.1081 10.859C38.7476 11.0828 38.636 11.5561 38.859 11.9173C39.0821 12.279 39.5564 12.3912 39.9183 12.1682Z" fill="white"/>
</svg>
