<svg width="50" height="58" viewBox="0 0 50 58" fill="none" xmlns="http://www.w3.org/2000/svg">
<g clip-path="url(#clip0_160_979)">
<path d="M0.152232 21.7802C0.152232 18.2956 0.164218 14.8111 0.142643 11.3266C0.137849 10.604 0.39674 10.1886 1.09431 9.89678C8.79033 6.68057 16.4768 3.44201 24.1584 0.192851C24.7313 -0.0495709 25.2215 -0.073107 25.8052 0.174022C33.4857 3.42553 41.1721 6.6641 48.8681 9.88031C49.5825 10.1792 49.8581 10.597 49.8557 11.3466C49.8366 17.4142 49.7874 23.483 49.8557 29.5506C50.0139 43.7535 40.3475 54.3365 27.7961 57.6139C25.9047 58.1081 24.1284 58.1423 22.2395 57.6186C13.5534 55.2085 6.9685 50.2765 2.93172 42.2672C1.0164 38.4696 0.184593 34.4037 0.158225 30.1767C0.140246 27.3782 0.154629 24.5786 0.154629 21.779H0.152232V21.7802ZM47.8721 22.1509C47.8913 22.1509 47.9116 22.1509 47.9308 22.1509C47.9308 18.8829 47.9164 15.6137 47.944 12.3457C47.9488 11.7597 47.7918 11.4643 47.2129 11.223C39.9543 8.19748 32.7114 5.13543 25.4552 2.10398C25.1892 1.99336 24.7888 2.00395 24.5192 2.11693C17.2283 5.16603 9.94814 8.2422 2.65604 11.2901C2.1886 11.4855 2.05676 11.7208 2.05796 12.1927C2.07354 18.2403 2.04118 24.2879 2.07953 30.3355C2.1107 35.1946 3.35481 39.7511 5.99406 43.8806C10.3796 50.7437 16.8207 54.6389 24.8056 56.2452C24.9722 56.2782 25.1604 56.2499 25.3306 56.217C28.2036 55.6663 30.9663 54.7801 33.5324 53.3962C42.3203 48.6572 47.2045 41.3998 47.8397 31.5429C48.0411 28.4244 47.8709 25.2823 47.8709 22.152L47.8721 22.1509Z" fill="white"/>
<path d="M3.91761 22.6239C3.91761 19.6289 3.9272 16.6351 3.90922 13.6401C3.90562 13.0094 4.14054 12.6257 4.73983 12.3751C11.2972 9.62959 17.8462 6.86292 24.4108 4.13155C24.7488 3.99034 25.2534 3.98916 25.5914 4.1292C32.1547 6.86174 38.7037 9.62841 45.2599 12.3774C45.8268 12.6151 46.0869 12.9682 46.0857 13.5848C46.0737 19.0852 46.1145 24.5844 46.0725 30.0848C45.9874 41.3845 38.7612 50.5953 27.5594 53.8563C25.8071 54.367 24.1806 54.3882 22.4355 53.8504C15.0835 51.5874 9.51613 47.2744 6.17452 40.3807C4.59121 37.1139 3.91042 33.6352 3.91761 30.0213C3.9224 27.5547 3.91761 25.0893 3.91761 22.6227V22.6239ZM44.1512 23.0793C44.1512 23.0793 44.1572 23.0793 44.1596 23.0793C44.1596 20.2408 44.15 17.4024 44.1704 14.5651C44.174 14.1367 44.0685 13.9155 43.6418 13.7378C37.5759 11.2042 31.5219 8.64578 25.4559 6.11212C25.2018 6.0062 24.8231 5.99561 24.5726 6.10035C18.4886 8.64107 12.4155 11.2065 6.33393 13.7543C5.97675 13.9037 5.82214 14.065 5.82454 14.4733C5.84251 19.7972 5.82334 25.121 5.84491 30.4461C5.85929 33.9483 6.66473 37.2833 8.31876 40.3866C11.7059 46.7413 17.1247 50.5341 24.1051 52.33C24.6996 52.4829 25.2677 52.5347 25.8574 52.3335C27.3592 51.8192 28.9306 51.4521 30.3593 50.7872C38.9278 46.8025 43.6358 40.1841 44.1296 30.8309C44.2651 28.2537 44.15 25.6647 44.15 23.0805L44.1512 23.0793Z" fill="white"/>
<path d="M15.373 32.8543C15.0746 32.7225 14.8037 32.6059 14.5364 32.4836C12.9807 31.7716 12.1621 30.3288 12.3694 28.6672C12.3814 28.5695 12.3886 28.4718 12.4126 28.3765C12.7734 26.9114 12.4605 25.5981 11.703 24.2836C10.6315 22.4242 10.9599 20.8861 12.536 19.4351C12.6811 19.301 12.8189 19.1562 12.9759 19.0374C13.8545 18.3725 14.3866 17.517 14.5209 16.4261C14.5544 16.1554 14.6431 15.8918 14.7078 15.6258C15.1273 13.8865 16.3091 12.7238 18.125 12.7156C19.9923 12.7074 21.4905 12.1237 22.9061 10.9716C24.1382 9.96775 25.8809 9.97717 27.1214 10.9869C28.5202 12.126 29.9992 12.7097 31.8474 12.7109C33.662 12.7109 34.9565 13.8477 35.2585 15.6035C35.5474 17.2828 36.3265 18.5502 37.6437 19.6376C39.016 20.7696 39.3456 22.4842 38.4419 23.9964C37.531 25.5204 37.3249 27.035 37.6077 28.7625C37.8978 30.5348 36.9533 31.7928 35.2849 32.5906C35.3532 32.7683 35.4143 32.9449 35.4898 33.1167C36.3061 34.9854 37.1199 36.8542 37.9469 38.7183C38.1399 39.1525 38.2765 39.5667 37.9182 39.9775C37.5873 40.3576 37.1762 40.3493 36.7172 40.2481C35.6876 40.0222 34.6473 39.8421 33.6165 39.6173C33.312 39.5514 33.1526 39.6221 32.9932 39.8833C32.4311 40.8071 31.8762 41.7368 31.2457 42.6147C31.0491 42.8889 30.6093 43.1666 30.3024 43.1454C29.9956 43.1231 29.5881 42.7877 29.4467 42.4876C28.6616 40.82 27.9341 39.1266 27.2101 37.432C27.0639 37.0907 26.8661 36.8966 26.4994 36.8154C25.8078 36.6624 25.1306 36.2905 24.4079 36.5835C24.1298 36.6953 23.8146 36.9142 23.6911 37.1672C22.6208 39.3514 21.5876 41.5532 20.5497 43.7526C20.3471 44.181 20.111 44.5529 19.5656 44.5682C19.0491 44.5835 18.7914 44.2445 18.5636 43.855C18.0483 42.9736 17.5137 42.1016 17.0091 41.2143C16.8509 40.9354 16.6951 40.833 16.3523 40.9001C15.3167 41.1013 14.2704 41.2437 13.2336 41.439C12.7662 41.5273 12.3586 41.5097 12.0482 41.1142C11.7318 40.7118 11.86 40.3175 12.0566 39.9045C13.0982 37.7286 14.1277 35.5468 15.1597 33.3662C15.2328 33.2108 15.2915 33.0484 15.3707 32.8566L15.373 32.8543ZM14.5532 26.4901C14.4382 27.4492 14.3567 28.1482 14.2704 28.8472C14.1589 29.751 14.5293 30.4171 15.3671 30.7913C15.6751 30.929 15.9843 31.069 16.3043 31.175C17.6899 31.6386 18.7207 32.5059 19.4206 33.7639C19.5441 33.9863 19.6999 34.1923 19.8425 34.4041C20.4646 35.3361 21.1334 35.6386 22.1821 35.2302C24.0783 34.4935 25.9348 34.4476 27.8094 35.2443C27.8813 35.2749 27.9628 35.2867 28.0395 35.3067C28.8606 35.5197 29.5306 35.2855 30.0232 34.5995C30.2293 34.3123 30.4343 34.0205 30.6081 33.7133C31.308 32.4777 32.3316 31.6316 33.6944 31.175C33.9389 31.0926 34.1738 30.9831 34.4111 30.8819C35.5138 30.4159 35.9034 29.8146 35.6852 28.6731C35.3376 26.8514 35.5294 25.1662 36.5362 23.5434C37.3189 22.283 37.1918 21.6546 36.0076 20.692C34.6005 19.5481 33.7855 18.1465 33.4846 16.3802C33.2365 14.9245 32.7319 14.5149 31.2062 14.5302C29.4251 14.5479 27.9149 14.0207 26.5485 12.8921C25.2864 11.8495 24.7147 11.853 23.4514 12.8921C22.1018 14.0018 20.6192 14.5467 18.8537 14.529C17.2476 14.5126 16.7778 14.8939 16.5057 16.439C16.1977 18.1842 15.415 19.6046 13.9827 20.6814C13.8257 20.8002 13.6855 20.9426 13.5488 21.0839C12.9831 21.6652 12.8584 22.3513 13.206 23.0821C13.4925 23.6834 13.8521 24.2565 14.0942 24.8743C14.3255 25.4651 14.4478 26.0982 14.5556 26.4877L14.5532 26.4901ZM21.4917 37.2979C20.2788 37.212 19.3175 36.826 18.6284 35.9598C18.2137 35.4385 17.8709 34.8607 17.4909 34.3111C17.3759 34.1452 17.244 33.9922 17.0762 33.7769C16.1857 35.6586 15.3419 37.4403 14.4585 39.3055C15.3335 39.1619 16.1186 39.0548 16.894 38.8971C17.5173 38.7712 17.9224 38.9842 18.2209 39.5173C18.5984 40.1916 19.0095 40.8483 19.4542 41.5932C20.1529 40.121 20.805 38.7465 21.4929 37.2979H21.4917ZM29.195 37.2143C29.6408 38.2311 30.0615 39.1878 30.5194 40.2328C30.9976 39.4797 31.4243 38.8254 31.8318 38.1605C32.1362 37.665 32.5342 37.465 33.1323 37.6015C33.9101 37.7804 34.7 37.9122 35.5833 38.0828C34.8594 36.4376 34.1846 34.9066 33.4187 33.1661C32.8997 33.8569 32.4407 34.3841 32.0799 34.9701C31.4087 36.0599 30.6021 36.9554 29.1962 37.2143H29.195Z" fill="white"/>
<path d="M25.0201 15.334C29.776 15.3469 33.6138 19.1586 33.6006 23.8564C33.5862 28.4377 29.6657 32.2423 24.9781 32.2223C20.245 32.2023 16.3772 28.3871 16.3975 23.7564C16.4191 19.1056 20.2929 15.3222 25.0201 15.3352V15.334ZM18.3141 23.7328C18.2925 27.348 21.2937 30.3265 24.9697 30.3394C28.6266 30.3524 31.6481 27.4304 31.6829 23.847C31.7177 20.2283 28.732 17.2392 25.0572 17.2122C21.3704 17.1863 18.3356 20.12 18.3141 23.7317V23.7328Z" fill="white"/>
<path d="M23.2908 25.1001C24.9413 23.6302 26.5318 22.2145 28.1223 20.7977C28.8414 20.1575 29.382 20.0751 29.8219 20.5376C30.2593 20.9989 30.1251 21.5485 29.4203 22.1769C27.6656 23.7397 25.9121 25.3048 24.1562 26.8664C23.4431 27.5007 23.0619 27.489 22.3751 26.8182C21.6836 26.1427 20.9908 25.4684 20.3076 24.7835C19.8246 24.2986 19.7994 23.7291 20.2213 23.3396C20.6336 22.9583 21.1694 22.9912 21.6488 23.4549C22.1882 23.975 22.7083 24.514 23.2908 25.0989V25.1001Z" fill="white"/>
</g>
<defs>
<clipPath id="clip0_160_979">
<rect width="49.7143" height="58" fill="white" transform="translate(0.142578)"/>
</clipPath>
</defs>
</svg>
