<svg width="1052" height="176" viewBox="0 0 1052 176" fill="none" xmlns="http://www.w3.org/2000/svg">
<path d="M54.3203 54.7715L28.3193 139H0.707031L39.8916 32.3594H57.3965L54.3203 54.7715ZM75.8535 139L49.7793 54.7715L46.4102 32.3594H64.1348L103.539 139H75.8535ZM74.8281 99.2295V119.078H20.1162V99.2295H74.8281ZM143.756 121.422C146.051 121.422 148.004 121.007 149.615 120.177C151.275 119.298 152.52 118.077 153.351 116.515C154.229 114.903 154.644 112.975 154.596 110.729H177.813C177.862 116.686 176.397 121.91 173.419 126.402C170.489 130.846 166.485 134.312 161.407 136.803C156.378 139.244 150.689 140.465 144.342 140.465C138.141 140.465 132.721 139.464 128.082 137.462C123.443 135.411 119.561 132.579 116.436 128.966C113.36 125.304 111.041 121.031 109.478 116.148C107.965 111.266 107.208 105.968 107.208 100.255V98.5703C107.208 92.8574 107.965 87.5596 109.478 82.6768C111.041 77.7451 113.36 73.4727 116.436 69.8594C119.561 66.1973 123.419 63.3652 128.009 61.3633C132.647 59.3125 138.043 58.2871 144.195 58.2871C150.787 58.2871 156.598 59.5322 161.627 62.0225C166.705 64.5127 170.684 68.126 173.565 72.8623C176.446 77.5986 177.862 83.3359 177.813 90.0742H154.596C154.644 87.6816 154.278 85.5332 153.497 83.6289C152.716 81.7246 151.495 80.2109 149.835 79.0879C148.224 77.916 146.148 77.3301 143.609 77.3301C141.07 77.3301 139.019 77.8916 137.457 79.0146C135.894 80.1377 134.698 81.7002 133.868 83.7021C133.087 85.6553 132.55 87.9014 132.257 90.4404C132.013 92.9795 131.891 95.6895 131.891 98.5703V100.255C131.891 103.185 132.013 105.943 132.257 108.531C132.55 111.07 133.111 113.316 133.941 115.27C134.771 117.174 135.968 118.688 137.53 119.811C139.093 120.885 141.168 121.422 143.756 121.422ZM221.912 121.422C224.207 121.422 226.16 121.007 227.771 120.177C229.431 119.298 230.677 118.077 231.507 116.515C232.386 114.903 232.801 112.975 232.752 110.729H255.97C256.018 116.686 254.554 121.91 251.575 126.402C248.645 130.846 244.641 134.312 239.563 136.803C234.534 139.244 228.846 140.465 222.498 140.465C216.297 140.465 210.877 139.464 206.238 137.462C201.599 135.411 197.718 132.579 194.593 128.966C191.516 125.304 189.197 121.031 187.635 116.148C186.121 111.266 185.364 105.968 185.364 100.255V98.5703C185.364 92.8574 186.121 87.5596 187.635 82.6768C189.197 77.7451 191.516 73.4727 194.593 69.8594C197.718 66.1973 201.575 63.3652 206.165 61.3633C210.804 59.3125 216.199 58.2871 222.351 58.2871C228.943 58.2871 234.754 59.5322 239.783 62.0225C244.861 64.5127 248.841 68.126 251.722 72.8623C254.602 77.5986 256.018 83.3359 255.97 90.0742H232.752C232.801 87.6816 232.434 85.5332 231.653 83.6289C230.872 81.7246 229.651 80.2109 227.991 79.0879C226.38 77.916 224.305 77.3301 221.765 77.3301C219.226 77.3301 217.176 77.8916 215.613 79.0146C214.051 80.1377 212.854 81.7002 212.024 83.7021C211.243 85.6553 210.706 87.9014 210.413 90.4404C210.169 92.9795 210.047 95.6895 210.047 98.5703V100.255C210.047 103.185 210.169 105.943 210.413 108.531C210.706 111.07 211.267 113.316 212.098 115.27C212.928 117.174 214.124 118.688 215.686 119.811C217.249 120.885 219.324 121.422 221.912 121.422ZM304.975 140.465C298.53 140.465 292.768 139.464 287.69 137.462C282.612 135.411 278.315 132.604 274.8 129.039C271.333 125.475 268.672 121.373 266.816 116.734C265.01 112.096 264.106 107.188 264.106 102.013V99.2295C264.106 93.4189 264.912 88.0479 266.523 83.1162C268.135 78.1357 270.527 73.79 273.701 70.0791C276.875 66.3682 280.854 63.4873 285.639 61.4365C290.425 59.3369 295.991 58.2871 302.339 58.2871C307.954 58.2871 312.983 59.1904 317.427 60.9971C321.87 62.8037 325.63 65.3916 328.706 68.7607C331.831 72.1299 334.199 76.207 335.81 80.9922C337.47 85.7773 338.301 91.1484 338.301 97.1055V107.14H273.554V91.6855H314.204V89.7812C314.253 87.1445 313.789 84.8984 312.812 83.043C311.885 81.1875 310.517 79.7715 308.711 78.7949C306.904 77.8184 304.707 77.3301 302.119 77.3301C299.433 77.3301 297.212 77.916 295.454 79.0879C293.745 80.2598 292.402 81.8711 291.426 83.9219C290.498 85.9238 289.839 88.2432 289.448 90.8799C289.057 93.5166 288.862 96.2998 288.862 99.2295V102.013C288.862 104.942 289.253 107.604 290.034 109.996C290.864 112.389 292.036 114.439 293.55 116.148C295.112 117.809 296.968 119.103 299.116 120.03C301.313 120.958 303.803 121.422 306.587 121.422C309.956 121.422 313.276 120.787 316.548 119.518C319.819 118.248 322.627 116.148 324.97 113.219L336.177 126.549C334.565 128.844 332.27 131.065 329.292 133.214C326.362 135.362 322.846 137.12 318.745 138.487C314.643 139.806 310.053 140.465 304.975 140.465ZM389.943 116.734C389.943 115.367 389.479 114.195 388.551 113.219C387.673 112.193 386.11 111.266 383.864 110.436C381.618 109.557 378.468 108.678 374.416 107.799C370.558 106.969 366.921 105.87 363.503 104.503C360.133 103.136 357.179 101.476 354.64 99.5225C352.101 97.5693 350.099 95.25 348.634 92.5645C347.218 89.8789 346.51 86.8027 346.51 83.3359C346.51 79.9668 347.218 76.793 348.634 73.8145C350.099 70.7871 352.223 68.126 355.007 65.8311C357.839 63.4873 361.281 61.6562 365.334 60.3379C369.386 58.9707 374.001 58.2871 379.176 58.2871C386.305 58.2871 392.458 59.3857 397.633 61.583C402.809 63.7314 406.789 66.7588 409.572 70.665C412.404 74.5225 413.82 78.9902 413.82 84.0684H389.137C389.137 82.0664 388.796 80.3574 388.112 78.9414C387.477 77.5254 386.427 76.4512 384.963 75.7188C383.498 74.9375 381.545 74.5469 379.103 74.5469C377.394 74.5469 375.832 74.8643 374.416 75.499C373.049 76.1338 371.95 77.0127 371.12 78.1357C370.29 79.2588 369.875 80.5771 369.875 82.0908C369.875 83.165 370.119 84.1416 370.607 85.0205C371.144 85.8506 371.95 86.6318 373.024 87.3643C374.098 88.0479 375.466 88.6826 377.126 89.2686C378.786 89.8057 380.788 90.2939 383.132 90.7334C388.454 91.71 393.434 93.1016 398.073 94.9082C402.712 96.7148 406.471 99.2783 409.352 102.599C412.282 105.919 413.747 110.387 413.747 116.002C413.747 119.518 412.941 122.765 411.33 125.743C409.718 128.673 407.399 131.261 404.372 133.507C401.344 135.704 397.707 137.413 393.459 138.634C389.211 139.854 384.425 140.465 379.103 140.465C371.535 140.465 365.138 139.122 359.914 136.437C354.689 133.702 350.734 130.284 348.049 126.183C345.412 122.032 344.093 117.833 344.093 113.585H367.091C367.189 116.026 367.775 118.028 368.849 119.591C369.972 121.153 371.462 122.301 373.317 123.033C375.173 123.766 377.321 124.132 379.762 124.132C382.008 124.132 383.864 123.814 385.329 123.18C386.842 122.545 387.99 121.69 388.771 120.616C389.552 119.493 389.943 118.199 389.943 116.734ZM466.927 116.734C466.927 115.367 466.463 114.195 465.536 113.219C464.657 112.193 463.094 111.266 460.848 110.436C458.602 109.557 455.453 108.678 451.4 107.799C447.543 106.969 443.905 105.87 440.487 104.503C437.118 103.136 434.164 101.476 431.625 99.5225C429.086 97.5693 427.084 95.25 425.619 92.5645C424.203 89.8789 423.495 86.8027 423.495 83.3359C423.495 79.9668 424.203 76.793 425.619 73.8145C427.084 70.7871 429.208 68.126 431.991 65.8311C434.823 63.4873 438.265 61.6562 442.318 60.3379C446.371 58.9707 450.985 58.2871 456.161 58.2871C463.29 58.2871 469.442 59.3857 474.618 61.583C479.794 63.7314 483.773 66.7588 486.556 70.665C489.388 74.5225 490.804 78.9902 490.804 84.0684H466.122C466.122 82.0664 465.78 80.3574 465.096 78.9414C464.462 77.5254 463.412 76.4512 461.947 75.7188C460.482 74.9375 458.529 74.5469 456.087 74.5469C454.379 74.5469 452.816 74.8643 451.4 75.499C450.033 76.1338 448.934 77.0127 448.104 78.1357C447.274 79.2588 446.859 80.5771 446.859 82.0908C446.859 83.165 447.103 84.1416 447.591 85.0205C448.129 85.8506 448.934 86.6318 450.008 87.3643C451.083 88.0479 452.45 88.6826 454.11 89.2686C455.77 89.8057 457.772 90.2939 460.116 90.7334C465.438 91.71 470.419 93.1016 475.057 94.9082C479.696 96.7148 483.456 99.2783 486.337 102.599C489.266 105.919 490.731 110.387 490.731 116.002C490.731 119.518 489.925 122.765 488.314 125.743C486.703 128.673 484.383 131.261 481.356 133.507C478.329 135.704 474.691 137.413 470.443 138.634C466.195 139.854 461.41 140.465 456.087 140.465C448.519 140.465 442.123 139.122 436.898 136.437C431.673 133.702 427.718 130.284 425.033 126.183C422.396 122.032 421.078 117.833 421.078 113.585H444.076C444.173 116.026 444.759 118.028 445.834 119.591C446.957 121.153 448.446 122.301 450.301 123.033C452.157 123.766 454.305 124.132 456.747 124.132C458.993 124.132 460.848 123.814 462.313 123.18C463.827 122.545 464.974 121.69 465.755 120.616C466.537 119.493 466.927 118.199 466.927 116.734ZM528.458 59.752V139H503.702V59.752H528.458ZM502.237 39.3174C502.237 35.8018 503.506 32.9209 506.045 30.6748C508.585 28.4287 511.88 27.3057 515.933 27.3057C519.986 27.3057 523.282 28.4287 525.821 30.6748C528.36 32.9209 529.629 35.8018 529.629 39.3174C529.629 42.833 528.36 45.7139 525.821 47.96C523.282 50.2061 519.986 51.3291 515.933 51.3291C511.88 51.3291 508.585 50.2061 506.045 47.96C503.506 45.7139 502.237 42.833 502.237 39.3174ZM543.992 26.5H568.674V119.518L566.111 139H543.992V26.5ZM617.307 98.4971V100.035C617.307 106.041 616.697 111.51 615.476 116.441C614.255 121.373 612.375 125.646 609.836 129.259C607.297 132.823 604.099 135.582 600.242 137.535C596.384 139.488 591.819 140.465 586.545 140.465C581.76 140.465 577.659 139.439 574.241 137.389C570.823 135.289 567.966 132.408 565.671 128.746C563.376 125.035 561.521 120.763 560.105 115.929C558.689 111.046 557.566 105.821 556.736 100.255V98.4238C557.566 92.9062 558.689 87.7305 560.105 82.8965C561.521 78.0137 563.376 73.7412 565.671 70.0791C567.966 66.3682 570.798 63.4873 574.167 61.4365C577.585 59.3369 581.663 58.2871 586.399 58.2871C591.721 58.2871 596.311 59.2881 600.168 61.29C604.075 63.292 607.297 66.0996 609.836 69.7129C612.375 73.3262 614.255 77.5742 615.476 82.457C616.697 87.3398 617.307 92.6865 617.307 98.4971ZM592.624 100.035V98.4971C592.624 95.6162 592.454 92.9062 592.112 90.3672C591.77 87.8281 591.16 85.582 590.281 83.6289C589.402 81.6758 588.157 80.1377 586.545 79.0146C584.934 77.8916 582.834 77.3301 580.247 77.3301C577.61 77.3301 575.388 77.7695 573.581 78.6484C571.824 79.5273 570.408 80.7969 569.333 82.457C568.308 84.0684 567.576 86.0703 567.136 88.4629C566.697 90.8066 566.501 93.4678 566.55 96.4463V102.232C566.453 106.285 566.819 109.752 567.649 112.633C568.479 115.514 569.919 117.711 571.97 119.225C574.021 120.738 576.829 121.495 580.393 121.495C583.03 121.495 585.154 120.982 586.765 119.957C588.425 118.932 589.67 117.467 590.5 115.562C591.331 113.658 591.892 111.388 592.185 108.751C592.478 106.114 592.624 103.209 592.624 100.035ZM654.448 59.752V139H629.692V59.752H654.448ZM628.227 39.3174C628.227 35.8018 629.496 32.9209 632.036 30.6748C634.575 28.4287 637.87 27.3057 641.923 27.3057C645.976 27.3057 649.272 28.4287 651.811 30.6748C654.35 32.9209 655.62 35.8018 655.62 39.3174C655.62 42.833 654.35 45.7139 651.811 47.96C649.272 50.2061 645.976 51.3291 641.923 51.3291C637.87 51.3291 634.575 50.2061 632.036 47.96C629.496 45.7139 628.227 42.833 628.227 39.3174ZM695.836 26.5V139H671.08V26.5H695.836ZM737.225 59.752V139H712.469V59.752H737.225ZM711.004 39.3174C711.004 35.8018 712.274 32.9209 714.813 30.6748C717.352 28.4287 720.648 27.3057 724.7 27.3057C728.753 27.3057 732.049 28.4287 734.588 30.6748C737.127 32.9209 738.397 35.8018 738.397 39.3174C738.397 42.833 737.127 45.7139 734.588 47.96C732.049 50.2061 728.753 51.3291 724.7 51.3291C720.648 51.3291 717.352 50.2061 714.813 47.96C712.274 45.7139 711.004 42.833 711.004 39.3174ZM794.287 59.752V76.8906H746.533V59.752H794.287ZM756.568 40.0498H781.25V113.146C781.25 115.245 781.494 116.881 781.983 118.053C782.471 119.176 783.301 119.981 784.473 120.47C785.693 120.909 787.305 121.129 789.307 121.129C790.723 121.129 791.895 121.104 792.822 121.056C793.75 120.958 794.629 120.836 795.459 120.689V138.341C793.359 139.024 791.162 139.537 788.867 139.879C786.572 140.27 784.131 140.465 781.543 140.465C776.27 140.465 771.753 139.635 767.993 137.975C764.282 136.314 761.45 133.702 759.497 130.138C757.544 126.573 756.568 121.935 756.568 116.222V40.0498ZM828.498 129.698L849.006 59.752H875.52L843.659 150.792C842.976 152.794 842.072 154.942 840.949 157.237C839.826 159.581 838.288 161.803 836.335 163.902C834.382 166.002 831.867 167.711 828.791 169.029C825.764 170.348 822.004 171.007 817.512 171.007C815.119 171.007 813.361 170.885 812.238 170.641C811.164 170.445 809.504 170.079 807.258 169.542V151.891C807.893 151.891 808.43 151.891 808.869 151.891C809.357 151.891 809.895 151.891 810.481 151.891C813.117 151.891 815.217 151.622 816.779 151.085C818.391 150.548 819.611 149.767 820.441 148.741C821.32 147.716 822.004 146.471 822.492 145.006L828.498 129.698ZM823.298 59.752L838.898 115.196L841.608 141.344H825.056L796.857 59.752H823.298Z" fill="url(#paint0_linear_1362_2446)"/>
<path d="M1051.96 35.7676L1051.97 56.8691C1051.99 83.4345 1030.46 104.983 1003.9 104.999L969.579 105.02L969.567 83.9186C969.55 57.3533 991.073 35.8047 1017.64 35.7885L1051.96 35.7676Z" fill="#FFEB9D"/>
<circle cx="934.662" cy="29.6622" r="29.6622" fill="#4BBA72"/>
<defs>
<linearGradient id="paint0_linear_1362_2446" x1="438.5" y1="0" x2="438.5" y2="176" gradientUnits="userSpaceOnUse">
<stop offset="0.25" stop-color="#4BBA72"/>
<stop offset="1" stop-color="#4BBA72" stop-opacity="0"/>
</linearGradient>
</defs>
</svg>
