<svg width="1052" height="176" viewBox="0 0 1052 176" fill="none" xmlns="http://www.w3.org/2000/svg">
<path d="M54.3203 54.7715L28.3193 139H0.707031L39.8916 32.3594H57.3965L54.3203 54.7715ZM75.8535 139L49.7793 54.7715L46.4102 32.3594H64.1348L103.539 139H75.8535ZM74.8281 99.2295V119.078H20.1162V99.2295H74.8281ZM140.533 139H115.704V53.3066C115.704 47.1543 116.949 41.9785 119.439 37.7793C121.93 33.5801 125.445 30.4062 129.986 28.2578C134.527 26.0605 139.898 24.9619 146.1 24.9619C148.248 24.9619 150.274 25.1084 152.179 25.4014C154.083 25.6943 155.938 26.0605 157.745 26.5L157.818 44.6641C156.939 44.4199 156.036 44.249 155.108 44.1514C154.181 44.0537 153.033 44.0049 151.666 44.0049C149.273 44.0049 147.247 44.3711 145.587 45.1035C143.927 45.7871 142.657 46.8369 141.778 48.2529C140.948 49.6201 140.533 51.3047 140.533 53.3066V139ZM155.914 59.752V76.8906H104.278V59.752H155.914ZM195.105 139H170.276V53.3066C170.276 47.1543 171.521 41.9785 174.012 37.7793C176.502 33.5801 180.017 30.4062 184.558 28.2578C189.099 26.0605 194.471 24.9619 200.672 24.9619C202.82 24.9619 204.847 25.1084 206.751 25.4014C208.655 25.6943 210.511 26.0605 212.317 26.5L212.39 44.6641C211.512 44.4199 210.608 44.249 209.681 44.1514C208.753 44.0537 207.605 44.0049 206.238 44.0049C203.846 44.0049 201.819 44.3711 200.159 45.1035C198.499 45.7871 197.229 46.8369 196.35 48.2529C195.52 49.6201 195.105 51.3047 195.105 53.3066V139ZM210.486 59.752V76.8906H158.85V59.752H210.486ZM216.352 100.182V98.6436C216.352 92.833 217.182 87.4863 218.843 82.6035C220.503 77.6719 222.944 73.3994 226.167 69.7861C229.389 66.1729 233.369 63.3652 238.105 61.3633C242.842 59.3125 248.31 58.2871 254.511 58.2871C260.761 58.2871 266.255 59.3125 270.991 61.3633C275.776 63.3652 279.78 66.1729 283.003 69.7861C286.225 73.3994 288.667 77.6719 290.327 82.6035C291.987 87.4863 292.817 92.833 292.817 98.6436V100.182C292.817 105.943 291.987 111.29 290.327 116.222C288.667 121.104 286.225 125.377 283.003 129.039C279.78 132.652 275.801 135.46 271.064 137.462C266.328 139.464 260.859 140.465 254.658 140.465C248.457 140.465 242.964 139.464 238.178 137.462C233.393 135.46 229.389 132.652 226.167 129.039C222.944 125.377 220.503 121.104 218.843 116.222C217.182 111.29 216.352 105.943 216.352 100.182ZM241.035 98.6436V100.182C241.035 103.16 241.255 105.943 241.694 108.531C242.134 111.119 242.866 113.39 243.891 115.343C244.917 117.247 246.308 118.736 248.066 119.811C249.824 120.885 252.021 121.422 254.658 121.422C257.246 121.422 259.394 120.885 261.103 119.811C262.861 118.736 264.253 117.247 265.278 115.343C266.303 113.39 267.036 111.119 267.475 108.531C267.915 105.943 268.135 103.16 268.135 100.182V98.6436C268.135 95.7627 267.915 93.0527 267.475 90.5137C267.036 87.9258 266.303 85.6553 265.278 83.7021C264.253 81.7002 262.861 80.1377 261.103 79.0146C259.345 77.8916 257.148 77.3301 254.511 77.3301C251.924 77.3301 249.751 77.8916 247.993 79.0146C246.284 80.1377 244.917 81.7002 243.891 83.7021C242.866 85.6553 242.134 87.9258 241.694 90.5137C241.255 93.0527 241.035 95.7627 241.035 98.6436ZM328.786 79.3809V139H304.103V59.752H327.174L328.786 79.3809ZM352.223 59.166L351.784 82.0908C350.807 81.9932 349.489 81.8711 347.829 81.7246C346.169 81.5781 344.777 81.5049 343.654 81.5049C340.773 81.5049 338.283 81.8467 336.183 82.5303C334.133 83.165 332.424 84.1416 331.056 85.46C329.738 86.7295 328.761 88.3408 328.127 90.2939C327.541 92.2471 327.272 94.5176 327.321 97.1055L322.853 94.1758C322.853 88.8535 323.366 84.0195 324.391 79.6738C325.466 75.2793 326.979 71.4951 328.932 68.3213C330.885 65.0986 333.254 62.6328 336.037 60.9238C338.82 59.166 341.945 58.2871 345.412 58.2871C346.633 58.2871 347.829 58.3604 349.001 58.5068C350.221 58.6533 351.296 58.873 352.223 59.166ZM404.891 120.836V26.5H429.72V139H407.455L404.891 120.836ZM356.258 100.328V98.79C356.258 92.7842 356.918 87.3154 358.236 82.3838C359.554 77.4033 361.507 73.1309 364.095 69.5664C366.683 65.9531 369.906 63.1699 373.763 61.2168C377.621 59.2637 382.064 58.2871 387.093 58.2871C391.586 58.2871 395.516 59.3369 398.885 61.4365C402.254 63.4873 405.135 66.3682 407.528 70.0791C409.921 73.79 411.874 78.1357 413.387 83.1162C414.901 88.0479 416.048 93.3701 416.83 99.083V100.914C416.048 106.285 414.901 111.363 413.387 116.148C411.874 120.885 409.921 125.084 407.528 128.746C405.135 132.408 402.23 135.289 398.812 137.389C395.443 139.439 391.488 140.465 386.947 140.465C381.918 140.465 377.474 139.464 373.617 137.462C369.808 135.46 366.61 132.652 364.022 129.039C361.483 125.426 359.554 121.178 358.236 116.295C356.918 111.412 356.258 106.09 356.258 100.328ZM380.941 98.79V100.328C380.941 103.307 381.136 106.065 381.527 108.604C381.918 111.144 382.577 113.39 383.504 115.343C384.481 117.247 385.751 118.736 387.313 119.811C388.924 120.885 390.902 121.422 393.246 121.422C396.42 121.422 399.032 120.665 401.083 119.151C403.182 117.638 404.72 115.489 405.697 112.706C406.722 109.923 407.162 106.651 407.015 102.892V97.1055C407.113 93.8828 406.893 91.0508 406.356 88.6094C405.819 86.1191 404.964 84.0439 403.793 82.3838C402.67 80.7236 401.229 79.4785 399.471 78.6484C397.762 77.7695 395.736 77.3301 393.392 77.3301C391.097 77.3301 389.144 77.8672 387.533 78.9414C385.97 80.0156 384.701 81.5293 383.724 83.4824C382.748 85.3867 382.04 87.6572 381.6 90.2939C381.161 92.8818 380.941 95.7139 380.941 98.79ZM484.952 119.078V86.4121C484.952 84.166 484.634 82.2373 484 80.626C483.365 79.0146 482.364 77.7695 480.997 76.8906C479.629 75.9629 477.798 75.499 475.503 75.499C473.648 75.499 472.061 75.8164 470.743 76.4512C469.424 77.0859 468.423 78.0381 467.74 79.3076C467.056 80.5771 466.714 82.1885 466.714 84.1416H442.032C442.032 80.4795 442.837 77.0859 444.449 73.9609C446.109 70.7871 448.453 68.0283 451.48 65.6846C454.556 63.3408 458.218 61.5342 462.466 60.2646C466.763 58.9463 471.548 58.2871 476.822 58.2871C483.121 58.2871 488.736 59.3369 493.668 61.4365C498.648 63.5361 502.579 66.6855 505.46 70.8848C508.34 75.0352 509.781 80.2598 509.781 86.5586V119.005C509.781 124.181 510.074 128.111 510.66 130.797C511.246 133.434 512.076 135.753 513.15 137.755V139H488.394C487.222 136.559 486.343 133.58 485.757 130.064C485.22 126.5 484.952 122.838 484.952 119.078ZM487.955 90.5869L488.101 103.771H477.188C474.893 103.771 472.94 104.088 471.329 104.723C469.766 105.357 468.497 106.236 467.52 107.359C466.592 108.434 465.909 109.654 465.469 111.021C465.079 112.389 464.883 113.829 464.883 115.343C464.883 116.808 465.225 118.126 465.909 119.298C466.641 120.421 467.618 121.3 468.838 121.935C470.059 122.569 471.426 122.887 472.94 122.887C475.674 122.887 477.994 122.374 479.898 121.349C481.851 120.274 483.34 118.98 484.366 117.467C485.391 115.953 485.904 114.537 485.904 113.219L491.324 123.326C490.347 125.279 489.224 127.257 487.955 129.259C486.734 131.261 485.196 133.116 483.34 134.825C481.534 136.485 479.312 137.853 476.675 138.927C474.039 139.952 470.84 140.465 467.081 140.465C462.198 140.465 457.706 139.464 453.604 137.462C449.551 135.46 446.304 132.677 443.863 129.112C441.421 125.499 440.201 121.349 440.201 116.661C440.201 112.56 440.933 108.897 442.398 105.675C443.912 102.452 446.182 99.7178 449.21 97.4717C452.237 95.2256 456.094 93.5166 460.782 92.3447C465.469 91.1729 470.987 90.5869 477.335 90.5869H487.955ZM523.777 26.5H548.459V119.518L545.896 139H523.777V26.5ZM597.092 98.4971V100.035C597.092 106.041 596.482 111.51 595.261 116.441C594.04 121.373 592.161 125.646 589.622 129.259C587.082 132.823 583.884 135.582 580.027 137.535C576.169 139.488 571.604 140.465 566.331 140.465C561.545 140.465 557.444 139.439 554.026 137.389C550.608 135.289 547.751 132.408 545.456 128.746C543.162 125.035 541.306 120.763 539.89 115.929C538.474 111.046 537.351 105.821 536.521 100.255V98.4238C537.351 92.9062 538.474 87.7305 539.89 82.8965C541.306 78.0137 543.162 73.7412 545.456 70.0791C547.751 66.3682 550.583 63.4873 553.953 61.4365C557.371 59.3369 561.448 58.2871 566.184 58.2871C571.506 58.2871 576.096 59.2881 579.954 61.29C583.86 63.292 587.082 66.0996 589.622 69.7129C592.161 73.3262 594.04 77.5742 595.261 82.457C596.482 87.3398 597.092 92.6865 597.092 98.4971ZM572.41 100.035V98.4971C572.41 95.6162 572.239 92.9062 571.897 90.3672C571.555 87.8281 570.945 85.582 570.066 83.6289C569.187 81.6758 567.942 80.1377 566.331 79.0146C564.719 77.8916 562.62 77.3301 560.032 77.3301C557.395 77.3301 555.173 77.7695 553.367 78.6484C551.609 79.5273 550.193 80.7969 549.119 82.457C548.093 84.0684 547.361 86.0703 546.921 88.4629C546.482 90.8066 546.287 93.4678 546.335 96.4463V102.232C546.238 106.285 546.604 109.752 547.434 112.633C548.264 115.514 549.705 117.711 551.755 119.225C553.806 120.738 556.614 121.495 560.178 121.495C562.815 121.495 564.939 120.982 566.55 119.957C568.21 118.932 569.456 117.467 570.286 115.562C571.116 113.658 571.677 111.388 571.97 108.751C572.263 106.114 572.41 103.209 572.41 100.035ZM634.233 59.752V139H609.477V59.752H634.233ZM608.012 39.3174C608.012 35.8018 609.282 32.9209 611.821 30.6748C614.36 28.4287 617.656 27.3057 621.708 27.3057C625.761 27.3057 629.057 28.4287 631.596 30.6748C634.135 32.9209 635.405 35.8018 635.405 39.3174C635.405 42.833 634.135 45.7139 631.596 47.96C629.057 50.2061 625.761 51.3291 621.708 51.3291C617.656 51.3291 614.36 50.2061 611.821 47.96C609.282 45.7139 608.012 42.833 608.012 39.3174ZM675.621 26.5V139H650.865V26.5H675.621ZM717.01 59.752V139H692.254V59.752H717.01ZM690.789 39.3174C690.789 35.8018 692.059 32.9209 694.598 30.6748C697.137 28.4287 700.433 27.3057 704.486 27.3057C708.538 27.3057 711.834 28.4287 714.373 30.6748C716.912 32.9209 718.182 35.8018 718.182 39.3174C718.182 42.833 716.912 45.7139 714.373 47.96C711.834 50.2061 708.538 51.3291 704.486 51.3291C700.433 51.3291 697.137 50.2061 694.598 47.96C692.059 45.7139 690.789 42.833 690.789 39.3174ZM774.072 59.752V76.8906H726.318V59.752H774.072ZM736.353 40.0498H761.035V113.146C761.035 115.245 761.279 116.881 761.768 118.053C762.256 119.176 763.086 119.981 764.258 120.47C765.479 120.909 767.09 121.129 769.092 121.129C770.508 121.129 771.68 121.104 772.608 121.056C773.535 120.958 774.414 120.836 775.244 120.689V138.341C773.145 139.024 770.947 139.537 768.652 139.879C766.358 140.27 763.916 140.465 761.328 140.465C756.055 140.465 751.538 139.635 747.778 137.975C744.068 136.314 741.235 133.702 739.282 130.138C737.329 126.573 736.353 121.935 736.353 116.222V40.0498ZM808.283 129.698L828.791 59.752H855.305L823.444 150.792C822.761 152.794 821.857 154.942 820.734 157.237C819.611 159.581 818.073 161.803 816.12 163.902C814.167 166.002 811.652 167.711 808.576 169.029C805.549 170.348 801.789 171.007 797.297 171.007C794.904 171.007 793.147 170.885 792.023 170.641C790.949 170.445 789.289 170.079 787.043 169.542V151.891C787.678 151.891 788.215 151.891 788.654 151.891C789.143 151.891 789.68 151.891 790.266 151.891C792.902 151.891 795.002 151.622 796.565 151.085C798.176 150.548 799.397 149.767 800.227 148.741C801.106 147.716 801.789 146.471 802.277 145.006L808.283 129.698ZM803.083 59.752L818.684 115.196L821.394 141.344H804.841L776.643 59.752H803.083Z" fill="url(#paint0_linear_1362_1947)"/>
<path d="M1051.96 35.7676L1051.97 56.8691C1051.99 83.4345 1030.46 104.983 1003.9 104.999L969.579 105.02L969.567 83.9186C969.55 57.3533 991.073 35.8047 1017.64 35.7885L1051.96 35.7676Z" fill="#FFEB9D"/>
<circle cx="934.662" cy="29.6622" r="29.6622" fill="#4BBA72"/>
<defs>
<linearGradient id="paint0_linear_1362_1947" x1="428" y1="0" x2="428" y2="176" gradientUnits="userSpaceOnUse">
<stop offset="0.25" stop-color="#4BBA72"/>
<stop offset="1" stop-color="#4BBA72" stop-opacity="0"/>
</linearGradient>
</defs>
</svg>
