<svg width="1127" height="176" viewBox="0 0 1127 176" fill="none" xmlns="http://www.w3.org/2000/svg">
<path d="M63.0615 110.655C63.0615 108.995 62.8174 107.506 62.3291 106.188C61.8408 104.82 60.9375 103.551 59.6191 102.379C58.3008 101.207 56.3965 100.035 53.9062 98.8633C51.4648 97.6426 48.2422 96.373 44.2383 95.0547C39.5508 93.4922 35.0342 91.7344 30.6885 89.7812C26.3428 87.7793 22.4609 85.46 19.043 82.8232C15.625 80.1377 12.915 77.0127 10.9131 73.4482C8.91113 69.835 7.91016 65.6357 7.91016 60.8506C7.91016 56.2607 8.93555 52.1348 10.9863 48.4727C13.0371 44.7617 15.8936 41.6123 19.5557 39.0244C23.2666 36.3877 27.6123 34.3857 32.5928 33.0186C37.5732 31.6025 43.0176 30.8945 48.9258 30.8945C56.7383 30.8945 63.623 32.2617 69.5801 34.9961C75.5859 37.6816 80.2734 41.5146 83.6426 46.4951C87.0605 51.4268 88.7695 57.2617 88.7695 64H63.208C63.208 61.3145 62.6465 58.9463 61.5234 56.8955C60.4492 54.8447 58.8135 53.2334 56.6162 52.0615C54.4189 50.8896 51.6602 50.3037 48.3398 50.3037C45.1172 50.3037 42.4072 50.792 40.21 51.7686C38.0127 52.7451 36.3525 54.0635 35.2295 55.7236C34.1064 57.335 33.5449 59.1172 33.5449 61.0703C33.5449 62.6816 33.9844 64.1465 34.8633 65.4648C35.791 66.7344 37.085 67.9307 38.7451 69.0537C40.4541 70.1768 42.5049 71.251 44.8975 72.2764C47.3389 73.3018 50.0732 74.3027 53.1006 75.2793C58.7646 77.0859 63.7939 79.1123 68.1885 81.3584C72.6318 83.5557 76.3672 86.0703 79.3945 88.9023C82.4707 91.6855 84.79 94.8594 86.3525 98.4238C87.9639 101.988 88.7695 106.017 88.7695 110.509C88.7695 115.294 87.8418 119.542 85.9863 123.253C84.1309 126.964 81.4697 130.113 78.0029 132.701C74.5361 135.24 70.3857 137.169 65.5518 138.487C60.7178 139.806 55.3223 140.465 49.3652 140.465C43.8965 140.465 38.501 139.781 33.1787 138.414C27.9053 136.998 23.1201 134.85 18.8232 131.969C14.5264 129.039 11.084 125.304 8.49609 120.763C5.95703 116.173 4.6875 110.729 4.6875 104.43H30.4688C30.4688 107.555 30.8838 110.191 31.7139 112.34C32.5439 114.488 33.7646 116.222 35.376 117.54C36.9873 118.81 38.9648 119.737 41.3086 120.323C43.6523 120.86 46.3379 121.129 49.3652 121.129C52.6367 121.129 55.2734 120.665 57.2754 119.737C59.2773 118.761 60.7422 117.491 61.6699 115.929C62.5977 114.317 63.0615 112.56 63.0615 110.655ZM147.224 119.737V59.752H171.979V139H148.835L147.224 119.737ZM149.567 103.624L156.013 103.478C156.013 108.8 155.378 113.731 154.108 118.272C152.839 122.765 150.959 126.671 148.469 129.991C146.027 133.312 143 135.899 139.387 137.755C135.822 139.562 131.696 140.465 127.009 140.465C123.102 140.465 119.514 139.928 116.242 138.854C113.019 137.73 110.236 135.997 107.893 133.653C105.549 131.261 103.718 128.209 102.399 124.498C101.13 120.738 100.495 116.246 100.495 111.021V59.752H125.178V111.168C125.178 112.926 125.397 114.439 125.837 115.709C126.276 116.979 126.911 118.053 127.741 118.932C128.571 119.762 129.597 120.396 130.817 120.836C132.087 121.227 133.527 121.422 135.139 121.422C138.85 121.422 141.755 120.641 143.854 119.078C145.954 117.516 147.419 115.392 148.249 112.706C149.128 110.021 149.567 106.993 149.567 103.624ZM227.211 116.734C227.211 115.367 226.747 114.195 225.819 113.219C224.94 112.193 223.378 111.266 221.132 110.436C218.886 109.557 215.736 108.678 211.683 107.799C207.826 106.969 204.188 105.87 200.77 104.503C197.401 103.136 194.447 101.476 191.908 99.5225C189.369 97.5693 187.367 95.25 185.902 92.5645C184.486 89.8789 183.778 86.8027 183.778 83.3359C183.778 79.9668 184.486 76.793 185.902 73.8145C187.367 70.7871 189.491 68.126 192.274 65.8311C195.106 63.4873 198.549 61.6562 202.601 60.3379C206.654 58.9707 211.268 58.2871 216.444 58.2871C223.573 58.2871 229.725 59.3857 234.901 61.583C240.077 63.7314 244.056 66.7588 246.84 70.665C249.672 74.5225 251.088 78.9902 251.088 84.0684H226.405C226.405 82.0664 226.063 80.3574 225.38 78.9414C224.745 77.5254 223.695 76.4512 222.23 75.7188C220.765 74.9375 218.812 74.5469 216.371 74.5469C214.662 74.5469 213.099 74.8643 211.683 75.499C210.316 76.1338 209.218 77.0127 208.388 78.1357C207.557 79.2588 207.142 80.5771 207.142 82.0908C207.142 83.165 207.387 84.1416 207.875 85.0205C208.412 85.8506 209.218 86.6318 210.292 87.3643C211.366 88.0479 212.733 88.6826 214.393 89.2686C216.054 89.8057 218.056 90.2939 220.399 90.7334C225.722 91.71 230.702 93.1016 235.341 94.9082C239.979 96.7148 243.739 99.2783 246.62 102.599C249.55 105.919 251.014 110.387 251.014 116.002C251.014 119.518 250.209 122.765 248.598 125.743C246.986 128.673 244.667 131.261 241.639 133.507C238.612 135.704 234.974 137.413 230.726 138.634C226.478 139.854 221.693 140.465 216.371 140.465C208.803 140.465 202.406 139.122 197.181 136.437C191.957 133.702 188.002 130.284 185.316 126.183C182.68 122.032 181.361 117.833 181.361 113.585H204.359C204.457 116.026 205.043 118.028 206.117 119.591C207.24 121.153 208.729 122.301 210.585 123.033C212.44 123.766 214.589 124.132 217.03 124.132C219.276 124.132 221.132 123.814 222.597 123.18C224.11 122.545 225.258 121.69 226.039 120.616C226.82 119.493 227.211 118.199 227.211 116.734ZM304.415 59.752V76.8906H256.661V59.752H304.415ZM266.695 40.0498H291.378V113.146C291.378 115.245 291.622 116.881 292.11 118.053C292.598 119.176 293.428 119.981 294.6 120.47C295.821 120.909 297.432 121.129 299.434 121.129C300.85 121.129 302.022 121.104 302.95 121.056C303.878 120.958 304.757 120.836 305.587 120.689V138.341C303.487 139.024 301.29 139.537 298.995 139.879C296.7 140.27 294.259 140.465 291.671 140.465C286.397 140.465 281.881 139.635 278.121 137.975C274.41 136.314 271.578 133.702 269.625 130.138C267.672 126.573 266.695 121.935 266.695 116.222V40.0498ZM355.471 119.078V86.4121C355.471 84.166 355.154 82.2373 354.519 80.626C353.884 79.0146 352.883 77.7695 351.516 76.8906C350.149 75.9629 348.318 75.499 346.023 75.499C344.168 75.499 342.581 75.8164 341.262 76.4512C339.944 77.0859 338.943 78.0381 338.259 79.3076C337.576 80.5771 337.234 82.1885 337.234 84.1416H312.551C312.551 80.4795 313.357 77.0859 314.968 73.9609C316.629 70.7871 318.972 68.0283 322 65.6846C325.076 63.3408 328.738 61.5342 332.986 60.2646C337.283 58.9463 342.068 58.2871 347.341 58.2871C353.64 58.2871 359.256 59.3369 364.187 61.4365C369.168 63.5361 373.098 66.6855 375.979 70.8848C378.86 75.0352 380.3 80.2598 380.3 86.5586V119.005C380.3 124.181 380.593 128.111 381.179 130.797C381.765 133.434 382.595 135.753 383.67 137.755V139H358.914C357.742 136.559 356.863 133.58 356.277 130.064C355.74 126.5 355.471 122.838 355.471 119.078ZM358.474 90.5869L358.621 103.771H347.708C345.413 103.771 343.46 104.088 341.848 104.723C340.286 105.357 339.016 106.236 338.04 107.359C337.112 108.434 336.428 109.654 335.989 111.021C335.598 112.389 335.403 113.829 335.403 115.343C335.403 116.808 335.745 118.126 336.428 119.298C337.161 120.421 338.137 121.3 339.358 121.935C340.579 122.569 341.946 122.887 343.46 122.887C346.194 122.887 348.513 122.374 350.418 121.349C352.371 120.274 353.86 118.98 354.885 117.467C355.911 115.953 356.424 114.537 356.424 113.219L361.843 123.326C360.867 125.279 359.744 127.257 358.474 129.259C357.254 131.261 355.716 133.116 353.86 134.825C352.053 136.485 349.832 137.853 347.195 138.927C344.558 139.952 341.36 140.465 337.6 140.465C332.717 140.465 328.225 139.464 324.124 137.462C320.071 135.46 316.824 132.677 314.383 129.112C311.941 125.499 310.72 121.349 310.72 116.661C310.72 112.56 311.453 108.897 312.918 105.675C314.431 102.452 316.702 99.7178 319.729 97.4717C322.757 95.2256 326.614 93.5166 331.301 92.3447C335.989 91.1729 341.507 90.5869 347.854 90.5869H358.474ZM420.151 59.752V139H395.395V59.752H420.151ZM393.93 39.3174C393.93 35.8018 395.2 32.9209 397.739 30.6748C400.278 28.4287 403.574 27.3057 407.627 27.3057C411.679 27.3057 414.975 28.4287 417.514 30.6748C420.053 32.9209 421.323 35.8018 421.323 39.3174C421.323 42.833 420.053 45.7139 417.514 47.96C414.975 50.2061 411.679 51.3291 407.627 51.3291C403.574 51.3291 400.278 50.2061 397.739 47.96C395.2 45.7139 393.93 42.833 393.93 39.3174ZM459.709 76.6709V139H435.026V59.752H458.17L459.709 76.6709ZM456.779 96.666L450.993 96.8125C450.993 90.7578 451.725 85.3623 453.19 80.626C454.655 75.8408 456.73 71.7881 459.416 68.4678C462.101 65.1475 465.299 62.6328 469.01 60.9238C472.77 59.166 476.945 58.2871 481.535 58.2871C485.197 58.2871 488.542 58.8242 491.569 59.8984C494.645 60.9727 497.282 62.7061 499.479 65.0986C501.725 67.4912 503.434 70.665 504.606 74.6201C505.827 78.5264 506.437 83.3604 506.437 89.1221V139H481.608V89.0488C481.608 85.875 481.168 83.458 480.29 81.7979C479.411 80.0889 478.141 78.917 476.481 78.2822C474.821 77.6475 472.794 77.3301 470.402 77.3301C467.863 77.3301 465.714 77.8184 463.957 78.7949C462.199 79.7715 460.783 81.1387 459.709 82.8965C458.683 84.6055 457.926 86.6318 457.438 88.9756C456.999 91.3193 456.779 93.8828 456.779 96.666ZM561.375 119.078V86.4121C561.375 84.166 561.058 82.2373 560.423 80.626C559.789 79.0146 558.788 77.7695 557.42 76.8906C556.053 75.9629 554.222 75.499 551.927 75.499C550.072 75.499 548.485 75.8164 547.166 76.4512C545.848 77.0859 544.847 78.0381 544.164 79.3076C543.48 80.5771 543.138 82.1885 543.138 84.1416H518.456C518.456 80.4795 519.261 77.0859 520.872 73.9609C522.533 70.7871 524.876 68.0283 527.904 65.6846C530.98 63.3408 534.642 61.5342 538.89 60.2646C543.187 58.9463 547.972 58.2871 553.246 58.2871C559.544 58.2871 565.16 59.3369 570.091 61.4365C575.072 63.5361 579.002 66.6855 581.883 70.8848C584.764 75.0352 586.205 80.2598 586.205 86.5586V119.005C586.205 124.181 586.497 128.111 587.083 130.797C587.669 133.434 588.499 135.753 589.574 137.755V139H564.818C563.646 136.559 562.767 133.58 562.181 130.064C561.644 126.5 561.375 122.838 561.375 119.078ZM564.378 90.5869L564.525 103.771H553.612C551.317 103.771 549.364 104.088 547.752 104.723C546.19 105.357 544.92 106.236 543.944 107.359C543.016 108.434 542.332 109.654 541.893 111.021C541.502 112.389 541.307 113.829 541.307 115.343C541.307 116.808 541.649 118.126 542.332 119.298C543.065 120.421 544.041 121.3 545.262 121.935C546.483 122.569 547.85 122.887 549.364 122.887C552.098 122.887 554.417 122.374 556.322 121.349C558.275 120.274 559.764 118.98 560.789 117.467C561.815 115.953 562.328 114.537 562.328 113.219L567.747 123.326C566.771 125.279 565.648 127.257 564.378 129.259C563.158 131.261 561.62 133.116 559.764 134.825C557.957 136.485 555.736 137.853 553.099 138.927C550.462 139.952 547.264 140.465 543.504 140.465C538.622 140.465 534.129 139.464 530.028 137.462C525.975 135.46 522.728 132.677 520.287 129.112C517.845 125.499 516.624 121.349 516.624 116.661C516.624 112.56 517.357 108.897 518.822 105.675C520.335 102.452 522.606 99.7178 525.633 97.4717C528.661 95.2256 532.518 93.5166 537.206 92.3447C541.893 91.1729 547.411 90.5869 553.758 90.5869H564.378ZM600.201 26.5H624.883V119.518L622.32 139H600.201V26.5ZM673.516 98.4971V100.035C673.516 106.041 672.906 111.51 671.685 116.441C670.464 121.373 668.584 125.646 666.045 129.259C663.506 132.823 660.308 135.582 656.451 137.535C652.593 139.488 648.028 140.465 642.754 140.465C637.969 140.465 633.868 139.439 630.45 137.389C627.032 135.289 624.175 132.408 621.88 128.746C619.585 125.035 617.73 120.763 616.314 115.929C614.898 111.046 613.775 105.821 612.945 100.255V98.4238C613.775 92.9062 614.898 87.7305 616.314 82.8965C617.73 78.0137 619.585 73.7412 621.88 70.0791C624.175 66.3682 627.007 63.4873 630.376 61.4365C633.794 59.3369 637.871 58.2871 642.608 58.2871C647.93 58.2871 652.52 59.2881 656.377 61.29C660.284 63.292 663.506 66.0996 666.045 69.7129C668.584 73.3262 670.464 77.5742 671.685 82.457C672.906 87.3398 673.516 92.6865 673.516 98.4971ZM648.833 100.035V98.4971C648.833 95.6162 648.662 92.9062 648.321 90.3672C647.979 87.8281 647.369 85.582 646.49 83.6289C645.611 81.6758 644.366 80.1377 642.754 79.0146C641.143 77.8916 639.043 77.3301 636.455 77.3301C633.819 77.3301 631.597 77.7695 629.79 78.6484C628.033 79.5273 626.617 80.7969 625.542 82.457C624.517 84.0684 623.785 86.0703 623.345 88.4629C622.906 90.8066 622.71 93.4678 622.759 96.4463V102.232C622.661 106.285 623.028 109.752 623.858 112.633C624.688 115.514 626.128 117.711 628.179 119.225C630.23 120.738 633.037 121.495 636.602 121.495C639.239 121.495 641.363 120.982 642.974 119.957C644.634 118.932 645.879 117.467 646.709 115.562C647.539 113.658 648.101 111.388 648.394 108.751C648.687 106.114 648.833 103.209 648.833 100.035ZM710.656 59.752V139H685.901V59.752H710.656ZM684.436 39.3174C684.436 35.8018 685.705 32.9209 688.244 30.6748C690.783 28.4287 694.079 27.3057 698.132 27.3057C702.185 27.3057 705.481 28.4287 708.02 30.6748C710.559 32.9209 711.828 35.8018 711.828 39.3174C711.828 42.833 710.559 45.7139 708.02 47.96C705.481 50.2061 702.185 51.3291 698.132 51.3291C694.079 51.3291 690.783 50.2061 688.244 47.96C685.705 45.7139 684.436 42.833 684.436 39.3174ZM752.045 26.5V139H727.289V26.5H752.045ZM793.434 59.752V139H768.678V59.752H793.434ZM767.213 39.3174C767.213 35.8018 768.483 32.9209 771.022 30.6748C773.561 28.4287 776.857 27.3057 780.909 27.3057C784.962 27.3057 788.258 28.4287 790.797 30.6748C793.336 32.9209 794.606 35.8018 794.606 39.3174C794.606 42.833 793.336 45.7139 790.797 47.96C788.258 50.2061 784.962 51.3291 780.909 51.3291C776.857 51.3291 773.561 50.2061 771.022 47.96C768.483 45.7139 767.213 42.833 767.213 39.3174ZM850.496 59.752V76.8906H802.742V59.752H850.496ZM812.776 40.0498H837.459V113.146C837.459 115.245 837.703 116.881 838.191 118.053C838.68 119.176 839.51 119.981 840.682 120.47C841.902 120.909 843.514 121.129 845.516 121.129C846.932 121.129 848.104 121.104 849.031 121.056C849.959 120.958 850.838 120.836 851.668 120.689V138.341C849.568 139.024 847.371 139.537 845.076 139.879C842.781 140.27 840.34 140.465 837.752 140.465C832.479 140.465 827.962 139.635 824.202 137.975C820.491 136.314 817.659 133.702 815.706 130.138C813.753 126.573 812.776 121.935 812.776 116.222V40.0498ZM884.707 129.698L905.215 59.752H931.728L899.868 150.792C899.185 152.794 898.281 154.942 897.158 157.237C896.035 159.581 894.497 161.803 892.544 163.902C890.591 166.002 888.076 167.711 885 169.029C881.973 170.348 878.213 171.007 873.721 171.007C871.328 171.007 869.57 170.885 868.447 170.641C867.373 170.445 865.713 170.079 863.467 169.542V151.891C864.102 151.891 864.639 151.891 865.078 151.891C865.566 151.891 866.103 151.891 866.689 151.891C869.326 151.891 871.426 151.622 872.988 151.085C874.6 150.548 875.82 149.767 876.65 148.741C877.529 147.716 878.213 146.471 878.701 145.006L884.707 129.698ZM879.507 59.752L895.107 115.196L897.817 141.344H881.265L853.066 59.752H879.507Z" fill="url(#paint0_linear_1362_1670)"/>
<path d="M1126.96 35.7676L1126.97 56.8691C1126.99 83.4345 1105.46 104.983 1078.9 104.999L1044.58 105.02L1044.57 83.9186C1044.55 57.3533 1066.07 35.8047 1092.64 35.7885L1126.96 35.7676Z" fill="#FFEB9D"/>
<circle cx="1009.66" cy="29.6622" r="29.6622" fill="#4BBA72"/>
<defs>
<linearGradient id="paint0_linear_1362_1670" x1="466" y1="0" x2="466" y2="176" gradientUnits="userSpaceOnUse">
<stop offset="0.25" stop-color="#4BBA72"/>
<stop offset="1" stop-color="#4BBA72" stop-opacity="0"/>
</linearGradient>
</defs>
</svg>
