<svg width="69" height="109" viewBox="0 0 69 109" fill="none" xmlns="http://www.w3.org/2000/svg">
<path d="M34.6155 68.8657C53.2438 68.8657 68.3449 53.6734 68.3449 34.9328C68.3449 16.1923 53.2438 1 34.6155 1C15.9873 1 0.886108 16.1923 0.886108 34.9328C0.886108 53.6734 15.9873 68.8657 34.6155 68.8657Z" stroke="#4BBA72" stroke-width="1.16894" stroke-miterlimit="22.9256"/>
<path d="M34.6158 4.53259C51.2918 4.53259 64.7311 18.1876 64.7311 34.933C64.731 51.6784 51.2918 65.3324 34.6158 65.3324C17.9401 65.3322 4.50067 51.6782 4.50061 34.933C4.50061 18.1877 17.94 4.53279 34.6158 4.53259Z" stroke="#4BBA72" stroke-width="8.50527" stroke-miterlimit="22.9256"/>
<path d="M21.7842 21.0376L21.7832 21.0386C21.7833 21.0393 21.784 21.0404 21.7842 21.0415C21.785 21.0467 21.7868 21.056 21.7891 21.0688C21.7936 21.0949 21.8015 21.1367 21.8135 21.1919C21.8374 21.3025 21.8783 21.4689 21.9443 21.6792C22.0767 22.1004 22.3099 22.698 22.71 23.3843C23.5082 24.7533 24.9789 26.4885 27.6719 27.8784C27.6789 27.8817 27.6875 27.8855 27.6973 27.8901C27.7277 27.9046 27.7713 27.925 27.8262 27.9526C27.9361 28.008 28.0922 28.0912 28.2842 28.2017C28.6681 28.4225 29.1969 28.7567 29.7822 29.2144C30.8776 30.0709 32.1869 31.3701 33.1172 33.1802L33.2979 33.5493L33.2998 33.5542L33.3008 33.5552V33.5562C33.3013 33.5573 33.302 33.5594 33.3027 33.561C33.3041 33.5642 33.3065 33.568 33.3086 33.5728C33.3128 33.5826 33.3184 33.5962 33.3252 33.6128C33.3388 33.6461 33.3567 33.6932 33.3779 33.7524C33.4205 33.8711 33.4752 34.0404 33.5283 34.2534C33.6345 34.6793 33.7357 35.2836 33.7197 36.0093C33.6898 37.3627 33.2512 39.1116 31.7354 40.8911C31.9236 41.0317 32.1556 41.2131 32.4053 41.4351C33.0257 41.9869 33.7846 42.799 34.2881 43.8159C34.2899 43.819 34.2926 43.8228 34.2949 43.8267C34.3038 43.8415 34.3154 43.8623 34.3301 43.8882C34.3599 43.9408 34.4014 44.0157 34.4482 44.1099C34.5417 44.2978 34.6609 44.5655 34.7666 44.8882C34.9758 45.5269 35.1446 46.4221 34.9141 47.355L34.8682 47.5415L34.709 47.6489L33.1475 48.7056L31.6123 49.7446L32.416 48.0747C32.4167 48.0732 32.4185 48.0711 32.4199 48.0679C32.424 48.0587 32.4306 48.0428 32.4395 48.021C32.4573 47.9772 32.4836 47.908 32.5127 47.8179C32.571 47.6372 32.6407 47.3712 32.6816 47.0425C32.7627 46.3915 32.73 45.4976 32.2734 44.5181C32.2662 44.5071 32.2558 44.4926 32.2432 44.4741C32.2083 44.4234 32.153 44.3443 32.0732 44.2397C31.9135 44.0305 31.657 43.7175 31.2822 43.3169C30.5327 42.5158 29.3064 41.3639 27.417 39.9927L27.4062 39.9849C27.4057 39.9845 27.4043 39.9827 27.4033 39.9819C27.4014 39.9805 27.3981 39.9788 27.3945 39.9761C27.3871 39.9704 27.3763 39.9616 27.3623 39.9507C27.3343 39.9289 27.2934 39.897 27.2412 39.856C27.1366 39.7737 26.9859 39.6549 26.8027 39.5063C26.4366 39.2096 25.9376 38.7936 25.4043 38.3198C25.0807 38.0323 24.7389 37.717 24.4033 37.3901C24.7989 37.8969 25.2528 38.4189 25.7715 38.9214L25.7734 38.9233C25.7745 38.9243 25.7763 38.9254 25.7783 38.9272C25.7826 38.9313 25.7895 38.9379 25.7979 38.9458C25.8146 38.9615 25.8394 38.9845 25.8711 39.0142C25.935 39.074 26.0274 39.1613 26.1426 39.269C26.3731 39.4846 26.6938 39.7835 27.0527 40.1177C27.7712 40.7866 28.6429 41.594 29.2598 42.1538L29.7881 42.6333L29.1572 42.9663L28.9238 42.5239L29.1562 42.9673L29.1504 42.9702C29.1472 42.9719 29.1428 42.9735 29.1377 42.9761C29.1273 42.9814 29.113 42.9887 29.0947 42.9976C29.0579 43.0155 29.0053 43.041 28.9385 43.0708C28.805 43.1302 28.6134 43.2091 28.374 43.2925C27.8958 43.4589 27.2193 43.6444 26.4268 43.7173C24.8419 43.863 22.7837 43.5575 20.9473 41.771C20.9421 41.7673 20.9357 41.7637 20.9297 41.7593C20.8979 41.736 20.8542 41.7024 20.7998 41.6587C20.6905 41.5708 20.5385 41.4407 20.3594 41.2651C20.0012 40.914 19.532 40.3801 19.0684 39.6362C18.1382 38.1438 17.2418 35.8236 17.29 32.4722V32.4712C17.2899 32.4597 17.2891 32.4432 17.2891 32.4224C17.2891 32.3806 17.29 32.3205 17.292 32.2427C17.296 32.0869 17.3057 31.8602 17.3291 31.5698C17.376 30.9892 17.4767 30.1525 17.6924 29.1128C18.1238 27.0327 19.0149 24.1399 20.8516 20.8608L21.583 19.5552L21.7842 21.0376Z" stroke="#4BBA72" stroke-miterlimit="22.9256"/>
<path d="M44.6328 29.8036C46.4347 29.7024 49.003 29.8054 52.0967 30.6141L53.5146 30.9852L52.167 31.5575H52.166H52.165V31.5585L52.0537 31.6141C51.9709 31.6575 51.8463 31.7268 51.6914 31.827C51.3813 32.0279 50.9488 32.3513 50.4814 32.8329C49.5516 33.7909 48.4696 35.3872 47.9326 37.9227V37.9247C47.9313 37.933 47.9293 37.9444 47.9268 37.9589C47.9216 37.988 47.9139 38.0294 47.9033 38.0819C47.8822 38.1869 47.8487 38.3365 47.8008 38.5223C47.7049 38.8939 47.5481 39.4117 47.3027 40.0048C46.8131 41.1882 45.9632 42.6916 44.5225 43.9266L44.5186 43.9296L44.1973 43.5468L44.5176 43.9305L44.5156 43.9315C44.5147 43.9323 44.5139 43.9335 44.5127 43.9344C44.5103 43.9364 44.5075 43.9393 44.5039 43.9423C44.4965 43.9483 44.486 43.9561 44.4736 43.9657C44.4486 43.9851 44.4129 44.0112 44.3682 44.0428C44.2787 44.1061 44.1503 44.191 43.9854 44.2841C43.6559 44.47 43.1781 44.6921 42.5732 44.8417C41.4594 45.1171 39.9425 45.1394 38.1699 44.2987C38.1002 44.4732 38.0133 44.6804 37.9033 44.9052C37.5883 45.549 37.0886 46.3718 36.3594 47.0262C36.3585 47.0271 36.3573 47.0282 36.3564 47.0292C36.3458 47.0403 36.331 47.0555 36.3125 47.0741C36.2753 47.1115 36.2228 47.1636 36.1553 47.2245C36.0204 47.3461 35.825 47.5074 35.5811 47.6698C35.0993 47.9905 34.3896 48.3391 33.5537 48.3534L33.2148 48.3593L33.084 48.0468L32.7285 47.1971L32.3916 46.3944L33.2354 46.5057C33.2415 46.5058 33.2607 46.5061 33.292 46.5028C33.3548 46.4962 33.4704 46.4769 33.6367 46.4188C33.9662 46.3038 34.5016 46.0344 35.2295 45.4081C35.2361 45.4004 35.2449 45.3907 35.2549 45.3788C35.2878 45.3394 35.3393 45.2761 35.4062 45.1874C35.5402 45.0096 35.7379 44.7291 35.9805 44.33C36.4661 43.5308 37.1325 42.2549 37.832 40.3778L37.8369 40.3661L37.8379 40.3651L37.8389 40.3632C37.8397 40.3612 37.8403 40.358 37.8418 40.3544C37.8448 40.3469 37.8497 40.3353 37.8555 40.3212C37.8671 40.2928 37.8843 40.2517 37.9062 40.1991C37.9503 40.0933 38.0139 39.9409 38.0947 39.7548C38.2445 39.41 38.4532 38.9471 38.6973 38.4423C38.6256 38.5638 38.5542 38.6875 38.4854 38.8143L38.4844 38.8153C38.4838 38.8164 38.4836 38.8189 38.4824 38.8212C38.4801 38.8256 38.4762 38.8321 38.4717 38.8407C38.4626 38.8581 38.4489 38.8837 38.4316 38.9169C38.3969 38.9835 38.3466 39.081 38.2842 39.201C38.1593 39.4412 37.9863 39.7749 37.793 40.1483C37.4059 40.8961 36.9395 41.8019 36.6191 42.4403L36.292 43.0907L35.8018 42.5516L35.8008 42.5497L35.7891 42.538C35.7822 42.5302 35.7724 42.5194 35.7607 42.5057C35.7375 42.4785 35.7056 42.4393 35.666 42.3895C35.5869 42.29 35.4787 42.1459 35.3564 41.9628C35.1125 41.5973 34.8093 41.0696 34.5723 40.4188C34.099 39.1193 33.8887 37.3182 34.9463 35.3729C34.9483 35.3675 34.9517 35.3618 34.9541 35.3553C34.9664 35.3227 34.9847 35.2778 35.0088 35.2216C35.0571 35.1091 35.1306 34.952 35.2354 34.7616C35.4449 34.3807 35.7799 33.8661 36.2891 33.3094C37.311 32.1921 39.02 30.9203 41.7842 30.2137V30.2147C41.7938 30.212 41.8066 30.2075 41.8232 30.203C41.858 30.1936 41.9089 30.1807 41.9736 30.1649C42.1032 30.1334 42.2915 30.0908 42.5352 30.0458C43.0229 29.9556 43.7321 29.8542 44.6328 29.8036Z" stroke="#4BBA72" stroke-miterlimit="22.9256"/>
<path d="M18.838 85.2128V75.2075L18.9771 74.3879H20.3225V85.2128H18.838ZM16.441 77.3415V75.9652C16.6678 75.9755 16.9307 75.9034 17.2297 75.7487C17.539 75.5941 17.8483 75.393 18.1575 75.1456C18.4668 74.8982 18.74 74.6405 18.9771 74.3724L19.9205 75.393C19.5699 75.7642 19.204 76.0992 18.8225 76.3982C18.4411 76.6972 18.0493 76.9343 17.6472 77.1096C17.2555 77.2848 16.8534 77.3621 16.441 77.3415ZM26.9723 85.3983C26.1373 85.3983 25.395 85.1612 24.7455 84.687C24.096 84.2024 23.5857 83.5426 23.2146 82.7076C22.8537 81.8622 22.6733 80.8931 22.6733 79.8003C22.6733 78.7075 22.8537 77.7436 23.2146 76.9085C23.5857 76.0632 24.0909 75.4034 24.73 74.9291C25.3795 74.4446 26.127 74.2023 26.9723 74.2023C27.8177 74.2023 28.56 74.4446 29.1992 74.9291C29.8487 75.4034 30.359 76.0632 30.7301 76.9085C31.1013 77.7436 31.2868 78.7075 31.2868 79.8003C31.2868 80.8931 31.1013 81.8622 30.7301 82.7076C30.3693 83.5426 29.8641 84.2024 29.2146 84.687C28.5652 85.1612 27.8177 85.3983 26.9723 85.3983ZM26.9723 84.0066C27.5187 84.0066 28.0033 83.8262 28.426 83.4653C28.859 83.1045 29.194 82.6096 29.4311 81.9808C29.6683 81.3519 29.7868 80.6251 29.7868 79.8003C29.7868 78.9756 29.6683 78.2488 29.4311 77.6199C29.194 76.9807 28.859 76.4807 28.426 76.1199C28.0033 75.759 27.5187 75.5786 26.9723 75.5786C26.4259 75.5786 25.9414 75.759 25.5187 76.1199C25.096 76.4807 24.7661 76.9807 24.529 77.6199C24.2919 78.2488 24.1733 78.9756 24.1733 79.8003C24.1733 80.6251 24.2919 81.357 24.529 81.9962C24.7661 82.6251 25.096 83.12 25.5187 83.4808C25.9414 83.8313 26.4259 84.0066 26.9723 84.0066ZM36.9093 85.3983C36.0742 85.3983 35.3319 85.1612 34.6824 84.687C34.0329 84.2024 33.5226 83.5426 33.1515 82.7076C32.7906 81.8622 32.6102 80.8931 32.6102 79.8003C32.6102 78.7075 32.7906 77.7436 33.1515 76.9085C33.5226 76.0632 34.0278 75.4034 34.667 74.9291C35.3165 74.4446 36.0639 74.2023 36.9093 74.2023C37.7546 74.2023 38.4969 74.4446 39.1361 74.9291C39.7856 75.4034 40.2959 76.0632 40.667 76.9085C41.0382 77.7436 41.2238 78.7075 41.2238 79.8003C41.2238 80.8931 41.0382 81.8622 40.667 82.7076C40.3062 83.5426 39.8011 84.2024 39.1516 84.687C38.5021 85.1612 37.7546 85.3983 36.9093 85.3983ZM36.9093 84.0066C37.4557 84.0066 37.9402 83.8262 38.3629 83.4653C38.7959 83.1045 39.1309 82.6096 39.3681 81.9808C39.6052 81.3519 39.7237 80.6251 39.7237 79.8003C39.7237 78.9756 39.6052 78.2488 39.3681 77.6199C39.1309 76.9807 38.7959 76.4807 38.3629 76.1199C37.9402 75.759 37.4557 75.5786 36.9093 75.5786C36.3629 75.5786 35.8783 75.759 35.4556 76.1199C35.0329 76.4807 34.703 76.9807 34.4659 77.6199C34.2288 78.2488 34.1102 78.9756 34.1102 79.8003C34.1102 80.6251 34.2288 81.357 34.4659 81.9962C34.703 82.6251 35.0329 83.12 35.4556 83.4808C35.8783 83.8313 36.3629 84.0066 36.9093 84.0066ZM43.3513 85.2128L51.037 74.3879H52.6452L44.9132 85.2128H43.3513ZM51.006 85.4602C50.5318 85.4602 50.1091 85.3468 49.738 85.12C49.3668 84.8932 49.0782 84.5839 48.872 84.1921C48.6658 83.8004 48.5627 83.3571 48.5627 82.8622C48.5627 82.3467 48.6658 81.8983 48.872 81.5168C49.0782 81.1251 49.3668 80.821 49.738 80.6045C50.1091 80.3776 50.5318 80.2642 51.006 80.2642C51.4803 80.2642 51.8978 80.3776 52.2586 80.6045C52.6298 80.821 52.9184 81.1251 53.1246 81.5168C53.3308 81.8983 53.4339 82.3467 53.4339 82.8622C53.4339 83.3571 53.3308 83.8004 53.1246 84.1921C52.9184 84.5839 52.6298 84.8932 52.2586 85.12C51.8978 85.3468 51.4803 85.4602 51.006 85.4602ZM51.006 84.3622C51.3772 84.3622 51.6761 84.2231 51.9029 83.9447C52.1401 83.656 52.2586 83.2952 52.2586 82.8622C52.2586 82.4292 52.1401 82.0684 51.9029 81.7797C51.6761 81.4911 51.3772 81.3467 51.006 81.3467C50.6349 81.3467 50.3308 81.4911 50.0936 81.7797C49.8565 82.0684 49.738 82.4292 49.738 82.8622C49.738 83.2952 49.8565 83.656 50.0936 83.9447C50.3308 84.2231 50.6349 84.3622 51.006 84.3622ZM45.0214 79.3364C44.5472 79.3364 44.1245 79.2281 43.7533 79.0117C43.3925 78.7848 43.109 78.4756 42.9028 78.0838C42.6966 77.6817 42.5935 77.2333 42.5935 76.7384C42.5935 76.223 42.6966 75.7745 42.9028 75.393C43.109 75.0013 43.3925 74.6972 43.7533 74.4807C44.1245 74.2539 44.5472 74.1404 45.0214 74.1404C45.5059 74.1404 45.9286 74.2539 46.2895 74.4807C46.6606 74.6972 46.9493 75.0013 47.1555 75.393C47.3616 75.7745 47.4647 76.223 47.4647 76.7384C47.4647 77.2333 47.3616 77.6817 47.1555 78.0838C46.9493 78.4756 46.6606 78.7848 46.2895 79.0117C45.9286 79.2281 45.5059 79.3364 45.0214 79.3364ZM45.0214 78.2384C45.3925 78.2384 45.6967 78.0993 45.9338 77.8209C46.1709 77.5322 46.2895 77.1714 46.2895 76.7384C46.2895 76.3054 46.1709 75.9498 45.9338 75.6714C45.6967 75.3827 45.3925 75.2384 45.0214 75.2384C44.6606 75.2384 44.3616 75.3827 44.1245 75.6714C43.8874 75.9498 43.7688 76.3054 43.7688 76.7384C43.7688 77.1714 43.8874 77.5322 44.1245 77.8209C44.3616 78.0993 44.6606 78.2384 45.0214 78.2384ZM25.5022 104.213L28.595 96.4807H30.1259L26.8939 104.213H25.5022ZM25.4094 104.213L22.1928 96.4807H23.6929L26.7857 104.213H25.4094ZM34.4958 104.398C33.7432 104.398 33.0782 104.228 32.5009 103.888C31.9236 103.538 31.47 103.058 31.14 102.45C30.8101 101.842 30.6452 101.141 30.6452 100.347C30.6452 99.5529 30.8101 98.8519 31.14 98.2436C31.47 97.6354 31.9236 97.1611 32.5009 96.8209C33.0885 96.4704 33.7586 96.2951 34.5112 96.2951C35.2226 96.2951 35.8463 96.4755 36.3824 96.8364C36.9185 97.1869 37.336 97.6921 37.635 98.3519C37.9443 99.0014 38.0989 99.7694 38.0989 100.656H31.8514L32.1298 100.424C32.1298 100.97 32.238 101.445 32.4545 101.847C32.671 102.249 32.9648 102.558 33.336 102.775C33.7071 102.981 34.1298 103.084 34.604 103.084C35.1195 103.084 35.5473 102.965 35.8875 102.728C36.2381 102.481 36.5113 102.172 36.7071 101.8L37.9752 102.388C37.769 102.79 37.501 103.146 37.1711 103.455C36.8412 103.754 36.4494 103.986 35.9958 104.151C35.5525 104.316 35.0525 104.398 34.4958 104.398ZM32.2225 99.7282L31.9287 99.4962H36.8154L36.537 99.7282C36.537 99.2746 36.4442 98.888 36.2587 98.5684C36.0731 98.2385 35.8257 97.991 35.5164 97.8261C35.2071 97.6508 34.8618 97.5632 34.4803 97.5632C34.1092 97.5632 33.7483 97.6508 33.3978 97.8261C33.0576 97.991 32.7741 98.2333 32.5473 98.5529C32.3308 98.8725 32.2225 99.2642 32.2225 99.7282ZM42.7513 107.507C42.2358 107.507 41.7668 107.455 41.3441 107.352C40.9214 107.259 40.5657 107.151 40.2771 107.027C39.9884 106.904 39.7719 106.795 39.6276 106.702L40.1843 105.512C40.3183 105.594 40.509 105.687 40.7564 105.79C41.0039 105.904 41.2925 105.996 41.6224 106.068C41.9523 106.151 42.3183 106.192 42.7204 106.192C43.1946 106.192 43.6173 106.094 43.9884 105.898C44.3596 105.713 44.6483 105.419 44.8544 105.017C45.0709 104.615 45.1792 104.099 45.1792 103.47V96.4807H46.6483V103.44C46.6483 104.326 46.4782 105.068 46.138 105.666C45.8081 106.275 45.3493 106.733 44.7617 107.043C44.1843 107.352 43.5142 107.507 42.7513 107.507ZM42.6121 104.105C41.9111 104.105 41.2977 103.945 40.7719 103.625C40.2564 103.295 39.8492 102.842 39.5502 102.264C39.2616 101.677 39.1172 101.001 39.1172 100.238C39.1172 99.4447 39.2616 98.7539 39.5502 98.1663C39.8492 97.5787 40.2564 97.1199 40.7719 96.79C41.2977 96.4601 41.9111 96.2951 42.6121 96.2951C43.2513 96.2951 43.808 96.4601 44.2823 96.79C44.7668 97.1199 45.1379 97.5838 45.3957 98.1818C45.6637 98.7694 45.7978 99.4601 45.7978 100.254C45.7978 101.017 45.6637 101.692 45.3957 102.28C45.1379 102.857 44.7668 103.306 44.2823 103.625C43.808 103.945 43.2513 104.105 42.6121 104.105ZM42.9833 102.867C43.4163 102.867 43.7926 102.754 44.1122 102.527C44.4318 102.29 44.6843 101.976 44.8699 101.584C45.0555 101.182 45.1483 100.723 45.1483 100.208C45.1483 99.6921 45.0555 99.2385 44.8699 98.8467C44.6843 98.455 44.4266 98.1508 44.0967 97.9343C43.7771 97.7075 43.4008 97.5941 42.9678 97.5941C42.5142 97.5941 42.1121 97.7075 41.7616 97.9343C41.4214 98.1508 41.1534 98.455 40.9575 98.8467C40.7616 99.2385 40.6637 99.6921 40.6637 100.208C40.6637 100.723 40.7616 101.182 40.9575 101.584C41.1637 101.976 41.4369 102.29 41.7771 102.527C42.1276 102.754 42.5297 102.867 42.9833 102.867Z" fill="#909090"/>
</svg>
