<svg width="69" height="109" viewBox="0 0 69 109" fill="none" xmlns="http://www.w3.org/2000/svg">
<path d="M40.1096 13.5175H40.1106H40.1272C40.1348 13.5178 40.1445 13.5187 40.1555 13.5194C40.1775 13.5208 40.2061 13.5227 40.2405 13.5262C40.3094 13.5333 40.4032 13.5458 40.5129 13.5682C40.7292 13.6124 41.0271 13.699 41.3303 13.871C41.6372 14.045 41.9566 14.3115 42.1917 14.7118C42.4234 15.1067 42.5483 15.5908 42.5364 16.1659C42.5366 16.1716 42.5372 16.1778 42.5374 16.1844C42.5381 16.2134 42.5386 16.2516 42.5374 16.2968C42.5348 16.3867 42.5261 16.5087 42.5022 16.6512C42.4547 16.9342 42.344 17.3168 42.0881 17.6962C41.6226 18.386 40.7869 18.9094 39.427 18.9882L39.4524 28.9071C39.4656 28.9125 39.4797 28.917 39.4934 28.9227C39.8333 29.0642 40.309 29.2885 40.8762 29.6288C42.0071 30.3072 43.4992 31.4433 45.012 33.287L45.0178 33.2928C45.0207 33.2962 45.024 33.3012 45.0286 33.3065C45.0377 33.3171 45.0504 33.3312 45.0657 33.3495C45.0966 33.3864 45.1398 33.4392 45.1926 33.5067C45.2984 33.6418 45.4447 33.8376 45.6125 34.0897C45.9479 34.5934 46.3745 35.3264 46.7493 36.2538C47.5001 38.1118 48.0446 40.7604 47.2219 43.9003L47.2209 43.9061L46.5208 43.7167L47.2209 43.9071H47.22V43.9091C47.2196 43.9105 47.2186 43.9127 47.218 43.9149C47.2168 43.9193 47.2152 43.9252 47.2131 43.9325C47.2089 43.9475 47.2025 43.969 47.1946 43.996C47.1787 44.0498 47.1556 44.1273 47.1243 44.2245C47.0616 44.419 46.9672 44.6955 46.8372 45.0311C46.5774 45.7016 46.1739 46.6152 45.5969 47.5907C44.4571 49.5177 42.591 51.7651 39.7444 52.7723C39.7313 52.7786 39.7155 52.787 39.6965 52.7958C39.6445 52.8199 39.5705 52.8535 39.4758 52.8934C39.2863 52.9733 39.0135 53.0795 38.6702 53.1923C37.9842 53.4174 37.0086 53.6691 35.842 53.7782C33.5095 53.9963 30.4052 53.6431 27.3459 51.3788C27.332 51.3701 27.3143 51.3592 27.2932 51.3456C27.2435 51.3135 27.1742 51.2676 27.0891 51.2069C26.9191 51.0856 26.6844 50.9054 26.4084 50.661C25.8562 50.172 25.138 49.4236 24.4485 48.371C23.0627 46.2552 21.8182 42.9485 22.219 38.1317L22.2209 38.1044L22.2249 38.077L22.9407 38.1923C22.278 38.086 22.2294 38.077 22.2258 38.076V38.0731C22.2261 38.0714 22.2264 38.0688 22.2268 38.0663C22.2277 38.0612 22.2293 38.0548 22.2307 38.0468C22.2337 38.03 22.2378 38.0065 22.2434 37.9774C22.2547 37.9193 22.2713 37.8367 22.2952 37.7333C22.3429 37.5264 22.4191 37.2342 22.5325 36.8798C22.759 36.1716 23.1383 35.208 23.7542 34.1786C24.9306 32.2124 26.9732 30.0029 30.428 28.8866L30.3079 18.9501C30.0298 18.9703 29.7038 18.9714 29.3665 18.9159C28.8759 18.8352 28.3194 18.6319 27.8733 18.1708C27.4203 17.7025 27.1537 17.0439 27.1096 16.1942L27.1086 16.1835V16.1737L27.8333 16.1561C27.1087 16.1737 27.1087 16.1732 27.1086 16.1727V16.1239C27.109 16.1003 27.1103 16.0697 27.1125 16.0331C27.117 15.9597 27.1264 15.8606 27.1467 15.744C27.187 15.5135 27.2717 15.1986 27.4543 14.8749C27.8463 14.1806 28.6198 13.5716 29.9641 13.5292H29.9856L40.0901 13.5175H40.1096Z" stroke="#4BBA72" stroke-width="1.45" stroke-miterlimit="22.9256"/>
<path fill-rule="evenodd" clip-rule="evenodd" d="M24.9657 37.9833L44.7879 37.9375C44.7879 37.9375 46.975 44.7688 41.4157 49.2154C41.4157 49.2154 35.0815 54.8986 27.6545 48.8023C27.6545 48.8023 23.0063 44.8141 24.9657 37.9833Z" fill="#4BBA72"/>
<path d="M37.6585 43.2773C38.6278 43.2773 39.4135 42.4869 39.4135 41.5118C39.4135 40.5367 38.6278 39.7462 37.6585 39.7462C36.6893 39.7462 35.9036 40.5367 35.9036 41.5118C35.9036 42.4869 36.6893 43.2773 37.6585 43.2773Z" fill="#4BBA72" stroke="#4BBA72" stroke-width="0.445367" stroke-miterlimit="22.9256"/>
<path d="M35.5055 47.1056C36.2735 47.1056 36.8961 46.4793 36.8961 45.7066C36.8961 44.934 36.2735 44.3077 35.5055 44.3077C34.7375 44.3077 34.115 44.934 34.115 45.7066C34.115 46.4793 34.7375 47.1056 35.5055 47.1056Z" fill="#4BBA72" stroke="#4BBA72" stroke-width="0.445367" stroke-miterlimit="22.9256"/>
<path d="M37.8984 49.1133C38.2574 49.1133 38.5485 48.8205 38.5485 48.4593C38.5485 48.0982 38.2574 47.8054 37.8984 47.8054C37.5394 47.8054 37.2484 48.0982 37.2484 48.4593C37.2484 48.8205 37.5394 49.1133 37.8984 49.1133Z" fill="#4BBA72" stroke="#4BBA72" stroke-width="0.445367" stroke-miterlimit="22.9256"/>
<path d="M34.5036 60.183C29.3321 60.183 24.3241 58.6518 20.0246 55.7606L18.9371 55.025L22.1311 51.8117C20.4112 49.6566 19.2788 47.0115 18.9769 44.1208L13.5373 49.5932L12.8056 48.4986C9.93219 44.1731 8.41019 39.1361 8.41019 33.9328C8.41019 19.4582 20.1157 7.6821 34.5036 7.6821C39.6756 7.6821 44.6825 9.21266 48.9785 12.1075L50.07 12.8395L42.4252 20.5311C43.6943 22.6227 45.0802 25.0104 46.3533 27.444L55.4705 18.2725L56.1981 19.37C59.0738 23.692 60.5969 28.7296 60.5969 33.9328C60.5969 48.4075 48.892 60.183 34.5036 60.183ZM34.5036 0C15.9067 0 0.77478 15.2232 0.77478 33.9328C0.77478 52.6454 15.9067 67.8651 34.5036 67.8651C53.1005 67.8651 68.233 52.6454 68.233 33.9328C68.233 15.2232 53.1005 0 34.5036 0Z" fill="#4BBA72"/>
<path d="M7.16716 85.9861C6.13622 85.9861 5.21868 85.749 4.41455 85.2748C3.61041 84.7902 2.98154 84.1304 2.52792 83.2953C2.07431 82.45 1.8475 81.4809 1.8475 80.3881C1.8475 79.2953 2.07431 78.3314 2.52792 77.4963C2.98154 76.6509 3.60526 75.9911 4.39908 75.5169C5.19291 75.0323 6.10529 74.7901 7.13624 74.7901C7.80635 74.7901 8.44553 74.9138 9.05379 75.1612C9.66204 75.3983 10.2033 75.7334 10.6775 76.1664C11.1621 76.5891 11.5332 77.0839 11.7909 77.6509L10.4301 78.2695C10.2342 77.8468 9.96617 77.4808 9.62596 77.1716C9.28575 76.8623 8.89915 76.62 8.46615 76.4447C8.04346 76.2695 7.60016 76.1818 7.13624 76.1818C6.41458 76.1818 5.77024 76.3623 5.20322 76.7231C4.6362 77.0839 4.1929 77.5788 3.8733 78.2076C3.55371 78.8365 3.39392 79.5633 3.39392 80.3881C3.39392 81.2128 3.55371 81.9448 3.8733 82.584C4.20321 83.2232 4.65167 83.7232 5.21868 84.084C5.79601 84.4345 6.45066 84.6098 7.18263 84.6098C7.65686 84.6098 8.10532 84.517 8.52801 84.3314C8.95069 84.1356 9.32699 83.8727 9.65689 83.5428C9.9971 83.2026 10.2703 82.816 10.4765 82.383L11.8373 82.9861C11.5796 83.5737 11.2136 84.0943 10.7394 84.5479C10.2651 85.0016 9.71875 85.3572 9.10018 85.615C8.49192 85.8624 7.84759 85.9861 7.16716 85.9861ZM13.3788 85.8005V74.9756H14.8324V85.8005H13.3788ZM18.7294 85.8005V81.8417H20.183V85.8005H18.7294ZM18.7294 81.8417C18.7294 81.1407 18.6469 80.6097 18.482 80.2489C18.317 79.8778 18.0902 79.62 17.8015 79.4757C17.5232 79.3314 17.2036 79.2541 16.8428 79.2437C16.2036 79.2437 15.7087 79.4654 15.3582 79.9087C15.0077 80.352 14.8324 80.9757 14.8324 81.7799H14.2139C14.2139 80.9654 14.3324 80.2695 14.5695 79.6922C14.817 79.1046 15.1623 78.6561 15.6056 78.3468C16.0592 78.0375 16.5953 77.8829 17.2139 77.8829C17.8222 77.8829 18.3479 78.0066 18.7912 78.254C19.2345 78.5015 19.5799 78.8881 19.8273 79.4139C20.0748 79.9293 20.1933 80.6097 20.183 81.4551V81.8417H18.7294ZM25.4493 85.9861C24.6967 85.9861 24.0317 85.816 23.4544 85.4758C22.8771 85.1253 22.4235 84.6459 22.0936 84.0376C21.7637 83.4294 21.5987 82.7283 21.5987 81.9345C21.5987 81.1407 21.7637 80.4396 22.0936 79.8314C22.4235 79.2231 22.8771 78.7489 23.4544 78.4087C24.042 78.0582 24.7121 77.8829 25.4647 77.8829C26.1761 77.8829 26.7998 78.0633 27.3359 78.4241C27.872 78.7747 28.2895 79.2798 28.5885 79.9396C28.8978 80.5891 29.0524 81.3572 29.0524 82.2438H22.8049L23.0833 82.0118C23.0833 82.5582 23.1915 83.0325 23.408 83.4345C23.6245 83.8366 23.9183 84.1459 24.2895 84.3624C24.6606 84.5686 25.0833 84.6717 25.5575 84.6717C26.073 84.6717 26.5008 84.5531 26.841 84.316C27.1916 84.0686 27.4648 83.7593 27.6606 83.3881L28.9287 83.9758C28.7225 84.3778 28.4545 84.7335 28.1246 85.0428C27.7947 85.3418 27.4029 85.5737 26.9493 85.7387C26.506 85.9036 26.006 85.9861 25.4493 85.9861ZM23.176 81.3159L22.8822 81.084H27.7689L27.4905 81.3159C27.4905 80.8623 27.3978 80.4757 27.2122 80.1561C27.0266 79.8262 26.7792 79.5788 26.4699 79.4139C26.1606 79.2386 25.8153 79.151 25.4338 79.151C25.0627 79.151 24.7018 79.2386 24.3513 79.4139C24.0111 79.5788 23.7276 79.8211 23.5008 80.1407C23.2843 80.4603 23.176 80.852 23.176 81.3159ZM30.5037 85.8005V78.0685H31.8801L31.9419 79.1355C32.1893 78.7231 32.4986 78.4138 32.8698 78.2076C33.2409 77.9911 33.6687 77.8829 34.1533 77.8829C34.7718 77.8829 35.2976 78.0272 35.7306 78.3159C36.1636 78.5943 36.4781 79.0221 36.6739 79.5994C36.9007 79.0427 37.2203 78.62 37.6327 78.3314C38.0451 78.0324 38.5348 77.8829 39.1018 77.8829C39.9781 77.8829 40.6637 78.1716 41.1585 78.7489C41.6534 79.3159 41.8957 80.1922 41.8854 81.3778V85.8005H40.4317V81.8417C40.4317 81.1407 40.3544 80.6097 40.1998 80.2489C40.0554 79.8778 39.8595 79.62 39.6121 79.4757C39.3647 79.3314 39.076 79.2541 38.7461 79.2437C38.1688 79.2437 37.7203 79.4654 37.4008 79.9087C37.0915 80.352 36.9368 80.9757 36.9368 81.7799V85.8005H35.4677V81.8417C35.4677 81.1407 35.3956 80.6097 35.2512 80.2489C35.1069 79.8778 34.9059 79.62 34.6481 79.4757C34.4007 79.3314 34.112 79.2541 33.7821 79.2437C33.2048 79.2437 32.7564 79.4654 32.4368 79.9087C32.1275 80.352 31.9728 80.9757 31.9728 81.7799V85.8005H30.5037ZM43.8558 85.8005V78.0685H45.3249V85.8005H43.8558ZM44.5981 76.4293C44.361 76.4293 44.1548 76.3416 43.9795 76.1664C43.8043 75.9808 43.7166 75.7695 43.7166 75.5324C43.7166 75.2849 43.8043 75.0787 43.9795 74.9138C44.1548 74.7385 44.361 74.6509 44.5981 74.6509C44.8455 74.6509 45.0517 74.7385 45.2167 74.9138C45.3919 75.0787 45.4796 75.2849 45.4796 75.5324C45.4796 75.7695 45.3919 75.9808 45.2167 76.1664C45.0517 76.3416 44.8455 76.4293 44.5981 76.4293ZM51.0039 85.9861C50.2307 85.9861 49.5451 85.816 48.9471 85.4758C48.3492 85.1253 47.8801 84.6459 47.5399 84.0376C47.21 83.4294 47.0451 82.7283 47.0451 81.9345C47.0451 81.1407 47.21 80.4396 47.5399 79.8314C47.8801 79.2231 48.344 78.7489 48.9317 78.4087C49.5296 78.0582 50.21 77.8829 50.9729 77.8829C51.7255 77.8829 52.4008 78.0582 52.9987 78.4087C53.607 78.7592 54.0606 79.2592 54.3596 79.9087L53.0297 80.4654C52.8338 80.084 52.5503 79.785 52.1791 79.5685C51.8183 79.352 51.4008 79.2437 50.9266 79.2437C50.4626 79.2437 50.0503 79.3571 49.6894 79.584C49.3286 79.8108 49.0451 80.1304 48.8389 80.5427C48.6327 80.9448 48.5296 81.4087 48.5296 81.9345C48.5296 82.4603 48.6327 82.9242 48.8389 83.3263C49.0451 83.7283 49.3337 84.0479 49.7049 84.2851C50.076 84.5119 50.4936 84.6253 50.9575 84.6253C51.4317 84.6253 51.8544 84.5067 52.2255 84.2696C52.5967 84.0222 52.875 83.6923 53.0606 83.2799L54.406 83.8211C54.107 84.5015 53.6534 85.0325 53.0451 85.4139C52.4472 85.7954 51.7668 85.9861 51.0039 85.9861ZM60.607 85.8005L60.5451 84.4552V81.7644C60.5451 81.1974 60.4781 80.7231 60.3441 80.3417C60.2204 79.9602 60.0245 79.6716 59.7565 79.4757C59.4987 79.2798 59.1533 79.1819 58.7204 79.1819C58.3183 79.1819 57.9678 79.2644 57.6688 79.4293C57.3801 79.5943 57.1379 79.852 56.942 80.2025L55.643 79.7077C55.8286 79.3571 56.0605 79.0479 56.3389 78.7798C56.6172 78.5015 56.9523 78.285 57.344 78.1303C57.7358 77.9654 58.1946 77.8829 58.7204 77.8829C59.4523 77.8829 60.0606 78.0272 60.5451 78.3159C61.0297 78.6046 61.3905 79.0221 61.6276 79.5685C61.875 80.1149 61.9936 80.7902 61.9833 81.5943L61.9678 85.8005H60.607ZM58.3337 85.9861C57.4162 85.9861 56.6997 85.7799 56.1842 85.3675C55.6791 84.9449 55.4265 84.3624 55.4265 83.6201C55.4265 82.8263 55.6894 82.2232 56.2152 81.8108C56.7513 81.3881 57.4935 81.1768 58.442 81.1768H60.5915V82.3366H58.8441C58.1327 82.3366 57.6327 82.45 57.344 82.6768C57.0554 82.8933 56.911 83.1974 56.911 83.5892C56.911 83.95 57.0451 84.2335 57.3131 84.4397C57.5915 84.6356 57.9729 84.7335 58.4575 84.7335C58.8801 84.7335 59.2461 84.6459 59.5554 84.4706C59.8647 84.2851 60.107 84.0273 60.2822 83.6974C60.4575 83.3675 60.5451 82.9912 60.5451 82.5685H61.0554C61.0554 83.6201 60.8286 84.4552 60.375 85.0737C59.9317 85.682 59.2513 85.9861 58.3337 85.9861ZM63.8332 85.8005V74.9756H65.3023V85.8005H63.8332ZM19.8125 104.801V93.9756H26.3693V95.3674H21.328V98.7695H25.7198V100.161H21.328V104.801H19.8125ZM28.6446 100.641C28.6446 99.8056 28.8044 99.1252 29.124 98.5994C29.4436 98.0736 29.856 97.6819 30.3611 97.4241C30.8663 97.1664 31.3972 97.0375 31.9539 97.0375V98.4293C31.49 98.4293 31.0467 98.5015 30.624 98.6458C30.2116 98.7798 29.8714 99.0066 29.6034 99.3262C29.3457 99.6355 29.2168 100.058 29.2168 100.594L28.6446 100.641ZM27.7477 104.801V97.0685H29.2168V104.801H27.7477ZM36.5566 104.986C35.804 104.986 35.139 104.816 34.5617 104.476C33.9844 104.125 33.5308 103.646 33.2009 103.038C32.871 102.429 32.706 101.728 32.706 100.935C32.706 100.141 32.871 99.4396 33.2009 98.8314C33.5308 98.2231 33.9844 97.7489 34.5617 97.4087C35.1493 97.0582 35.8194 96.8829 36.572 96.8829C37.2834 96.8829 37.9071 97.0633 38.4432 97.4241C38.9793 97.7747 39.3968 98.2798 39.6958 98.9396C40.0051 99.5891 40.1597 100.357 40.1597 101.244H33.9122L34.1906 101.012C34.1906 101.558 34.2988 102.032 34.5153 102.435C34.7318 102.837 35.0256 103.146 35.3968 103.362C35.7679 103.569 36.1906 103.672 36.6648 103.672C37.1803 103.672 37.6081 103.553 37.9483 103.316C38.2989 103.069 38.5721 102.759 38.7679 102.388L40.036 102.976C39.8298 103.378 39.5618 103.734 39.2319 104.043C38.902 104.342 38.5102 104.574 38.0566 104.739C37.6133 104.904 37.1133 104.986 36.5566 104.986ZM34.2833 100.316L33.9895 100.084H38.8762L38.5978 100.316C38.5978 99.8623 38.505 99.4757 38.3195 99.1561C38.1339 98.8262 37.8865 98.5788 37.5772 98.4139C37.2679 98.2386 36.9226 98.151 36.5411 98.151C36.17 98.151 35.8091 98.2386 35.4586 98.4139C35.1184 98.5788 34.8349 98.8211 34.6081 99.1407C34.3916 99.4603 34.2833 99.852 34.2833 100.316ZM45.0286 104.986C44.276 104.986 43.6111 104.816 43.0337 104.476C42.4564 104.125 42.0028 103.646 41.6729 103.038C41.343 102.429 41.178 101.728 41.178 100.935C41.178 100.141 41.343 99.4396 41.6729 98.8314C42.0028 98.2231 42.4564 97.7489 43.0337 97.4087C43.6214 97.0582 44.2915 96.8829 45.0441 96.8829C45.7554 96.8829 46.3792 97.0633 46.9152 97.4241C47.4513 97.7747 47.8689 98.2798 48.1678 98.9396C48.4771 99.5891 48.6318 100.357 48.6318 101.244H42.3843L42.6626 101.012C42.6626 101.558 42.7709 102.032 42.9874 102.435C43.2039 102.837 43.4977 103.146 43.8688 103.362C44.2399 103.569 44.6626 103.672 45.1369 103.672C45.6523 103.672 46.0802 103.553 46.4204 103.316C46.7709 103.069 47.0441 102.759 47.24 102.388L48.508 102.976C48.3019 103.378 48.0338 103.734 47.7039 104.043C47.374 104.342 46.9823 104.574 46.5286 104.739C46.0853 104.904 45.5853 104.986 45.0286 104.986ZM42.7554 100.316L42.4616 100.084H47.3482L47.0699 100.316C47.0699 99.8623 46.9771 99.4757 46.7915 99.1561C46.606 98.8262 46.3585 98.5788 46.0493 98.4139C45.74 98.2386 45.3946 98.151 45.0132 98.151C44.642 98.151 44.2812 98.2386 43.9307 98.4139C43.5905 98.5788 43.3069 98.8211 43.0801 99.1407C42.8636 99.4603 42.7554 99.852 42.7554 100.316Z" fill="#909090"/>
</svg>
