<svg width="72" height="90" viewBox="0 0 72 90" fill="none" xmlns="http://www.w3.org/2000/svg">
<path d="M35.5081 60.1824C30.336 60.1824 25.3281 58.6518 21.0279 55.7605L19.9411 55.0243L25.6382 49.2935C23.9183 47.1384 22.7858 44.4933 22.4839 41.602L14.5406 49.5931L13.8095 48.4985C10.9355 44.1724 9.41412 39.136 9.41412 33.9328C9.41412 19.4575 21.1196 7.6821 35.5081 7.6821C40.6802 7.6821 45.687 9.2126 49.9824 12.1074L51.0745 12.8395L43.4297 20.5304C44.6982 22.6227 46.0847 25.0104 47.3578 27.4434L56.4749 18.2719L57.2026 19.37C60.0783 23.6914 61.6014 28.7295 61.6014 33.9328C61.6014 48.4074 49.8966 60.1824 35.5081 60.1824ZM35.5081 0C16.91 0 1.77808 15.2231 1.77808 33.9328C1.77808 52.6454 16.91 67.8656 35.5081 67.8656C54.105 67.8656 69.2381 52.6454 69.2381 33.9328C69.2381 15.2231 54.105 0 35.5081 0Z" fill="#4BBA72"/>
<path d="M30.8414 54.2973C28.8814 54.2973 27.2859 52.6945 27.2859 50.7245V31.3855C27.2859 27.952 28.1414 26.6353 29.1325 25.1106C29.6061 24.3809 30.0961 23.6265 30.5388 22.5636C31.0627 21.3027 31.3728 19.5625 31.4604 17.3903C31.5124 16.1453 31.475 15.0313 31.4353 14.3157C31.4318 14.2622 31.4511 14.21 31.4879 14.1712C31.5241 14.1318 31.5755 14.1095 31.6286 14.1095H39.3867C39.4399 14.1095 39.4913 14.1318 39.5275 14.1712C39.5643 14.21 39.5836 14.2622 39.58 14.3157C39.5403 15.0313 39.5029 16.1453 39.5549 17.3897C39.6419 19.5554 39.9532 21.2957 40.4806 22.5636C40.9227 23.6259 41.4121 24.3797 41.8852 25.1088C42.8745 26.6341 43.7289 27.9508 43.7289 31.3855V50.7245C43.7289 52.6945 42.1363 54.2973 40.1781 54.2973H30.8414Z" fill="white"/>
<path d="M39.3868 13.9144H31.6287C31.5224 13.9144 31.4196 13.9585 31.3466 14.0366C31.273 14.1148 31.2351 14.22 31.2409 14.3275C31.2818 15.0366 31.318 16.1436 31.2666 17.3816C31.1807 19.5308 30.8753 21.2488 30.3596 22.4879C29.9245 23.5343 29.4386 24.2816 28.9696 25.0043C28.0042 26.4902 27.092 27.8938 27.092 31.3856V50.7245C27.092 52.802 28.774 54.4924 30.8415 54.4924H40.1782C42.2427 54.4924 43.9235 52.802 43.9235 50.7245V31.3856C43.9235 27.8926 43.0124 26.489 42.0476 25.0025C41.5792 24.2805 41.0951 23.5343 40.66 22.4879C40.1484 21.2587 39.8336 19.4937 39.7489 17.3827C39.6975 16.1453 39.7337 15.0378 39.7746 14.3275C39.7799 14.22 39.7424 14.1148 39.6689 14.0366C39.5953 13.9585 39.4931 13.9144 39.3868 13.9144ZM39.3868 14.3046C39.3523 14.9115 39.3056 16.0643 39.3605 17.3986C39.4294 19.1025 39.6648 21.1071 40.3019 22.6383C41.6744 25.9385 43.5351 26.3686 43.5351 31.3856V50.7245C43.5351 52.5917 42.0336 54.1016 40.1782 54.1016H30.8415C28.986 54.1016 27.4804 52.5917 27.4804 50.7245V31.3856C27.4804 26.3686 29.3452 25.9385 30.7176 22.6383C31.3548 21.1071 31.5861 19.1066 31.6544 17.3986C31.7099 16.0643 31.6631 14.9115 31.6287 14.3046H39.3868Z" fill="#4BBA72" stroke="#4BBA72" stroke-width="1.16894" stroke-miterlimit="22.9256"/>
<path d="M30.8391 53.4388C29.3522 53.4388 28.1433 52.2197 28.1433 50.7227V31.3873L28.1462 31.1705C28.1468 31.0882 28.1994 31.0154 28.2771 30.9884C28.6356 30.8626 28.9499 30.8045 29.2646 30.8045C29.3709 30.8045 29.4795 30.8109 29.5917 30.8262C30.3258 30.9232 30.9945 31.2474 31.6404 31.5594C31.9464 31.7081 32.2629 31.8614 32.5783 31.9854C33.2067 32.2339 33.8772 32.365 34.5173 32.365C35.4196 32.365 36.215 32.1064 36.816 31.6176C37.2347 31.2774 37.5524 30.8415 37.8894 30.3796C38.2176 29.9296 38.557 29.4643 38.9979 29.0965C39.6625 28.5418 40.5461 28.2363 41.484 28.2363C41.8011 28.2363 42.1183 28.2715 42.4249 28.3409C42.4962 28.3573 42.5522 28.4125 42.5697 28.483C42.7753 29.295 42.8752 30.2451 42.8752 31.3873V50.7227C42.8752 52.2197 41.6657 53.4388 40.1793 53.4388H30.8391Z" fill="white"/>
<path d="M41.4841 28.0408C40.5006 28.0408 39.5738 28.3622 38.8735 28.9462C38.4145 29.3298 38.0676 29.8051 37.7323 30.264C37.4035 30.7158 37.0929 31.1418 36.694 31.4655C36.1281 31.9262 35.3747 32.17 34.5173 32.17C33.9012 32.17 33.2553 32.0437 32.649 31.804C32.3407 31.6823 32.0417 31.5372 31.7246 31.3838C31.0647 31.0642 30.3819 30.734 29.6175 30.6324C29.5006 30.6171 29.3815 30.6089 29.2641 30.6089C28.9271 30.6089 28.5925 30.6706 28.2128 30.8046C28.0581 30.8586 27.9541 31.0043 27.9524 31.1689L27.9507 31.2505C27.9495 31.2952 27.9495 31.3404 27.9495 31.3874V50.7228C27.9495 52.3279 29.2454 53.634 30.8392 53.634H40.1794C41.7726 53.634 43.0697 52.3279 43.0697 50.7228V31.3874C43.0697 30.2288 42.9675 29.2628 42.7584 28.4356C42.7222 28.2928 42.6101 28.183 42.4676 28.1506C42.1464 28.0778 41.8158 28.0408 41.4841 28.0408ZM41.4841 28.4315C41.786 28.4315 42.0885 28.4644 42.3823 28.5319C42.5704 29.2769 42.6813 30.1841 42.6813 31.3874V50.7228C42.6813 52.1123 41.5565 53.2439 40.1794 53.2439H30.8392C29.4621 53.2439 28.3367 52.1123 28.3367 50.7228V31.3874C28.3367 31.3128 28.3396 31.2452 28.3402 31.1729C28.6305 31.0713 28.9329 30.9996 29.2641 30.9996C29.3622 30.9996 29.4633 31.0055 29.5666 31.0196C30.6126 31.1589 31.5248 31.7793 32.5071 32.1677C33.1396 32.4174 33.8346 32.5607 34.5173 32.5607C35.3974 32.5607 36.2577 32.3228 36.9387 31.7693C37.803 31.066 38.2661 29.9608 39.1217 29.247C39.777 28.7 40.6303 28.4315 41.4841 28.4315Z" fill="#4BBA72"/>
<path d="M40.1781 54.1017H37.8157C38.0458 53.9719 38.2596 53.8144 38.454 53.6341H40.1792C41.7724 53.6341 43.0695 52.328 43.0695 50.7228V31.3874C43.0695 30.2288 42.9673 29.2629 42.7583 28.4356C42.7221 28.2928 42.6099 28.183 42.4674 28.1507C42.1462 28.0778 41.8156 28.0408 41.4839 28.0408C40.7393 28.0408 40.0262 28.2253 39.42 28.5684C38.9411 25.4527 37.477 24.6525 36.3457 21.827C35.8277 20.532 35.5748 18.9128 35.4609 17.3987H39.3598C39.4071 18.5632 39.5321 19.8669 39.8095 21.0632C39.938 21.6196 40.0998 22.1525 40.3018 22.6384C41.6743 25.9386 43.535 26.3686 43.535 31.3857V50.7246C43.535 51.4026 43.337 52.0336 42.996 52.563C42.697 53.0248 42.2893 53.409 41.8087 53.6781C41.3263 53.9484 40.7703 54.1017 40.1781 54.1017Z" fill="#4BBA72"/>
<path d="M40.1775 54.1029H37.814C37.8145 54.1023 37.8151 54.1023 37.8157 54.1017H40.1781C40.7703 54.1017 41.3263 53.9483 41.8087 53.6781C41.3263 53.9489 40.7697 54.1029 40.1775 54.1029ZM42.996 52.5629C43.3371 52.0336 43.535 51.4025 43.535 50.7245V31.3856C43.535 26.3686 41.6743 25.9385 40.3019 22.6383C40.0998 22.1524 39.938 21.6195 39.8096 21.0631C39.938 21.6195 40.0998 22.1524 40.3019 22.6377C41.6737 25.9367 43.5362 26.3668 43.5362 31.3862V50.7239C43.5362 51.4019 43.3376 52.0336 42.996 52.5629Z" fill="#4BBA72"/>
<path d="M40.1791 53.2439H38.8137C39.292 52.6369 39.58 51.859 39.58 51.0112V30.9179C39.58 30.1887 39.5438 29.5525 39.4772 28.9884C40.0705 28.6153 40.7766 28.4314 41.4838 28.4314C41.7858 28.4314 42.0883 28.4643 42.3821 28.5319C42.5701 29.2769 42.6811 30.1841 42.6811 31.3873V50.7227C42.6811 52.1123 41.5563 53.2439 40.1791 53.2439Z" fill="#32C096"/>
<path d="M40.1791 53.634H38.4539C38.5829 53.5142 38.7032 53.3832 38.8136 53.2439H40.1791C41.5562 53.2439 42.681 52.1123 42.681 50.7228V31.3874C42.681 30.1841 42.57 29.2769 42.382 28.5319C42.0882 28.4644 41.7857 28.4315 41.4837 28.4315C40.7765 28.4315 40.0705 28.6154 39.4771 28.9885C39.4602 28.8439 39.4414 28.7041 39.4198 28.5684C40.026 28.2252 40.7391 28.0408 41.4837 28.0408C41.8155 28.0408 42.146 28.0778 42.4672 28.1506C42.6097 28.183 42.7219 28.2928 42.7581 28.4356C42.9672 29.2628 43.0694 30.2288 43.0694 31.3874V50.7228C43.0694 52.3279 41.7723 53.634 40.1791 53.634Z" fill="#4BBA72"/>
<path d="M39.3608 17.3986H39.3602C39.3461 17.0572 39.3385 16.7282 39.3362 16.4174H39.3368C39.3391 16.6812 39.345 16.9573 39.3555 17.2428C39.3566 17.294 39.359 17.3463 39.3608 17.3986Z" fill="#4BBA72"/>
<path d="M35.4612 17.3986H31.6545C31.6691 17.0572 31.6761 16.7282 31.6791 16.4174H35.4057C35.4185 16.7364 35.4366 17.0648 35.4612 17.3986Z" fill="#4BBA72"/>
<path d="M39.3599 17.3986H35.461C35.4365 17.0648 35.4184 16.7364 35.4055 16.4174H39.336C39.3383 16.7282 39.3459 17.0572 39.3599 17.3986Z" fill="#4BBA72"/>
<path d="M31.5137 16.2217C31.0354 16.2217 30.6465 15.8304 30.6465 15.3498V12.9032C30.6465 12.4226 31.0354 12.0308 31.5137 12.0308H39.5049C39.9832 12.0308 40.3715 12.4226 40.3715 12.9032V15.3498C40.3715 15.8304 39.9832 16.2217 39.5049 16.2217H31.5137Z" fill="#4BBA72"/>
<path d="M39.5048 11.8357H31.5136C30.9279 11.8357 30.4519 12.3145 30.4519 12.9033V15.3492C30.4519 15.9385 30.9279 16.4174 31.5136 16.4174H39.5048C40.0899 16.4174 40.5659 15.9385 40.5659 15.3492V12.9033C40.5659 12.3145 40.0899 11.8357 39.5048 11.8357ZM39.5048 12.2259C39.8762 12.2259 40.1775 12.529 40.1775 12.9033V15.3492C40.1775 15.7241 39.8762 16.0266 39.5048 16.0266H31.5136C31.1416 16.0266 30.8402 15.7241 30.8402 15.3492V12.9033C30.8402 12.529 31.1416 12.2259 31.5136 12.2259H39.5048Z" fill="#4BBA72"/>
<path d="M39.5046 16.0267H35.0679C35.4393 16.0267 35.7406 15.7242 35.7406 15.3493V12.9033C35.7406 12.5291 35.4393 12.226 35.0679 12.226H39.5046C39.8761 12.226 40.1774 12.5291 40.1774 12.9033V15.3493C40.1774 15.7242 39.8761 16.0267 39.5046 16.0267Z" fill="#4BBA72"/>
<path d="M1.81927 85.019V74.1941H5.15953C6.19047 74.1941 7.10285 74.4261 7.89668 74.89C8.70081 75.3437 9.32969 75.9777 9.7833 76.7921C10.2369 77.6066 10.4637 78.5447 10.4637 79.6066C10.4637 80.6582 10.2369 81.5912 9.7833 82.4056C9.32969 83.22 8.70081 83.8592 7.89668 84.3232C7.10285 84.7871 6.19047 85.019 5.15953 85.019H1.81927ZM3.33476 83.5963H5.15953C5.68531 83.5963 6.175 83.4984 6.62862 83.3025C7.08223 83.0963 7.47915 82.8128 7.81936 82.452C8.16988 82.0809 8.43792 81.653 8.62349 81.1685C8.81937 80.6839 8.91731 80.1633 8.91731 79.6066C8.91731 79.0499 8.81937 78.5293 8.62349 78.0447C8.43792 77.5602 8.16988 77.1375 7.81936 76.7767C7.47915 76.4055 7.08223 76.122 6.62862 75.9261C6.175 75.7199 5.68531 75.6168 5.15953 75.6168H3.33476V83.5963ZM16.9031 85.019L16.8412 83.6737V80.9829C16.8412 80.4159 16.7742 79.9417 16.6402 79.5602C16.5165 79.1788 16.3206 78.8901 16.0526 78.6942C15.7948 78.4983 15.4495 78.4004 15.0165 78.4004C14.6144 78.4004 14.2639 78.4829 13.9649 78.6478C13.6762 78.8128 13.434 79.0705 13.2381 79.421L11.9391 78.9262C12.1247 78.5757 12.3566 78.2664 12.635 77.9983C12.9133 77.72 13.2484 77.5035 13.6402 77.3488C14.0319 77.1839 14.4907 77.1014 15.0165 77.1014C15.7484 77.1014 16.3567 77.2457 16.8412 77.5344C17.3258 77.8231 17.6866 78.2406 17.9237 78.787C18.1711 79.3334 18.2897 80.0087 18.2794 80.8128L18.2639 85.019H16.9031ZM14.6299 85.2046C13.7123 85.2046 12.9958 84.9984 12.4803 84.586C11.9752 84.1634 11.7226 83.5809 11.7226 82.8386C11.7226 82.0448 11.9855 81.4417 12.5113 81.0293C13.0474 80.6066 13.7896 80.3953 14.7381 80.3953H16.8876V81.5551H15.1402C14.4288 81.5551 13.9288 81.6685 13.6402 81.8953C13.3515 82.1118 13.2072 82.4159 13.2072 82.8077C13.2072 83.1685 13.3412 83.452 13.6092 83.6582C13.8876 83.8541 14.269 83.952 14.7536 83.952C15.1763 83.952 15.5422 83.8644 15.8515 83.6891C16.1608 83.5036 16.4031 83.2458 16.5783 82.9159C16.7536 82.586 16.8412 82.2097 16.8412 81.787H17.3515C17.3515 82.8386 17.1247 83.6737 16.6711 84.2922C16.2278 84.9005 15.5474 85.2046 14.6299 85.2046ZM20.2221 85.019V77.287H21.6912V85.019H20.2221ZM20.9644 75.6478C20.7272 75.6478 20.521 75.5601 20.3458 75.3849C20.1705 75.1993 20.0829 74.988 20.0829 74.7509C20.0829 74.5034 20.1705 74.2972 20.3458 74.1323C20.521 73.957 20.7272 73.8694 20.9644 73.8694C21.2118 73.8694 21.418 73.957 21.5829 74.1323C21.7582 74.2972 21.8458 74.5034 21.8458 74.7509C21.8458 74.988 21.7582 75.1993 21.5829 75.3849C21.418 75.5601 21.2118 75.6478 20.9644 75.6478ZM24.7412 80.8592C24.7412 80.0241 24.901 79.3437 25.2206 78.8179C25.5402 78.2921 25.9526 77.9004 26.4577 77.6427C26.9629 77.3849 27.4938 77.256 28.0506 77.256V78.6478C27.5866 78.6478 27.1433 78.72 26.7206 78.8643C26.3083 78.9983 25.968 79.2251 25.7 79.5447C25.4423 79.854 25.3134 80.2767 25.3134 80.8128L24.7412 80.8592ZM23.8443 85.019V77.287H25.3134V85.019H23.8443ZM30.1789 88.2974C29.9521 88.2974 29.6995 88.2562 29.4212 88.1737C29.1531 88.0913 28.8748 87.983 28.5861 87.849L29.1274 86.6428C29.3542 86.7459 29.55 86.8232 29.715 86.8747C29.8903 86.9263 30.0294 86.9521 30.1325 86.9521C30.3903 86.9521 30.6068 86.8799 30.782 86.7356C30.9676 86.5912 31.1171 86.3902 31.2305 86.1325L32.1274 84.0139L34.88 77.287H36.4574L32.7924 85.9778C32.5965 86.4521 32.3903 86.8644 32.1738 87.2149C31.9573 87.5655 31.6893 87.8335 31.3697 88.0191C31.0604 88.2047 30.6635 88.2974 30.1789 88.2974ZM31.7253 85.019L28.3387 77.287H29.9006L32.6996 83.9984L33.148 85.019H31.7253ZM41.7179 85.019V74.1941H48.2747V75.5859H43.2334V78.988H47.6252V80.3798H43.2334V85.019H41.7179ZM50.55 80.8592C50.55 80.0241 50.7098 79.3437 51.0294 78.8179C51.349 78.2921 51.7614 77.9004 52.2665 77.6427C52.7717 77.3849 53.3026 77.256 53.8593 77.256V78.6478C53.3954 78.6478 52.9521 78.72 52.5294 78.8643C52.117 78.9983 51.7768 79.2251 51.5088 79.5447C51.2511 79.854 51.1222 80.2767 51.1222 80.8128L50.55 80.8592ZM49.6531 85.019V77.287H51.1222V85.019H49.6531ZM58.462 85.2046C57.7094 85.2046 57.0444 85.0345 56.4671 84.6943C55.8898 84.3438 55.4362 83.8644 55.1063 83.2561C54.7764 82.6479 54.6114 81.9468 54.6114 81.153C54.6114 80.3592 54.7764 79.6581 55.1063 79.0499C55.4362 78.4416 55.8898 77.9674 56.4671 77.6272C57.0547 77.2767 57.7249 77.1014 58.4774 77.1014C59.1888 77.1014 59.8125 77.2818 60.3486 77.6427C60.8847 77.9932 61.3022 78.4983 61.6012 79.1581C61.9105 79.8076 62.0651 80.5757 62.0651 81.4623H55.8176L56.096 81.2303C56.096 81.7767 56.2042 82.251 56.4207 82.653C56.6372 83.0551 56.931 83.3644 57.3022 83.5809C57.6733 83.7871 58.096 83.8902 58.5702 83.8902C59.0857 83.8902 59.5135 83.7716 59.8537 83.5345C60.2043 83.2871 60.4775 82.9778 60.6733 82.6066L61.9414 83.1943C61.7352 83.5963 61.4672 83.952 61.1373 84.2613C60.8074 84.5603 60.4156 84.7922 59.962 84.9572C59.5187 85.1221 59.0187 85.2046 58.462 85.2046ZM56.1887 80.5344L55.8949 80.3025H60.7816L60.5032 80.5344C60.5032 80.0808 60.4105 79.6942 60.2249 79.3746C60.0393 79.0447 59.7919 78.7973 59.4826 78.6324C59.1733 78.4571 58.828 78.3695 58.4465 78.3695C58.0754 78.3695 57.7145 78.4571 57.364 78.6324C57.0238 78.7973 56.7403 79.0396 56.5135 79.3592C56.297 79.6788 56.1887 80.0705 56.1887 80.5344ZM66.934 85.2046C66.1814 85.2046 65.5165 85.0345 64.9391 84.6943C64.3618 84.3438 63.9082 83.8644 63.5783 83.2561C63.2484 82.6479 63.0835 81.9468 63.0835 81.153C63.0835 80.3592 63.2484 79.6581 63.5783 79.0499C63.9082 78.4416 64.3618 77.9674 64.9391 77.6272C65.5268 77.2767 66.1969 77.1014 66.9495 77.1014C67.6608 77.1014 68.2846 77.2818 68.8206 77.6427C69.3567 77.9932 69.7743 78.4983 70.0732 79.1581C70.3825 79.8076 70.5372 80.5757 70.5372 81.4623H64.2897L64.568 81.2303C64.568 81.7767 64.6763 82.251 64.8928 82.653C65.1093 83.0551 65.4031 83.3644 65.7742 83.5809C66.1454 83.7871 66.568 83.8902 67.0423 83.8902C67.5577 83.8902 67.9856 83.7716 68.3258 83.5345C68.6763 83.2871 68.9495 82.9778 69.1454 82.6066L70.4135 83.1943C70.2073 83.5963 69.9392 83.952 69.6093 84.2613C69.2794 84.5603 68.8877 84.7922 68.434 84.9572C67.9907 85.1221 67.4907 85.2046 66.934 85.2046ZM64.6608 80.5344L64.367 80.3025H69.2536L68.9753 80.5344C68.9753 80.0808 68.8825 79.6942 68.6969 79.3746C68.5114 79.0447 68.2639 78.7973 67.9547 78.6324C67.6454 78.4571 67.3 78.3695 66.9186 78.3695C66.5474 78.3695 66.1866 78.4571 65.8361 78.6324C65.4959 78.7973 65.2123 79.0396 64.9855 79.3592C64.769 79.6788 64.6608 80.0705 64.6608 80.5344Z" fill="#909090"/>
</svg>
