<svg width="83" height="90" viewBox="0 0 83 90" fill="none" xmlns="http://www.w3.org/2000/svg">
<path d="M40.8482 60.1877C35.6755 60.1877 30.6688 58.6577 26.3733 55.7623L25.2817 55.0303L31.4256 48.8476C30.351 47.7383 29.652 46.6391 29.2385 45.8782C28.4319 44.3765 28.015 42.9035 27.8083 41.6232L19.8819 49.5967L19.1548 48.4992C16.2773 44.1767 14.7554 39.139 14.7554 33.9352C14.7554 19.4594 26.4603 7.68451 40.8482 7.68451C46.0243 7.68451 51.0271 9.20977 55.3266 12.1052L56.414 12.8372L53.9004 15.3672L54.0371 17.1228C54.1323 18.4483 54.0576 20.329 53.3591 22.3971L54.1072 22.5141L54.2228 24.2643C54.2561 24.8136 54.2602 25.363 54.2275 25.9077L61.8139 18.2744L62.5457 19.3683C65.419 23.6944 66.9404 28.7284 66.9404 33.9352C66.9404 48.4081 55.2361 60.1877 40.8482 60.1877ZM40.8482 0C22.2513 0 7.11877 15.2214 7.11877 33.9352C7.11877 52.6454 22.2513 67.8664 40.8482 67.8664C59.4451 67.8664 74.577 52.6454 74.577 33.9352C74.577 15.2214 59.4451 0 40.8482 0Z" fill="#4BBA72"/>
<path d="M50.6758 22.3753C46.7132 22.2513 42.8055 24.0152 40.9355 27.5669C39.0567 23.9717 34.9329 22.1098 30.8512 22.3918C29.553 19.8419 29.5821 17.4794 29.6522 16.4729C35.1578 15.6139 40.4432 18.8066 40.7615 24.4317C41.0675 18.8371 46.295 15.6327 51.8665 16.4729C52.0044 18.45 51.6201 20.5163 50.6758 22.3753Z" fill="#4BBA72"/>
<path d="M50.8408 30.3299C46.8643 30.0526 42.6804 31.8416 40.7613 35.4997C38.9473 32.0414 34.8907 30.0679 31.0122 30.3129C29.7344 27.763 29.7554 25.4087 29.8296 24.4093C35.0542 23.4081 40.6117 26.6548 40.9353 32.3674C41.2133 26.7664 46.6861 23.4574 52.0486 24.4093C52.1788 26.4439 51.7642 28.5103 50.8408 30.3299Z" fill="#4BBA72"/>
<path d="M50.6798 38.2496C46.962 38.0075 42.8353 39.8441 40.9355 43.4358C39.0205 39.7901 35.0106 38.0956 30.8472 38.2613C29.553 35.7113 29.5822 33.3624 29.6523 32.3506C35.1438 31.4887 40.4934 34.7201 40.7615 40.3041C41.0132 35.3676 45.5341 31.4411 51.8666 32.3506C51.9367 33.3536 51.9658 35.7079 50.6798 38.2496Z" fill="#4BBA72"/>
<path d="M40.9474 52.3382C40.9474 52.3382 40.9393 52.3382 40.9352 52.3382C40.9264 52.3382 40.9264 52.3382 40.9182 52.3382C34.5764 52.3382 29.3588 46.8401 29.8295 40.2872C35.1224 39.2761 40.6157 42.602 40.9352 48.2371C41.1904 43.1555 45.9011 39.3795 52.0485 40.2872C52.445 46.9182 47.3547 52.2853 40.9474 52.3382Z" fill="#4BBA72"/>
<path d="M7.56148 85.3693C6.46869 85.3693 5.49445 85.1322 4.63876 84.6579C3.79339 84.1734 3.12843 83.5136 2.64389 82.6785C2.16966 81.8332 1.93254 80.8692 1.93254 79.7867C1.93254 78.6836 2.16966 77.7145 2.64389 76.8795C3.12843 76.0341 3.79339 75.3743 4.63876 74.9001C5.49445 74.4155 6.46869 74.1733 7.56148 74.1733C8.15943 74.1733 8.7316 74.2712 9.278 74.4671C9.83471 74.6526 10.3347 74.9155 10.778 75.2557C11.2316 75.5856 11.5976 75.9671 11.876 76.4001L10.6543 77.2042C10.4481 76.8846 10.1801 76.6011 9.85018 76.3537C9.52027 76.1063 9.15429 75.9155 8.75222 75.7815C8.36046 75.6372 7.96355 75.565 7.56148 75.565C6.76766 75.565 6.06146 75.7454 5.4429 76.1063C4.83464 76.4671 4.35525 76.962 4.00473 77.5908C3.65421 78.2197 3.47895 78.9517 3.47895 79.7867C3.47895 80.6012 3.64906 81.3228 3.98927 81.9517C4.33979 82.5806 4.82433 83.0754 5.4429 83.4363C6.07177 83.7971 6.78828 83.9775 7.59241 83.9775C8.24191 83.9775 8.81923 83.8435 9.3244 83.5754C9.83987 83.3074 10.2419 82.9311 10.5306 82.4466C10.8296 81.962 10.9791 81.4002 10.9791 80.761L12.4482 80.6218C12.4482 81.5806 12.2368 82.4156 11.8141 83.127C11.4017 83.8383 10.8296 84.3899 10.0976 84.7816C9.36563 85.1734 8.52026 85.3693 7.56148 85.3693ZM8.35016 80.8538V79.5857H12.4482V80.6991L11.6749 80.8538H8.35016ZM13.9769 85.1837V74.3588H15.446V85.1837H13.9769ZM22.7383 85.1837L22.6455 83.761V77.4516H24.0992V85.1837H22.7383ZM17.2949 81.4105V77.4516H18.764V81.4105H17.2949ZM18.764 81.4105C18.764 82.1012 18.8414 82.6321 18.996 83.0033C19.161 83.3744 19.3878 83.6321 19.6764 83.7765C19.9651 83.9208 20.2898 83.9981 20.6507 84.0084C21.2795 84.0084 21.7692 83.7868 22.1198 83.3435C22.4703 82.9002 22.6455 82.2765 22.6455 81.4723H23.2796C23.2796 82.2868 23.1559 82.9878 22.9084 83.5754C22.6713 84.1528 22.3311 84.5961 21.8878 84.9054C21.4445 85.2146 20.9032 85.3693 20.2641 85.3693C19.6661 85.3693 19.1403 85.2456 18.6867 84.9981C18.2434 84.7507 17.898 84.3641 17.6506 83.8383C17.4135 83.3126 17.2949 82.6321 17.2949 81.7971V81.4105H18.764ZM29.1335 85.3693C28.3603 85.3693 27.7623 85.1734 27.3396 84.7816C26.9169 84.3796 26.7056 83.8074 26.7056 83.0651V75.0392H28.1747V82.8486C28.1747 83.2301 28.2675 83.5239 28.453 83.7301C28.6489 83.926 28.9273 84.0239 29.2881 84.0239C29.3912 84.0239 29.5046 84.0033 29.6283 83.962C29.752 83.9208 29.9015 83.8383 30.0768 83.7146L30.6335 84.859C30.3654 85.0342 30.1077 85.1631 29.8603 85.2456C29.6232 85.328 29.3809 85.3693 29.1335 85.3693ZM25.3911 78.7197V77.4516H30.3706V78.7197H25.3911ZM35.441 85.3693C34.6884 85.3693 34.0235 85.1992 33.4461 84.859C32.8688 84.5084 32.4152 84.0291 32.0853 83.4208C31.7554 82.8125 31.5905 82.1115 31.5905 81.3177C31.5905 80.5239 31.7554 79.8228 32.0853 79.2146C32.4152 78.6063 32.8688 78.1321 33.4461 77.7919C34.0338 77.4413 34.7039 77.2661 35.4565 77.2661C36.1678 77.2661 36.7916 77.4465 37.3276 77.8073C37.8637 78.1578 38.2813 78.663 38.5802 79.3228C38.8895 79.9723 39.0442 80.7404 39.0442 81.627H32.7967L33.075 81.395C33.075 81.9414 33.1833 82.4156 33.3998 82.8177C33.6163 83.2198 33.9101 83.5291 34.2812 83.7456C34.6523 83.9517 35.075 84.0548 35.5493 84.0548C36.0647 84.0548 36.4926 83.9363 36.8328 83.6992C37.1833 83.4517 37.4565 83.1425 37.6524 82.7713L38.9204 83.3589C38.7143 83.761 38.4462 84.1167 38.1163 84.426C37.7864 84.7249 37.3947 84.9569 36.941 85.1219C36.4977 85.2868 35.9977 85.3693 35.441 85.3693ZM33.1678 80.6991L32.874 80.4672H37.7606L37.4823 80.6991C37.4823 80.2455 37.3895 79.8589 37.2039 79.5393C37.0184 79.2094 36.7709 78.962 36.4617 78.797C36.1524 78.6218 35.807 78.5341 35.4256 78.5341C35.0544 78.5341 34.6936 78.6218 34.3431 78.797C34.0029 78.962 33.7193 79.2043 33.4925 79.5238C33.276 79.8434 33.1678 80.2352 33.1678 80.6991ZM40.4955 85.1837V77.4516H41.8718L41.9646 78.8743V85.1837H40.4955ZM45.8461 85.1837V81.2249H47.3152V85.1837H45.8461ZM45.8461 81.2249C45.8461 80.5239 45.7636 79.9929 45.5987 79.6321C45.444 79.261 45.2224 79.0032 44.9337 78.8589C44.6553 78.7146 44.3306 78.6372 43.9595 78.6269C43.3306 78.6269 42.8409 78.8486 42.4904 79.2919C42.1398 79.7352 41.9646 80.3589 41.9646 81.163H41.3306C41.3306 80.3486 41.4491 79.6527 41.6862 79.0754C41.9337 78.4877 42.279 78.0393 42.7223 77.73C43.1759 77.4207 43.712 77.2661 44.3306 77.2661C44.9389 77.2661 45.4646 77.3898 45.9079 77.6372C46.3616 77.8846 46.7069 78.2712 46.944 78.797C47.1915 79.3125 47.3152 79.9929 47.3152 80.8383V81.2249H45.8461ZM53.295 85.1837V74.3588H59.8518V75.7506H54.8104V79.1527H59.2023V80.5445H54.8104V85.1837H53.295ZM62.127 81.0239C62.127 80.1888 62.2868 79.5084 62.6064 78.9826C62.926 78.4568 63.3384 78.0651 63.8436 77.8073C64.3487 77.5496 64.8797 77.4207 65.4364 77.4207V78.8125C64.9724 78.8125 64.5291 78.8847 64.1064 79.029C63.6941 79.163 63.3539 79.3898 63.0858 79.7094C62.8281 80.0187 62.6992 80.4414 62.6992 80.9775L62.127 81.0239ZM61.2301 85.1837V77.4516H62.6992V85.1837H61.2301ZM70.039 85.3693C69.2864 85.3693 68.6214 85.1992 68.0441 84.859C67.4668 84.5084 67.0132 84.0291 66.6833 83.4208C66.3534 82.8125 66.1884 82.1115 66.1884 81.3177C66.1884 80.5239 66.3534 79.8228 66.6833 79.2146C67.0132 78.6063 67.4668 78.1321 68.0441 77.7919C68.6318 77.4413 69.3019 77.2661 70.0545 77.2661C70.7658 77.2661 71.3895 77.4465 71.9256 77.8073C72.4617 78.1578 72.8792 78.663 73.1782 79.3228C73.4875 79.9723 73.6421 80.7404 73.6421 81.627H67.3946L67.673 81.395C67.673 81.9414 67.7812 82.4156 67.9977 82.8177C68.2142 83.2198 68.508 83.5291 68.8792 83.7456C69.2503 83.9517 69.673 84.0548 70.1472 84.0548C70.6627 84.0548 71.0906 83.9363 71.4308 83.6992C71.7813 83.4517 72.0545 83.1425 72.2504 82.7713L73.5184 83.3589C73.3122 83.761 73.0442 84.1167 72.7143 84.426C72.3844 84.7249 71.9926 84.9569 71.539 85.1219C71.0957 85.2868 70.5957 85.3693 70.039 85.3693ZM67.7658 80.6991L67.4719 80.4672H72.3586L72.0803 80.6991C72.0803 80.2455 71.9875 79.8589 71.8019 79.5393C71.6163 79.2094 71.3689 78.962 71.0596 78.797C70.7503 78.6218 70.405 78.5341 70.0235 78.5341C69.6524 78.5341 69.2916 78.6218 68.941 78.797C68.6008 78.962 68.3173 79.2043 68.0905 79.5238C67.874 79.8434 67.7658 80.2352 67.7658 80.6991ZM78.511 85.3693C77.7584 85.3693 77.0935 85.1992 76.5162 84.859C75.9388 84.5084 75.4852 84.0291 75.1553 83.4208C74.8254 82.8125 74.6605 82.1115 74.6605 81.3177C74.6605 80.5239 74.8254 79.8228 75.1553 79.2146C75.4852 78.6063 75.9388 78.1321 76.5162 77.7919C77.1038 77.4413 77.7739 77.2661 78.5265 77.2661C79.2379 77.2661 79.8616 77.4465 80.3977 77.8073C80.9338 78.1578 81.3513 78.663 81.6503 79.3228C81.9595 79.9723 82.1142 80.7404 82.1142 81.627H75.8667L76.145 81.395C76.145 81.9414 76.2533 82.4156 76.4698 82.8177C76.6863 83.2198 76.9801 83.5291 77.3512 83.7456C77.7224 83.9517 78.1451 84.0548 78.6193 84.0548C79.1348 84.0548 79.5626 83.9363 79.9028 83.6992C80.2533 83.4517 80.5265 83.1425 80.7224 82.7713L81.9905 83.3589C81.7843 83.761 81.5162 84.1167 81.1863 84.426C80.8564 84.7249 80.4647 84.9569 80.0111 85.1219C79.5678 85.2868 79.0677 85.3693 78.511 85.3693ZM76.2378 80.6991L75.944 80.4672H80.8307L80.5523 80.6991C80.5523 80.2455 80.4595 79.8589 80.2739 79.5393C80.0884 79.2094 79.841 78.962 79.5317 78.797C79.2224 78.6218 78.877 78.5341 78.4956 78.5341C78.1244 78.5341 77.7636 78.6218 77.4131 78.797C77.0729 78.962 76.7894 79.2043 76.5626 79.5238C76.3461 79.8434 76.2378 80.2352 76.2378 80.6991Z" fill="#909090"/>
</svg>
