<svg width="77" height="95" viewBox="0 0 77 95" fill="none" xmlns="http://www.w3.org/2000/svg">
<path d="M39.1988 68.8657C57.827 68.8657 72.9282 53.6734 72.9282 34.9328C72.9282 16.1923 57.827 1 39.1988 1C20.5705 1 5.46936 16.1923 5.46936 34.9328C5.46936 53.6734 20.5705 68.8657 39.1988 68.8657Z" stroke="#4BBA72" stroke-width="1.16894" stroke-miterlimit="22.9256"/>
<path d="M39.199 4.53259C55.875 4.53259 69.3142 18.1876 69.3142 34.933C69.3141 51.6784 55.8749 65.3324 39.199 65.3324C22.5232 65.3322 9.0838 51.6782 9.08374 34.933C9.08374 18.1877 22.5231 4.53279 39.199 4.53259Z" stroke="#4BBA72" stroke-width="8.50527" stroke-miterlimit="22.9256"/>
<path d="M39.886 21.1313V30.1601C39.886 30.1601 50.2745 28.9879 48.9762 40.1559C48.9762 40.1559 48.1785 46.2828 39.886 50.3133V52.9737C39.886 52.9737 56.5585 48.5395 52.8103 34.0296C52.8103 34.0296 50.8095 24.5173 39.886 21.1313Z" fill="#4BBA72"/>
<path d="M40.0543 52.9254C40.3084 52.8502 40.8386 52.6845 41.547 52.413L42.318 49.9712C42.3583 49.8831 42.3991 49.7991 42.4406 49.7198C41.4279 50.1945 40.5723 50.5029 40.0543 50.6733V52.9254ZM46.8926 49.5864C50.1683 47.2703 53.3588 43.6076 53.3594 38.1264C53.36 36.8597 53.1895 35.4959 52.8104 34.0294C52.8104 34.0294 50.8306 24.6147 40.0543 21.1835V23.4426C49.0406 26.5131 50.7086 34.4349 50.7086 34.4349C52.5383 41.52 48.7462 45.8302 45.0903 48.2421C45.6731 48.3026 46.322 48.5652 46.8926 49.5864Z" fill="#32C096"/>
<path d="M40.0543 34.4327H33.9146V17.5039H40.0543V34.4327Z" fill="#4BBA72"/>
<path d="M34.7106 27.5038C34.9599 27.4668 35.2134 27.3951 35.4745 27.2764C36.7371 26.7018 37.3433 25.4203 37.6201 24.1201C37.8812 22.8898 37.9624 21.5925 37.9904 20.3375C38.0079 19.5843 37.9898 18.8211 37.9005 18.0679H34.7106V27.5038Z" fill="#4BBA72"/>
<path d="M33.9146 34.4327H40.0543V17.5039H38.811C38.9254 18.5415 38.9429 19.5932 38.9195 20.6296C38.8775 22.4763 38.7327 24.4287 38.2509 26.2166C37.786 27.9427 36.7324 29.4092 35.0983 30.1531C34.6959 30.3358 34.3029 30.4404 33.9146 30.4868V34.4327Z" fill="#4BBA72"/>
<path d="M43.8943 47.8609H30.7386V46.2892H43.8943V47.8609Z" fill="#4BBA72"/>
<path d="M30.7386 47.861H43.8943V47.0748H30.7386V47.861Z" fill="#4BBA72"/>
<path d="M40.0543 53.2152H34.5785V47.861H40.0543V53.2152Z" fill="#4BBA72"/>
<path d="M35.5504 51.4343C35.9849 51.4343 36.4539 51.3127 36.8224 51.1482C37.3457 50.9137 37.7603 50.5782 38.0021 50.0495C38.203 49.61 38.3409 49.0777 38.3806 48.5477H35.106V51.3843C35.2455 51.419 35.3957 51.4343 35.5504 51.4343Z" fill="#4BBA72"/>
<path d="M34.5785 53.2152H40.0543V47.861H39.6787C39.6215 48.6424 39.4201 49.425 39.1368 50.1025C38.7362 51.059 37.9798 51.6682 37.0431 52.0619C36.4731 52.301 35.8289 52.4409 35.2145 52.4409C34.9973 52.4409 34.7835 52.4232 34.5785 52.3868V53.2152Z" fill="#4BBA72"/>
<path d="M39.1907 17.5039H35.1055V12.6144H39.1907V17.5039Z" fill="#4BBA72"/>
<path d="M34.5604 12.373C34.5604 12.5063 34.6673 12.6144 34.7993 12.6144H39.4966C39.6286 12.6144 39.7354 12.5063 39.7354 12.373V11.8888C39.7354 11.7554 39.6286 11.6473 39.4966 11.6473H34.7993C34.6673 11.6473 34.5604 11.7554 34.5604 11.8888V12.373Z" fill="#4BBA72"/>
<path d="M40.7476 54.9444L42.318 49.9714C43.0579 48.3539 43.9696 48.2217 44.7019 48.2258C45.4355 48.2217 46.3465 48.3539 47.0865 49.9714L48.6575 54.9444H40.7476Z" fill="#4BBA72"/>
<path fill-rule="evenodd" clip-rule="evenodd" d="M41.38 52.9408L41.5471 52.4132L41.38 52.9408Z" fill="#4BBA72"/>
<path d="M41.5471 52.4133L42.3186 49.9714L41.5471 52.4133Z" fill="#4BBA72"/>
<path d="M42.614 53.2093C43.3972 53.2093 44.178 52.912 44.5237 52.2787C44.8479 51.6864 44.8105 50.9202 44.8 50.2675C44.7988 50.2205 44.7971 50.1746 44.7942 50.1306C44.7562 50.137 44.7177 50.14 44.6779 50.14C44.2761 50.14 43.9503 49.811 43.9503 49.4044C43.9503 49.2334 44.008 49.0759 44.105 48.9508C43.8848 48.8209 43.6179 48.7305 43.3131 48.6641C43.2985 48.6611 43.2868 48.6558 43.2734 48.6517C42.9422 48.9091 42.6163 49.3198 42.3179 49.9713L41.547 52.4132L41.38 52.9408C41.7433 53.1176 42.1789 53.2093 42.614 53.2093Z" fill="#4BBA72"/>
<path d="M40.7476 54.9444H48.6575L47.0865 49.9714C46.3571 48.3768 45.4612 48.2252 44.7335 48.2252C44.723 48.2252 44.7125 48.2252 44.7019 48.2258C44.6926 48.2252 44.6832 48.2252 44.6739 48.2252C44.5991 48.2252 44.5221 48.227 44.4444 48.2317C44.7452 48.3927 45.0009 48.6048 45.1943 48.8862C45.2883 48.982 45.3566 49.1042 45.3875 49.2405C45.4372 49.358 45.4781 49.4855 45.5102 49.6224C45.7135 50.4961 45.6369 51.7017 45.2649 52.5208C44.8094 53.5237 43.7377 53.9873 42.6503 53.9873C42.1311 53.9873 41.6084 53.8821 41.147 53.6794L40.7476 54.9444Z" fill="#4BBA72"/>
<path d="M51.111 56.8309H28.506V54.9443H51.111V56.8309Z" fill="#4BBA72"/>
<path d="M51.111 56.8309H28.506V55.7428H51.111V56.8309Z" fill="#4BBA72"/>
<path d="M44.7943 50.1306C45.1406 50.0748 45.4052 49.7711 45.4052 49.4045C45.4052 49.3481 45.3993 49.2934 45.3876 49.2405C45.3327 49.1119 45.2685 48.9937 45.1943 48.8862C45.0623 48.7523 44.8801 48.6688 44.6781 48.6688C44.4456 48.6688 44.2383 48.7793 44.1051 48.9508C44.5057 49.1864 44.7522 49.5513 44.7943 50.1306Z" fill="#4BBA72"/>
<path d="M44.6787 50.14C44.7184 50.14 44.757 50.1371 44.795 50.1306C44.7529 49.5513 44.5062 49.1864 44.1053 48.9508C44.0083 49.076 43.9504 49.2335 43.9504 49.4044C43.9504 49.811 44.2766 50.14 44.6787 50.14Z" fill="#4BBA72"/>
<path d="M45.3879 49.2404C45.3569 49.1041 45.2886 48.9819 45.1945 48.8861C45.2687 48.9936 45.333 49.1117 45.3879 49.2404Z" fill="#4BBA72"/>
<path d="M44.2207 49.4045C44.2207 49.6595 44.4253 49.8669 44.6783 49.8669C44.9308 49.8669 45.136 49.6595 45.136 49.4045C45.136 49.1495 44.9308 48.9421 44.6783 48.9421C44.4253 48.9421 44.2207 49.1495 44.2207 49.4045Z" fill="#4BBA72"/>
<path d="M44.3148 49.4044C44.3148 49.6071 44.4779 49.7716 44.6783 49.7716C44.8788 49.7716 45.0413 49.6071 45.0413 49.4044C45.0413 49.2017 44.8788 49.0377 44.6783 49.0377C44.4779 49.0377 44.3148 49.2017 44.3148 49.4044Z" fill="#4BBA72"/>
<path d="M44.6307 49.6088C44.6307 49.6353 44.6524 49.6565 44.6781 49.6565C44.7044 49.6565 44.7249 49.6353 44.7249 49.6088V49.1999C44.7249 49.1735 44.7044 49.1523 44.6781 49.1523C44.6524 49.1523 44.6307 49.1735 44.6307 49.1999V49.6088Z" fill="#4BBA72"/>
<path d="M44.8804 49.4514C44.9061 49.4514 44.9277 49.4304 44.9277 49.4041C44.9277 49.3778 44.9061 49.3567 44.8804 49.3567H44.476C44.4497 49.3567 44.4286 49.3778 44.4286 49.4041C44.4286 49.4304 44.4497 49.4514 44.476 49.4514H44.8804Z" fill="#4BBA72"/>
<path d="M39.197 35.7505H34.7714V34.4326H39.197V35.7505Z" fill="#4BBA72"/>
<path d="M37.156 25.5466C37.156 27.0713 38.3784 28.3069 39.8863 28.3069C41.3948 28.3069 42.6166 27.0713 42.6166 25.5466C42.6166 24.022 41.3948 22.7858 39.8863 22.7858C38.3784 22.7858 37.156 24.022 37.156 25.5466Z" fill="#4BBA72"/>
<path d="M37.8024 25.5468C37.8024 26.7102 38.7351 27.6532 39.8862 27.6532C41.0373 27.6532 41.9705 26.7102 41.9705 25.5468C41.9705 24.3829 41.0373 23.4399 39.8862 23.4399C38.7351 23.4399 37.8024 24.3829 37.8024 25.5468Z" fill="#4BBA72"/>
<path d="M2.29035 90.4354V79.6105H3.80584V89.0437H8.83168V90.4354H2.29035ZM14.7918 90.4354L14.7299 89.09V86.3993C14.7299 85.8323 14.6629 85.358 14.5289 84.9766C14.4052 84.5951 14.2093 84.3065 13.9412 84.1106C13.6835 83.9147 13.3381 83.8168 12.9051 83.8168C12.5031 83.8168 12.1526 83.8993 11.8536 84.0642C11.5649 84.2292 11.3227 84.4869 11.1268 84.8374L9.82779 84.3426C10.0134 83.992 10.2453 83.6828 10.5237 83.4147C10.802 83.1364 11.1371 82.9199 11.5288 82.7652C11.9206 82.6003 12.3794 82.5178 12.9051 82.5178C13.6371 82.5178 14.2454 82.6621 14.7299 82.9508C15.2145 83.2394 15.5753 83.657 15.8124 84.2034C16.0598 84.7498 16.1784 85.425 16.1681 86.2292L16.1526 90.4354H14.7918ZM12.5185 90.621C11.601 90.621 10.8845 90.4148 10.369 90.0024C9.86387 89.5797 9.61129 88.9973 9.61129 88.255C9.61129 87.4612 9.87418 86.8581 10.4 86.4457C10.936 86.023 11.6783 85.8116 12.6268 85.8116H14.7763V86.9715H13.0289C12.3175 86.9715 11.8175 87.0849 11.5288 87.3117C11.2402 87.5282 11.0958 87.8323 11.0958 88.2241C11.0958 88.5849 11.2299 88.8684 11.4979 89.0746C11.7763 89.2705 12.1577 89.3684 12.6423 89.3684C13.0649 89.3684 13.4309 89.2808 13.7402 89.1055C14.0495 88.9199 14.2918 88.6622 14.467 88.3323C14.6423 88.0024 14.7299 87.6261 14.7299 87.2034H15.2402C15.2402 88.255 15.0134 89.09 14.5598 89.7086C14.1165 90.3169 13.4361 90.621 12.5185 90.621ZM18.018 90.4354V79.6105H19.4871V88.9973L19.4097 90.4354H18.018ZM22.0232 90.621C21.3737 90.621 20.8067 90.4509 20.3221 90.1107C19.8479 89.7705 19.4819 89.2962 19.2242 88.688C18.9664 88.0797 18.8376 87.3735 18.8376 86.5694C18.8376 85.7549 18.9664 85.0488 19.2242 84.4508C19.4819 83.8425 19.8479 83.3683 20.3221 83.0281C20.8067 82.6879 21.3737 82.5178 22.0232 82.5178C22.7139 82.5178 23.3222 82.6879 23.848 83.0281C24.3737 83.3683 24.781 83.8425 25.0696 84.4508C25.3686 85.0488 25.5181 85.7549 25.5181 86.5694C25.5181 87.3735 25.3686 88.0797 25.0696 88.688C24.781 89.2962 24.3737 89.7705 23.848 90.1107C23.3222 90.4509 22.7139 90.621 22.0232 90.621ZM21.6675 89.2911C22.1314 89.2911 22.5387 89.1777 22.8892 88.9509C23.2397 88.7138 23.5129 88.3942 23.7088 87.9921C23.915 87.5797 24.0181 87.1055 24.0181 86.5694C24.0181 86.0333 23.9201 85.5642 23.7242 85.1622C23.5284 84.7498 23.2552 84.4302 22.9046 84.2034C22.5541 83.9663 22.1469 83.8477 21.683 83.8477C21.2603 83.8477 20.8788 83.9663 20.5386 84.2034C20.2087 84.4302 19.951 84.7498 19.7654 85.1622C19.5799 85.5745 19.4871 86.0436 19.4871 86.5694C19.4871 87.1055 19.5799 87.5797 19.7654 87.9921C19.951 88.3942 20.2087 88.7138 20.5386 88.9509C20.8685 89.1777 21.2448 89.2911 21.6675 89.2911ZM33.4513 90.4354V81.0023H30.0647V79.6105H38.3689V81.0023H34.9823V90.4354H33.4513ZM42.0192 90.621C41.2666 90.621 40.6016 90.4509 40.0243 90.1107C39.447 89.7602 38.9933 89.2808 38.6634 88.6725C38.3335 88.0643 38.1686 87.3632 38.1686 86.5694C38.1686 85.7756 38.3335 85.0745 38.6634 84.4663C38.9933 83.858 39.447 83.3838 40.0243 83.0436C40.6119 82.693 41.282 82.5178 42.0346 82.5178C42.746 82.5178 43.3697 82.6982 43.9058 83.059C44.4419 83.4096 44.8594 83.9147 45.1584 84.5745C45.4677 85.224 45.6223 85.9921 45.6223 86.8787H39.3748L39.6531 86.6467C39.6531 87.1931 39.7614 87.6673 39.9779 88.0694C40.1944 88.4715 40.4882 88.7808 40.8593 88.9973C41.2305 89.2034 41.6532 89.3065 42.1274 89.3065C42.6429 89.3065 43.0707 89.188 43.4109 88.9509C43.7615 88.7034 44.0346 88.3942 44.2305 88.023L45.4986 88.6107C45.2924 89.0127 45.0244 89.3684 44.6945 89.6777C44.3646 89.9767 43.9728 90.2086 43.5192 90.3736C43.0759 90.5385 42.5759 90.621 42.0192 90.621ZM39.7459 85.9508L39.4521 85.7189H44.3388L44.0604 85.9508C44.0604 85.4972 43.9676 85.1106 43.7821 84.791C43.5965 84.4611 43.3491 84.2137 43.0398 84.0487C42.7305 83.8735 42.3851 83.7858 42.0037 83.7858C41.6326 83.7858 41.2717 83.8735 40.9212 84.0487C40.581 84.2137 40.2975 84.456 40.0707 84.7756C39.8542 85.0951 39.7459 85.4869 39.7459 85.9508ZM49.8417 90.621C49.2953 90.621 48.8056 90.5385 48.3726 90.3736C47.9499 90.2086 47.5891 89.987 47.2901 89.7086C47.0015 89.4303 46.785 89.1158 46.6406 88.7653L47.9087 88.2086C48.0736 88.5282 48.3211 88.7911 48.651 88.9973C48.9809 89.2034 49.3469 89.3065 49.7489 89.3065C50.1922 89.3065 50.5582 89.2241 50.8469 89.0591C51.1355 88.8942 51.2799 88.6622 51.2799 88.3632C51.2799 88.0746 51.1716 87.8478 50.9551 87.6828C50.7386 87.5179 50.4242 87.3838 50.0118 87.2807L49.285 87.0952C48.5633 86.8993 48.0015 86.6055 47.5994 86.2137C47.2077 85.822 47.0118 85.3787 47.0118 84.8838C47.0118 84.1312 47.254 83.5487 47.7386 83.1364C48.2231 82.724 48.9396 82.5178 49.8881 82.5178C50.352 82.5178 50.7747 82.5848 51.1562 82.7188C51.5479 82.8528 51.8778 83.0436 52.1459 83.291C52.4242 83.5384 52.6201 83.8322 52.7335 84.1725L51.4964 84.7292C51.3727 84.4199 51.1613 84.1931 50.8623 84.0487C50.5634 83.8941 50.2129 83.8168 49.8108 83.8168C49.3984 83.8168 49.0737 83.9096 48.8365 84.0951C48.5994 84.2704 48.4809 84.5178 48.4809 84.8374C48.4809 85.0127 48.5788 85.1828 48.7747 85.3477C48.9809 85.5024 49.2799 85.6312 49.6716 85.7343L50.5067 85.9354C51.0118 86.0591 51.4294 86.2498 51.7593 86.5075C52.0892 86.755 52.3366 87.0385 52.5015 87.3581C52.6665 87.6673 52.749 87.9921 52.749 88.3323C52.749 88.7962 52.6201 89.2034 52.3624 89.554C52.1149 89.8942 51.7696 90.1571 51.3263 90.3426C50.8933 90.5282 50.3984 90.621 49.8417 90.621ZM57.2617 90.621C56.4885 90.621 55.8906 90.4251 55.4679 90.0334C55.0452 89.6313 54.8338 89.0591 54.8338 88.3168V80.291H56.3029V88.1003C56.3029 88.4818 56.3957 88.7756 56.5813 88.9818C56.7772 89.1777 57.0555 89.2756 57.4164 89.2756C57.5195 89.2756 57.6329 89.255 57.7566 89.2138C57.8803 89.1725 58.0298 89.09 58.205 88.9663L58.7617 90.1107C58.4937 90.2859 58.236 90.4148 57.9885 90.4973C57.7514 90.5798 57.5091 90.621 57.2617 90.621ZM53.5194 83.9714V82.7034H58.4988V83.9714H53.5194ZM63.5693 90.621C62.8167 90.621 62.1517 90.4509 61.5744 90.1107C60.9971 89.7602 60.5435 89.2808 60.2136 88.6725C59.8837 88.0643 59.7187 87.3632 59.7187 86.5694C59.7187 85.7756 59.8837 85.0745 60.2136 84.4663C60.5435 83.858 60.9971 83.3838 61.5744 83.0436C62.162 82.693 62.8321 82.5178 63.5847 82.5178C64.2961 82.5178 64.9198 82.6982 65.4559 83.059C65.992 83.4096 66.4095 83.9147 66.7085 84.5745C67.0178 85.224 67.1724 85.9921 67.1724 86.8787H60.9249L61.2033 86.6467C61.2033 87.1931 61.3115 87.6673 61.528 88.0694C61.7445 88.4715 62.0383 88.7808 62.4095 88.9973C62.7806 89.2034 63.2033 89.3065 63.6775 89.3065C64.193 89.3065 64.6208 89.188 64.961 88.9509C65.3116 88.7034 65.5848 88.3942 65.7806 88.023L67.0487 88.6107C66.8425 89.0127 66.5745 89.3684 66.2446 89.6777C65.9147 89.9767 65.5229 90.2086 65.0693 90.3736C64.626 90.5385 64.126 90.621 63.5693 90.621ZM61.296 85.9508L61.0022 85.7189H65.8889L65.6105 85.9508C65.6105 85.4972 65.5178 85.1106 65.3322 84.791C65.1466 84.4611 64.8992 84.2137 64.5899 84.0487C64.2806 83.8735 63.9353 83.7858 63.5538 83.7858C63.1827 83.7858 62.8218 83.8735 62.4713 84.0487C62.1311 84.2137 61.8476 84.456 61.6208 84.7756C61.4043 85.0951 61.296 85.4869 61.296 85.9508ZM74.2836 90.4354L74.2218 88.9973V79.6105H75.6754V90.4354H74.2836ZM71.6856 90.621C70.9846 90.621 70.3712 90.4509 69.8454 90.1107C69.3299 89.7705 68.9227 89.2962 68.6238 88.688C68.3351 88.0797 68.1908 87.3735 68.1908 86.5694C68.1908 85.7549 68.3351 85.0488 68.6238 84.4508C68.9227 83.8425 69.3299 83.3683 69.8454 83.0281C70.3712 82.6879 70.9846 82.5178 71.6856 82.5178C72.3351 82.5178 72.897 82.6879 73.3712 83.0281C73.8558 83.3683 74.2269 83.8425 74.4847 84.4508C74.7424 85.0488 74.8713 85.7549 74.8713 86.5694C74.8713 87.3735 74.7424 88.0797 74.4847 88.688C74.2269 89.2962 73.8558 89.7705 73.3712 90.1107C72.897 90.4509 72.3351 90.621 71.6856 90.621ZM72.0259 89.2911C72.4589 89.2911 72.8403 89.1777 73.1702 88.9509C73.5001 88.7138 73.7578 88.3942 73.9434 87.9921C74.129 87.5797 74.2218 87.1055 74.2218 86.5694C74.2218 86.0333 74.129 85.5642 73.9434 85.1622C73.7578 84.7498 73.5001 84.4302 73.1702 84.2034C72.8403 83.9663 72.4537 83.8477 72.0104 83.8477C71.5568 83.8477 71.1547 83.9663 70.8042 84.2034C70.4537 84.4302 70.1805 84.7498 69.9846 85.1622C69.7887 85.5642 69.6908 86.0333 69.6908 86.5694C69.6908 87.1055 69.7887 87.5797 69.9846 87.9921C70.1908 88.3942 70.4691 88.7138 70.8197 88.9509C71.1702 89.1777 71.5722 89.2911 72.0259 89.2911Z" fill="#909090"/>
</svg>
