<svg width="72" height="88" viewBox="0 0 72 88" fill="none" xmlns="http://www.w3.org/2000/svg">
<path d="M36.5914 60.1784C31.4193 60.2536 26.3909 58.7982 22.0504 55.9645L20.9507 55.2453L25.9044 50.1167C26.4002 48.9516 27.1238 47.8053 28.0945 46.6349C28.1984 46.5151 28.2813 46.4152 28.3719 46.3153C28.5663 46.0874 28.8023 45.8283 29.0423 45.5797C29.2975 45.3124 29.5586 45.0556 29.8144 44.8053C29.2485 44.2102 28.703 43.5862 28.2066 42.9164C27.3014 41.6937 26.569 40.3582 26.0317 38.9576L15.4726 49.8917L14.728 48.8059C11.7927 44.5263 10.2007 39.514 10.126 34.3107C9.91513 19.836 21.4513 7.89074 35.8397 7.68275C41.0118 7.60637 46.039 9.06758 50.3753 11.8948L51.4797 12.6152L46.5389 17.7273C46.5389 17.7309 46.5348 17.7309 46.5348 17.7309C46.0302 18.9077 45.3031 20.0611 44.3354 21.2262C44.2245 21.3578 44.1123 21.4911 43.992 21.6198C43.8145 21.8243 43.5996 22.0611 43.3765 22.2896C43.1236 22.5569 42.8637 22.7937 42.6032 23.0422C43.1785 23.6421 43.724 24.2696 44.2204 24.9394C45.125 26.1586 45.8527 27.4929 46.3982 28.8994L56.9531 17.9688L57.6977 19.0546C60.6377 23.3348 62.2297 28.3501 62.3033 33.5534C62.5101 48.0251 50.9757 59.9704 36.5914 60.1784ZM35.7276 0.00359583C17.1342 0.269164 2.22068 15.7097 2.48992 34.4194C2.75798 53.1284 18.1019 68.1272 36.6994 67.861C55.2963 67.5908 70.2086 52.1508 69.9417 33.4417C69.6725 14.7327 54.3251 -0.266673 35.7276 0.00359583Z" fill="#4BBA72"/>
<path d="M43.835 16.2595C42.8498 18.7436 40.6965 20.7472 38.6589 22.4804C38.0836 22.0309 36.9758 21.3088 36.8064 21.209C39.4625 19.4551 41.6888 17.9822 43.108 15.8723C43.7078 14.9828 44.1493 13.9663 44.3981 12.8606C44.4722 13.9881 44.2818 15.1649 43.835 16.2595Z" fill="#4BBA72"/>
<path d="M44.9971 54.7552C44.7202 53.6524 44.2449 52.6495 43.624 51.777C42.0852 49.6231 39.7088 48.2106 37.1782 46.6266C37.5555 46.3863 38.7183 45.5408 38.9811 45.3093C41.0678 46.9662 43.2882 48.945 44.3354 51.3763C44.8107 52.4503 45.0379 53.6236 44.9971 54.7552Z" fill="#4BBA72"/>
<path d="M35.7112 42.6373C35.2335 43.0686 34.886 43.3424 33.7547 44.2895C32.4366 43.2143 31.4718 42.1708 30.6582 41.0786C28.2725 37.8606 27.4893 34.0217 28.7602 30.2643C29.6747 27.6163 31.362 25.4653 33.4621 23.6375C33.8604 23.9588 35.0337 24.8683 35.4624 25.2385C33.7939 26.8437 32.1989 28.9688 31.522 31.1791C30.5987 34.2161 31.2294 36.8542 32.9371 39.4599C33.6286 40.5269 34.7709 41.8019 35.7112 42.6373Z" fill="#4BBA72"/>
<path d="M41.9742 40.9158C39.2708 44.7883 36.1037 46.1496 32.8618 48.5356C30.6723 50.1507 28.6936 51.9921 28.0331 55.0003C27.8474 52.1642 29.2724 49.78 31.2458 47.7119C34.1157 44.7054 37.1216 43.2125 39.4653 39.6508C41.9351 35.8412 41.9742 32.1414 39.4939 28.3959C36.0335 23.2943 30.2541 21.4999 28.0944 16.4823C27.6202 15.4053 27.3918 14.2367 27.4339 13.1057C27.7101 14.2079 28.182 15.2109 28.8069 16.0834C31.9618 20.4987 37.7156 21.2937 41.7675 26.7772C44.9136 31.0169 45.226 36.2319 41.9742 40.9158Z" fill="#4BBA72"/>
<path d="M2.66344 83.408V72.5831H4.22532L10.3491 80.8718V72.5831H11.8801V83.408H10.3491L4.17893 75.0419V83.408H2.66344ZM17.7783 83.5935C17.0051 83.5935 16.3247 83.4234 15.737 83.0832C15.1494 82.7327 14.6855 82.2533 14.3453 81.645C14.0154 81.0368 13.8504 80.3358 13.8504 79.5419C13.8504 78.7481 14.0154 78.0471 14.3453 77.4388C14.6752 76.8305 15.1339 76.3563 15.7216 76.0161C16.3092 75.6656 16.9845 75.4903 17.7474 75.4903C18.5103 75.4903 19.1855 75.6656 19.7732 76.0161C20.3608 76.3563 20.8196 76.8305 21.1495 77.4388C21.4794 78.0471 21.6443 78.7481 21.6443 79.5419C21.6443 80.3358 21.4794 81.0368 21.1495 81.645C20.8196 82.2533 20.3608 82.7327 19.7732 83.0832C19.1958 83.4234 18.5309 83.5935 17.7783 83.5935ZM17.7783 82.2481C18.2422 82.2481 18.6546 82.1347 19.0154 81.9079C19.3763 81.6708 19.6546 81.3512 19.8505 80.9492C20.0567 80.5471 20.1598 80.078 20.1598 79.5419C20.1598 79.0058 20.0567 78.5368 19.8505 78.1347C19.6546 77.7326 19.3711 77.4182 19 77.1914C18.6288 76.9543 18.2113 76.8357 17.7474 76.8357C17.2731 76.8357 16.8556 76.9543 16.4948 77.1914C16.134 77.4182 15.8504 77.7326 15.6443 78.1347C15.4381 78.5368 15.335 79.0058 15.335 79.5419C15.335 80.078 15.4381 80.5471 15.6443 80.9492C15.8504 81.3512 16.1391 81.6708 16.5102 81.9079C16.8814 82.1347 17.3041 82.2481 17.7783 82.2481ZM23.2538 83.408V75.6759H24.6301L24.7229 77.0986V83.408H23.2538ZM28.6044 83.408V79.4491H30.0735V83.408H28.6044ZM28.6044 79.4491C28.6044 78.7481 28.5219 78.2172 28.357 77.8563C28.2023 77.4852 27.9807 77.2275 27.692 77.0831C27.4137 76.9388 27.0889 76.8615 26.7178 76.8512C26.0889 76.8512 25.5992 77.0728 25.2487 77.5161C24.8982 77.9594 24.7229 78.5831 24.7229 79.3873H24.0889C24.0889 78.5728 24.2074 77.877 24.4446 77.2996C24.692 76.712 25.0373 76.2635 25.4806 75.9542C25.9343 75.645 26.4704 75.4903 27.0889 75.4903C27.6972 75.4903 28.223 75.614 28.6663 75.8615C29.1199 76.1089 29.4652 76.4955 29.7024 77.0213C29.9498 77.5367 30.0735 78.2172 30.0735 79.0625V79.4491H28.6044ZM40.9709 83.5935C39.8781 83.5935 38.9038 83.3564 38.0482 82.8822C37.2028 82.3976 36.5378 81.7378 36.0533 80.9028C35.579 80.0574 35.3419 79.0935 35.3419 78.011C35.3419 76.9079 35.579 75.9388 36.0533 75.1037C36.5378 74.2583 37.2028 73.5985 38.0482 73.1243C38.9038 72.6398 39.8781 72.3975 40.9709 72.3975C41.5688 72.3975 42.141 72.4954 42.6874 72.6913C43.2441 72.8769 43.7441 73.1398 44.1874 73.48C44.641 73.8099 45.007 74.1913 45.2854 74.6243L44.0637 75.4285C43.8575 75.1089 43.5895 74.8254 43.2596 74.5779C42.9297 74.3305 42.5637 74.1398 42.1616 74.0058C41.7699 73.8614 41.3729 73.7893 40.9709 73.7893C40.1771 73.7893 39.4709 73.9697 38.8523 74.3305C38.244 74.6913 37.7646 75.1862 37.4141 75.8151C37.0636 76.4439 36.8883 77.1759 36.8883 78.011C36.8883 78.8254 37.0585 79.5471 37.3987 80.176C37.7492 80.8048 38.2337 81.2997 38.8523 81.6605C39.4812 82.0213 40.1977 82.2018 41.0018 82.2018C41.6513 82.2018 42.2286 82.0677 42.7338 81.7997C43.2493 81.5316 43.6513 81.1554 43.94 80.6708C44.239 80.1863 44.3885 79.6244 44.3885 78.9852L45.8575 78.846C45.8575 79.8048 45.6462 80.6399 45.2235 81.3512C44.8111 82.0626 44.239 82.6141 43.507 83.0059C42.775 83.3976 41.9297 83.5935 40.9709 83.5935ZM41.7595 79.078V77.8099H45.8575V78.9234L45.0843 79.078H41.7595ZM47.742 83.408V72.5831H49.3503L52.9379 77.8873L56.5102 72.5831H58.1184V83.408H56.6029V75.0264L52.9225 80.4543L49.2575 75.0419V83.408H47.742ZM65.551 83.5935C64.4994 83.5935 63.5664 83.3564 62.752 82.8822C61.9375 82.4079 61.2984 81.7481 60.8344 80.9028C60.3808 80.0574 60.154 79.0883 60.154 77.9955C60.154 76.9027 60.3808 75.9388 60.8344 75.1037C61.2984 74.2583 61.9324 73.5985 62.7365 73.1243C63.5407 72.6398 64.4685 72.3975 65.5201 72.3975C66.5716 72.3975 67.4995 72.6398 68.3036 73.1243C69.1077 73.5985 69.7366 74.2583 70.1902 75.1037C70.6439 75.9388 70.8707 76.9027 70.8707 77.9955C70.8707 79.0883 70.6439 80.0574 70.1902 80.9028C69.7366 81.7481 69.1077 82.4079 68.3036 82.8822C67.5098 83.3564 66.5922 83.5935 65.551 83.5935ZM65.551 82.2018C66.2933 82.2018 66.9479 82.0213 67.5149 81.6605C68.082 81.2997 68.5253 80.8048 68.8449 80.176C69.1644 79.5471 69.3242 78.8203 69.3242 77.9955C69.3242 77.1811 69.1593 76.4594 68.8294 75.8305C68.5098 75.1913 68.0613 74.6913 67.484 74.3305C66.917 73.9697 66.2623 73.7893 65.5201 73.7893C64.7778 73.7893 64.118 73.9697 63.5407 74.3305C62.9633 74.6913 62.5097 75.1913 62.1798 75.8305C61.8602 76.4594 61.7004 77.1811 61.7004 77.9955C61.7004 78.8203 61.8654 79.5471 62.1953 80.176C62.5252 80.8048 62.9788 81.2997 63.5561 81.6605C64.1438 82.0213 64.8087 82.2018 65.551 82.2018Z" fill="#909090"/>
</svg>
