<svg width="80" height="90" viewBox="0 0 80 90" fill="none" xmlns="http://www.w3.org/2000/svg">
<path d="M39.9102 68.8657C58.5384 68.8657 73.6396 53.6734 73.6396 34.9328C73.6396 16.1923 58.5384 1 39.9102 1C21.282 1 6.18079 16.1923 6.18079 34.9328C6.18079 53.6734 21.282 68.8657 39.9102 68.8657Z" stroke="#4BBA72" stroke-width="1.16894" stroke-miterlimit="22.9256"/>
<path d="M39.9103 4.53259C56.5863 4.53259 70.0255 18.1876 70.0255 34.933C70.0255 51.6784 56.5862 65.3324 39.9103 65.3324C23.2345 65.3322 9.79511 51.6782 9.79504 34.933C9.79504 18.1877 23.2344 4.53279 39.9103 4.53259Z" stroke="#4BBA72" stroke-width="8.50527" stroke-miterlimit="22.9256"/>
<path fill-rule="evenodd" clip-rule="evenodd" d="M18.5463 40.7143L19.2564 35.6268C19.2564 35.6268 19.2798 35.1427 19.8042 34.8853L21.2321 34.3783C21.2321 34.3783 21.6141 34.1756 21.3437 33.9177C21.3437 33.9177 20.1902 33.4611 20.244 32.1344C20.244 32.1344 20.1593 30.4964 21.6334 30.051C21.6334 30.051 23.6325 29.4112 24.2731 31.5181C24.2731 31.5181 24.7514 33.477 23.0765 33.9059C23.0765 33.9059 23.0339 34.3389 23.5782 34.4405C23.5782 34.4405 24.7783 34.4018 25.2339 36.0951L26.1601 35.1191C26.1601 35.1191 25.7431 33.5428 26.0363 31.967L26.9625 27.3472C26.9625 27.3472 27.0472 26.7073 28.5219 26.1374L30.0964 25.4042C30.0964 25.4042 30.4666 24.967 30.1115 24.5845C30.1115 24.5845 28.6451 23.4142 29.0002 21.9159C29.0002 21.9159 29.4481 19.5129 31.9641 20.0276C31.9641 20.0276 33.5462 20.215 34.0093 22.1034C34.0093 22.1034 34.4724 23.7496 32.69 24.7173C32.69 24.7173 32.551 25.0998 32.798 25.4194L34.9513 26.356C34.9513 26.356 35.5458 26.6756 35.6691 27.2684C35.7929 27.8618 37.7073 33.0275 37.7073 33.0275C37.7073 33.0275 37.8112 33.4211 38.0933 33.004C38.3748 32.5862 41.316 28.3807 41.316 28.3807C41.316 28.3807 41.7791 27.7796 42.9909 27.507L43.0219 26.9606C43.0219 26.9606 41.5554 26.4065 41.7791 24.1439C41.7791 24.1439 42.0413 21.8731 44.0252 21.8883C44.0252 21.8883 46.3794 21.6938 46.7421 24.3078C46.7421 24.3078 47.051 26.1416 45.2756 26.9994C45.2756 26.9994 45.1524 27.6709 45.6079 27.5381C45.6079 27.5381 46.3099 27.3666 47.0972 28.3419C47.0972 28.3419 51.2881 33.8894 51.489 34.108C51.6893 34.3265 52.4345 34.0498 52.33 35.2237L53.0016 36.0004L54.2099 34.5022C54.2099 34.5022 54.5224 34.0534 55.163 34.0575C55.163 34.0575 55.4177 33.8313 55.1747 33.6362C54.9312 33.4412 54.0289 32.8865 54.1445 31.2478C54.1445 31.2478 54.6544 29.4999 56.2289 29.6327C56.2289 29.6327 57.6644 29.6562 58.0732 31.5757C58.0732 31.5757 58.2659 32.9958 56.8076 33.6749C56.8076 33.6749 56.5104 34.108 57.6182 34.1703C57.6182 34.1703 57.5721 33.9635 58.6911 35.4852L60.9145 38.5786C60.9145 38.5786 61.3776 39.8817 60.0425 39.3277L58.3057 37.182L59.0543 41.6062L57.8893 41.5592L57.627 46.3194C57.627 46.3194 57.6422 46.897 56.7317 46.9123C56.7317 46.9123 56.0835 46.9746 56.0064 46.3665L55.9287 41.8247C55.9287 41.8247 55.7009 41.1808 55.4813 41.8365L55.215 46.417C55.215 46.417 55.1228 47.1579 54.3197 46.9082C54.3197 46.9082 53.7719 46.8459 53.5558 45.9405L53.6714 41.3994L52.7995 41.3953L53.9997 37.0803L53.4209 37.7514C53.4209 37.7514 53.2586 38.095 52.7802 37.6185C52.3019 37.1426 51.6029 36.4247 51.6029 36.4247C51.6029 36.4247 51.1783 36.5028 50.7613 36.0657C50.7613 36.0657 50.2678 35.8395 50.1901 35.1139L46.995 31.4934L48.9246 39.3894L46.7252 39.4987L46.6089 46.0768C46.6089 46.0768 46.6551 47.0286 45.3661 46.9587C45.3661 46.9587 44.2781 47.122 44.2629 45.9128C44.2472 44.7031 44.201 39.3424 44.201 39.3424L43.7221 39.3929L43.6141 46.3377C43.6141 46.3377 43.3209 47.0868 42.3795 47.0868C42.3795 47.0868 41.2681 47.2119 41.3142 46.1819C41.3603 45.152 41.2832 39.3307 41.2832 39.3307L38.9986 39.3777L41.3288 32.0504C41.3288 32.0504 38.3964 34.8359 38.1418 35.437C38.1418 35.437 37.6787 36.3653 36.5515 35.6473C36.5515 35.6473 35.9343 35.3588 36.0884 34.2819L34.3136 29.8342L34.136 45.7601C34.136 45.7601 34.2984 46.6731 32.7852 46.7278C32.7852 46.7278 31.6201 46.6497 31.6125 45.5339C31.6043 44.4182 31.4811 36.4822 31.4811 36.4822L31.0297 36.4511L30.7213 46.0022C30.7213 46.0022 30.5204 46.8994 29.5094 46.8294C29.5094 46.8294 28.4174 46.8606 28.3747 45.8265C28.3321 44.7924 28.5102 30.1074 28.5102 30.1074L27.9618 32.0969L27.8538 35.8501C27.8538 35.8501 27.7305 37.1297 26.5187 36.8025L24.7631 38.4329L24.0687 37.7931L24.0378 46.0644C24.0378 46.0644 24.0033 47.0122 23.2464 46.9464C23.2464 46.9464 22.3745 47.0321 22.3628 46.1461C22.3511 45.2607 22.2588 41.1873 22.2588 41.1873L21.9499 41.2032L21.888 46.3529C21.888 46.3529 21.6374 46.9851 20.9816 46.8447C20.9816 46.8447 20.2983 46.927 20.1751 46.088C20.0513 45.2489 20.1751 38.1873 20.1751 38.1873L19.6967 40.8559C19.6967 40.8559 19.3803 41.3712 18.979 41.1838C18.979 41.1838 18.5445 41.0357 18.5463 40.7143Z" fill="#4BBA72" stroke="#4BBA72" stroke-width="0.445367" stroke-miterlimit="22.9256"/>
<path d="M5.07747 85.3515C4.50014 85.3515 3.97436 85.2845 3.50013 85.1504C3.0362 85.0164 2.62898 84.836 2.27846 84.6092C1.93825 84.3721 1.65474 84.1092 1.42793 83.8205C1.20113 83.5319 1.04133 83.2277 0.948547 82.9081L2.41764 82.4287C2.57228 82.8514 2.8661 83.2174 3.29909 83.5267C3.73209 83.836 4.26303 83.9958 4.8919 84.0061C5.6548 84.0061 6.25274 83.8566 6.68574 83.5576C7.12905 83.2483 7.3507 82.8411 7.3507 82.336C7.3507 81.872 7.15997 81.4957 6.77852 81.2071C6.39708 80.9081 5.89191 80.6813 5.26304 80.5267L4.01044 80.2019C3.51559 80.0679 3.06198 79.8772 2.6496 79.6297C2.24753 79.3823 1.92794 79.0679 1.69083 78.6864C1.45371 78.305 1.33515 77.8462 1.33515 77.3101C1.33515 76.3204 1.65474 75.5472 2.29393 74.9905C2.94342 74.4338 3.87642 74.1554 5.09293 74.1554C5.79397 74.1554 6.40223 74.2688 6.9177 74.4956C7.43317 74.7121 7.85586 75.0008 8.18576 75.3616C8.52597 75.7225 8.76824 76.1194 8.91258 76.5524L7.44348 77.0472C7.26822 76.5833 6.96925 76.2122 6.54656 75.9338C6.12388 75.6451 5.60325 75.5008 4.98469 75.5008C4.33519 75.5008 3.81972 75.6555 3.43827 75.9647C3.06713 76.274 2.88156 76.6967 2.88156 77.2328C2.88156 77.6864 3.0259 78.0369 3.31456 78.2844C3.61353 78.5215 4.01045 78.7019 4.5053 78.8256L5.75789 79.1349C6.76822 79.3823 7.54658 79.7947 8.09298 80.372C8.64968 80.939 8.92804 81.5628 8.92804 82.2432C8.92804 82.8308 8.77855 83.3617 8.47958 83.836C8.19092 84.2999 7.75792 84.671 7.18059 84.9494C6.61357 85.2174 5.91253 85.3515 5.07747 85.3515ZM15.4432 85.1659L15.3813 83.8205V81.1298C15.3813 80.5627 15.3143 80.0885 15.1803 79.7071C15.0565 79.3256 14.8607 79.0369 14.5926 78.8411C14.3349 78.6452 13.9895 78.5472 13.5565 78.5472C13.1545 78.5472 12.8039 78.6297 12.505 78.7947C12.2163 78.9596 11.974 79.2174 11.7782 79.5679L10.4792 79.073C10.6647 78.7225 10.8967 78.4132 11.175 78.1452C11.4534 77.8668 11.7885 77.6503 12.1802 77.4957C12.572 77.3307 13.0307 77.2483 13.5565 77.2483C14.2885 77.2483 14.8968 77.3926 15.3813 77.6813C15.8658 77.9699 16.2267 78.3874 16.4638 78.9338C16.7112 79.4802 16.8298 80.1555 16.8195 80.9596L16.804 85.1659H15.4432ZM13.1699 85.3515C12.2524 85.3515 11.5359 85.1453 11.0204 84.7329C10.5152 84.3102 10.2627 83.7277 10.2627 82.9855C10.2627 82.1916 10.5256 81.5885 11.0513 81.1761C11.5874 80.7535 12.3297 80.5421 13.2782 80.5421H15.4277V81.7019H13.6802C12.9689 81.7019 12.4689 81.8153 12.1802 82.0421C11.8916 82.2586 11.7472 82.5628 11.7472 82.9545C11.7472 83.3154 11.8812 83.5989 12.1493 83.805C12.4276 84.0009 12.8091 84.0989 13.2936 84.0989C13.7163 84.0989 14.0823 84.0112 14.3916 83.836C14.7009 83.6504 14.9431 83.3927 15.1184 83.0628C15.2937 82.7329 15.3813 82.3566 15.3813 81.9339H15.8916C15.8916 82.9855 15.6648 83.8205 15.2112 84.4391C14.7679 85.0473 14.0875 85.3515 13.1699 85.3515ZM19.4426 85.1659V76.5833C19.4426 75.7689 19.6384 75.1554 20.0302 74.7431C20.422 74.3204 21.0147 74.109 21.8086 74.109C22.0457 74.109 22.3034 74.1503 22.5818 74.2328C22.8601 74.3049 23.1436 74.408 23.4323 74.542L22.8911 75.6709C22.6746 75.5678 22.4838 75.4957 22.3189 75.4544C22.1642 75.4029 22.0302 75.3771 21.9168 75.3771C21.5766 75.3771 21.324 75.4905 21.1591 75.7173C20.9941 75.9338 20.9117 76.274 20.9117 76.7379V85.1659H19.4426ZM18.0663 78.6555V77.4338H23.0457V78.6555H18.0663ZM27.8105 85.3515C27.0579 85.3515 26.3929 85.1814 25.8156 84.8411C25.2383 84.4906 24.7847 84.0112 24.4548 83.403C24.1249 82.7947 23.9599 82.0937 23.9599 81.2999C23.9599 80.506 24.1249 79.805 24.4548 79.1967C24.7847 78.5885 25.2383 78.1142 25.8156 77.774C26.4032 77.4235 27.0733 77.2483 27.8259 77.2483C28.5373 77.2483 29.161 77.4287 29.6971 77.7895C30.2332 78.14 30.6507 78.6452 30.9497 79.305C31.259 79.9545 31.4136 80.7225 31.4136 81.6091H25.1661L25.4445 81.3772C25.4445 81.9236 25.5527 82.3978 25.7692 82.7999C25.9857 83.2019 26.2795 83.5112 26.6507 83.7277C27.0218 83.9339 27.4445 84.037 27.9187 84.037C28.4342 84.037 28.862 83.9185 29.2022 83.6813C29.5528 83.4339 29.826 83.1246 30.0218 82.7535L31.2899 83.3411C31.0837 83.7432 30.8157 84.0989 30.4858 84.4082C30.1559 84.7071 29.7641 84.9391 29.3105 85.104C28.8672 85.269 28.3672 85.3515 27.8105 85.3515ZM25.5372 80.6813L25.2434 80.4493H30.1301L29.8517 80.6813C29.8517 80.2277 29.759 79.8411 29.5734 79.5215C29.3878 79.1916 29.1404 78.9442 28.8311 78.7792C28.5218 78.6039 28.1765 78.5163 27.795 78.5163C27.4239 78.5163 27.063 78.6039 26.7125 78.7792C26.3723 78.9442 26.0888 79.1864 25.862 79.506C25.6455 79.8256 25.5372 80.2174 25.5372 80.6813ZM36.996 85.1659V74.341H43.5528V75.7328H38.5115V79.1349H42.9033V80.5267H38.5115V85.1659H36.996ZM48.4865 85.3515C47.7133 85.3515 47.0329 85.1814 46.4452 84.8411C45.8576 84.4906 45.3937 84.0112 45.0535 83.403C44.7236 82.7947 44.5586 82.0937 44.5586 81.2999C44.5586 80.506 44.7236 79.805 45.0535 79.1967C45.3834 78.5885 45.8421 78.1142 46.4298 77.774C47.0174 77.4235 47.6927 77.2483 48.4556 77.2483C49.2185 77.2483 49.8937 77.4235 50.4814 77.774C51.069 78.1142 51.5278 78.5885 51.8577 79.1967C52.1876 79.805 52.3525 80.506 52.3525 81.2999C52.3525 82.0937 52.1876 82.7947 51.8577 83.403C51.5278 84.0112 51.069 84.4906 50.4814 84.8411C49.904 85.1814 49.2391 85.3515 48.4865 85.3515ZM48.4865 84.0061C48.9504 84.0061 49.3628 83.8927 49.7236 83.6659C50.0845 83.4288 50.3628 83.1092 50.5587 82.7071C50.7649 82.305 50.868 81.836 50.868 81.2999C50.868 80.7638 50.7649 80.2947 50.5587 79.8926C50.3628 79.4906 50.0793 79.1761 49.7082 78.9493C49.337 78.7122 48.9195 78.5936 48.4556 78.5936C47.9813 78.5936 47.5638 78.7122 47.203 78.9493C46.8421 79.1761 46.5586 79.4906 46.3524 79.8926C46.1463 80.2947 46.0432 80.7638 46.0432 81.2999C46.0432 81.836 46.1463 82.305 46.3524 82.7071C46.5586 83.1092 46.8473 83.4288 47.2184 83.6659C47.5896 83.8927 48.0123 84.0061 48.4865 84.0061ZM54.8589 81.006C54.8589 80.171 55.0187 79.4906 55.3383 78.9648C55.6579 78.439 56.0703 78.0472 56.5754 77.7895C57.0806 77.5318 57.6115 77.4029 58.1683 77.4029V78.7947C57.7043 78.7947 57.261 78.8668 56.8383 79.0112C56.426 79.1452 56.0857 79.372 55.8177 79.6916C55.56 80.0009 55.4311 80.4236 55.4311 80.9596L54.8589 81.006ZM53.962 85.1659V77.4338H55.4311V85.1659H53.962ZM70.969 85.1659L66.6855 74.341H68.2319L72.5928 85.1659H70.969ZM62.2473 85.1659L66.6082 74.341H68.1546L63.871 85.1659H62.2473ZM64.304 82.2741V80.9133H70.5361V82.2741H64.304ZM73.7452 85.1659V74.341H75.2143V85.1659H73.7452ZM77.2488 85.1659V74.341H78.7179V85.1659H77.2488Z" fill="#909090"/>
</svg>
