<svg width="76" height="89" viewBox="0 0 76 89" fill="none" xmlns="http://www.w3.org/2000/svg">
<path d="M46.184 27.8344L47.5565 26.3708H50.9922L59.1084 17.9678L59.8524 19.0536C62.7883 23.3379 64.3803 28.3502 64.4545 33.5547C64.6653 48.0293 53.1298 59.9711 38.7413 60.1832C33.5693 60.2584 28.5414 58.7978 24.2045 55.9699L23.1001 55.2496L31.9235 46.2732H21.1238L17.6261 49.8959L16.8821 48.8108C13.9421 44.5305 12.3501 39.5141 12.2759 34.3108C12.0692 19.8403 23.6047 7.8944 37.9891 7.68524C43.1659 7.61121 48.193 9.06656 52.5305 11.8997L53.6303 12.6147L46.184 20.4343V27.8344ZM37.8817 0.00373246C19.2842 0.273414 4.37067 15.714 4.63932 34.4236C4.90796 53.1286 20.256 68.1314 38.8529 67.8618C57.4463 67.5909 72.3598 52.1544 72.0911 33.446C71.8225 14.7363 56.4745 -0.267124 37.8817 0.00373246Z" fill="#4BBA72"/>
<path d="M44.0497 41.8238H53.3525V32.4642H44.0497V41.8238Z" fill="#4BBA72"/>
<path d="M42.6896 31.5781V39.7602L39.0763 43.4987V28.6334L44.7366 22.6516V29.3361L42.6896 31.5781Z" fill="#4BBA72"/>
<path d="M57.9174 37.4011L54.804 40.6297L54.6802 32.011L57.7936 28.7954L57.9174 37.4011Z" fill="#4BBA72"/>
<path d="M53.6342 31.1076H45.0631L48.1806 27.7639H56.7388L53.6342 31.1076Z" fill="#4BBA72"/>
<path d="M22.2444 44.5593H37.6292V29.3032H22.2444V44.5593Z" fill="#4BBA72"/>
<path d="M43.5955 21.6199L37.819 27.8178H23.0339L28.8099 21.6199H43.5955Z" fill="#4BBA72"/>
<path d="M5.32162 84.3775C4.74429 84.3775 4.21851 84.3105 3.74428 84.1764C3.28035 84.0424 2.87313 83.862 2.52261 83.6352C2.1824 83.3981 1.89889 83.1352 1.67208 82.8465C1.44528 82.5579 1.28548 82.2537 1.19269 81.9341L2.66179 81.4547C2.81643 81.8774 3.11025 82.2434 3.54324 82.5527C3.97624 82.862 4.50717 83.0218 5.13605 83.0321C5.89895 83.0321 6.49689 82.8826 6.92989 82.5836C7.37319 82.2743 7.59485 81.8671 7.59485 81.362C7.59485 80.898 7.40412 80.5217 7.02267 80.2331C6.64122 79.9341 6.13606 79.7073 5.50719 79.5527L4.25459 79.2279C3.75974 79.0939 3.30613 78.9032 2.89375 78.6557C2.49168 78.4083 2.17209 78.0939 1.93497 77.7124C1.69786 77.331 1.5793 76.8722 1.5793 76.3361C1.5793 75.3464 1.89889 74.5732 2.53807 74.0165C3.18757 73.4598 4.12057 73.1814 5.33708 73.1814C6.03812 73.1814 6.64638 73.2948 7.16185 73.5216C7.67732 73.7381 8.10001 74.0268 8.42991 74.3876C8.77012 74.7485 9.01239 75.1454 9.15672 75.5784L7.68763 76.0732C7.51237 75.6093 7.2134 75.2382 6.79071 74.9598C6.36802 74.6711 5.8474 74.5268 5.22883 74.5268C4.57934 74.5268 4.06387 74.6815 3.68242 74.9907C3.31128 75.3 3.12571 75.7227 3.12571 76.2588C3.12571 76.7124 3.27004 77.0629 3.55871 77.3104C3.85768 77.5475 4.25459 77.7279 4.74945 77.8516L6.00204 78.1609C7.01236 78.4083 7.79073 78.8207 8.33712 79.398C8.89383 79.965 9.17219 80.5888 9.17219 81.2692C9.17219 81.8568 9.0227 82.3877 8.72373 82.862C8.43506 83.3259 8.00207 83.697 7.42474 83.9754C6.85772 84.2434 6.15668 84.3775 5.32162 84.3775ZM16.1976 84.1919L16.1048 82.7692V76.4598H17.5585V84.1919H16.1976ZM10.7542 80.4186V76.4598H12.2233V80.4186H10.7542ZM12.2233 80.4186C12.2233 81.1094 12.3007 81.6403 12.4553 82.0115C12.6202 82.3826 12.8471 82.6403 13.1357 82.7847C13.4244 82.929 13.7491 83.0063 14.11 83.0166C14.7388 83.0166 15.2285 82.795 15.579 82.3517C15.9296 81.9084 16.1048 81.2846 16.1048 80.4805H16.7389C16.7389 81.2949 16.6151 81.996 16.3677 82.5836C16.1306 83.161 15.7904 83.6043 15.3471 83.9135C14.9038 84.2228 14.3625 84.3775 13.7234 84.3775C13.1254 84.3775 12.5996 84.2538 12.146 84.0063C11.7027 83.7589 11.3573 83.3723 11.1099 82.8465C10.8728 82.3207 10.7542 81.6403 10.7542 80.8052V80.4186H12.2233ZM22.8093 87.4858C22.2938 87.4858 21.8247 87.4342 21.402 87.3311C20.9793 87.2383 20.6237 87.1301 20.335 87.0064C20.0463 86.8827 19.8298 86.7744 19.6855 86.6816L20.2422 85.4909C20.3762 85.5734 20.567 85.6661 20.8144 85.7692C21.0618 85.8826 21.3505 85.9754 21.6804 86.0476C22.0103 86.1301 22.3763 86.1713 22.7783 86.1713C23.2526 86.1713 23.6752 86.0734 24.0464 85.8775C24.4175 85.6919 24.7062 85.3981 24.9124 84.996C25.1289 84.594 25.2371 84.0785 25.2371 83.4496V76.4598H26.7062V83.4187C26.7062 84.3053 26.5361 85.0476 26.1959 85.6455C25.866 86.2538 25.4072 86.7125 24.8196 87.0218C24.2423 87.3311 23.5722 87.4858 22.8093 87.4858ZM22.6701 84.0836C21.969 84.0836 21.3556 83.9238 20.8298 83.6043C20.3144 83.2744 19.9072 82.8207 19.6082 82.2434C19.3195 81.6558 19.1752 80.9805 19.1752 80.2176C19.1752 79.4238 19.3195 78.7331 19.6082 78.1454C19.9072 77.5578 20.3144 77.099 20.8298 76.7691C21.3556 76.4392 21.969 76.2743 22.6701 76.2743C23.3093 76.2743 23.866 76.4392 24.3402 76.7691C24.8247 77.099 25.1959 77.5629 25.4536 78.1609C25.7217 78.7485 25.8557 79.4393 25.8557 80.2331C25.8557 80.996 25.7217 81.6712 25.4536 82.2589C25.1959 82.8362 24.8247 83.2847 24.3402 83.6043C23.866 83.9238 23.3093 84.0836 22.6701 84.0836ZM23.0412 82.8465C23.4742 82.8465 23.8505 82.7331 24.1701 82.5063C24.4897 82.2692 24.7423 81.9548 24.9278 81.563C25.1134 81.1609 25.2062 80.7022 25.2062 80.1867C25.2062 79.6712 25.1134 79.2176 24.9278 78.8258C24.7423 78.4341 24.4845 78.13 24.1546 77.9135C23.835 77.6866 23.4587 77.5732 23.0258 77.5732C22.5721 77.5732 22.1701 77.6866 21.8196 77.9135C21.4793 78.13 21.2113 78.4341 21.0154 78.8258C20.8195 79.2176 20.7216 79.6712 20.7216 80.1867C20.7216 80.7022 20.8195 81.1609 21.0154 81.563C21.2216 81.9548 21.4948 82.2692 21.835 82.5063C22.1855 82.7331 22.5876 82.8465 23.0412 82.8465ZM33.4922 84.1919L33.4303 82.8465V80.1558C33.4303 79.5887 33.3633 79.1145 33.2293 78.7331C33.1056 78.3516 32.9097 78.0629 32.6417 77.8671C32.3839 77.6712 32.0386 77.5732 31.6056 77.5732C31.2035 77.5732 30.853 77.6557 30.554 77.8207C30.2653 77.9856 30.0231 78.2434 29.8272 78.5939L28.5282 78.099C28.7138 77.7485 28.9457 77.4392 29.2241 77.1712C29.5024 76.8928 29.8375 76.6763 30.2293 76.5217C30.621 76.3567 31.0798 76.2743 31.6056 76.2743C32.3375 76.2743 32.9458 76.4186 33.4303 76.7073C33.9149 76.9959 34.2757 77.4134 34.5128 77.9598C34.7603 78.5062 34.8788 79.1815 34.8685 79.9857L34.853 84.1919H33.4922ZM31.219 84.3775C30.3014 84.3775 29.5849 84.1713 29.0695 83.7589C28.5643 83.3362 28.3117 82.7537 28.3117 82.0115C28.3117 81.2176 28.5746 80.6145 29.1004 80.2021C29.6365 79.7795 30.3787 79.5681 31.3272 79.5681H33.4767V80.7279H31.7293C31.0179 80.7279 30.5179 80.8413 30.2293 81.0681C29.9406 81.2846 29.7963 81.5888 29.7963 81.9805C29.7963 82.3414 29.9303 82.6249 30.1983 82.8311C30.4767 83.0269 30.8581 83.1249 31.3427 83.1249C31.7654 83.1249 32.1313 83.0372 32.4406 82.862C32.7499 82.6764 32.9922 82.4187 33.1674 82.0888C33.3427 81.7589 33.4303 81.3826 33.4303 80.9599H33.9407C33.9407 82.0115 33.7138 82.8465 33.2602 83.4651C32.8169 84.0733 32.1365 84.3775 31.219 84.3775ZM37.6153 80.032C37.6153 79.197 37.7751 78.5166 38.0947 77.9908C38.4143 77.465 38.8267 77.0732 39.3318 76.8155C39.837 76.5578 40.3679 76.4289 40.9246 76.4289V77.8207C40.4607 77.8207 40.0174 77.8928 39.5947 78.0372C39.1823 78.1712 38.8421 78.398 38.5741 78.7176C38.3164 79.0269 38.1875 79.4496 38.1875 79.9857L37.6153 80.032ZM36.7184 84.1919V76.4598H38.1875V84.1919H36.7184ZM46.2408 84.1919V73.367H52.7976V74.7588H47.7563V78.1609H52.1481V79.5527H47.7563V84.1919H46.2408ZM55.0729 80.032C55.0729 79.197 55.2327 78.5166 55.5523 77.9908C55.8719 77.465 56.2842 77.0732 56.7894 76.8155C57.2946 76.5578 57.8255 76.4289 58.3822 76.4289V77.8207C57.9183 77.8207 57.475 77.8928 57.0523 78.0372C56.6399 78.1712 56.2997 78.398 56.0316 78.7176C55.7739 79.0269 55.645 79.4496 55.645 79.9857L55.0729 80.032ZM54.176 84.1919V76.4598H55.645V84.1919H54.176ZM62.9848 84.3775C62.2322 84.3775 61.5673 84.2074 60.99 83.8671C60.4126 83.5166 59.959 83.0372 59.6291 82.429C59.2992 81.8207 59.1343 81.1197 59.1343 80.3259C59.1343 79.532 59.2992 78.831 59.6291 78.2227C59.959 77.6145 60.4126 77.1402 60.99 76.8C61.5776 76.4495 62.2477 76.2743 63.0003 76.2743C63.7116 76.2743 64.3354 76.4547 64.8715 76.8155C65.4075 77.166 65.8251 77.6712 66.124 78.331C66.4333 78.9805 66.588 79.7485 66.588 80.6351H60.3405L60.6188 80.4032C60.6188 80.9496 60.7271 81.4238 60.9436 81.8259C61.1601 82.2279 61.4539 82.5372 61.825 82.7537C62.1962 82.9599 62.6188 83.063 63.0931 83.063C63.6085 83.063 64.0364 82.9445 64.3766 82.7073C64.7271 82.4599 65.0003 82.1506 65.1962 81.7795L66.4643 82.3671C66.2581 82.7692 65.99 83.1249 65.6601 83.4342C65.3302 83.7331 64.9385 83.9651 64.4849 84.13C64.0415 84.295 63.5415 84.3775 62.9848 84.3775ZM60.7116 79.7073L60.4178 79.4753H65.3044L65.0261 79.7073C65.0261 79.2537 64.9333 78.8671 64.7477 78.5475C64.5622 78.2176 64.3147 77.9702 64.0055 77.8052C63.6962 77.6299 63.3508 77.5423 62.9694 77.5423C62.5982 77.5423 62.2374 77.6299 61.8869 77.8052C61.5467 77.9702 61.2632 78.2124 61.0363 78.532C60.8199 78.8516 60.7116 79.2434 60.7116 79.7073ZM71.4569 84.3775C70.7043 84.3775 70.0393 84.2074 69.462 83.8671C68.8847 83.5166 68.4311 83.0372 68.1012 82.429C67.7713 81.8207 67.6063 81.1197 67.6063 80.3259C67.6063 79.532 67.7713 78.831 68.1012 78.2227C68.4311 77.6145 68.8847 77.1402 69.462 76.8C70.0496 76.4495 70.7198 76.2743 71.4723 76.2743C72.1837 76.2743 72.8074 76.4547 73.3435 76.8155C73.8796 77.166 74.2971 77.6712 74.5961 78.331C74.9054 78.9805 75.06 79.7485 75.06 80.6351H68.8125L69.0909 80.4032C69.0909 80.9496 69.1991 81.4238 69.4156 81.8259C69.6321 82.2279 69.9259 82.5372 70.2971 82.7537C70.6682 82.9599 71.0909 83.063 71.5651 83.063C72.0806 83.063 72.5084 82.9445 72.8487 82.7073C73.1992 82.4599 73.4724 82.1506 73.6683 81.7795L74.9363 82.3671C74.7301 82.7692 74.4621 83.1249 74.1322 83.4342C73.8023 83.7331 73.4105 83.9651 72.9569 84.13C72.5136 84.295 72.0136 84.3775 71.4569 84.3775ZM69.1837 79.7073L68.8898 79.4753H73.7765L73.4981 79.7073C73.4981 79.2537 73.4054 78.8671 73.2198 78.5475C73.0342 78.2176 72.7868 77.9702 72.4775 77.8052C72.1682 77.6299 71.8229 77.5423 71.4414 77.5423C71.0703 77.5423 70.7094 77.6299 70.3589 77.8052C70.0187 77.9702 69.7352 78.2124 69.5084 78.532C69.2919 78.8516 69.1837 79.2434 69.1837 79.7073Z" fill="#909090"/>
</svg>
