<svg width="60" height="60" viewBox="0 0 60 60" fill="none" xmlns="http://www.w3.org/2000/svg">
<path d="M30 23.272C30.2974 23.272 30.5826 23.1538 30.7929 22.9435C31.0032 22.7332 31.1213 22.448 31.1213 22.1506C31.1213 21.8532 31.0032 21.568 30.7929 21.3577C30.5826 21.1474 30.2974 21.0293 30 21.0293C28.2257 21.0293 26.4913 21.5554 25.0161 22.5411C23.5409 23.5268 22.3911 24.9279 21.7122 26.567C21.0332 28.2062 20.8555 30.0099 21.2017 31.75C21.5478 33.4902 22.4022 35.0886 23.6567 36.3432C24.9113 37.5977 26.5097 38.4521 28.2499 38.7982C29.99 39.1444 31.7937 38.9667 33.4329 38.2878C35.0721 37.6088 36.4731 36.459 37.4588 34.9838C38.4445 33.5086 38.9706 31.7742 38.9706 30C38.9706 29.7026 38.8525 29.4173 38.6422 29.2071C38.4319 28.9968 38.1467 28.8786 37.8493 28.8786C37.5519 28.8786 37.2667 28.9968 37.0564 29.2071C36.8461 29.4173 36.728 29.7026 36.728 30C36.728 31.3306 36.3334 32.6314 35.5941 33.7378C34.8548 34.8442 33.804 35.7066 32.5747 36.2158C31.3453 36.725 29.9925 36.8583 28.6874 36.5987C27.3823 36.3391 26.1835 35.6983 25.2425 34.7574C24.3016 33.8164 23.6608 32.6176 23.4012 31.3125C23.1416 30.0074 23.2749 28.6546 23.7841 27.4253C24.2933 26.1959 25.1557 25.1451 26.2621 24.4058C27.3685 23.6666 28.6693 23.272 30 23.272Z" fill="#4BBA72"/>
<path d="M52.112 23.0632C52.0174 22.7744 51.8129 22.5345 51.5428 22.3954C51.2726 22.2563 50.9585 22.2292 50.6685 22.32C50.3785 22.4107 50.1359 22.612 49.9933 22.8803C49.8506 23.1486 49.8193 23.4622 49.9061 23.7534C51.304 28.2084 51.1674 33.0034 49.5182 37.3716C47.869 41.7397 44.8024 45.4286 40.809 47.848C36.8156 50.2674 32.1261 51.2775 27.4908 50.7169C22.8554 50.1563 18.542 48.0572 15.2406 44.7555C11.9391 41.4538 9.84042 37.1403 9.28014 32.5049C8.71985 27.8695 9.73039 23.1801 12.1501 19.1869C14.5698 15.1937 18.2589 12.1274 22.6271 10.4785C26.9954 8.82955 31.7905 8.69333 36.2453 10.0916C36.391 10.1404 36.5449 10.1597 36.6981 10.1483C36.8513 10.1369 37.0006 10.0951 37.1374 10.0252C37.2743 9.95542 37.3958 9.859 37.4949 9.74164C37.594 9.62427 37.6686 9.48832 37.7146 9.34174C37.7605 9.19516 37.7767 9.04089 37.7622 8.88796C37.7478 8.73504 37.703 8.58653 37.6305 8.45114C37.5579 8.31574 37.4591 8.19617 37.3398 8.09943C37.2205 8.0027 37.0831 7.93073 36.9356 7.88775C31.9881 6.33604 26.6632 6.48836 21.8125 8.32035C16.9618 10.1523 12.8657 13.5582 10.1792 17.993C7.49276 22.4279 6.37121 27.6356 6.99396 32.7832C7.61671 37.9308 9.94779 42.7208 13.6143 46.3871C17.2809 50.0534 22.071 52.3841 27.2186 53.0065C32.3663 53.6289 37.5739 52.507 42.0086 49.8202C46.4433 47.1335 49.8488 43.0371 51.6805 38.1863C53.5121 33.3355 53.6641 28.0105 52.112 23.0632Z" fill="#4BBA72"/>
<path d="M32.237 14.8913C32.2397 14.569 32.1199 14.2578 31.9018 14.0205C31.6837 13.7832 31.3836 13.6377 31.0622 13.6134C30.7112 13.5824 30.3602 13.5537 29.9999 13.5537C26.7472 13.5537 23.5675 14.5183 20.8629 16.3254C18.1583 18.1325 16.0504 20.7011 14.8056 23.7062C13.5608 26.7114 13.2351 30.0182 13.8697 33.2084C14.5043 36.3987 16.0707 39.3291 18.3707 41.6291C20.6707 43.9292 23.6012 45.4955 26.7914 46.1301C29.9817 46.7647 33.2885 46.439 36.2936 45.1942C39.2988 43.9495 41.8673 41.8415 43.6744 39.1369C45.4816 36.4324 46.4461 33.2527 46.4461 29.9999C46.4461 29.575 46.4201 29.1505 46.3681 28.7288C46.3535 28.5654 46.3051 28.4069 46.2259 28.2632C46.1468 28.1196 46.0387 27.9939 45.9084 27.8943C45.7781 27.7947 45.6286 27.7232 45.4692 27.6844C45.3098 27.6456 45.1442 27.6404 44.9827 27.669C44.8212 27.6977 44.6674 27.7596 44.5311 27.8508C44.3948 27.942 44.2789 28.0606 44.1909 28.199C44.1028 28.3373 44.0445 28.4925 44.0196 28.6546C43.9947 28.8167 44.0038 28.9822 44.0462 29.1407C44.0714 29.4252 44.0967 29.7085 44.0967 29.9999C44.0967 32.788 43.2699 35.5135 41.7209 37.8316C40.172 40.1498 37.9704 41.9567 35.3945 43.0236C32.8187 44.0906 29.9843 44.3697 27.2498 43.8258C24.5153 43.2819 22.0035 41.9393 20.032 39.9678C18.0606 37.9964 16.718 35.4846 16.174 32.7501C15.6301 30.0156 15.9093 27.1812 16.9762 24.6053C18.0432 22.0295 19.85 19.8279 22.1682 18.2789C24.4864 16.7299 27.2119 15.9032 29.9999 15.9032C30.2913 15.9032 30.5735 15.9295 30.858 15.9536L31.0783 15.9731C31.2257 15.9795 31.373 15.9565 31.5114 15.9054C31.6498 15.8543 31.7767 15.776 31.8846 15.6753C31.9925 15.5746 32.0792 15.4534 32.1397 15.3188C32.2002 15.1842 32.2333 15.0389 32.237 14.8913Z" fill="#4BBA72"/>
<path d="M36.7741 17.3268V21.5575L28.8611 29.4705C28.7492 29.5795 28.6602 29.7097 28.599 29.8534C28.5379 29.9971 28.5059 30.1515 28.5049 30.3077C28.5039 30.4639 28.534 30.6188 28.5933 30.7632C28.6526 30.9077 28.74 31.039 28.8504 31.1495C28.9609 31.2599 29.0922 31.3473 29.2366 31.4066C29.3811 31.4659 29.536 31.496 29.6922 31.495C29.8483 31.494 30.0028 31.462 30.1465 31.4009C30.2902 31.3397 30.4204 31.2506 30.5294 31.1388L38.4424 23.2258H42.6731C42.828 23.2259 42.9814 23.1954 43.1245 23.136C43.2677 23.0767 43.3977 22.9898 43.5072 22.8802L50.586 15.8014C50.751 15.6364 50.8634 15.4262 50.9089 15.1974C50.9544 14.9685 50.931 14.7313 50.8417 14.5158C50.7524 14.3002 50.6012 14.1159 50.4073 13.9863C50.2133 13.8567 49.9852 13.7875 49.7519 13.7874H46.2125V10.248C46.2124 10.0147 46.1432 9.78663 46.0136 9.59263C45.8839 9.39864 45.6997 9.24744 45.4841 9.15816C45.2686 9.06887 45.0314 9.04551 44.8025 9.09102C44.5737 9.13653 44.3635 9.24888 44.1985 9.41385L37.1197 16.4927C37.0101 16.6022 36.9232 16.7322 36.8639 16.8753C36.8045 17.0185 36.774 17.1719 36.7741 17.3268ZM39.1337 17.8153L43.8529 13.0961V14.9672C43.8528 15.1222 43.8832 15.2756 43.9425 15.4188C44.0017 15.562 44.0886 15.6921 44.1982 15.8017C44.3078 15.9113 44.4379 15.9982 44.5811 16.0574C44.7242 16.1167 44.8777 16.1471 45.0327 16.147H46.9038L42.1846 20.8662H39.1337V17.8153Z" fill="#4BBA72"/>
</svg>
