<svg width="50" height="60" viewBox="0 0 50 60" fill="none" xmlns="http://www.w3.org/2000/svg">
<path d="M45.0018 30.6C45.3323 30.2672 45.3323 29.7328 45.0018 29.3999C41.7438 26.1513 37.7594 23.7254 33.3761 22.3237L36.0012 19.6751C37.4709 20.6548 39.3601 20.7509 40.9257 19.9282C42.4891 19.1055 43.4759 17.4906 43.5017 15.7233C43.5064 14.4435 42.9907 13.2177 42.0766 12.3246C40.1546 10.5292 37.1708 10.5292 35.2512 12.3246C34.3512 13.227 33.8472 14.4506 33.8496 15.7233C33.8449 16.7171 34.1496 17.6875 34.7262 18.4985L31.501 21.7987C29.4852 21.3018 27.4249 21.0158 25.3506 20.9501V14.5748C27.8094 14.1341 29.5274 11.8863 29.3071 9.39712C29.0845 6.90793 26.9984 5 24.4998 5C22.0013 5 19.9152 6.90793 19.6925 9.39712C19.4722 11.8863 21.1903 14.1341 23.649 14.5748V20.9501C21.5747 21.0158 19.5144 21.3017 17.4987 21.7987L14.175 18.4985C15.5181 16.5858 15.2977 13.9842 13.65 12.3247C11.728 10.5293 8.74421 10.5293 6.82457 12.3247C5.90814 13.2177 5.39481 14.4435 5.39949 15.7234C5.39949 17.0031 5.90811 18.2313 6.81287 19.1361C7.71761 20.0408 8.94348 20.5494 10.2232 20.5494C11.2194 20.5588 12.1897 20.2518 12.9984 19.6752L15.4993 22.3261V22.3238C11.1608 23.7419 7.22066 26.1678 3.99787 29.4C3.66738 29.7329 3.66738 30.2673 3.99787 30.6001C7.25588 33.8487 11.2403 36.2746 15.6236 37.6763L12.9749 40.3249C11.0483 39.0639 8.50749 39.2796 6.82457 40.85C5.9058 41.7547 5.39247 42.9899 5.39949 44.2767C5.42527 46.93 7.56994 49.0747 10.2232 49.1005C11.9905 49.077 13.6055 48.0879 14.4282 46.5245C15.2509 44.9611 15.1547 43.072 14.175 41.6L17.4987 38.2013C19.5144 38.6865 21.5771 38.9631 23.649 39.0264V45.4276V45.4252C21.1903 45.8659 19.4723 48.1137 19.6925 50.6029C19.9152 53.0921 22.0013 55 24.4998 55C26.9984 55 29.0845 53.0921 29.3071 50.6029C29.5275 48.1137 27.8094 45.8659 25.3506 45.4252V39.0265C27.4249 38.9679 29.4876 38.6819 31.501 38.1756L34.827 41.5016H34.8246C33.8449 42.9712 33.7488 44.8604 34.5715 46.4261C35.3942 47.9895 37.0091 48.9762 38.7764 49.002C41.4297 48.9739 43.5744 46.8293 43.6002 44.176C43.6072 42.8892 43.0939 41.6539 42.1751 40.7516C40.4922 39.1811 37.9514 38.9631 36.0247 40.2265L33.3738 37.5756H33.3761C37.7475 36.2044 41.7322 33.8135 45.0018 30.6ZM36.5497 13.5248C37.1192 12.8919 37.9256 12.5216 38.7764 12.4982C39.6366 12.4771 40.4686 12.8123 41.078 13.4217C41.6874 14.0311 42.0226 14.8632 42.0015 15.7234C42.0062 16.5601 41.6711 17.3618 41.0757 17.95C39.8334 19.122 37.8927 19.122 36.6504 17.95C36.0551 17.3617 35.7199 16.5601 35.7246 15.7234C35.6964 14.91 35.9918 14.1178 36.5497 13.5248ZM8.02458 17.95C7.39173 17.3805 7.02139 16.5742 6.99798 15.7234C6.97689 14.8632 7.31207 14.0311 7.9215 13.4217C8.53093 12.8123 9.36296 12.4771 10.2232 12.4982C11.0599 12.4935 11.8616 12.8287 12.4498 13.424C13.0429 14.0006 13.378 14.7952 13.3734 15.625C13.3781 16.4594 13.0452 17.2634 12.4498 17.8493C11.2334 19.0494 9.29264 19.0938 8.02458 17.95ZM12.4498 46.4751C11.217 47.6729 9.25514 47.6729 8.02458 46.4751C7.39173 45.9149 7.02139 45.1204 6.99798 44.2765C6.9933 43.4398 7.32847 42.6381 7.92384 42.0499C8.50044 41.4569 9.29504 41.1217 10.1248 41.1264C11.8639 41.1264 13.275 42.5351 13.275 44.2765C13.3031 45.0899 13.0077 45.8821 12.4498 46.4751ZM38.7764 41.1264C39.6038 41.1217 40.3984 41.4568 40.975 42.0499C41.5727 42.6382 41.9055 43.4398 41.9009 44.2766C41.9032 45.1039 41.5704 45.8985 40.975 46.4751C39.7445 47.6729 37.7826 47.6729 36.5497 46.4751C35.9567 45.8985 35.6215 45.1039 35.6262 44.2766C35.6262 42.5351 37.0349 41.1264 38.7764 41.1264ZM30.6244 36.6496C32.5112 34.9479 33.5871 32.5266 33.5871 29.988C33.5871 27.4472 32.5112 25.026 30.6244 23.3246C35.3145 24.391 39.6321 26.6974 43.1267 30C39.6343 33.3025 35.3143 35.5995 30.6244 36.6496ZM16.9993 30C16.9478 26.9553 18.7431 24.1824 21.5418 22.9825C24.3404 21.7825 27.5865 22.3919 29.7569 24.5272C31.9273 26.6624 32.593 29.897 31.4398 32.7164C30.2866 35.5338 27.5442 37.3737 24.4998 37.3761H24.1997C20.2222 37.2167 17.0623 33.9799 16.9993 30ZM21.2746 9.82376C21.2746 8.5698 22.027 7.43532 23.1825 6.94779C24.3381 6.45791 25.674 6.70871 26.5741 7.58064C27.4765 8.4549 27.7671 9.78158 27.3148 10.9512C26.8624 12.1231 25.7537 12.9083 24.4998 12.9481C22.7747 12.9481 21.3754 11.5489 21.3754 9.82376H21.2746ZM18.3986 23.3246C16.5141 25.0262 15.4383 27.4475 15.4383 29.988C15.4383 32.5264 16.5141 34.9476 18.3986 36.6496C13.7085 35.5995 9.39087 33.3025 5.89866 30C9.39807 26.7021 13.7129 24.3981 18.3986 23.3246ZM27.6242 50.1762C27.6242 51.4395 26.8624 52.5786 25.6952 53.0638C24.5279 53.5467 23.1848 53.2795 22.2895 52.3864C21.3964 51.4911 21.1292 50.148 21.6121 48.9808C22.0973 47.8135 23.2364 47.0518 24.4998 47.0518C25.3295 47.0518 26.1241 47.3799 26.7101 47.9659C27.296 48.5518 27.6242 49.3464 27.6242 50.1762Z" fill="#4BBA72"/>
</svg>
