<svg width="53" height="53" viewBox="0 0 53 53" fill="none" xmlns="http://www.w3.org/2000/svg">
<circle cx="26.5965" cy="26.1717" r="26.1717" fill="white"/>
<path d="M27.69 40.8584C23.9902 40.8584 23.5541 40.8389 22.1103 40.7757C20.9844 40.7387 19.873 40.5098 18.8241 40.0989C17.9265 39.7496 17.1114 39.2175 16.4304 38.5363C15.7495 37.8551 15.2177 37.0397 14.8687 36.142C14.4736 35.0893 14.2605 33.977 14.2385 32.8528C14.1543 31.412 14.1543 30.9398 14.1543 27.2686C14.1543 23.5583 14.1738 23.1252 14.2385 21.6889C14.261 20.5662 14.4741 19.4555 14.8687 18.4042C15.2173 17.5054 15.7495 16.6891 16.4313 16.0075C17.1131 15.3259 17.9296 14.794 18.8286 14.4458C19.8794 14.049 20.9903 13.8354 22.1133 13.8141C23.5496 13.7329 24.0218 13.7329 27.69 13.7329C31.4198 13.7329 31.8485 13.7525 33.2697 13.8141C34.3947 13.8352 35.5106 14.0487 36.5634 14.4458C37.4621 14.7944 38.2784 15.3265 38.9602 16.008C39.642 16.6895 40.1744 17.5056 40.5233 18.4042C40.9249 19.472 41.1399 20.6 41.1565 21.7385C41.2407 23.1793 41.2407 23.6501 41.2407 27.3197C41.2407 30.9894 41.2197 31.4707 41.1565 32.8949C41.134 34.0202 40.9204 35.1334 40.5248 36.1871C40.175 37.0855 39.6421 37.9013 38.9602 38.5827C38.2782 39.2642 37.462 39.7964 36.5634 40.1456C35.5106 40.5396 34.3992 40.7532 33.2757 40.7757C31.8394 40.8584 31.3687 40.8584 27.69 40.8584ZM27.6389 16.1137C23.9602 16.1137 23.5781 16.1317 22.1419 16.1964C21.2841 16.2076 20.4346 16.3658 19.6302 16.6641C19.0436 16.889 18.5106 17.2343 18.0655 17.6778C17.6205 18.1213 17.2733 18.6531 17.0464 19.2389C16.7456 20.0511 16.5877 20.9098 16.5787 21.7761C16.499 23.2335 16.499 23.6155 16.499 27.2686C16.499 30.8781 16.5125 31.3158 16.5787 32.7641C16.5922 33.6214 16.7501 34.4711 17.0464 35.2757C17.5066 36.4593 18.4451 37.3948 19.6317 37.849C20.435 38.1492 21.2844 38.3074 22.1419 38.3167C23.5977 38.401 23.9812 38.401 27.6389 38.401C31.3281 38.401 31.7101 38.3829 33.1343 38.3167C33.9922 38.3064 34.8419 38.1481 35.646 37.849C36.2295 37.6224 36.7595 37.2769 37.2022 36.8344C37.645 36.3919 37.9908 35.8621 38.2177 35.2787C38.5185 34.4666 38.6765 33.6063 38.6855 32.74H38.702C38.7667 31.3022 38.7667 30.9187 38.7667 27.2445C38.7667 23.5703 38.7501 23.1838 38.6855 21.7475C38.6719 20.891 38.5137 20.0428 38.2177 19.2389C37.9913 18.6547 37.6457 18.124 37.203 17.6807C36.7602 17.2374 36.2299 16.8912 35.646 16.6641C34.842 16.3644 33.9923 16.2061 33.1343 16.1964C31.68 16.1137 31.2995 16.1137 27.6389 16.1137ZM27.69 34.2154C26.3147 34.2163 24.9701 33.8093 23.8261 33.0459C22.6822 32.2826 21.7903 31.1971 21.2633 29.9268C20.7364 28.6565 20.5979 27.2584 20.8656 25.9095C21.1332 24.5605 21.7949 23.3212 22.767 22.3483C23.739 21.3754 24.9777 20.7127 26.3265 20.4439C27.6752 20.1751 29.0734 20.3123 30.3441 20.8381C31.6149 21.364 32.7011 22.2549 33.4655 23.3982C34.2299 24.5415 34.638 25.8858 34.6383 27.2611C34.6359 29.1037 33.9033 30.8703 32.6009 32.1738C31.2985 33.4773 29.5326 34.2114 27.69 34.2154ZM27.69 22.7462C26.7976 22.7462 25.9253 23.0108 25.1833 23.5066C24.4413 24.0023 23.863 24.707 23.5215 25.5314C23.18 26.3559 23.0907 27.2631 23.2648 28.1383C23.4389 29.0135 23.8686 29.8175 24.4996 30.4485C25.1306 31.0795 25.9345 31.5092 26.8098 31.6833C27.685 31.8574 28.5922 31.768 29.4166 31.4265C30.2411 31.085 30.9457 30.5067 31.4415 29.7647C31.9373 29.0228 32.2019 28.1504 32.2019 27.2581C32.1991 26.0623 31.7229 24.9163 30.8773 24.0708C30.0318 23.2252 28.8858 22.749 27.69 22.7462ZM34.909 21.6738C34.6961 21.6731 34.4854 21.6303 34.289 21.5481C34.0926 21.4659 33.9144 21.3458 33.7644 21.1947C33.4615 20.8896 33.2922 20.4765 33.2938 20.0466C33.2954 19.6166 33.4677 19.2048 33.7729 18.9019C34.0781 18.599 34.4911 18.4297 34.9211 18.4313C35.351 18.4329 35.7628 18.6052 36.0657 18.9104C36.3686 19.2156 36.5379 19.6286 36.5363 20.0586C36.5347 20.4886 36.3624 20.9003 36.0572 21.2032C35.752 21.5062 35.339 21.6754 34.909 21.6738Z" fill="#4BBA72"/>
</svg>
