<svg width="54" height="53" viewBox="0 0 54 53" fill="none" xmlns="http://www.w3.org/2000/svg">
<circle cx="27.0223" cy="26.8282" r="26.1717" fill="white"/>
<path fill-rule="evenodd" clip-rule="evenodd" d="M24.9162 20.8773H29.4835V23.1524C30.1414 21.8439 31.8286 20.6683 34.3632 20.6683C39.222 20.6683 40.3755 23.2729 40.3755 28.0517V36.9023H35.4564V29.1401C35.4564 26.4186 34.7985 24.8839 33.1236 24.8839C30.8006 24.8839 29.8352 26.5379 29.8352 29.1388V36.9023H24.9162V20.8773ZM16.4812 36.6933H21.4003V20.6683H16.4812V36.6933ZM22.1049 15.443C22.1051 15.8553 22.0233 16.2636 21.8644 16.644C21.7054 17.0244 21.4724 17.3695 21.1789 17.659C20.5842 18.2501 19.7792 18.5809 18.9408 18.5789C18.1038 18.5783 17.3006 18.2483 16.7051 17.6603C16.4126 17.3697 16.1804 17.0243 16.0217 16.6438C15.863 16.2633 15.781 15.8553 15.7803 15.443C15.7803 14.6105 16.1123 13.8136 16.7063 13.2258C17.3013 12.6369 18.1048 12.3068 18.942 12.3071C19.7807 12.3071 20.5849 12.6379 21.1789 13.2258C21.7717 13.8136 22.1049 14.6105 22.1049 15.443Z" fill="#4BBA72"/>
</svg>
