<svg width="53" height="53" viewBox="0 0 53 53" fill="none" xmlns="http://www.w3.org/2000/svg">
<circle cx="26.4471" cy="26.1717" r="26.1717" fill="white"/>
<path d="M39.8306 17.9818C38.8506 18.4045 37.7842 18.7087 36.6858 18.8272C37.8262 18.1497 38.6802 17.0793 39.0876 15.8169C38.0175 16.4535 36.8451 16.8999 35.6225 17.1363C35.1116 16.5901 34.4936 16.1549 33.807 15.8579C33.1205 15.5609 32.3802 15.4085 31.6322 15.4102C28.6059 15.4102 26.172 17.8633 26.172 20.8736C26.172 21.2964 26.2232 21.7191 26.3065 22.1258C21.7749 21.8888 17.7334 19.7239 15.0465 16.4093C14.5569 17.2456 14.3003 18.1977 14.3035 19.1667C14.3035 21.0626 15.2674 22.7343 16.7374 23.7175C15.8711 23.6833 15.0252 23.4452 14.2683 23.0225V23.0898C14.2683 25.7446 16.1449 27.9448 18.6461 28.4507C18.1765 28.5727 17.6934 28.6351 17.2082 28.6365C16.8527 28.6365 16.5164 28.6013 16.177 28.5532C16.8687 30.7181 18.8831 32.2905 21.2817 32.3418C19.4051 33.8117 17.0544 34.6764 14.502 34.6764C14.0441 34.6764 13.6214 34.6604 13.1826 34.6092C15.6037 36.1624 18.4763 37.0591 21.57 37.0591C31.613 37.0591 37.1085 28.739 37.1085 21.5173C37.1085 21.2804 37.1085 21.0434 37.0925 20.8064C38.1557 20.0282 39.0876 19.0642 39.8306 17.9818Z" fill="#4BBA72"/>
</svg>
