<svg width="49" height="48" viewBox="0 0 49 48" fill="none" xmlns="http://www.w3.org/2000/svg">
<rect width="48.4725" height="48" rx="24" fill="#4BBA72"/>
<g clip-path="url(#clip0_1491_224)">
<path fill-rule="evenodd" clip-rule="evenodd" d="M17.7075 13.7372C13.8463 16.4407 12.9066 21.7706 15.6101 25.6318C18.3139 29.493 23.6436 30.4325 27.5048 27.729C31.3659 25.0252 32.3057 19.6957 29.6021 15.8345C26.8984 11.9734 21.5687 11.0334 17.7075 13.7372ZM18.2453 14.505C21.6825 12.0982 26.4274 12.9347 28.8343 16.3721C31.2411 19.8094 30.4043 24.5542 26.967 26.961C23.5298 29.3677 18.7851 28.5313 16.3781 25.094C13.9712 21.6566 14.808 16.9119 18.2453 14.505Z" fill="white"/>
<path fill-rule="evenodd" clip-rule="evenodd" d="M17.8502 24.0633C16.0121 21.4383 16.6511 17.8152 19.276 15.9772C19.3777 15.9058 19.447 15.7969 19.4686 15.6745C19.4902 15.5521 19.4623 15.4261 19.3911 15.3243C19.3197 15.2225 19.2109 15.1532 19.0885 15.1316C18.966 15.1101 18.8401 15.1379 18.7382 15.2092C15.6895 17.344 14.9475 21.5523 17.0822 24.601C17.1536 24.7028 17.2624 24.7721 17.3848 24.7937C17.5072 24.8152 17.6332 24.7874 17.7351 24.7162C17.8368 24.6448 17.9061 24.5359 17.9277 24.4135C17.9493 24.2911 17.9214 24.1651 17.8502 24.0633ZM26.8637 27.6307L27.8181 28.9938C27.8894 29.0955 27.9983 29.1648 28.1207 29.1864C28.2431 29.208 28.3691 29.1801 28.471 29.1089C28.5727 29.0375 28.642 28.9287 28.6636 28.8063C28.6852 28.6839 28.6573 28.5579 28.5861 28.456L27.6317 27.0929C27.5603 26.9911 27.4515 26.9219 27.3291 26.9003C27.2067 26.8787 27.0807 26.9066 26.9788 26.9778C26.8771 27.0491 26.8078 27.158 26.7862 27.2804C26.7646 27.4028 26.7925 27.5288 26.8637 27.6307Z" fill="white"/>
<path fill-rule="evenodd" clip-rule="evenodd" d="M31.0498 29.4213C30.7402 28.9791 30.3087 28.6365 29.8077 28.4352C29.3068 28.234 28.7582 28.1828 28.2287 28.2878H28.2283C28.1363 28.3061 28.0491 28.3432 27.9723 28.397C27.8955 28.4508 27.8307 28.52 27.7821 28.6002V28.6006C27.5022 29.0622 27.3626 29.5953 27.3804 30.1349C27.3982 30.6744 27.5725 31.1972 27.8822 31.6394L30.1991 34.9484C30.4655 35.3287 30.8719 35.5876 31.3291 35.6683C31.7864 35.7489 32.2569 35.6446 32.6372 35.3783L32.9372 35.1683C33.1255 35.0365 33.286 34.8688 33.4095 34.6749C33.533 34.481 33.6171 34.2647 33.657 34.0383C33.6969 33.8119 33.6919 33.5799 33.6421 33.3554C33.5923 33.131 33.4988 32.9186 33.367 32.7303L31.0496 29.4213H31.0498ZM28.5265 29.1884C28.3698 29.488 28.2984 29.8249 28.3202 30.1623C28.342 30.4998 28.4561 30.8247 28.65 31.1017L30.967 34.4107C31.0907 34.5872 31.2795 34.7074 31.4918 34.7449C31.7042 34.7824 31.9227 34.7341 32.0995 34.6105L32.3995 34.4005C32.576 34.2767 32.6962 34.0879 32.7336 33.8756C32.771 33.6632 32.7226 33.4447 32.599 33.268L30.282 29.9587C30.0881 29.6817 29.8218 29.4633 29.5122 29.3275C29.2026 29.1916 28.8616 29.1436 28.5265 29.1884Z" fill="white"/>
</g>
<defs>
<clipPath id="clip0_1491_224">
<rect width="24" height="24" fill="white" transform="translate(12.2363 12)"/>
</clipPath>
</defs>
</svg>
