<svg width="49" height="48" viewBox="0 0 49 48" fill="none" xmlns="http://www.w3.org/2000/svg">
<rect x="0.472656" width="48.4725" height="48" rx="24" fill="#4BBA72"/>
<path d="M29.309 26.0001C29.109 25.9001 27.809 25.3001 27.609 25.2001C27.409 25.1001 27.209 25.1001 27.009 25.3001C26.809 25.5001 26.409 26.1001 26.209 26.3001C26.109 26.5001 25.909 26.5001 25.709 26.4001C25.009 26.1001 24.309 25.7001 23.709 25.2001C23.209 24.7001 22.709 24.1001 22.309 23.5001C22.209 23.3001 22.309 23.1001 22.409 23.0001C22.509 22.9001 22.609 22.7001 22.809 22.6001C22.909 22.5001 23.009 22.3001 23.009 22.2001C23.109 22.1001 23.109 21.9001 23.009 21.8001C22.909 21.7001 22.409 20.5001 22.209 20.0001C22.109 19.3001 21.909 19.3001 21.709 19.3001H21.209C21.009 19.3001 20.709 19.5001 20.609 19.6001C20.009 20.2001 19.709 20.9001 19.709 21.7001C19.809 22.6001 20.109 23.5001 20.709 24.3001C21.809 25.9001 23.209 27.2001 24.909 28.0001C25.409 28.2001 25.809 28.4001 26.309 28.5001C26.809 28.7001 27.309 28.7001 27.909 28.6001C28.609 28.5001 29.209 28.0001 29.609 27.4001C29.809 27.0001 29.809 26.6001 29.709 26.2001L29.309 26.0001ZM31.809 16.9001C27.909 13.0001 21.609 13.0001 17.709 16.9001C14.509 20.1001 13.909 25.0001 16.109 28.9001L14.709 34.0001L20.009 32.6001C21.509 33.4001 23.109 33.8001 24.709 33.8001C30.209 33.8001 34.609 29.4001 34.609 23.9001C34.709 21.3001 33.609 18.8001 31.809 16.9001ZM29.109 30.9001C27.809 31.7001 26.309 32.2001 24.709 32.2001C23.209 32.2001 21.809 31.8001 20.509 31.1001L20.209 30.9001L17.109 31.7001L17.909 28.7001L17.709 28.4001C15.309 24.4001 16.509 19.4001 20.409 16.9001C24.309 14.4001 29.309 15.7001 31.709 19.5001C34.109 23.4001 33.009 28.5001 29.109 30.9001Z" fill="white"/>
</svg>
