<svg width="475" height="234" viewBox="0 0 475 234" fill="none" xmlns="http://www.w3.org/2000/svg">
<path d="M64.7461 55.793V59.1621C64.7461 64.5658 64.0137 69.416 62.5488 73.7129C61.084 78.0098 59.0169 81.6719 56.3477 84.6992C53.6784 87.694 50.4883 89.9889 46.7773 91.584C43.099 93.179 39.0137 93.9766 34.5215 93.9766C30.0618 93.9766 25.9766 93.179 22.2656 91.584C18.5872 89.9889 15.3971 87.694 12.6953 84.6992C9.99349 81.6719 7.89388 78.0098 6.39648 73.7129C4.93164 69.416 4.19922 64.5658 4.19922 59.1621V55.793C4.19922 50.3568 4.93164 45.5065 6.39648 41.2422C7.86133 36.9453 9.92839 33.2832 12.5977 30.2559C15.2995 27.2285 18.4896 24.9173 22.168 23.3223C25.8789 21.7272 29.9642 20.9297 34.4238 20.9297C38.916 20.9297 43.0013 21.7272 46.6797 23.3223C50.3906 24.9173 53.5807 27.2285 56.25 30.2559C58.9518 33.2832 61.0352 36.9453 62.5 41.2422C63.9974 45.5065 64.7461 50.3568 64.7461 55.793ZM49.9512 59.1621V55.6953C49.9512 51.9193 49.6094 48.599 48.9258 45.7344C48.2422 42.8698 47.2331 40.4609 45.8984 38.5078C44.5638 36.5547 42.9362 35.0898 41.0156 34.1133C39.0951 33.1042 36.8978 32.5996 34.4238 32.5996C31.9499 32.5996 29.7526 33.1042 27.832 34.1133C25.944 35.0898 24.3327 36.5547 22.998 38.5078C21.696 40.4609 20.7031 42.8698 20.0195 45.7344C19.3359 48.599 18.9941 51.9193 18.9941 55.6953V59.1621C18.9941 62.9056 19.3359 66.2259 20.0195 69.123C20.7031 71.9876 21.7122 74.4128 23.0469 76.3984C24.3815 78.3516 26.0091 79.8327 27.9297 80.8418C29.8503 81.8509 32.0475 82.3555 34.5215 82.3555C36.9954 82.3555 39.1927 81.8509 41.1133 80.8418C43.0339 79.8327 44.6452 78.3516 45.9473 76.3984C47.2493 74.4128 48.2422 71.9876 48.9258 69.123C49.6094 66.2259 49.9512 62.9056 49.9512 59.1621ZM106.664 80.3535V40.168H120.727V93H107.494L106.664 80.3535ZM108.227 69.5137L112.377 69.416C112.377 72.9316 111.97 76.2031 111.156 79.2305C110.342 82.2253 109.122 84.8294 107.494 87.043C105.867 89.224 103.816 90.9329 101.342 92.1699C98.8678 93.3743 95.9544 93.9766 92.6016 93.9766C90.0299 93.9766 87.6536 93.6185 85.4727 92.9023C83.3242 92.1536 81.4688 90.998 79.9062 89.4355C78.3763 87.8405 77.1719 85.806 76.293 83.332C75.4466 80.8255 75.0234 77.8145 75.0234 74.2988V40.168H89.0859V74.3965C89.0859 75.959 89.265 77.2773 89.623 78.3516C90.0137 79.4258 90.5508 80.3047 91.2344 80.9883C91.918 81.6719 92.7155 82.1602 93.627 82.4531C94.571 82.7461 95.6126 82.8926 96.752 82.8926C99.6491 82.8926 101.928 82.3066 103.588 81.1348C105.281 79.9629 106.469 78.3678 107.152 76.3496C107.868 74.2988 108.227 72.0202 108.227 69.5137ZM146.531 51.6914V93H132.469V40.168H145.701L146.531 51.6914ZM162.449 39.8262L162.205 52.8633C161.521 52.7656 160.691 52.6842 159.715 52.6191C158.771 52.5215 157.908 52.4727 157.127 52.4727C155.141 52.4727 153.416 52.7331 151.951 53.2539C150.519 53.7422 149.314 54.4746 148.338 55.4512C147.394 56.4277 146.678 57.6159 146.189 59.0156C145.734 60.4154 145.473 62.0104 145.408 63.8008L142.576 62.9219C142.576 59.5039 142.918 56.3626 143.602 53.498C144.285 50.6009 145.278 48.0781 146.58 45.9297C147.915 43.7812 149.542 42.1211 151.463 40.9492C153.383 39.7773 155.581 39.1914 158.055 39.1914C158.836 39.1914 159.633 39.2565 160.447 39.3867C161.261 39.4844 161.928 39.6309 162.449 39.8262Z" fill="url(#paint0_linear_666_1267)"/>
<path d="M23.4863 198.721L37.6465 138.906H45.5566L47.3633 148.867L32.2754 210H23.7793L23.4863 198.721ZM16.2109 138.906L27.9297 198.721L26.9531 210H17.4805L1.70898 138.906H16.2109ZM59.8145 198.477L71.3867 138.906H85.8887L70.166 210H60.6934L59.8145 198.477ZM50 138.906L64.2578 198.965L63.8672 210H55.3711L40.1855 148.818L42.1387 138.906H50ZM90.1602 184.121V183.096C90.1602 179.222 90.7135 175.658 91.8203 172.402C92.9271 169.115 94.5384 166.266 96.6543 163.857C98.7702 161.449 101.374 159.577 104.467 158.242C107.559 156.875 111.107 156.191 115.111 156.191C119.115 156.191 122.68 156.875 125.805 158.242C128.93 159.577 131.55 161.449 133.666 163.857C135.814 166.266 137.442 169.115 138.549 172.402C139.656 175.658 140.209 179.222 140.209 183.096V184.121C140.209 187.962 139.656 191.527 138.549 194.814C137.442 198.07 135.814 200.918 133.666 203.359C131.55 205.768 128.946 207.64 125.854 208.975C122.761 210.309 119.213 210.977 115.209 210.977C111.205 210.977 107.641 210.309 104.516 208.975C101.423 207.64 98.8027 205.768 96.6543 203.359C94.5384 200.918 92.9271 198.07 91.8203 194.814C90.7135 191.527 90.1602 187.962 90.1602 184.121ZM104.223 183.096V184.121C104.223 186.335 104.418 188.402 104.809 190.322C105.199 192.243 105.818 193.936 106.664 195.4C107.543 196.833 108.682 197.956 110.082 198.77C111.482 199.583 113.191 199.99 115.209 199.99C117.162 199.99 118.839 199.583 120.238 198.77C121.638 197.956 122.761 196.833 123.607 195.4C124.454 193.936 125.072 192.243 125.463 190.322C125.886 188.402 126.098 186.335 126.098 184.121V183.096C126.098 180.947 125.886 178.929 125.463 177.041C125.072 175.12 124.438 173.428 123.559 171.963C122.712 170.465 121.589 169.294 120.189 168.447C118.79 167.601 117.097 167.178 115.111 167.178C113.126 167.178 111.433 167.601 110.033 168.447C108.666 169.294 107.543 170.465 106.664 171.963C105.818 173.428 105.199 175.12 104.809 177.041C104.418 178.929 104.223 180.947 104.223 183.096ZM163.914 168.691V210H149.852V157.168H163.084L163.914 168.691ZM179.832 156.826L179.588 169.863C178.904 169.766 178.074 169.684 177.098 169.619C176.154 169.521 175.291 169.473 174.51 169.473C172.524 169.473 170.799 169.733 169.334 170.254C167.902 170.742 166.697 171.475 165.721 172.451C164.777 173.428 164.061 174.616 163.572 176.016C163.117 177.415 162.856 179.01 162.791 180.801L159.959 179.922C159.959 176.504 160.301 173.363 160.984 170.498C161.668 167.601 162.661 165.078 163.963 162.93C165.298 160.781 166.925 159.121 168.846 157.949C170.766 156.777 172.964 156.191 175.438 156.191C176.219 156.191 177.016 156.257 177.83 156.387C178.644 156.484 179.311 156.631 179.832 156.826ZM201.535 134.951V210H187.473V134.951H201.535ZM234.836 157.168L211.887 183.34L199.582 195.791L194.455 185.635L204.221 173.232L217.941 157.168H234.836ZM220.236 210L204.611 185.586L214.328 177.09L236.447 210H220.236ZM259.811 210H245.65V152.48C245.65 148.477 246.432 145.107 247.994 142.373C249.589 139.606 251.819 137.523 254.684 136.123C257.581 134.691 261.015 133.975 264.986 133.975C266.288 133.975 267.542 134.072 268.746 134.268C269.951 134.43 271.122 134.642 272.262 134.902L272.115 145.498C271.497 145.335 270.846 145.221 270.162 145.156C269.479 145.091 268.681 145.059 267.77 145.059C266.077 145.059 264.628 145.352 263.424 145.938C262.252 146.491 261.357 147.321 260.738 148.428C260.12 149.535 259.811 150.885 259.811 152.48V210ZM270.357 157.168V167.129H237.789V157.168H270.357ZM276.484 184.121V183.096C276.484 179.222 277.038 175.658 278.145 172.402C279.251 169.115 280.863 166.266 282.979 163.857C285.094 161.449 287.699 159.577 290.791 158.242C293.883 156.875 297.432 156.191 301.436 156.191C305.439 156.191 309.004 156.875 312.129 158.242C315.254 159.577 317.874 161.449 319.99 163.857C322.139 166.266 323.766 169.115 324.873 172.402C325.98 175.658 326.533 179.222 326.533 183.096V184.121C326.533 187.962 325.98 191.527 324.873 194.814C323.766 198.07 322.139 200.918 319.99 203.359C317.874 205.768 315.27 207.64 312.178 208.975C309.085 210.309 305.537 210.977 301.533 210.977C297.529 210.977 293.965 210.309 290.84 208.975C287.747 207.64 285.127 205.768 282.979 203.359C280.863 200.918 279.251 198.07 278.145 194.814C277.038 191.527 276.484 187.962 276.484 184.121ZM290.547 183.096V184.121C290.547 186.335 290.742 188.402 291.133 190.322C291.523 192.243 292.142 193.936 292.988 195.4C293.867 196.833 295.007 197.956 296.406 198.77C297.806 199.583 299.515 199.99 301.533 199.99C303.486 199.99 305.163 199.583 306.562 198.77C307.962 197.956 309.085 196.833 309.932 195.4C310.778 193.936 311.396 192.243 311.787 190.322C312.21 188.402 312.422 186.335 312.422 184.121V183.096C312.422 180.947 312.21 178.929 311.787 177.041C311.396 175.12 310.762 173.428 309.883 171.963C309.036 170.465 307.913 169.294 306.514 168.447C305.114 167.601 303.421 167.178 301.436 167.178C299.45 167.178 297.757 167.601 296.357 168.447C294.99 169.294 293.867 170.465 292.988 171.963C292.142 173.428 291.523 175.12 291.133 177.041C290.742 178.929 290.547 180.947 290.547 183.096ZM350.238 168.691V210H336.176V157.168H349.408L350.238 168.691ZM366.156 156.826L365.912 169.863C365.229 169.766 364.398 169.684 363.422 169.619C362.478 169.521 361.615 169.473 360.834 169.473C358.848 169.473 357.123 169.733 355.658 170.254C354.226 170.742 353.021 171.475 352.045 172.451C351.101 173.428 350.385 174.616 349.896 176.016C349.441 177.415 349.18 179.01 349.115 180.801L346.283 179.922C346.283 176.504 346.625 173.363 347.309 170.498C347.992 167.601 348.985 165.078 350.287 162.93C351.622 160.781 353.249 159.121 355.17 157.949C357.09 156.777 359.288 156.191 361.762 156.191C362.543 156.191 363.34 156.257 364.154 156.387C364.968 156.484 365.635 156.631 366.156 156.826ZM394.646 199.99C396.372 199.99 397.902 199.665 399.236 199.014C400.571 198.33 401.613 197.386 402.361 196.182C403.143 194.945 403.549 193.496 403.582 191.836H416.814C416.782 195.547 415.789 198.851 413.836 201.748C411.883 204.613 409.262 206.875 405.975 208.535C402.687 210.163 399.008 210.977 394.939 210.977C390.838 210.977 387.257 210.293 384.197 208.926C381.17 207.559 378.647 205.671 376.629 203.262C374.611 200.82 373.097 197.988 372.088 194.766C371.079 191.51 370.574 188.027 370.574 184.316V182.9C370.574 179.157 371.079 175.674 372.088 172.451C373.097 169.196 374.611 166.364 376.629 163.955C378.647 161.514 381.17 159.609 384.197 158.242C387.225 156.875 390.773 156.191 394.842 156.191C399.171 156.191 402.964 157.021 406.219 158.682C409.507 160.342 412.078 162.718 413.934 165.811C415.822 168.87 416.782 172.5 416.814 176.699H403.582C403.549 174.941 403.175 173.346 402.459 171.914C401.775 170.482 400.766 169.342 399.432 168.496C398.13 167.617 396.518 167.178 394.598 167.178C392.547 167.178 390.87 167.617 389.568 168.496C388.266 169.342 387.257 170.514 386.541 172.012C385.825 173.477 385.32 175.153 385.027 177.041C384.767 178.896 384.637 180.85 384.637 182.9V184.316C384.637 186.367 384.767 188.337 385.027 190.225C385.288 192.113 385.776 193.789 386.492 195.254C387.241 196.719 388.266 197.874 389.568 198.721C390.87 199.567 392.563 199.99 394.646 199.99ZM450.285 210.977C446.184 210.977 442.505 210.326 439.25 209.023C435.995 207.689 433.228 205.85 430.949 203.506C428.703 201.162 426.978 198.444 425.773 195.352C424.569 192.227 423.967 188.906 423.967 185.391V183.438C423.967 179.434 424.536 175.771 425.676 172.451C426.815 169.131 428.443 166.25 430.559 163.809C432.707 161.367 435.311 159.495 438.371 158.193C441.431 156.859 444.882 156.191 448.723 156.191C452.466 156.191 455.786 156.81 458.684 158.047C461.581 159.284 464.006 161.042 465.959 163.32C467.945 165.599 469.442 168.333 470.451 171.523C471.46 174.681 471.965 178.197 471.965 182.07V187.93H429.973V178.555H458.146V177.48C458.146 175.527 457.788 173.786 457.072 172.256C456.389 170.693 455.347 169.456 453.947 168.545C452.548 167.633 450.757 167.178 448.576 167.178C446.721 167.178 445.126 167.585 443.791 168.398C442.456 169.212 441.366 170.352 440.52 171.816C439.706 173.281 439.087 175.007 438.664 176.992C438.273 178.945 438.078 181.094 438.078 183.438V185.391C438.078 187.507 438.371 189.46 438.957 191.25C439.576 193.04 440.438 194.587 441.545 195.889C442.684 197.191 444.051 198.2 445.646 198.916C447.274 199.632 449.113 199.99 451.164 199.99C453.703 199.99 456.063 199.502 458.244 198.525C460.458 197.516 462.362 196.003 463.957 193.984L470.793 201.406C469.686 203.001 468.173 204.531 466.252 205.996C464.364 207.461 462.085 208.665 459.416 209.609C456.747 210.521 453.703 210.977 450.285 210.977Z" fill="url(#paint1_linear_666_1267)"/>
<path d="M361.971 39.4866C361.987 66.0519 340.465 87.978 313.899 87.9942L304.262 88C304.246 61.4347 325.768 39.5086 352.333 39.4924L361.971 39.4866Z" fill="#FFEB9D"/>
<circle cx="280" cy="35" r="21" fill="#4BBA72"/>
<defs>
<linearGradient id="paint0_linear_666_1267" x1="82" y1="0" x2="82" y2="117" gradientUnits="userSpaceOnUse">
<stop offset="0.249" stop-color="#4BBA72"/>
<stop offset="1" stop-color="#4BBA72" stop-opacity="0"/>
</linearGradient>
<linearGradient id="paint1_linear_666_1267" x1="237.5" y1="117" x2="237.5" y2="234" gradientUnits="userSpaceOnUse">
<stop offset="0.249" stop-color="#4BBA72"/>
<stop offset="1" stop-color="#4BBA72" stop-opacity="0"/>
</linearGradient>
</defs>
</svg>
