<svg width="38" height="38" viewBox="0 0 38 38" fill="none" xmlns="http://www.w3.org/2000/svg">
<path d="M25.998 5.94864H26.7803V6.71532C26.7803 6.85311 26.835 6.98525 26.9325 7.08268C27.0299 7.18011 27.1621 7.23485 27.2998 7.23485C27.4376 7.23485 27.5698 7.18011 27.6672 7.08268C27.7646 6.98525 27.8194 6.85311 27.8194 6.71532V5.94864H28.5861C28.7238 5.94864 28.856 5.8939 28.9534 5.79647C29.0508 5.69904 29.1056 5.56689 29.1056 5.42911C29.1056 5.29132 29.0508 5.15917 28.9534 5.06174C28.856 4.96431 28.7238 4.90958 28.5861 4.90958H27.8194V4.12805C27.8194 3.99026 27.7646 3.85812 27.6672 3.76069C27.5698 3.66326 27.4376 3.60852 27.2998 3.60852C27.1621 3.60852 27.0299 3.66326 26.9325 3.76069C26.835 3.85812 26.7803 3.99026 26.7803 4.12805V4.90958H25.998C25.8603 4.90958 25.7281 4.96431 25.6307 5.06174C25.5333 5.15917 25.4785 5.29132 25.4785 5.42911C25.4785 5.56689 25.5333 5.69904 25.6307 5.79647C25.7281 5.8939 25.8603 5.94864 25.998 5.94864Z" fill="#2D2D2D"/>
<path d="M16.9963 17.2254L19.047 18.8419C19.2427 18.9971 19.4852 19.0816 19.735 19.0816C19.9848 19.0816 20.2273 18.9971 20.423 18.8419L22.4737 17.2254C22.7636 16.9985 22.9978 16.7084 23.1586 16.3772C23.3194 16.046 23.4024 15.6824 23.4014 15.3143V14.9677C23.4011 14.5422 23.2825 14.1252 23.0588 13.7633C22.8351 13.4014 22.5151 13.1089 22.1347 12.9184C21.7542 12.728 21.3283 12.6471 20.9045 12.6849C20.4807 12.7226 20.0758 12.8775 19.735 13.1323C19.3943 12.8775 18.9894 12.7225 18.5656 12.6847C18.1419 12.6469 17.7159 12.7278 17.3355 12.9182C16.9551 13.1087 16.6352 13.4013 16.4116 13.7633C16.1879 14.1252 16.0695 14.5422 16.0693 14.9677V15.3143C16.0682 15.6824 16.1511 16.0459 16.3118 16.3771C16.4724 16.7083 16.7066 16.9984 16.9963 17.2254ZM17.1084 14.9677C17.1078 14.7085 17.1876 14.4554 17.3369 14.2435C17.4861 14.0315 17.6975 13.8711 17.9417 13.7843C18.186 13.6975 18.4512 13.6886 18.7007 13.7588C18.9503 13.8291 19.1719 13.975 19.335 14.1765C19.3837 14.2363 19.4451 14.2844 19.5147 14.3175C19.5844 14.3506 19.6605 14.3677 19.7376 14.3677C19.8147 14.3677 19.8908 14.3506 19.9605 14.3175C20.0301 14.2844 20.0915 14.2363 20.1402 14.1765C20.3034 13.975 20.525 13.8291 20.7745 13.7588C21.024 13.6886 21.2892 13.6975 21.5335 13.7843C21.7777 13.8711 21.9891 14.0315 22.1383 14.2435C22.2876 14.4554 22.3674 14.7085 22.3668 14.9677V15.3143C22.3673 15.5253 22.3197 15.7336 22.2276 15.9234C22.1356 16.1132 22.0014 16.2796 21.8354 16.4098L19.7847 18.0262C19.7718 18.0361 19.7561 18.0414 19.7398 18.0414C19.7236 18.0414 19.7078 18.0361 19.6949 18.0262L17.6361 16.4098C17.4701 16.2796 17.3359 16.1132 17.2439 15.9234C17.1518 15.7336 17.1042 15.5253 17.1047 15.3143L17.1084 14.9677Z" fill="#2D2D2D"/>
<path d="M28.7383 29.099C29.0308 28.7352 29.2317 28.3067 29.3244 27.8493C29.4171 27.3919 29.3988 26.919 29.271 26.4701C29.1432 26.0212 28.9097 25.6095 28.59 25.2695C28.2703 24.9295 27.8738 24.6711 27.4336 24.5159C26.9935 24.3607 26.5226 24.3133 26.0603 24.3776C25.5981 24.4419 25.158 24.6161 24.7769 24.8856C24.3959 25.1551 24.085 25.512 23.8703 25.9264C23.6556 26.3407 23.5434 26.8006 23.543 27.2673C23.5416 27.9449 23.778 28.6015 24.211 29.1227C23.276 29.5179 22.5253 30.2524 22.1099 31.1786C21.8441 30.986 21.5557 30.8267 21.2512 30.7043C21.5858 30.2894 21.8004 29.7908 21.8718 29.2626C21.9432 28.7344 21.8686 28.1967 21.656 27.7079C21.4435 27.2191 21.1012 26.7978 20.6662 26.4897C20.2313 26.1816 19.7203 25.9985 19.1886 25.9603C18.7879 25.9298 18.3852 25.983 18.0062 26.1167C17.6272 26.2503 17.2802 26.4615 16.9873 26.7366C16.6945 27.0101 16.461 27.3408 16.3012 27.7082C16.1413 28.0756 16.0586 28.4719 16.0581 28.8726C16.0567 29.5502 16.2931 30.2068 16.726 30.7281C16.4338 30.851 16.1574 31.0087 15.903 31.1979C15.4802 30.2392 14.6988 29.4841 13.7261 29.0945C14.0605 28.6795 14.2749 28.181 14.3461 27.6529C14.4174 27.1247 14.3427 26.5872 14.1302 26.0984C13.9177 25.6097 13.5755 25.1885 13.1407 24.8803C12.7059 24.5722 12.1951 24.389 11.6636 24.3505C11.2629 24.3199 10.8602 24.3732 10.4812 24.5069C10.1022 24.6405 9.75518 24.8517 9.46225 25.1268C9.16938 25.4011 8.93598 25.7326 8.77652 26.1008C8.61706 26.469 8.53494 26.866 8.53526 27.2673C8.53386 27.9449 8.77025 28.6015 9.20322 29.1227C8.47426 29.4312 7.85242 29.9478 7.41547 30.6078C6.97853 31.2679 6.74587 32.0421 6.74658 32.8337V34.5117C6.74658 34.8464 6.87951 35.1673 7.11613 35.4039C7.35275 35.6405 7.67367 35.7735 8.0083 35.7735H14.2738V36.1193C14.2738 36.4539 14.4068 36.7749 14.6434 37.0115C14.88 37.2481 15.2009 37.381 15.5356 37.381H22.5106C22.8453 37.381 23.1662 37.2481 23.4028 37.0115C23.6394 36.7749 23.7724 36.4539 23.7724 36.1193V35.7735H29.9971C30.3317 35.7735 30.6526 35.6405 30.8893 35.4039C31.1259 35.1673 31.2588 34.8464 31.2588 34.5117V32.8374C31.2616 32.0334 31.0228 31.2472 30.5733 30.5807C30.1239 29.9141 29.4846 29.3979 28.7383 29.099ZM14.2657 34.4427V34.7344H8.00311C7.94406 34.7344 7.88742 34.7109 7.84567 34.6692C7.80391 34.6274 7.78045 34.5708 7.78045 34.5117V32.8374C7.77964 32.2088 7.97702 31.596 8.3445 31.0861C8.71199 30.5762 9.23088 30.1951 9.8274 29.997C9.96267 29.9525 10.0841 29.8738 10.18 29.7685C10.2759 29.6632 10.3429 29.5349 10.3745 29.3961C10.4062 29.2572 10.4014 29.1126 10.3607 28.9761C10.32 28.8397 10.2447 28.7161 10.1421 28.6173C9.87337 28.3567 9.68855 28.0218 9.61127 27.6555C9.53399 27.2892 9.56777 26.9082 9.70829 26.5613C9.84882 26.2143 10.0897 25.9172 10.4001 25.7079C10.7105 25.4986 11.0762 25.3867 11.4506 25.3865C11.4958 25.3865 11.5426 25.3865 11.5886 25.3917C12.0435 25.4248 12.4709 25.622 12.7912 25.9467C13.1115 26.2714 13.3029 26.7014 13.3298 27.1567C13.3298 27.1923 13.3298 27.2309 13.3298 27.2628C13.3301 27.5132 13.2805 27.7612 13.184 27.9922C13.0874 28.2233 12.9457 28.4327 12.7672 28.6084C12.6658 28.707 12.592 28.8303 12.5529 28.9662C12.5139 29.1021 12.511 29.2459 12.5446 29.3832C12.5777 29.5231 12.6468 29.652 12.7451 29.7569C12.8434 29.8618 12.9675 29.9392 13.1049 29.9814C13.577 30.1277 14.0052 30.3893 14.3509 30.7425C14.6967 31.0957 14.9489 31.5295 15.0851 32.0046C14.553 32.7067 14.2662 33.5641 14.2687 34.4449L14.2657 34.4427ZM22.7333 36.1193C22.7333 36.1784 22.7098 36.235 22.6681 36.2768C22.6263 36.3185 22.5697 36.342 22.5106 36.342H15.5304C15.4713 36.342 15.4147 36.3185 15.3729 36.2768C15.3312 36.235 15.3077 36.1784 15.3077 36.1193V34.4449C15.3072 33.8165 15.5048 33.2038 15.8722 32.694C16.2396 32.1841 16.7583 31.803 17.3547 31.6046C17.4899 31.5601 17.6114 31.4813 17.7073 31.3761C17.8031 31.2708 17.8701 31.1425 17.9018 31.0036C17.9335 30.8648 17.9287 30.7201 17.888 30.5837C17.8472 30.4472 17.7719 30.3236 17.6694 30.2249C17.4006 29.9642 17.2158 29.6294 17.1385 29.2631C17.0613 28.8968 17.095 28.5158 17.2356 28.1688C17.3761 27.8219 17.617 27.5247 17.9273 27.3155C18.2377 27.1062 18.6035 26.9943 18.9778 26.9941C19.0238 26.9941 19.0699 26.9941 19.1159 26.9993C19.4766 27.0255 19.822 27.1552 20.1109 27.3727C20.3997 27.5903 20.6197 27.8866 20.7444 28.226C20.8691 28.5654 20.8933 28.9336 20.814 29.2865C20.7347 29.6393 20.5554 29.9618 20.2974 30.2152C20.1963 30.3141 20.1226 30.4376 20.0836 30.5736C20.0446 30.7095 20.0415 30.8533 20.0748 30.9908C20.108 31.1307 20.1772 31.2595 20.2755 31.3644C20.3737 31.4693 20.4977 31.5467 20.6351 31.589C21.2444 31.778 21.7769 32.1573 22.1546 32.6714C22.5323 33.1855 22.7351 33.8071 22.7333 34.4449V36.1193ZM30.219 34.5117C30.219 34.5708 30.1955 34.6274 30.1538 34.6692C30.112 34.7109 30.0554 34.7344 29.9963 34.7344H23.7724V34.4449C23.7747 33.5466 23.476 32.6733 22.924 31.9646C23.0627 31.5071 23.3092 31.0896 23.6428 30.7472C23.9764 30.4048 24.3874 30.1475 24.8411 29.997C24.9763 29.9524 25.0977 29.8736 25.1935 29.7683C25.2893 29.6629 25.3562 29.5346 25.3878 29.3958C25.4194 29.257 25.4145 29.1124 25.3738 28.976C25.333 28.8396 25.2577 28.716 25.1551 28.6173C24.8863 28.3567 24.7015 28.0218 24.6242 27.6555C24.547 27.2892 24.5807 26.9082 24.7213 26.5613C24.8618 26.2143 25.1027 25.9172 25.413 25.7079C25.7234 25.4986 26.0892 25.3867 26.4635 25.3865C26.5096 25.3865 26.5563 25.3865 26.6023 25.3917C27.057 25.4248 27.4842 25.6219 27.8044 25.9465C28.1245 26.271 28.3159 26.7008 28.3428 27.1559C28.3428 27.1915 28.3428 27.2301 28.3428 27.2628C28.3431 27.5132 28.2935 27.7612 28.1969 27.9922C28.1003 28.2233 27.9587 28.4327 27.7802 28.6084C27.6787 28.7069 27.6047 28.8302 27.5657 28.9662C27.5266 29.1021 27.5238 29.2459 27.5575 29.3832C27.5907 29.5231 27.6598 29.652 27.7581 29.7569C27.8564 29.8618 27.9804 29.9392 28.1179 29.9814C28.727 30.1703 29.2595 30.5497 29.6369 31.0638C30.0143 31.5779 30.2168 32.1996 30.2146 32.8374L30.219 34.5117Z" fill="#2D2D2D"/>
<path d="M19.7001 24.1397H19.7238C21.9941 24.1403 24.1757 23.2585 25.8079 21.6804C27.44 20.1023 28.3948 17.9516 28.4705 15.6826C28.5462 13.4136 27.737 11.204 26.2137 9.52059C24.6904 7.8372 22.5725 6.81184 20.3072 6.66114V5.17677C20.4655 5.19342 20.6245 5.20184 20.7837 5.202C21.4079 5.202 22.2488 5.07138 22.9264 4.4947C23.7428 3.79927 24.1027 2.66224 23.9907 1.11478C23.9817 0.990305 23.9283 0.873208 23.8401 0.784898C23.752 0.696589 23.6349 0.642967 23.5105 0.633839C21.963 0.521769 20.826 0.880988 20.1306 1.69888C20.0139 1.83678 19.9112 1.98596 19.824 2.14419C19.7369 1.98596 19.6342 1.83678 19.5175 1.69888C18.8221 0.882472 17.6843 0.521769 16.1376 0.633839C16.0132 0.643734 15.8965 0.698078 15.8089 0.786933C15.7212 0.875788 15.6685 0.993217 15.6604 1.11775C15.549 2.66521 15.9068 3.80224 16.7254 4.49767C17.403 5.07435 18.2439 5.20497 18.8674 5.20497C19.0158 5.20497 19.1531 5.19755 19.2718 5.18642V6.65372C18.4192 6.69657 17.5775 6.86436 16.7736 7.15173C15.5364 7.59844 14.4147 8.31636 13.4909 9.25286C12.2824 10.4805 11.4631 12.0376 11.1359 13.7289C10.8086 15.4203 10.988 17.1706 11.6515 18.7604C12.315 20.3502 13.4331 21.7087 14.8655 22.6657C16.298 23.6226 17.9811 24.1354 19.7038 24.1397H19.7001ZM20.9217 2.37501C21.3284 1.89704 22.0165 1.65583 22.9717 1.65583C22.9717 2.6088 22.7319 3.29607 22.2569 3.70278C21.7018 4.17778 20.921 4.19114 20.4757 4.15255C20.4386 3.71095 20.4519 2.9272 20.9217 2.37501ZM19.1716 4.15181C18.7263 4.19114 17.9456 4.17778 17.3904 3.7065C16.9154 3.29978 16.6757 2.61251 16.6757 1.65954C17.6286 1.65954 18.3152 1.89927 18.7219 2.37427C19.1976 2.92571 19.211 3.71095 19.1716 4.15181ZM26.0799 11.0252C26.9689 12.3146 27.4413 13.8454 27.4337 15.4115C27.4328 15.6828 27.4177 15.9538 27.3884 16.2235C27.1658 15.862 27.0604 15.8264 26.9602 15.793C26.834 15.7507 26.1334 15.4323 25.5077 15.1199C25.4926 15.1126 25.4785 15.1036 25.4654 15.0931C25.452 15.0189 25.5396 14.8029 25.5782 14.7094C25.6245 14.6052 25.661 14.4968 25.6873 14.3858C25.7541 14.0511 25.5352 13.7052 25.2813 13.3052C25.1878 13.1568 25.032 12.9118 25.0127 12.8309C24.9095 12.2127 24.0886 11.9403 23.2195 11.6494C22.0254 11.2508 21.1377 10.8478 20.5818 10.4508L20.5581 10.4329C20.6757 10.3048 20.8052 10.188 20.9447 10.0841C21.2357 9.85181 21.511 9.63212 21.5103 9.30185C21.5207 9.15341 21.7604 8.56708 22.0298 8.03271C23.6762 8.54986 25.102 9.60335 26.0799 11.0252ZM14.2279 9.98169C15.5887 8.59459 17.4249 7.77505 19.3661 7.68833C19.4811 7.68314 19.5999 7.68017 19.7201 7.68017H19.7424C20.212 7.68142 20.6806 7.72564 21.1422 7.81228C20.9499 8.20786 20.6783 8.8172 20.6271 9.18607C20.5722 9.24024 20.4638 9.32708 20.3874 9.38794C20.0497 9.6581 19.6288 9.99431 19.6452 10.4738C19.6504 10.66 19.7275 10.9332 20.0667 11.1759C20.7035 11.6308 21.6439 12.062 22.9405 12.494C23.2871 12.6098 23.9996 12.8473 24.1428 13.0135C24.1925 13.2488 24.3499 13.4974 24.531 13.7824C24.6323 13.9331 24.7231 14.0905 24.8026 14.2537C24.79 14.2893 24.7707 14.3368 24.7551 14.3747C24.629 14.6842 24.2942 15.508 25.1121 15.917C25.6042 16.1634 26.2714 16.4766 26.575 16.599C26.7714 16.933 26.9481 17.2782 27.1042 17.6329C26.8672 18.4152 26.5064 19.1544 26.0354 19.8224C25.7985 20.1594 25.5351 20.477 25.2479 20.7724C24.5317 21.5122 23.6734 22.0999 22.7246 22.5001C21.7757 22.9003 20.7558 23.1048 19.7261 23.1013H19.7045C18.7447 23.0986 17.7938 22.9158 16.9013 22.5625C17.1315 22.2889 17.2795 21.9556 17.3281 21.6014C17.3759 21.2288 17.2807 20.8519 17.0616 20.5467L17 20.4725L16.9117 20.428C16.5525 20.2476 16.1769 19.8446 15.9669 19.5863C16.1064 19.0356 16.286 18.096 16.03 17.6396C15.9885 17.5621 15.9319 17.4937 15.8634 17.4386C15.7949 17.3835 15.716 17.3428 15.6314 17.319C14.8988 17.1154 14.2534 16.6768 13.7945 16.0706C13.7737 15.1384 12.8838 13.4588 12.4816 12.7456C12.4942 12.7115 12.5053 12.6773 12.5179 12.6432C12.8967 11.6468 13.4791 10.7403 14.2279 9.98169ZM12.1387 13.9954C12.5966 14.9098 12.9477 15.8049 12.9024 16.1359L12.8816 16.2881L12.9595 16.4209C12.9892 16.4721 13.6936 17.6485 15.2663 18.1368C15.2982 18.3833 15.2061 19.0104 15.051 19.5596L14.9931 19.7652L15.1171 19.9396C15.1423 19.9745 15.7056 20.756 16.3936 21.1568C16.4409 21.2632 16.4584 21.3804 16.4441 21.496C16.4181 21.7112 16.286 21.9413 16.0582 22.1706C14.8311 21.5097 13.8066 20.5279 13.0941 19.3299C12.3817 18.132 12.0081 16.763 12.0133 15.3692C12.0146 14.9085 12.0566 14.4488 12.1387 13.9954Z" fill="#2D2D2D"/>
</svg>
