<svg width="38" height="32" viewBox="0 0 38 32" fill="none" xmlns="http://www.w3.org/2000/svg">
<path fill-rule="evenodd" clip-rule="evenodd" d="M18.9998 0L20.8181 1.4751L23.1313 1.104L23.9631 3.29346L26.1526 4.12533L25.7815 6.43848L27.2566 8.25684L25.7815 10.0752L26.1526 12.3883L23.9631 13.2202L23.1313 15.4097L20.8181 15.0386L18.9998 16.5137L17.1814 15.0386L14.8682 15.4097L14.0364 13.2202L11.8469 12.3883L12.218 10.0752L10.7429 8.25684L12.218 6.43848L11.8469 4.12533L14.0364 3.29346L14.8682 1.104L17.1814 1.4751L18.9998 0ZM20.5367 26.2178H27.3123C27.8565 25.6766 28.4534 25.1138 29.0564 24.5417C30.3274 23.3387 31.6541 22.0832 33.0178 20.5122C34.5764 18.7155 34.7434 18.0939 35.2166 16.3343C35.3062 16.0034 35.4052 15.6323 35.5351 15.1716L36.3453 12.3234L36.3546 12.2925C36.7875 11.0246 36.8215 10.1865 36.6422 9.7041C36.5865 9.55566 36.5154 9.45671 36.4319 9.40413C36.3669 9.36084 36.2804 9.34538 36.1907 9.35466C35.9804 9.3763 35.7423 9.50928 35.5258 9.7474L33.1199 15.4777C33.0982 15.5303 33.0673 15.5798 33.0333 15.623C32.891 15.8797 32.6993 16.1302 32.4519 16.3683L28.1843 21.1276C27.9524 21.3874 27.5535 21.409 27.2968 21.1771C27.037 20.9452 27.0154 20.5462 27.2473 20.2896C27.8256 19.6463 32.3097 15.2458 32.0808 14.2593C31.7963 13.0439 28.741 16.1642 28.3761 16.4858L28.3668 16.4951C26.5763 18.1898 25.8062 18.5918 24.4023 19.3247C24.1085 19.4793 23.7869 19.6463 23.3879 19.8628C23.2302 19.9494 23.0756 20.0545 22.9241 20.1689C22.7633 20.2926 22.6086 20.4194 22.4633 20.5431C21.7211 21.1678 21.3315 21.675 21.1088 22.2347C20.8769 22.8161 20.7934 23.5243 20.679 24.4953C20.6326 24.8849 20.5986 25.2746 20.5707 25.6611C20.5553 25.8498 20.546 26.0353 20.5367 26.2178ZM17.4628 26.2178H10.6842C10.1399 25.6766 9.54305 25.1138 8.93693 24.5417C7.66594 23.3387 6.33928 22.0832 4.97551 20.5122C3.41691 18.7155 3.24992 18.0939 2.77678 16.3343C2.68709 16.0034 2.58814 15.6323 2.45825 15.1716L1.64803 12.3234L1.63876 12.2925C1.20581 11.0246 1.1718 10.1865 1.35116 9.7041C1.40682 9.55566 1.47795 9.45671 1.56144 9.40413C1.62639 9.36084 1.71297 9.34538 1.80265 9.35466C2.01294 9.3763 2.25106 9.50928 2.46753 9.7474L4.87346 15.4777C4.8951 15.5303 4.92603 15.5798 4.96004 15.623C5.1023 15.8797 5.29403 16.1302 5.54142 16.3683L9.809 21.1276C10.0409 21.3874 10.4399 21.409 10.6965 21.1771C10.9563 20.9452 10.9779 20.5462 10.746 20.2896C10.1739 19.6432 5.68986 15.2427 5.9187 14.2562C6.20321 13.0409 9.25855 16.1611 9.62346 16.4827L9.63273 16.492C11.4233 18.1867 12.1933 18.5887 13.5973 19.3216C13.891 19.4762 14.2126 19.6432 14.6116 19.8597C14.7693 19.9463 14.9239 20.0514 15.0754 20.1659C15.2362 20.2896 15.3909 20.4163 15.5362 20.54C16.2784 21.1647 16.6681 21.6719 16.8907 22.2316C17.1226 22.813 17.2061 23.5212 17.3206 24.4922C17.3669 24.8818 17.401 25.2715 17.4288 25.658C17.4443 25.8498 17.4535 26.0353 17.4628 26.2178ZM9.10702 26.4342C9.01115 26.5456 8.95239 26.6909 8.95239 26.8486V30.6029C8.95239 30.9523 9.2369 31.2337 9.58325 31.2337H18.1122C18.4617 31.2337 18.7431 30.9492 18.7431 30.6029V26.8146C18.7431 26.4126 18.7183 25.9797 18.6905 25.5776C18.6627 25.1663 18.6256 24.7581 18.5792 24.353C18.4555 23.2923 18.3627 22.5161 18.0658 21.7708C17.7597 21.007 17.268 20.3483 16.3557 19.5783C16.1887 19.436 16.0186 19.2938 15.8393 19.1608C15.6506 19.0186 15.4465 18.8825 15.2177 18.7557C14.8466 18.5547 14.5002 18.3722 14.1848 18.2052C12.886 17.5249 12.1747 17.1538 10.5017 15.5705C10.4893 15.5581 10.4739 15.5457 10.4615 15.5365L8.84725 14.1108C8.03084 13.1553 6.41349 12.0173 5.23527 13.0501C4.6075 11.5565 3.98902 8.30013 1.93563 8.09912C1.56144 8.06201 1.19963 8.14242 0.884198 8.34652C0.584231 8.54134 0.336835 8.8444 0.182212 9.26188C-0.0899231 9.98861 -0.0837381 11.1174 0.448163 12.679L1.2522 15.5086C1.36971 15.9168 1.47176 16.3096 1.56763 16.6559C2.09335 18.6196 2.27889 19.3154 4.03231 21.3317C5.42082 22.9305 6.7815 24.217 8.08342 25.4508C8.42049 25.7786 8.76066 26.1034 9.10702 26.4342ZM10.3131 27.4795C10.3966 27.498 10.4832 27.498 10.5697 27.4795H17.4783V29.972H10.2141V27.4795H10.3131ZM28.8925 26.4342C28.9884 26.5456 29.0471 26.6909 29.0471 26.8486V30.6029C29.0471 30.9523 28.7657 31.2337 28.4163 31.2337H19.8904C19.5409 31.2337 19.2595 30.9492 19.2595 30.6029V26.8146C19.2595 26.793 19.2595 26.7682 19.2626 26.7466C19.2719 26.3415 19.2874 25.9487 19.3121 25.5776C19.3399 25.1663 19.377 24.7581 19.4234 24.353C19.5471 23.2923 19.6399 22.5161 19.9368 21.7708C20.2429 21.007 20.7346 20.3483 21.6469 19.5783C21.8139 19.436 21.984 19.2938 22.1633 19.1608C22.352 19.0186 22.5561 18.8825 22.7849 18.7557C23.156 18.5547 23.5024 18.3722 23.8178 18.2052C25.1166 17.5249 25.8279 17.1538 27.5009 15.5705C27.5133 15.5581 27.5287 15.5457 27.5411 15.5365L29.1554 14.1108C29.9718 13.1553 31.5891 12.0173 32.7673 13.0501C33.0735 12.3172 34.1311 9.44743 34.496 9.0083C34.9475 8.46712 35.5196 8.15169 36.067 8.09603C36.4412 8.05892 36.803 8.13932 37.1184 8.34342C37.4184 8.53825 37.6658 8.84131 37.8204 9.25879C38.0925 9.98551 38.0863 11.1143 37.5544 12.6759L36.7504 15.5055C36.6329 15.9137 36.5308 16.3065 36.435 16.6528C35.9093 18.6165 35.7237 19.3123 33.9703 21.3286C32.5818 22.9274 31.2242 24.2139 29.9192 25.4478C29.579 25.7786 29.2389 26.1034 28.8925 26.4342ZM27.6864 27.4795C27.6029 27.498 27.5164 27.498 27.4298 27.4795H20.5212V29.972H27.7854V27.4795H27.6864ZM18.9998 5.31283L19.8502 7.39095L22.0922 7.55794L20.379 9.0083L20.914 11.1916L19.0028 10.0072L17.0917 11.1916L17.6267 9.01139L15.9073 7.56104L18.1493 7.39404L18.9998 5.31592V5.31283ZM18.9998 3.59033C21.5758 3.59033 23.6632 5.68083 23.6632 8.25374C23.6632 10.8298 21.5727 12.9172 18.9998 12.9172C16.4237 12.9172 14.3363 10.8267 14.3363 8.25374C14.3363 5.68083 16.4237 3.59033 18.9998 3.59033Z" fill="#2D2D2D"/>
</svg>
