<svg width="51" height="59" viewBox="0 0 51 59" fill="none" xmlns="http://www.w3.org/2000/svg">
<path d="M18.6161 44.0134C18.9824 47.4174 18.7012 51.3259 19.11 54.6779C19.299 56.2304 21.043 57.2005 22.4313 56.1217C23.601 55.2119 23.1662 53.2955 23.0906 51.5126C23.0185 49.8076 22.8968 41.9681 22.3958 41.0855C21.6727 39.813 19.9028 39.9808 18.0998 39.8177C16.4113 39.6641 14.6485 39.494 12.9577 39.3676L12.9093 32.621C15.2215 34.001 15.8537 34.4488 17.5444 35.4555C17.8552 35.641 18.3124 35.5465 18.7945 35.5453C20.2324 35.5417 21.6715 35.5453 23.1095 35.5453C24.4233 35.5453 26.3894 35.8194 27.0204 34.9675C27.8628 33.8309 27.0794 32.5146 25.762 32.4225L19.0686 32.4201C17.9981 32.426 18.0643 32.4697 17.366 31.9239C15.1069 30.2319 13.7021 29.2571 12.4367 28.0874C11.8223 27.2391 9.06219 27.0323 8.19613 27.8937C7.37142 28.7136 7.60536 30.3465 7.60536 31.749L7.603 40.5196C7.59473 44.5131 11.6699 43.1485 18.3727 44.0134H18.6161Z" stroke="#4BBA72" stroke-width="1.4" stroke-miterlimit="10"/>
<path d="M38.2816 23.5126C37.8763 22.8072 37.5407 22.8143 37.1414 21.8915C35.0394 21.9293 33.7232 22.5803 30.7906 21.2771C24.9219 18.6706 23.1768 11.0899 27.1692 6.30466C28.2042 5.06405 29.4945 3.86952 31.5468 3.16769C37.536 1.12008 44.2318 5.12077 44.487 12.1757L46.5759 12.9343C46.9847 4.39412 38.7624 -1.27607 31.2502 1.05983C28.4583 1.92826 26.9943 3.27757 25.6072 4.88446C18.8335 12.7275 25.5446 26.9343 38.3123 23.6886L38.2816 23.5126Z" stroke="#4BBA72" stroke-width="1.4" stroke-miterlimit="10"/>
<path d="M35.2627 40.1143C35.3939 44.8038 35.3241 50.1101 35.271 54.9426C34.7759 54.9556 34.2832 54.9272 33.8709 54.9698C33.2257 55.0371 32.7697 55.8016 32.7921 56.6558H40.6588C40.7167 55.7992 40.146 55.0324 39.417 54.9686C38.9774 54.9296 38.4777 54.9556 38.0216 54.9532L38.024 40.1096H47.6393C47.989 40.1119 49.0122 40.1533 49.2864 40.0765C49.7424 39.9489 49.9835 37.8268 49.577 37.4275C49.2025 37.06 27.3925 37.1794 24.1882 37.3306C23.9507 37.3412 23.816 37.3531 23.7983 37.3649C23.4166 37.6201 23.4568 39.7598 23.8065 39.9914C23.8479 40.0186 23.9909 40.0422 24.2094 40.0611C26.1885 40.2336 34.5916 40.1108 35.2662 40.1131L35.2627 40.1143Z" stroke="#4BBA72" stroke-width="1.4" stroke-miterlimit="10"/>
<path d="M5.8604 47.8664L12.978 47.9325C13.0973 51.1628 13.017 53.8118 13.0146 57.1095C13.0146 58.8511 15.7026 58.9208 15.7026 57.0528V46.6151C15.7026 44.9846 14.9665 44.9432 11.2789 44.9432C10.388 44.9432 7.69887 44.9999 6.17114 44.9314C5.74933 44.9125 5.45749 44.7294 5.35588 44.5427C5.31098 44.46 5.2909 44.4387 5.23537 44.2438L3.21612 32.9672C2.97745 31.6131 0.244557 31.8506 0.557664 33.6288C0.750255 34.7218 0.933393 35.7544 1.12008 36.8284C1.65767 39.9241 2.51665 43.1308 2.84157 46.2819C2.95973 47.4292 3.0318 48.5694 3.0318 49.6954C3.0318 52.1565 3.02589 54.6177 3.02471 57.0776C3.02471 59.0886 5.5851 58.5711 5.77296 57.6885C6.01282 56.5613 5.79305 49.9967 5.8604 47.8675V47.8664Z" stroke="#4BBA72" stroke-width="1.4" stroke-miterlimit="10"/>
<path d="M42.5065 14.5707C40.3419 14.9145 38.4125 16.9538 38.8721 19.6678C39.2395 21.8371 41.3462 23.6933 44.0023 23.2266C46.1043 22.8568 47.9971 20.7867 47.5375 18.0928C47.1818 16.0157 45.1011 14.1583 42.5065 14.5719V14.5707Z" stroke="#4BBA72" stroke-width="1.4" stroke-miterlimit="10"/>
<path d="M45.3258 19.0641C44.9961 19.9514 43.5369 20.8742 43.1069 20.8033C42.737 20.7419 41.2034 19.8155 41.0439 18.8809C40.9269 18.1945 41.2755 17.7845 41.6926 17.5919C42.522 17.2091 42.9497 17.7644 43.2947 17.6911C43.5594 17.6356 43.5901 17.4654 44.0828 17.4584C45.0009 17.4454 45.6306 18.2417 45.3246 19.0641H45.3258Z" stroke="#4BBA72" stroke-width="1.4" stroke-miterlimit="10"/>
<path d="M10.3323 16.9409C4.7862 17.7986 6.31038 25.7504 11.5446 24.9044C16.7422 24.0643 15.3988 16.1575 10.3323 16.9409Z" stroke="#4BBA72" stroke-width="1.4" stroke-miterlimit="10"/>
<path d="M38.8663 33.2224C37.4567 33.2437 32.1552 33.1917 30.234 33.3453C29.8488 33.376 29.6857 33.4232 29.6609 33.4811C29.414 34.2586 29.5392 35.4378 30.065 35.4945C30.3415 35.524 30.6818 35.5098 31.0386 35.5063C33.6841 35.4874 37.3586 35.6162 39.7406 35.4874L44.0166 28.4998C44.2954 28.0224 45.3907 26.5762 45.1497 26.054C44.8945 25.5022 43.5133 25.6476 43.1056 26.0835C42.3613 26.8787 41.4822 28.7515 40.8997 29.6305L38.8675 33.2224H38.8663Z" stroke="#4BBA72" stroke-width="1.4" stroke-miterlimit="10"/>
<path d="M33.7056 12.5007C32.8856 12.5113 30.8888 12.3199 30.3441 12.7511C29.9105 13.095 29.3953 14.5731 31.3094 14.6085C36.7516 14.7089 35.7804 15.3517 35.8052 8.15614C35.8087 7.0195 35.882 5.5544 34.4322 5.96203C33.4504 6.23851 33.7044 7.75442 33.7056 8.85207C33.7056 10.0679 33.7032 11.2837 33.7056 12.5007Z" stroke="#4BBA72" stroke-width="1.4" stroke-miterlimit="10"/>
</svg>
