<svg width="38" height="38" viewBox="0 0 38 38" fill="none" xmlns="http://www.w3.org/2000/svg">
<path d="M11.4046 21.9733C10.4901 21.9583 10.7541 23.11 10.6884 23.751C10.6666 24.212 10.6902 24.8371 11.2939 24.8434C11.9297 24.8052 11.9092 24.2275 11.8759 23.751C11.7977 23.1222 12.2636 22.1323 11.4046 21.9733ZM24.234 11.8876C25.0214 11.9293 25.0463 10.7262 24.2774 10.7007C23.5899 10.7646 21.9213 10.3947 21.9732 11.4045C22.0063 11.7316 22.306 11.9681 22.6264 11.932C23.1207 11.8798 23.6913 11.8682 24.234 11.8876ZM15.083 31.8605C14.5496 31.2959 13.6884 32.0919 14.2145 32.67C22.9437 41.9151 38.4082 34.5227 36.6787 21.9116C36.2773 19.1158 34.9717 16.4954 32.9541 14.4886C32.8904 14.3684 32.767 14.311 32.6772 14.2154C32.18 13.7421 31.3987 14.3926 31.7805 14.9629C31.0606 16.7738 28.5747 16.8324 27.7681 15.0749C26.8763 12.8956 23.3769 12.7792 21.9425 14.4485C20.3714 16.1564 20.5439 18.7279 21.4114 20.5179C22.3342 22.429 23.9939 23.8653 25.3264 25.018C25.9303 25.5439 26.2188 26.4142 26.0979 27.3466C25.7012 30.6694 21.3063 30.0765 20.9353 27.1946C20.8437 25.6912 19.3512 24.7014 17.9932 24.5332C16.7517 24.38 15.6088 24.6952 14.4081 24.804C13.7793 24.8579 13.1995 24.8104 12.7327 24.6677C12.4201 24.5709 12.0873 24.7478 11.9911 25.0615C11.7017 26.9034 16.8058 25.4309 17.8474 25.7115C18.743 25.8222 19.6994 26.4345 19.7501 27.2689C19.8096 29.1557 21.8579 30.8589 23.7658 30.8116C27.0965 30.9013 28.5079 26.1675 26.1047 24.1215C24.8538 23.039 23.2967 21.6915 22.4803 20.0007C21.3292 17.8477 22.0111 14.0515 25.2021 14.5152C25.9039 14.6329 26.4429 15.0109 26.68 15.551C27.7548 18.0254 31.2944 18.244 32.6424 15.8895C33.9909 17.4177 34.9232 19.2697 35.353 21.2496C33.8869 21.2424 32.4899 22.3075 31.8817 23.5464C31.1591 25.0017 31.2 26.5966 30.8667 28.1097C30.5898 29.3447 29.8172 30.7456 28.4792 30.9734C26.5372 31.2363 25.0583 33.5993 25.7948 35.4374C21.9075 36.1634 17.7606 34.757 15.083 31.8605ZM28.6779 32.1442C30.5956 31.8177 31.6646 29.9802 32.0252 28.37C32.3534 26.9488 32.3156 25.3492 32.9466 24.0717C33.4023 23.1441 34.5245 22.3401 35.5507 22.4568C36.2418 28.2542 32.3747 33.6907 26.9751 35.1694C26.3703 33.9878 27.3916 32.3096 28.6779 32.1442ZM15.4385 8.31345C15.4385 6.02173 13.574 4.15727 11.2822 4.15727C8.99043 4.15727 7.12598 6.02173 7.12598 8.31352C7.33486 13.8198 15.2305 13.8182 15.4385 8.31345ZM14.251 8.31356C14.1113 12.2429 8.45231 12.2413 8.31348 8.31345C8.453 4.38439 14.112 4.3854 14.251 8.31356Z" fill="#2D2D2D"/>
<path d="M7.4324 20.6102C7.19507 21.8176 7.08693 23.0954 7.13854 24.3592C1.67781 24.5709 -0.856358 31.4475 3.1836 35.1535C5.47058 37.3528 9.37351 37.3499 11.6627 35.1528C15.4988 31.6177 13.4381 25.1381 8.33129 24.4187C8.27309 23.2677 8.3617 22.1056 8.56432 21.0025C16.0682 23.1472 23.1691 16.065 20.9937 8.56514C22.098 8.36212 23.2656 8.27319 24.4198 8.33161C25.0739 13.2384 31.2276 15.4022 34.819 11.9965C38.9481 8.20282 36.1962 1.16048 30.5789 1.18853C27.2373 1.18853 24.509 3.83348 24.3589 7.13878C23.0944 7.08722 21.8146 7.1951 20.6087 7.43175C16.3113 -2.63273 1.37202 0.196861 1.18828 11.2824C1.13613 15.3036 3.70454 19.1181 7.4324 20.6102ZM33.703 11.3858C31.9138 12.8367 29.1545 12.8195 27.392 11.3327C27.6261 10.3743 28.2818 9.57389 29.1792 9.15341C30.0191 9.66453 31.1396 9.66337 31.9807 9.15573C32.8744 9.57335 33.5291 10.3732 33.7653 11.3333C33.7443 11.3504 33.7243 11.3691 33.703 11.3858ZM30.579 2.37605C34.6255 2.31977 37.0815 7.11866 34.6852 10.3606C34.2063 9.241 33.2862 8.35044 32.1094 7.92561C31.9148 7.85487 31.6962 7.89169 31.5353 8.02157C30.9888 8.46225 30.173 8.46428 29.6286 8.02041C29.4665 7.88821 29.247 7.85081 29.051 7.92242C27.8709 8.35034 26.9495 9.24125 26.4716 10.3591C24.0774 7.11627 26.5328 2.31984 30.579 2.37605ZM10.5439 34.5445C8.75454 35.9929 5.99721 35.975 4.23571 34.489C4.46989 33.5306 5.12557 32.7302 6.02294 32.31C6.86196 32.8208 7.98277 32.8196 8.82469 32.3123C9.71804 32.7296 10.3728 33.5294 10.609 34.4896C10.5871 34.5075 10.5662 34.527 10.5439 34.5445ZM12.4695 30.5791C12.4695 31.6532 12.1398 32.6671 11.529 33.5168C11.0501 32.3972 10.1299 31.5067 8.95312 31.0819C8.75859 31.0111 8.54057 31.0476 8.37879 31.1781C7.83288 31.6188 7.01705 31.6205 6.47259 31.177C6.31082 31.0442 6.09077 31.0076 5.89479 31.0784C4.71461 31.5067 3.79344 32.3976 3.31547 33.5155C0.920896 30.2723 3.37675 25.4764 7.42276 25.5323C10.2056 25.5323 12.4695 27.7965 12.4695 30.5791ZM16.8839 18.2007C13.6688 20.8977 8.59171 20.8194 5.46481 18.0191C5.84691 16.1017 7.15242 14.501 8.95979 13.7364C10.325 14.6653 12.2414 14.6624 13.6089 13.7411C15.4085 14.4999 16.712 16.0988 17.0986 18.0197C17.0276 18.081 16.9565 18.1418 16.8839 18.2007ZM11.2822 2.37609C18.7933 2.3142 22.9832 11.3982 18.065 17.052C17.4062 14.96 15.8221 13.269 13.722 12.5109C13.5274 12.4402 13.3094 12.477 13.1479 12.6072C12.6136 13.0377 11.9685 13.2653 11.282 13.2653C10.608 13.2653 9.94841 13.0302 9.42482 12.6034C9.26275 12.4709 9.04328 12.4338 8.8473 12.5054C6.73997 13.2696 5.15397 14.9618 4.49807 17.0505C-0.418188 11.395 3.77133 2.3143 11.2822 2.37609Z" fill="#2D2D2D"/>
<path d="M30.5792 7.71977C33.3009 7.6332 33.3003 3.68677 30.5791 3.60063C27.8573 3.68717 27.8579 7.6336 30.5792 7.71977ZM30.5791 4.78813C31.7252 4.80846 31.725 6.51209 30.5791 6.53227C29.433 6.51194 29.4332 4.80828 30.5791 4.78813ZM5.36328 28.8165C5.44964 31.5383 9.39646 31.5376 9.48242 28.8164C9.39606 26.0946 5.44924 26.0952 5.36328 28.8165ZM8.29492 28.8165C8.27445 29.9625 6.57111 29.9623 6.55078 28.8164C6.5713 27.6704 8.27459 27.6706 8.29492 28.8165Z" fill="#2D2D2D"/>
</svg>
