<svg width="38" height="38" viewBox="0 0 38 38" fill="none" xmlns="http://www.w3.org/2000/svg">
<path d="M8.3125 24.3438H29.6875C29.845 24.3438 29.996 24.2812 30.1073 24.1699C30.2187 24.0585 30.2812 23.9075 30.2812 23.75C30.2812 23.5925 30.2187 23.4415 30.1073 23.3302C29.996 23.2188 29.845 23.1563 29.6875 23.1563H29.0938V9.50002C29.0938 9.34254 29.0312 9.19152 28.9198 9.08017C28.8085 8.96882 28.6575 8.90627 28.5 8.90627H23.75C23.5925 8.90627 23.4415 8.96882 23.3302 9.08017C23.2188 9.19152 23.1562 9.34254 23.1562 9.50002V23.1563H21.9688V14.25C21.9688 14.0925 21.9062 13.9415 21.7948 13.8302C21.6835 13.7188 21.5325 13.6563 21.375 13.6563H16.625C16.4675 13.6563 16.3165 13.7188 16.2052 13.8302C16.0938 13.9415 16.0312 14.0925 16.0312 14.25V23.1563H14.8438V11.875C14.8438 11.7175 14.7812 11.5665 14.6698 11.4552C14.5585 11.3438 14.4075 11.2813 14.25 11.2813H9.5C9.34253 11.2813 9.19151 11.3438 9.08016 11.4552C8.96881 11.5665 8.90625 11.7175 8.90625 11.875V23.1563H8.3125C8.15503 23.1563 8.00401 23.2188 7.89266 23.3302C7.78131 23.4415 7.71875 23.5925 7.71875 23.75C7.71875 23.9075 7.78131 24.0585 7.89266 24.1699C8.00401 24.2812 8.15503 24.3438 8.3125 24.3438ZM24.3438 10.0938H27.9062V23.1563H24.3438V10.0938ZM17.2188 14.8438H20.7812V23.1563H17.2188V14.8438ZM10.0938 12.4688H13.6562V23.1563H10.0938V12.4688Z" fill="#2D2D2D"/>
<path d="M11.8748 10.0938C11.9527 10.0947 12.0299 10.0794 12.1015 10.0487C12.1731 10.018 12.2375 9.97268 12.2905 9.91564L15.4373 6.78064L18.5842 9.91564C18.6952 10.0244 18.8444 10.0854 18.9998 10.0854C19.1553 10.0854 19.3045 10.0244 19.4155 9.91564L25.5311 3.81189V4.75002C25.5311 4.90749 25.5937 5.05851 25.705 5.16986C25.8164 5.28121 25.9674 5.34377 26.1248 5.34377C26.2823 5.34377 26.4333 5.28121 26.5447 5.16986C26.656 5.05851 26.7186 4.90749 26.7186 4.75002V2.37502C26.7186 2.21754 26.656 2.06652 26.5447 1.95517C26.4333 1.84382 26.2823 1.78127 26.1248 1.78127H23.7498C23.5924 1.78127 23.4414 1.84382 23.33 1.95517C23.2187 2.06652 23.1561 2.21754 23.1561 2.37502C23.1561 2.53249 23.2187 2.68351 23.33 2.79486C23.4414 2.90621 23.5924 2.96877 23.7498 2.96877H24.688L18.9998 8.65689L15.853 5.52189C15.7997 5.46509 15.7353 5.41982 15.6638 5.38887C15.5923 5.35793 15.5152 5.34196 15.4373 5.34196C15.3595 5.34196 15.2824 5.35793 15.2109 5.38887C15.1394 5.41982 15.075 5.46509 15.0217 5.52189L11.4592 9.08439C11.4024 9.1377 11.3572 9.20208 11.3262 9.27357C11.2953 9.34505 11.2793 9.42212 11.2793 9.50002C11.2793 9.57791 11.2953 9.65498 11.3262 9.72647C11.3572 9.79795 11.4024 9.86233 11.4592 9.91564C11.5122 9.97268 11.5766 10.018 11.6482 10.0487C11.7198 10.0794 11.797 10.0947 11.8748 10.0938Z" fill="#2D2D2D"/>
<path d="M33.25 8.90627H30.875C30.7175 8.90627 30.5665 8.96882 30.4552 9.08017C30.3438 9.19152 30.2812 9.34254 30.2812 9.50002C30.2812 9.65749 30.3438 9.80851 30.4552 9.91986C30.5665 10.0312 30.7175 10.0938 30.875 10.0938H32.6562V25.5313H5.34375V10.0938H7.125C7.28247 10.0938 7.43349 10.0312 7.54484 9.91986C7.65619 9.80851 7.71875 9.65749 7.71875 9.50002C7.71875 9.34254 7.65619 9.19152 7.54484 9.08017C7.43349 8.96882 7.28247 8.90627 7.125 8.90627H4.75C4.59253 8.90627 4.44151 8.96882 4.33016 9.08017C4.21881 9.19152 4.15625 9.34254 4.15625 9.50002V30.875C4.15625 31.0325 4.21881 31.1835 4.33016 31.2949C4.44151 31.4062 4.59253 31.4688 4.75 31.4688H13.49L12.5994 35.0313H11.875C11.7175 35.0313 11.5665 35.0938 11.4552 35.2052C11.3438 35.3165 11.2812 35.4675 11.2812 35.625C11.2812 35.7825 11.3438 35.9335 11.4552 36.0449C11.5665 36.1562 11.7175 36.2188 11.875 36.2188H16.625C16.7825 36.2188 16.9335 36.1562 17.0448 36.0449C17.1562 35.9335 17.2188 35.7825 17.2188 35.625C17.2188 35.4675 17.1562 35.3165 17.0448 35.2052C16.9335 35.0938 16.7825 35.0313 16.625 35.0313H13.8225L14.7131 31.4688H23.2869L24.1775 35.0313H21.375C21.2175 35.0313 21.0665 35.0938 20.9552 35.2052C20.8438 35.3165 20.7812 35.4675 20.7812 35.625C20.7812 35.7825 20.8438 35.9335 20.9552 36.0449C21.0665 36.1562 21.2175 36.2188 21.375 36.2188H26.125C26.2825 36.2188 26.4335 36.1562 26.5448 36.0449C26.6562 35.9335 26.7188 35.7825 26.7188 35.625C26.7188 35.4675 26.6562 35.3165 26.5448 35.2052C26.4335 35.0938 26.2825 35.0313 26.125 35.0313H25.4006L24.51 31.4688H33.25C33.4075 31.4688 33.5585 31.4062 33.6698 31.2949C33.7812 31.1835 33.8438 31.0325 33.8438 30.875V9.50002C33.8438 9.34254 33.7812 9.19152 33.6698 9.08017C33.5585 8.96882 33.4075 8.90627 33.25 8.90627ZM23.75 30.2813H5.34375V26.7188H32.6562V30.2813H23.75Z" fill="#2D2D2D"/>
<path d="M20.1875 27.9063H17.8125C17.655 27.9063 17.504 27.9688 17.3927 28.0802C17.2813 28.1915 17.2188 28.3425 17.2188 28.5C17.2188 28.6575 17.2813 28.8085 17.3927 28.9199C17.504 29.0312 17.655 29.0938 17.8125 29.0938H20.1875C20.345 29.0938 20.496 29.0312 20.6073 28.9199C20.7187 28.8085 20.7812 28.6575 20.7812 28.5C20.7812 28.3425 20.7187 28.1915 20.6073 28.0802C20.496 27.9688 20.345 27.9063 20.1875 27.9063Z" fill="#2D2D2D"/>
<path d="M19 36.2188C19.3279 36.2188 19.5938 35.9529 19.5938 35.625C19.5938 35.2971 19.3279 35.0313 19 35.0313C18.6721 35.0313 18.4062 35.2971 18.4062 35.625C18.4062 35.9529 18.6721 36.2188 19 36.2188Z" fill="#2D2D2D"/>
</svg>
