<svg width="38" height="39" viewBox="0 0 38 39" fill="none" xmlns="http://www.w3.org/2000/svg">
<g clip-path="url(#clip0_203_968)">
<path d="M29.6399 9.15082V4.68962C29.6399 3.19052 24.8747 0.456421 18.9999 0.456421C13.1232 0.456421 8.35986 3.19052 8.35986 4.68962V9.15082C8.35986 13.2187 15.7262 16.576 15.7262 19.4564C15.7262 22.333 8.35986 25.6903 8.35986 29.7582V34.2232C8.35986 35.7204 13.1232 38.4564 18.9999 38.4564C24.8747 38.4564 29.6399 35.7204 29.6399 34.2213V29.7563C29.6399 25.6884 22.2736 22.3311 22.2736 19.4545C22.2736 16.576 29.6399 13.2187 29.6399 9.15082ZM11.2878 4.87962C12.6102 4.04552 15.0878 2.82382 19.1044 2.82382C23.1191 2.82382 26.7158 4.87962 26.7158 4.87962C26.9856 5.04302 28.042 5.60732 27.3181 6.03672C25.7259 6.98102 22.6099 7.97472 18.9999 7.97472C15.3899 7.97472 12.3803 6.88032 10.7843 5.93412C10.0604 5.50662 11.2878 4.87962 11.2878 4.87962ZM19.9518 19.4564C19.9518 21.7231 21.8442 23.1823 23.8487 25.1298C25.3136 26.551 27.3181 28.4985 27.3181 29.7563V32.2795C25.4751 31.3618 19.9613 30.465 19.9613 27.5219C19.9613 26.0342 18.0366 26.0342 18.0366 27.5219C18.0366 30.465 12.5228 31.3618 10.6798 32.2795V29.7563C10.6798 28.4985 12.6862 26.5491 14.1492 25.1298C16.1537 23.1823 18.0461 21.7231 18.0461 19.4564C18.0461 17.1897 16.1537 15.7305 14.1492 13.783C12.6843 12.358 10.6798 10.4105 10.6798 9.15082L10.5924 7.25462C12.5418 8.30532 15.6312 9.30282 18.9999 9.30282C22.3667 9.30282 25.4713 8.30532 27.4226 7.25462L27.3181 9.15082C27.3181 10.4086 25.3117 12.358 23.8487 13.783C21.8461 15.7305 19.9518 17.1897 19.9518 19.4564Z" fill="white"/>
</g>
<defs>
<clipPath id="clip0_203_968">
<rect width="38" height="38" fill="white" transform="translate(0 0.456421)"/>
</clipPath>
</defs>
</svg>
