<svg width="50" height="50" viewBox="0 0 50 50" fill="none" xmlns="http://www.w3.org/2000/svg">
<path d="M36.9712 1.73603V1.73896C36.8149 1.74488 36.6646 1.80068 36.5423 1.8982C36.42 1.99573 36.3322 2.12985 36.2916 2.28092L36.1275 2.89465C35.9562 2.9093 35.7877 2.92981 35.6193 2.96057L35.3014 2.40982C35.2535 2.32622 35.1895 2.2529 35.1131 2.19408C35.0367 2.13527 34.9495 2.0921 34.8564 2.06706C34.7633 2.04202 34.6662 2.0356 34.5707 2.04817C34.4751 2.06074 34.383 2.09205 34.2995 2.14031L32.5741 3.1422C32.4906 3.19029 32.4174 3.25438 32.3587 3.33079C32.3001 3.40721 32.257 3.49445 32.2321 3.58752C32.2072 3.68059 32.2009 3.77766 32.2136 3.87316C32.2263 3.96867 32.2577 4.06073 32.306 4.14409L32.6239 4.69337C32.5125 4.82519 32.41 4.95995 32.3119 5.10203L31.6967 4.93652C31.5092 4.88638 31.3096 4.91267 31.1415 5.00961C30.9734 5.10655 30.8507 5.26622 30.8002 5.45357L30.2832 7.37972C30.2581 7.47263 30.2516 7.56956 30.2641 7.66498C30.2765 7.76039 30.3076 7.85242 30.3557 7.93581C30.4037 8.0192 30.4677 8.0923 30.5439 8.15095C30.6202 8.2096 30.7073 8.25264 30.8002 8.27761L31.4154 8.4402C31.4301 8.61304 31.4506 8.78295 31.4813 8.95286L30.9321 9.27071C30.7644 9.36833 30.6422 9.5285 30.5925 9.71608C30.5428 9.90365 30.5696 10.1033 30.6669 10.2711L31.663 11.9966C31.7109 12.08 31.7749 12.1532 31.8511 12.2119C31.9274 12.2705 32.0144 12.3136 32.1073 12.3387C32.2003 12.3637 32.2972 12.3702 32.3926 12.3577C32.488 12.3453 32.58 12.3142 32.6634 12.2661L33.2098 11.9483C33.3416 12.0596 33.4763 12.1636 33.6199 12.2632L33.4558 12.8755C33.4308 12.9685 33.4244 13.0655 33.4369 13.161C33.4494 13.2565 33.4807 13.3486 33.5289 13.432C33.577 13.5154 33.6412 13.5885 33.7176 13.647C33.794 13.7056 33.8813 13.7485 33.9744 13.7734L35.899 14.2875C36.0863 14.3372 36.2856 14.3107 36.4533 14.2138C36.621 14.1169 36.7435 13.9575 36.794 13.7704L36.9581 13.1552C37.1294 13.1406 37.2993 13.1172 37.4707 13.0864L37.7871 13.6357C37.884 13.8037 38.0436 13.9265 38.2308 13.977C38.4181 14.0276 38.6178 14.0017 38.7861 13.9052L40.5145 12.9092C40.5977 12.8608 40.6706 12.7966 40.729 12.72C40.7874 12.6435 40.8301 12.5562 40.8547 12.4632C40.8793 12.3701 40.8854 12.2731 40.8725 12.1777C40.8596 12.0824 40.828 11.9904 40.7796 11.9073L40.4647 11.358C40.5753 11.2269 40.6794 11.0905 40.7767 10.9493L41.3889 11.1148C41.4818 11.1399 41.5788 11.1464 41.6742 11.1339C41.7696 11.1215 41.8616 11.0904 41.945 11.0424C42.0284 10.9943 42.1015 10.9304 42.1602 10.8541C42.2188 10.7778 42.2618 10.6907 42.2868 10.5978L42.8024 8.67163C42.8274 8.57863 42.8339 8.4816 42.8213 8.38611C42.8088 8.29062 42.7776 8.19853 42.7294 8.11513C42.6812 8.03173 42.6171 7.95864 42.5406 7.90006C42.4642 7.84148 42.3769 7.79856 42.2839 7.77374L41.6687 7.61115C41.6553 7.43928 41.6333 7.26818 41.6028 7.09849L42.1521 6.78064C42.3197 6.68377 42.4422 6.52445 42.4927 6.33752C42.5432 6.15059 42.5176 5.95126 42.4216 5.78314L41.4255 4.05474C41.3776 3.97133 41.3136 3.89819 41.2374 3.83949C41.1612 3.7808 41.0741 3.73771 40.9812 3.71268C40.8883 3.68765 40.7913 3.68118 40.6959 3.69362C40.6005 3.70607 40.5085 3.7372 40.4251 3.78522L39.8758 4.10307C39.7444 3.99235 39.6075 3.88822 39.4657 3.79108L39.6327 3.17588C39.6819 2.98866 39.655 2.78957 39.5578 2.62214C39.4606 2.45471 39.3011 2.33256 39.1142 2.28239L37.1895 1.76093C37.1184 1.74171 37.0448 1.73332 36.9712 1.73603ZM37.5176 3.3663L38.0273 3.50399L37.9306 3.87311C37.8881 4.03284 37.9008 4.20228 37.9668 4.35387C38.0327 4.50546 38.148 4.63027 38.2939 4.70801C38.666 4.90576 39.0043 5.16648 39.2914 5.47554C39.4046 5.59746 39.5558 5.67723 39.7204 5.70173C39.8849 5.72622 40.0529 5.69398 40.1966 5.6103L40.5218 5.41988L40.7884 5.87835L40.4588 6.0673C40.3163 6.15051 40.2061 6.27938 40.146 6.43304C40.086 6.5867 40.0795 6.75615 40.1278 6.91393C40.2508 7.3182 40.3021 7.74005 40.2845 8.1619C40.2776 8.32842 40.3276 8.49233 40.4264 8.62655C40.5252 8.76077 40.6669 8.85728 40.8279 8.90013L41.197 8.99974L41.0594 9.50947L40.6932 9.41133C40.5327 9.36827 40.3623 9.38107 40.2101 9.44761C40.0578 9.51415 39.9327 9.63049 39.8553 9.77752C39.6591 10.151 39.4013 10.4894 39.0922 10.7765C38.9713 10.8894 38.8922 11.0398 38.8677 11.2034C38.8433 11.367 38.8749 11.534 38.9574 11.6773L39.1464 12.0069L38.6879 12.272L38.499 11.9439C38.4164 11.8006 38.2879 11.6895 38.1341 11.6286C37.9804 11.5677 37.8106 11.5606 37.6523 11.6085C37.2488 11.7318 36.8274 11.7862 36.4058 11.7696C36.24 11.7632 36.0769 11.8134 35.9433 11.9119C35.8098 12.0103 35.7136 12.1513 35.6705 12.3115L35.5695 12.685L35.0568 12.5474L35.1593 12.1782C35.2024 12.0178 35.1896 11.8474 35.1231 11.6952C35.0565 11.5429 34.9402 11.4178 34.7932 11.3404C34.4205 11.1434 34.0837 10.8849 33.7971 10.5758C33.6843 10.4534 33.5332 10.3731 33.3687 10.3481C33.2041 10.323 33.036 10.3548 32.8919 10.4381L32.5638 10.6285L32.3001 10.1701L32.6268 9.97965C32.7695 9.89696 32.8801 9.76852 32.9407 9.61513C33.0013 9.46175 33.0084 9.29239 32.9607 9.13449C32.8372 8.73053 32.7828 8.30861 32.7996 7.88652C32.8068 7.72058 32.7574 7.55713 32.6594 7.42299C32.5615 7.28885 32.4208 7.19198 32.2606 7.14829L31.8885 7.04869L32.0248 6.53895L32.3939 6.63416C32.5533 6.67697 32.7225 6.66468 32.874 6.59927C33.0256 6.53387 33.1506 6.41919 33.2288 6.27383C33.4267 5.89921 33.6861 5.56052 33.9963 5.27194C34.1172 5.15906 34.1963 5.0086 34.2208 4.84503C34.2452 4.68146 34.2136 4.51443 34.1311 4.37112L33.9421 4.03862L34.3962 3.77936L34.5866 4.10161C34.6693 4.24549 34.7984 4.35704 34.9527 4.41798C35.1071 4.47892 35.2775 4.48564 35.4362 4.43704C35.839 4.314 36.2579 4.26127 36.6812 4.27884C36.8473 4.28552 37.0107 4.2355 37.1446 4.13701C37.2785 4.03852 37.3749 3.89742 37.418 3.73688L37.5176 3.3663ZM36.6768 5.77289C36.1588 5.74461 35.6468 5.89481 35.2262 6.19842C34.8055 6.50203 34.5017 6.9407 34.3654 7.44124C34.2138 8.01878 34.2961 8.63282 34.5945 9.15003C34.8929 9.66725 35.3832 10.0459 35.9591 10.2038C36.5372 10.3553 37.1518 10.2726 37.6693 9.9737C38.1868 9.67476 38.5655 9.1837 38.7231 8.60718C38.8076 8.28398 38.8195 7.94609 38.7581 7.61772C38.6967 7.28934 38.5635 6.97861 38.368 6.70775C38.1724 6.4369 37.9194 6.21264 37.627 6.05102C37.3347 5.8894 37.0102 5.79442 36.6768 5.77289ZM36.4337 7.24057C36.5631 7.22321 36.6947 7.23802 36.817 7.28369C36.9393 7.32936 37.0484 7.40447 37.1347 7.50239C37.2211 7.6003 37.2819 7.71799 37.3119 7.84504C37.3419 7.97208 37.3401 8.10456 37.3067 8.23074C37.2693 8.36864 37.1953 8.49385 37.0925 8.59306C36.9897 8.69228 36.8619 8.76179 36.7228 8.79423C36.5836 8.82666 36.4383 8.8208 36.3022 8.77727C36.1662 8.73374 36.0444 8.65417 35.9499 8.547C35.8554 8.43983 35.7917 8.30907 35.7656 8.16861C35.7395 8.02815 35.7519 7.88323 35.8015 7.74925C35.8511 7.61527 35.9361 7.49723 36.0474 7.40766C36.1587 7.3181 36.2922 7.26036 36.4337 7.24057ZM25.6941 9.59882C24.9549 9.59195 24.2164 9.64337 23.4853 9.75262V9.75555C22.0343 9.976 20.6373 10.4658 19.3664 11.1998H19.3605C17.4378 12.2074 15.776 13.6486 14.5064 15.4094C13.2368 17.1701 12.3943 19.2021 12.0456 21.3447L7.0449 31.2859C6.98827 31.3977 6.96126 31.5221 6.96645 31.6473C6.97164 31.7725 7.00886 31.8942 7.07455 32.0009C7.14024 32.1076 7.23221 32.1957 7.34165 32.2567C7.45109 32.3177 7.57435 32.3496 7.69965 32.3493H9.61701V39.219C9.61701 39.4133 9.69417 39.5995 9.83152 39.7369C9.96886 39.8742 10.1551 39.9514 10.3494 39.9514H15.7616L16.6288 47.9445C16.6376 48.0414 16.6656 48.1355 16.7112 48.2214C16.7568 48.3073 16.819 48.3833 16.8943 48.4448C16.9696 48.5064 17.0563 48.5524 17.1495 48.5801C17.2428 48.6078 17.3406 48.6166 17.4372 48.6061C17.5339 48.5956 17.6275 48.566 17.7126 48.5189C17.7977 48.4719 17.8726 48.4083 17.9329 48.332C17.9931 48.2557 18.0376 48.1681 18.0637 48.0744C18.0898 47.9808 18.0969 47.8828 18.0847 47.7863L17.1473 39.1385C17.1274 38.9588 17.0417 38.7928 16.9068 38.6724C16.7719 38.5521 16.5972 38.4859 16.4164 38.4866H11.0832V31.617C11.0832 31.4227 11.0061 31.2364 10.8687 31.0991C10.7314 30.9617 10.5451 30.8846 10.3508 30.8846H8.89196L13.3741 21.9686C13.4083 21.9 13.4316 21.8263 13.4429 21.7504C13.7359 19.7932 14.4885 17.9333 15.6391 16.3232C16.7897 14.7131 18.3054 13.3985 20.0621 12.4873C20.0721 12.4807 20.0818 12.4739 20.0914 12.4668C22.3955 11.1353 24.8929 10.8146 27.7902 11.2174C28.1622 11.2745 28.5313 11.3448 28.8917 11.4312C28.9874 11.4611 29.0882 11.471 29.1878 11.4604C29.2875 11.4497 29.3839 11.4187 29.4711 11.3693C29.5583 11.3198 29.6345 11.253 29.6948 11.173C29.7552 11.0929 29.7984 11.0013 29.8219 10.9039C29.8454 10.8064 29.8487 10.7052 29.8315 10.6064C29.8143 10.5077 29.777 10.4135 29.7219 10.3298C29.6668 10.246 29.5951 10.1744 29.5113 10.1195C29.4274 10.0646 29.3332 10.0274 29.2344 10.0104C28.8262 9.91067 28.4137 9.82905 27.9982 9.7658C27.9952 9.76578 27.9923 9.76578 27.9894 9.7658C27.2284 9.65904 26.4611 9.60277 25.6927 9.59735L25.6941 9.59882ZM25.637 12.8476C25.4428 12.8476 25.2565 12.9248 25.1191 13.0621C24.9818 13.1995 24.9046 13.3858 24.9046 13.58V14.4955C24.6219 14.5892 24.348 14.7005 24.0814 14.8324L23.4369 14.1893C23.2996 14.0521 23.1133 13.9749 22.9191 13.9749C22.7249 13.9749 22.5387 14.0521 22.4014 14.1893L20.6393 15.9514C20.502 16.0888 20.4248 16.275 20.4248 16.4692C20.4248 16.6634 20.502 16.8497 20.6393 16.987L21.2852 17.6344C21.1534 17.8996 21.0391 18.172 20.9454 18.4547H20.0299C19.8357 18.4547 19.6494 18.5319 19.5121 18.6692C19.3747 18.8066 19.2975 18.9928 19.2975 19.1871V21.6816C19.2975 21.8758 19.3747 22.0621 19.5121 22.1994C19.6494 22.3368 19.8357 22.4139 20.0299 22.4139H20.9454C21.0391 22.6966 21.1505 22.9705 21.2823 23.2386L20.6393 23.8831C20.5024 24.0204 20.4256 24.2063 20.4256 24.4001C20.4256 24.594 20.5024 24.7799 20.6393 24.9172L22.4014 26.6793C22.5387 26.8166 22.7249 26.8937 22.9191 26.8937C23.1133 26.8937 23.2996 26.8166 23.4369 26.6793L24.0814 26.0333C24.348 26.1652 24.6219 26.2823 24.9046 26.3761V27.2886C24.9046 27.4829 24.9818 27.6691 25.1191 27.8065C25.2565 27.9438 25.4428 28.021 25.637 28.021H28.1271C28.3213 28.021 28.5076 27.9438 28.6449 27.8065C28.7823 27.6691 28.8594 27.4829 28.8594 27.2886V26.3731C29.1421 26.2794 29.416 26.1681 29.6826 26.0363L30.3271 26.6807C30.4644 26.8176 30.6503 26.8944 30.8442 26.8944C31.038 26.8944 31.224 26.8176 31.3612 26.6807L33.1233 24.9172C33.2606 24.7798 33.3378 24.5936 33.3378 24.3994C33.3378 24.2052 33.2606 24.0189 33.1233 23.8816L32.4774 23.2357C32.6098 22.9706 32.7234 22.6965 32.8172 22.4154H33.7327C33.9269 22.4154 34.1132 22.3382 34.2505 22.2009C34.3879 22.0635 34.465 21.8773 34.465 21.683V19.1871C34.465 18.9928 34.3879 18.8066 34.2505 18.6692C34.1132 18.5319 33.9269 18.4547 33.7327 18.4547H32.8172C32.7244 18.1727 32.6118 17.8976 32.4803 17.6315L33.1248 16.987C33.2621 16.8497 33.3392 16.6634 33.3392 16.4692C33.3392 16.275 33.2621 16.0888 33.1248 15.9514L31.3612 14.1893C31.2239 14.0521 31.0377 13.9749 30.8435 13.9749C30.6493 13.9749 30.463 14.0521 30.3257 14.1893L29.6812 14.8353C29.4152 14.7018 29.1401 14.5873 28.858 14.4926V13.58C28.858 13.3858 28.7808 13.1995 28.6435 13.0621C28.5061 12.9248 28.3198 12.8476 28.1256 12.8476H25.637ZM26.3694 14.3124H27.3947V14.973C27.3951 15.1384 27.4515 15.2988 27.5547 15.428C27.6579 15.5573 27.8018 15.6478 27.963 15.6849C28.4977 15.8064 29.0089 16.0174 29.4732 16.3088C29.6134 16.3976 29.7797 16.4361 29.9447 16.418C30.1097 16.3999 30.2636 16.3263 30.3813 16.2092L30.8442 15.742L31.5707 16.47L31.1064 16.9328C30.9899 17.0499 30.9164 17.2028 30.8978 17.3669C30.8792 17.5309 30.9166 17.6964 31.0038 17.8366C31.2939 18.3024 31.5048 18.815 31.6249 19.3497C31.6614 19.5114 31.7516 19.656 31.881 19.7598C32.0103 19.8635 32.171 19.9203 32.3368 19.9209H33.0003V20.9492H32.3412C32.1753 20.9494 32.0144 21.0058 31.8848 21.1093C31.7553 21.2128 31.6646 21.3573 31.6278 21.519C31.5052 22.0535 31.2933 22.5636 31.0009 23.0277C30.9133 23.1679 30.8757 23.3338 30.8943 23.4981C30.9129 23.6625 30.9866 23.8157 31.1034 23.9329L31.5707 24.4001L30.8442 25.1266L30.3828 24.6623C30.2656 24.5452 30.1121 24.4712 29.9474 24.4526C29.7827 24.434 29.6165 24.4718 29.4761 24.5598C29.0112 24.8502 28.5007 25.0602 27.9659 25.1808C27.8037 25.2174 27.6588 25.3081 27.555 25.438C27.4511 25.568 27.3946 25.7293 27.3947 25.8956V26.5562H26.3694V25.8971C26.3692 25.7313 26.3127 25.5704 26.2092 25.4408C26.1057 25.3112 25.9613 25.2206 25.7996 25.1838C25.2652 25.062 24.7552 24.851 24.2909 24.5598C24.1506 24.471 23.9844 24.4325 23.8194 24.4506C23.6544 24.4687 23.5004 24.5423 23.3827 24.6594L22.9199 25.1266L22.1934 24.4001L22.6562 23.9358C22.7727 23.8188 22.8462 23.6658 22.8648 23.5018C22.8834 23.3377 22.846 23.1722 22.7588 23.0321C22.4684 22.5671 22.2584 22.0566 22.1377 21.5219C22.1012 21.3602 22.011 21.2156 21.8816 21.1118C21.7523 21.008 21.5916 20.9512 21.4258 20.9506H20.7623V19.9195H21.4229C21.5885 19.919 21.749 19.8623 21.8783 19.7589C22.0076 19.6554 22.098 19.5111 22.1348 19.3497C22.2578 18.815 22.4717 18.3068 22.7617 17.8424C22.8497 17.702 22.8875 17.5359 22.8689 17.3712C22.8502 17.2065 22.7763 17.053 22.6592 16.9358L22.1934 16.47L22.9199 15.7435L23.3798 16.2063C23.4971 16.3238 23.6509 16.398 23.8159 16.4166C23.9809 16.4352 24.1474 16.3972 24.288 16.3088C24.7524 16.0186 25.2624 15.8086 25.7966 15.6878C25.9591 15.6515 26.1044 15.5609 26.2085 15.431C26.3126 15.301 26.3694 15.1395 26.3694 14.973V14.3124ZM36.605 15.0389C36.4722 15.0454 36.3436 15.088 36.2331 15.1622C36.1226 15.2363 36.0343 15.3391 35.9779 15.4596C35.9214 15.58 35.8988 15.7136 35.9125 15.8459C35.9263 15.9783 35.9758 16.1044 36.0558 16.2107C38.0042 18.8608 38.828 22.1728 38.3481 25.4269L32.3133 38.6185C32.2612 38.7341 32.24 38.8613 32.2518 38.9876L33.0208 47.9079C33.0268 48.0054 33.0523 48.1007 33.0957 48.1882C33.1392 48.2757 33.1996 48.3536 33.2736 48.4174C33.3476 48.4811 33.4336 48.5295 33.5265 48.5595C33.6195 48.5895 33.7175 48.6007 33.8148 48.5923C33.9121 48.5839 34.0067 48.5561 34.0931 48.5106C34.1796 48.4651 34.256 48.4027 34.318 48.3272C34.3799 48.2517 34.4261 48.1646 34.4539 48.0709C34.4817 47.9773 34.4905 47.879 34.4797 47.782L33.7283 39.052L39.7235 25.9381C39.7526 25.8758 39.7729 25.8098 39.7836 25.7418L39.8422 25.3024C40.2739 21.7718 39.3425 18.2095 37.2378 15.3421C37.1662 15.2426 37.0707 15.1628 36.9601 15.1098C36.8496 15.0568 36.7275 15.0324 36.605 15.0389ZM26.7209 17.8029C26.3314 17.8287 25.9523 17.9403 25.611 18.1297C25.2696 18.3192 24.9743 18.5817 24.7463 18.8986C24.5183 19.2155 24.3632 19.5789 24.292 19.9628C24.2209 20.3467 24.2355 20.7415 24.3348 21.1191C24.5187 21.7923 24.9612 22.3656 25.5659 22.714C26.1706 23.0624 26.8885 23.1578 27.5631 22.9793C28.2363 22.796 28.8098 22.3543 29.159 21.7503C29.5082 21.1462 29.6048 20.4288 29.4278 19.7539C29.2676 19.1683 28.9116 18.6552 28.419 18.3002C27.9265 17.9452 27.3272 17.7697 26.7209 17.8029ZM27.0432 19.2706C27.3098 19.3102 27.5547 19.4401 27.737 19.6387C27.9192 19.8372 28.0277 20.0924 28.0444 20.3614C28.061 20.6304 27.9848 20.897 27.8284 21.1165C27.672 21.336 27.4449 21.4952 27.1852 21.5673C26.8847 21.6477 26.5646 21.6055 26.2953 21.4499C26.0259 21.2942 25.8295 21.038 25.749 20.7375C25.6686 20.437 25.7109 20.1169 25.8665 19.8476C26.0221 19.5782 26.2783 19.3817 26.5788 19.3013C26.7295 19.2601 26.8884 19.2496 27.0432 19.2706Z" fill="#4BBA72"/>
</svg>
