<svg width="38" height="38" viewBox="0 0 38 38" fill="none" xmlns="http://www.w3.org/2000/svg">
<path d="M22.4653 27.5015H14.1803C13.5 27.5015 12.9423 26.9935 12.8831 26.3198C12.7888 25.2521 12.5936 24.1934 12.3029 23.174C12.2399 22.9525 12.3684 22.7214 12.5898 22.6585C12.8105 22.5946 13.042 22.7235 13.1054 22.945C13.4103 24.0153 13.6151 25.1261 13.7139 26.2464C13.7348 26.4821 13.9396 26.6673 14.1803 26.6673H22.4653C22.7081 26.6673 22.9087 26.4854 22.9321 26.2448C23.2007 23.4447 24.1967 20.61 25.813 18.0473C26.7015 16.6392 27.1712 15.0099 27.1712 13.3365C27.1712 10.8639 26.1772 8.57018 24.3728 6.87838C22.5696 5.18742 20.2083 4.34319 17.7332 4.50419C15.6506 4.63809 13.6681 5.52486 12.1502 7.00143C11.985 7.1616 11.7214 7.15826 11.5604 6.99309C11.3998 6.82791 11.4036 6.56388 11.5688 6.40329C13.2284 4.78825 15.3987 3.81805 17.6798 3.67123C20.3919 3.50021 22.9704 4.41952 24.9438 6.2694C26.8896 8.09384 28.0058 10.6699 28.0058 13.3361C28.0058 15.1676 27.4919 16.9503 26.5192 18.4924C24.9721 20.9454 24.0191 23.6537 23.763 26.3244C23.6979 26.9956 23.1402 27.5015 22.4653 27.5015Z" fill="#2D2D2D"/>
<path d="M22.2862 30.9039H14.3536C14.1234 30.9039 13.9365 30.7174 13.9365 30.4868V27.0844C13.9365 26.8537 14.1234 26.6673 14.3536 26.6673H22.2862C22.5169 26.6673 22.7033 26.8537 22.7033 27.0844V30.4868C22.7033 30.7174 22.5165 30.9039 22.2862 30.9039ZM14.7707 30.0697H21.8691V27.5015H14.7707V30.0697Z" fill="#2D2D2D"/>
<path d="M20.458 34.3063H16.1818C14.9438 34.3063 13.9365 33.2989 13.9365 32.061V30.4868C13.9365 30.2561 14.1234 30.0697 14.3536 30.0697H22.2862C22.5169 30.0697 22.7033 30.2561 22.7033 30.4868V32.061C22.7033 33.2989 21.696 34.3063 20.458 34.3063ZM14.7707 30.9039V32.061C14.7707 32.8389 15.4039 33.472 16.1818 33.472H20.458C21.2359 33.472 21.8691 32.8389 21.8691 32.061V30.9039H14.7707Z" fill="#2D2D2D"/>
<path d="M31.6784 22.9735C31.4918 22.9735 31.3101 22.9362 31.1348 22.8648C30.786 22.7204 30.5118 22.4478 30.3673 22.0973C30.27 21.862 30.072 21.8263 29.9617 21.8263C29.8514 21.8263 29.6534 21.862 29.5561 22.0973C29.2559 22.8193 28.4235 23.1617 27.7047 22.8631L26.1292 22.2109C25.9167 22.1233 25.8161 21.8783 25.9037 21.6657C25.9913 21.4531 26.2363 21.3525 26.4489 21.4402L28.0228 22.0924C28.3197 22.2157 28.662 22.073 28.7854 21.776C29.0255 21.1968 29.5496 20.9891 29.9617 20.9891C30.3722 20.9891 30.8979 21.1952 31.1381 21.776C31.1981 21.9204 31.3101 22.0324 31.4545 22.0924C31.5989 22.1525 31.7579 22.1525 31.9023 22.0924L33.4762 21.4402C33.7731 21.3169 33.9159 20.9745 33.7926 20.6776C33.5524 20.0983 33.778 19.5807 34.0684 19.2903C34.3588 18.9998 34.8764 18.7743 35.4557 19.0144C35.6001 19.0745 35.7591 19.0745 35.9035 19.0144C36.0479 18.9544 36.1599 18.8425 36.2199 18.698L36.8722 17.1242C36.9322 16.9814 36.9322 16.8224 36.8722 16.678C36.8121 16.5336 36.7002 16.4216 36.5574 16.3616C35.9781 16.1214 35.7705 15.5973 35.7705 15.1852C35.7705 14.7731 35.9765 14.249 36.5558 14.0089C36.7002 13.9488 36.8121 13.8369 36.8722 13.6925C36.9322 13.5497 36.9322 13.3907 36.8722 13.2463L36.2199 11.6724C36.1599 11.528 36.0479 11.416 35.9035 11.356C35.7607 11.2976 35.6017 11.2959 35.4573 11.356C34.8764 11.5977 34.3588 11.3706 34.0684 11.0785C33.778 10.7897 33.5524 10.2721 33.7926 9.69286C33.8526 9.54846 33.8526 9.38945 33.7926 9.24504C33.7325 9.10063 33.6206 8.98868 33.4762 8.93026L31.9023 8.278C31.7579 8.21796 31.5989 8.21796 31.4561 8.278C31.3117 8.33803 31.1997 8.44999 31.1397 8.59439C30.8995 9.17365 30.3755 9.37971 29.9633 9.37971C29.5528 9.37971 29.0271 9.17365 28.787 8.59439C28.6637 8.29747 28.3213 8.15468 28.0244 8.278C27.8134 8.36561 27.5684 8.26502 27.4792 8.05246C27.39 7.84153 27.4922 7.59815 27.7047 7.51053C28.4284 7.21035 29.2575 7.55596 29.5577 8.278C29.655 8.51327 29.8546 8.54896 29.9633 8.54896C30.072 8.54896 30.2716 8.51327 30.369 8.278C30.5134 7.92752 30.786 7.65493 31.1364 7.51053C31.4853 7.36612 31.8715 7.36612 32.2219 7.51053L33.7958 8.16279C34.1463 8.3072 34.4189 8.57979 34.5633 8.93026C34.7077 9.28074 34.7077 9.66528 34.5633 10.0158C34.4659 10.251 34.5811 10.4165 34.6574 10.4944C34.7353 10.5723 34.8991 10.6875 35.136 10.5901C35.4849 10.4457 35.8711 10.4457 36.2215 10.5901C36.572 10.7362 36.8446 11.0088 36.989 11.3576L37.6413 12.9315C37.7857 13.282 37.7857 13.6665 37.6413 14.017C37.4952 14.3674 37.2226 14.64 36.8738 14.7844C36.6385 14.8818 36.6028 15.0797 36.6028 15.1901C36.6028 15.3004 36.6385 15.4984 36.8738 15.5957C37.5958 15.8959 37.9398 16.7266 37.6413 17.4487L36.989 19.0226C36.8446 19.373 36.572 19.6456 36.2215 19.79C35.8727 19.9344 35.4865 19.9344 35.136 19.79C34.8991 19.6943 34.7353 19.8079 34.6574 19.8858C34.5795 19.9636 34.4643 20.1275 34.5633 20.3644C34.8618 21.0864 34.5178 21.9172 33.7958 22.2174L32.2219 22.8696C32.0467 22.9362 31.8633 22.9735 31.6784 22.9735ZM29.9633 18.367C29.535 18.367 29.1196 18.2827 28.7253 18.1172C28.5128 18.0279 28.4138 17.7829 28.503 17.5704C28.5923 17.3578 28.8389 17.2588 29.0498 17.3481C29.3386 17.4698 29.6469 17.5331 29.9617 17.5331C31.2549 17.5331 32.3079 16.48 32.3079 15.1868C32.3079 13.8937 31.2549 12.8406 29.9617 12.8406C29.7313 12.8406 29.5447 12.654 29.5447 12.4236C29.5447 12.1932 29.7313 12.0066 29.9617 12.0066C31.7157 12.0066 33.1419 13.4329 33.1419 15.1868C33.1419 16.9408 31.7157 18.367 29.9633 18.367Z" fill="#2D2D2D"/>
<path d="M9.71071 22.9735C9.52412 22.9735 9.34077 22.9362 9.16716 22.8648C8.81831 22.7204 8.54572 22.4478 8.39969 22.0973C8.30233 21.862 8.10276 21.8263 7.99405 21.8263C7.88371 21.8263 7.68576 21.862 7.58841 22.0973C7.28824 22.8193 6.45749 23.1633 5.73707 22.8631L4.1632 22.2109C3.44116 21.9107 3.09718 21.08 3.39573 20.3579C3.49308 20.1226 3.37788 19.9571 3.3 19.8793C3.22211 19.8014 3.05661 19.6862 2.82134 19.7852C2.09768 20.0821 1.26856 19.7381 0.968383 19.0177L0.316116 17.4438C0.017566 16.7218 0.361548 15.891 1.08358 15.5909C1.31886 15.4935 1.35455 15.2955 1.35455 15.1852C1.35455 15.0749 1.31886 14.8769 1.08358 14.7796C0.734735 14.6368 0.462146 14.3642 0.317739 14.0137C0.173331 13.6633 0.173331 13.2787 0.317739 12.9282L0.970006 11.3544C1.27018 10.6323 2.10093 10.2883 2.82296 10.5869C3.05823 10.6859 3.22374 10.569 3.30162 10.4912C3.3795 10.4133 3.4947 10.2478 3.39735 10.0125C3.25294 9.66203 3.25294 9.27749 3.39735 8.92702C3.54176 8.57655 3.81435 8.30396 4.16482 8.15955L5.73707 7.51053C6.45911 7.21198 7.28986 7.55596 7.59003 8.27799C7.68739 8.51327 7.88534 8.54896 7.99567 8.54896C8.106 8.54896 8.30396 8.51327 8.40131 8.27799C8.54572 7.92752 8.81831 7.65493 9.16878 7.51053C9.51763 7.3645 9.9038 7.36612 10.2543 7.51053L11.8281 8.16279C12.177 8.30558 12.4496 8.57817 12.594 8.92864C12.7384 9.27911 12.7384 9.66366 12.594 10.0141C12.4966 10.2494 12.6118 10.4149 12.6897 10.4912C12.7676 10.5707 12.9315 10.6859 13.1684 10.5869C13.5189 10.4425 13.9034 10.4425 14.2539 10.5869C14.6027 10.7329 14.8769 11.0055 15.0213 11.356L15.6736 12.9299C15.818 13.2803 15.818 13.6649 15.6736 14.0153C15.5276 14.3642 15.255 14.6368 14.9045 14.7812C14.6692 14.8785 14.6335 15.0781 14.6335 15.1868C14.6335 15.2955 14.6692 15.4951 14.9045 15.5925C15.6265 15.8926 15.9705 16.7234 15.672 17.4454L15.0197 19.0193C14.8753 19.3698 14.6027 19.6424 14.2522 19.7868C13.9018 19.9312 13.5172 19.9312 13.1668 19.7868C12.9299 19.6894 12.766 19.8046 12.6881 19.8825C12.6102 19.9604 12.495 20.1259 12.5924 20.3612C12.7368 20.71 12.7368 21.0962 12.5924 21.4467C12.448 21.7971 12.1754 22.0697 11.8249 22.2141L10.251 22.8664C10.079 22.9362 9.89568 22.9735 9.71071 22.9735ZM7.99567 20.9923C8.40618 20.9923 8.93189 21.1984 9.17202 21.7793C9.23206 21.9237 9.34401 22.0356 9.48842 22.0957C9.63283 22.1557 9.79022 22.1557 9.93625 22.0957L11.5085 21.4434C11.6529 21.3834 11.7649 21.2714 11.8249 21.127C11.8849 20.9826 11.8849 20.8236 11.8249 20.6808C11.5848 20.1016 11.8103 19.584 12.1007 19.2935C12.3912 19.0031 12.9088 18.7776 13.488 19.0177C13.6324 19.0777 13.7914 19.0777 13.9358 19.0177C14.0803 18.9577 14.1922 18.8457 14.2522 18.7013L14.9045 17.1274C15.0278 16.8305 14.8867 16.4881 14.5881 16.3648C14.0089 16.1247 13.8012 15.599 13.8012 15.1885C13.8012 14.778 14.0072 14.2522 14.5865 14.0121C14.7293 13.9504 14.8412 13.8385 14.9013 13.6941C14.9613 13.5497 14.9613 13.3907 14.9013 13.2463L14.249 11.6724C14.1906 11.5296 14.0786 11.4176 13.9342 11.3576C13.7898 11.2976 13.6308 11.2976 13.488 11.3576C12.9071 11.5994 12.3896 11.3722 12.0991 11.0818C11.8087 10.7913 11.5831 10.2754 11.8233 9.69449C11.8833 9.55008 11.8833 9.39107 11.8233 9.24828C11.7649 9.10388 11.6513 8.99192 11.5085 8.93188L9.93462 8.27962C9.79022 8.21958 9.63121 8.21958 9.48842 8.27962C9.34239 8.33965 9.23044 8.45161 9.17202 8.59602C8.93189 9.17527 8.40618 9.38133 7.99567 9.38133C7.58516 9.38133 7.05946 9.17527 6.81932 8.59602C6.696 8.29909 6.35364 8.1563 6.05672 8.27962L4.48284 8.93188C4.33843 8.99192 4.22647 9.10388 4.16644 9.24828C4.10641 9.39269 4.10641 9.55008 4.16644 9.69449C4.40658 10.2737 4.18104 10.7913 3.89061 11.0818C3.60017 11.3738 3.08257 11.5977 2.50332 11.3576C2.20639 11.2359 1.86403 11.3771 1.74072 11.674L1.08845 13.2479C1.02842 13.3923 1.02842 13.5513 1.08845 13.6941C1.14849 13.8385 1.26044 13.9504 1.40485 14.0105C1.9841 14.2506 2.19017 14.7763 2.19017 15.1868C2.19017 15.5973 1.9841 16.1231 1.40485 16.3632C1.10792 16.4865 0.966761 16.8289 1.08845 17.1258L1.74072 18.6997C1.86403 18.9966 2.20639 19.1394 2.50494 19.0161C3.08257 18.7759 3.60017 19.0015 3.89223 19.2919C4.18267 19.5823 4.4082 20.0999 4.16806 20.6792C4.04475 20.9761 4.18591 21.3185 4.48446 21.4418L6.05834 22.0941C6.35689 22.2174 6.69763 22.0762 6.82094 21.7777C7.05946 21.1984 7.58354 20.9923 7.99567 20.9923ZM7.99567 18.367C6.24169 18.367 4.81546 16.9408 4.81546 15.1868C4.81546 13.4329 6.24169 12.0066 7.99567 12.0066C9.74965 12.0066 11.1759 13.4329 11.1759 15.1868C11.1759 16.9408 9.74965 18.367 7.99567 18.367ZM7.99567 12.8406C6.70249 12.8406 5.64946 13.8937 5.64946 15.1868C5.64946 16.48 6.70249 17.5331 7.99567 17.5331C9.28885 17.5331 10.3419 16.48 10.3419 15.1868C10.3419 13.8937 9.28885 12.8406 7.99567 12.8406Z" fill="#2D2D2D"/>
<path d="M23.953 13.7536C23.7223 13.7536 23.5359 13.5667 23.5359 13.3365C23.5359 11.8166 22.9248 10.4063 21.8157 9.36645C20.707 8.32702 19.2563 7.80897 17.7339 7.90699C17.5045 7.92534 17.3055 7.74765 17.2909 7.51741C17.2763 7.28758 17.4506 7.08904 17.6805 7.07444C19.4365 6.96098 21.1083 7.55954 22.3871 8.75831C23.6476 9.9404 24.3709 11.6093 24.3709 13.3369C24.3701 13.5672 24.1832 13.7536 23.953 13.7536Z" fill="#2D2D2D"/>
</svg>
