<svg width="51" height="50" viewBox="0 0 51 50" fill="none" xmlns="http://www.w3.org/2000/svg">
<g clip-path="url(#clip0_202_948)">
<path d="M12.9335 35.815C13.0563 34.0584 13.1805 32.3004 13.3007 30.5911C13.2292 30.529 13.217 30.5087 13.2035 30.5074C12.3412 30.4129 11.91 29.9232 11.91 29.0384C11.91 28.4322 11.9033 27.8259 11.9127 27.2197C11.9222 26.6094 12.1706 26.3394 12.762 26.334C14.2782 26.3218 15.7932 26.3232 17.3094 26.334C17.8967 26.338 18.1654 26.6162 18.1789 27.2143C18.1938 27.888 18.183 28.5618 18.183 29.2355C18.183 30.2536 18.0912 30.367 17.0826 30.5479C17.2081 32.2788 17.3324 34.0165 17.4579 35.7556C17.4957 35.7745 17.5335 35.7934 17.5713 35.8123C18.0412 35.2357 18.5286 34.6727 18.9769 34.08C20.2636 32.3747 21.1669 30.4993 21.0778 28.316C21.0346 27.2521 20.7632 26.1949 20.5566 25.1418C20.4175 24.4289 20.7564 23.9374 21.4761 24.0009C23.1422 24.1494 24.7773 24.4559 26.2962 25.2025C27.7045 25.8952 28.7347 26.9159 29.0763 28.5739C29.3504 28.3511 29.5799 28.1621 29.8094 27.9771C37.3205 21.9148 48.4825 26.1895 50.0217 35.7177C51.1167 42.497 46.279 49.0211 39.443 49.8798C34.6174 50.4861 30.6911 48.7956 27.7004 44.9625C27.4857 44.687 27.2711 44.6074 26.943 44.6074C18.3531 44.6155 9.76323 44.6128 1.17336 44.6128C0.18638 44.6128 -0.0539527 44.3792 0.00815578 43.3733C0.255239 39.424 0.515825 35.4747 0.77371 31.5254C0.829068 30.6681 0.827717 29.8012 0.968136 28.9587C1.29893 26.978 2.58296 25.7696 4.35845 25.0054C5.71808 24.4208 7.15738 24.1602 8.61558 24.0036C9.36223 23.9239 9.80239 24.3816 9.59716 25.0702C8.61288 28.3768 9.59716 31.2702 11.4226 33.9922C11.8587 34.6417 12.3475 35.2546 12.8119 35.8852C12.8525 35.8622 12.893 35.8393 12.9335 35.8163V35.815ZM26.6 43.002C26.5541 42.8805 26.5325 42.8184 26.5082 42.759C24.6976 38.4586 25.0311 34.3608 27.6518 30.4709C27.745 30.3319 27.7963 30.128 27.7841 29.9619C27.745 29.4758 27.6748 28.9911 27.5965 28.5105C27.5006 27.9204 27.2252 27.4236 26.7242 27.086C25.4672 26.2368 24.0104 26.0167 22.567 25.7331C22.5495 25.8277 22.536 25.8614 22.5387 25.8925C22.5441 25.9762 22.5508 26.0612 22.567 26.1436C23.1598 29.2085 22.4604 31.9845 20.7024 34.5269C19.3036 36.5495 17.5605 38.2601 15.7837 39.9371C15.3773 40.3205 14.9817 40.3084 14.582 39.9195C12.8363 38.2277 11.2093 36.4333 9.90905 34.3662C8.73709 32.5043 7.89188 30.5195 7.74606 28.2971C7.68935 27.433 7.73661 26.5622 7.73661 25.6683C6.52279 25.8722 5.22257 26.1058 4.02495 26.7161C3.2891 27.0901 2.81519 27.668 2.69232 28.501C2.64236 28.8332 2.57756 29.1653 2.5546 29.5002C2.27916 33.4481 2.01048 37.3974 1.74179 41.3453C1.70399 41.8921 1.67833 42.439 1.64728 42.9925H5.70053C5.70053 42.7711 5.70053 42.5888 5.70053 42.4052C5.70053 41.3264 5.69648 40.249 5.70188 39.1702C5.70593 38.5032 5.98947 38.1643 6.50929 38.1778C7.01426 38.1913 7.27214 38.5153 7.2789 39.1567C7.2816 39.4605 7.2789 39.7629 7.2789 40.0667C7.2789 41.0388 7.2789 42.011 7.2789 42.9966H22.9545C22.9545 42.7792 22.9545 42.5969 22.9545 42.4147C22.9545 41.2859 22.9478 40.1572 22.9586 39.0284C22.964 38.4843 23.2691 38.1737 23.7484 38.1791C24.2048 38.1832 24.4937 38.4762 24.5234 38.9973C24.5437 39.3497 24.5302 39.7048 24.5302 40.0586C24.5302 41.0307 24.5302 42.0029 24.5302 43.0033H26.6V43.002ZM41.5344 40.6554C41.768 38.595 41.7977 36.5603 41.5304 34.5296H33.8613C33.6277 36.5873 33.598 38.6125 33.8681 40.6554H41.5344ZM43.2086 40.7688C44.7667 40.7688 46.3438 40.7728 47.9221 40.7593C48.0139 40.7593 48.1584 40.6284 48.1854 40.5325C48.7511 38.5248 48.7376 36.5225 48.1274 34.5242H43.2086V40.7688ZM32.1911 34.4985C30.6492 34.4985 29.1033 34.4904 27.5573 34.5134C27.429 34.5147 27.2319 34.7132 27.1901 34.8563C26.654 36.6615 26.7121 38.4721 27.1712 40.2868C27.2495 40.5946 27.3629 40.6905 27.6734 40.6864C28.8683 40.6702 30.0632 40.6797 31.2595 40.6797C31.589 40.6797 31.9198 40.6797 32.1925 40.6797V34.4972L32.1911 34.4985ZM34.0989 42.2945C34.2002 42.7536 34.2731 43.1667 34.3852 43.5704C34.797 45.0705 35.2709 46.5476 36.347 47.729C37.2206 48.6876 38.1738 48.7106 39.0393 47.7519C40.4246 46.2181 40.8782 44.286 41.2995 42.2945H34.0989ZM34.1043 32.8851H41.232C41.2293 31.6564 40.218 28.929 39.362 27.8138C38.2508 26.3664 37.1072 26.3637 36.023 27.8435C34.9334 29.33 34.4729 31.0664 34.1057 32.8864L34.1043 32.8851ZM47.4914 32.8972C46.0764 30.0348 43.9175 28.1986 40.8364 27.1913C42.0191 29.0087 42.4971 30.9367 42.8846 32.8972H47.4914ZM42.8792 42.2823C42.5052 44.2712 42.0016 46.1776 40.8958 47.9126C43.4638 47.4022 47.1836 44.151 47.3713 42.2823H42.8792ZM34.5472 27.1981C31.4931 28.2188 29.3652 30.0929 27.9138 32.8824H32.5233C32.8892 30.9151 33.3941 29.0114 34.5459 27.1981H34.5472ZM32.526 42.3039H27.9151C29.3706 45.0907 31.4985 46.9634 34.554 47.9842C33.3941 46.1763 32.8973 44.2833 32.526 42.3039ZM14.8804 30.4358C14.7373 32.5948 14.6239 34.7065 14.4443 36.8127C14.3876 37.4716 14.6117 37.8902 15.137 38.2115C15.754 37.8038 16.1523 37.3663 16.0173 36.4941C15.8283 35.2695 15.8364 34.0152 15.7526 32.7743C15.7 31.9939 15.6338 31.2149 15.5731 30.4358H14.8818H14.8804ZM13.5586 28.8143H16.6492V27.8691H13.5586V28.8143Z" fill="#4BBA72"/>
<path d="M26.0909 7.75275C26.0909 8.4886 26.0598 9.1799 26.1084 9.86579C26.1246 10.1021 26.2948 10.3721 26.473 10.5436C27.1805 11.2214 27.464 12.0166 27.3614 12.9955C27.2979 13.595 27.3574 14.2066 27.3466 14.8129C27.3331 15.5001 27.1103 15.731 26.4352 15.7418C25.6939 15.7539 24.9527 15.7566 24.2128 15.7391C23.6052 15.7256 23.3622 15.4704 23.3568 14.8642C23.3487 14.073 23.3851 13.2791 23.3446 12.4892C23.3149 11.8965 23.4283 11.3726 23.8685 10.9743C24.6786 10.2398 24.58 9.30951 24.4963 8.30903C23.4945 8.62767 22.525 8.93416 21.5462 9.24471C21.4719 10.7569 21.3841 12.2354 21.3369 13.7152C21.3247 14.0959 21.4544 14.478 21.4895 14.8615C21.7838 18.1627 20.8049 20.9629 18.1181 23.0044C16.2143 24.4518 14 24.4208 12.0787 22.9936C9.97644 21.4315 8.92195 19.2644 8.72077 16.695C8.65326 15.835 8.82339 14.956 8.88009 14.0865C8.8963 13.8353 8.9098 13.5828 8.90305 13.3304C8.86929 12.1017 8.81529 10.873 8.79773 9.64301C8.79233 9.30411 8.65056 9.19205 8.35217 9.10159C6.30799 8.48725 4.26922 7.85267 2.22774 7.22483C2.14808 7.20053 2.06437 7.18297 1.98606 7.15192C1.64311 7.0142 1.33932 6.82923 1.32987 6.40932C1.32042 5.98941 1.55265 5.73288 1.9307 5.56816C4.53655 4.43535 7.13971 3.29445 9.74421 2.15759C11.332 1.46495 12.9117 0.754751 14.5144 0.0985619C14.8182 -0.025655 15.2638 -0.0445576 15.5595 0.0837098C19.7464 1.88215 23.9184 3.71435 28.0959 5.5344C28.5037 5.71263 28.7737 5.97591 28.7467 6.44847C28.7197 6.92779 28.3686 7.07901 27.9771 7.19243C27.3641 7.3693 26.7525 7.55428 26.0963 7.7487L26.0909 7.75275ZM15.2098 12.8497C15.2017 12.8983 15.1949 12.9456 15.1868 12.9942C15.0855 12.9942 14.9829 12.9834 14.8844 12.9955C13.6192 13.1548 12.3501 13.298 11.0917 13.5005C10.8676 13.5369 10.5732 13.7908 10.5017 14.0068C9.64295 16.5978 10.7244 19.9787 12.8915 21.5867C14.3983 22.706 15.9753 22.675 17.4295 21.4976C19.4925 19.8274 20.5052 16.61 19.7383 14.046C19.6721 13.8259 19.3953 13.5545 19.1766 13.5126C17.8615 13.2588 16.5343 13.0644 15.2111 12.8497H15.2098ZM4.37858 6.17979C5.97585 6.68611 7.43 7.15057 8.8882 7.60018C8.98946 7.63124 9.13393 7.55563 9.24599 7.50432C9.89813 7.20863 10.5192 6.80087 11.2024 6.624C13.2952 6.08393 15.4325 6.07582 17.5685 6.33641C18.6217 6.46468 19.7032 6.6105 20.5821 7.23968C21.0777 7.59478 21.4719 7.59613 21.9944 7.40846C23.1758 6.9845 24.3748 6.6105 25.6399 6.19194C25.513 6.11498 25.4644 6.07852 25.409 6.05422C22.0336 4.58657 18.6595 3.11757 15.2786 1.66477C15.1233 1.59862 14.8844 1.62967 14.7196 1.69853C13.5733 2.17784 12.4351 2.68011 11.2942 3.17563C9.02997 4.15856 6.76571 5.14285 4.37723 6.17979H4.37858ZM19.9421 12.1273C19.9421 11.1336 19.8868 10.206 19.9624 9.28926C20.011 8.70868 19.8031 8.4454 19.2981 8.30768C19.1199 8.25907 18.9484 8.18481 18.7688 8.14566C16.9123 7.7487 15.0369 7.62313 13.1534 7.87292C12.342 7.98093 11.5413 8.18481 10.7487 8.39274C10.5611 8.44135 10.2843 8.68168 10.2856 8.8329C10.2951 9.91575 10.3666 10.9986 10.4193 12.0936C13.5747 11.274 16.6653 11.2956 19.9435 12.1246L19.9421 12.1273ZM25.2281 11.675C24.5503 12.5054 24.977 13.3911 24.8352 14.2255H25.644C25.4833 13.3722 25.9167 12.4892 25.2295 11.675H25.2281Z" fill="#4BBA72"/>
</g>
<defs>
<clipPath id="clip0_202_948">
<rect width="50.1769" height="50" fill="white"/>
</clipPath>
</defs>
</svg>
