<svg width="38" height="38" viewBox="0 0 38 38" fill="none" xmlns="http://www.w3.org/2000/svg">
<path d="M19.0002 23.6413C18.0497 23.6413 17.1205 23.3595 16.3302 22.8314C15.5399 22.3033 14.9239 21.5527 14.5602 20.6746C14.1964 19.7964 14.1012 18.8301 14.2867 17.8979C14.4721 16.9656 14.9298 16.1093 15.6019 15.4372C16.2741 14.7651 17.1304 14.3074 18.0626 14.1219C18.9949 13.9365 19.9612 14.0317 20.8393 14.3954C21.7175 14.7592 22.468 15.3752 22.9961 16.1655C23.5242 16.9558 23.8061 17.885 23.8061 18.8355C23.8046 20.1096 23.2979 21.3312 22.3969 22.2322C21.4959 23.1331 20.2744 23.6399 19.0002 23.6413ZM19.0002 15.2456C18.2902 15.2456 17.5961 15.4561 17.0058 15.8506C16.4154 16.2451 15.9553 16.8057 15.6836 17.4617C15.4119 18.1176 15.3408 18.8394 15.4793 19.5358C15.6178 20.2322 15.9597 20.8718 16.4618 21.3739C16.9638 21.8759 17.6035 22.2178 18.2999 22.3563C18.9962 22.4949 19.718 22.4238 20.374 22.1521C21.0299 21.8804 21.5906 21.4202 21.9851 20.8299C22.3795 20.2395 22.5901 19.5455 22.5901 18.8355C22.589 17.8837 22.2104 16.9713 21.5374 16.2983C20.8644 15.6253 19.9519 15.2467 19.0002 15.2456ZM14.8514 34.3182C14.6901 34.3182 14.5355 34.2541 14.4214 34.1401C14.3074 34.0261 14.2434 33.8714 14.2434 33.7102V31.513C14.2434 31.3518 14.3074 31.1971 14.4214 31.0831C14.5355 30.9691 14.6901 30.905 14.8514 30.905C15.0126 30.905 15.1673 30.9691 15.2813 31.0831C15.3953 31.1971 15.4594 31.3518 15.4594 31.513V33.7102C15.4594 33.8714 15.3953 34.0261 15.2813 34.1401C15.1673 34.2541 15.0126 34.3182 14.8514 34.3182ZM23.149 34.3182C22.9878 34.3182 22.8331 34.2541 22.7191 34.1401C22.6051 34.0261 22.541 33.8714 22.541 33.7102V31.513C22.541 31.3518 22.6051 31.1971 22.7191 31.0831C22.8331 30.9691 22.9878 30.905 23.149 30.905C23.3103 30.905 23.4649 30.9691 23.579 31.0831C23.693 31.1971 23.757 31.3518 23.757 31.513V33.7102C23.757 33.8714 23.693 34.0261 23.579 34.1401C23.4649 34.2541 23.3103 34.3182 23.149 34.3182Z" fill="#2D2D2D"/>
<path d="M26.0432 34.808H11.9566C11.7954 34.808 11.6407 34.7439 11.5267 34.6299C11.4127 34.5159 11.3486 34.3613 11.3486 34.2V30.3464C11.3486 27.2027 13.9064 24.6464 17.0486 24.6464H20.9497C24.0935 24.6464 26.6497 27.2038 26.6497 30.3464V34.2C26.6497 34.361 26.5859 34.5154 26.4722 34.6294C26.3585 34.7434 26.2042 34.8076 26.0432 34.808ZM12.5646 33.592H25.4352V30.3464C25.4336 29.1577 24.9607 28.0181 24.1201 27.1775C23.2796 26.337 22.14 25.864 20.9512 25.8624H17.0502C15.8614 25.864 14.7218 26.337 13.8813 27.1775C13.0407 28.0181 12.5678 29.1577 12.5662 30.3464L12.5646 33.592Z" fill="#2D2D2D"/>
<path d="M16.8469 25.8658C16.743 25.8658 16.6408 25.839 16.5502 25.7882C16.4595 25.7374 16.3834 25.6642 16.3291 25.5756C16.2748 25.4869 16.2441 25.3859 16.2399 25.282C16.2358 25.1782 16.2584 25.075 16.3054 24.9823C16.9978 23.6204 16.4027 22.8608 16.3773 22.8293C16.3818 22.835 16.3845 22.8376 16.3845 22.8376L17.2988 22.0358C17.347 22.0909 18.4692 23.4095 17.3896 25.5318C17.3389 25.6322 17.2613 25.7166 17.1655 25.7756C17.0697 25.8346 16.9594 25.8658 16.8469 25.8658ZM21.1527 25.8658C21.0404 25.8658 20.9303 25.8348 20.8346 25.776C20.7389 25.7172 20.6613 25.6331 20.6105 25.533C19.5309 23.4095 20.653 22.0909 20.7013 22.037L21.6156 22.838C21.6156 22.838 21.6182 22.8353 21.6228 22.8296C21.5973 22.8612 21.0022 23.6208 21.6946 24.9823C21.7418 25.075 21.7644 25.1783 21.7603 25.2822C21.7562 25.3862 21.7255 25.4873 21.6711 25.576C21.6168 25.6647 21.5406 25.7379 21.4498 25.7887C21.359 25.8396 21.2568 25.8662 21.1527 25.8662V25.8658ZM8.97107 19.668C8.41918 19.668 7.87968 19.5044 7.4208 19.1978C6.96192 18.8911 6.60428 18.4553 6.39309 17.9454C6.18191 17.4355 6.12668 16.8745 6.23437 16.3332C6.34207 15.7919 6.60786 15.2947 6.99813 14.9045C7.38841 14.5143 7.88564 14.2485 8.42693 14.1409C8.96823 14.0333 9.52929 14.0886 10.0391 14.2999C10.549 14.5111 10.9848 14.8688 11.2913 15.3277C11.5979 15.7867 11.7615 16.3262 11.7614 16.8781C11.7606 17.6178 11.4664 18.3271 10.9432 18.8501C10.4201 19.3732 9.71083 19.6673 8.97107 19.668ZM8.97107 15.3037C8.65969 15.3037 8.35531 15.3961 8.09641 15.5691C7.83751 15.7421 7.63573 15.9879 7.51657 16.2756C7.39741 16.5633 7.36623 16.8798 7.42698 17.1852C7.48773 17.4906 7.63767 17.7711 7.85784 17.9913C8.07802 18.2115 8.35854 18.3614 8.66393 18.4222C8.96932 18.4829 9.28587 18.4517 9.57354 18.3326C9.86122 18.2134 10.1071 18.0116 10.2801 17.7527C10.4531 17.4938 10.5454 17.1895 10.5454 16.8781C10.545 16.4607 10.379 16.0605 10.0839 15.7653C9.78869 15.4701 9.38849 15.3041 8.97107 15.3037ZM12.6324 25.8491H5.31015C5.1489 25.8491 4.99425 25.7851 4.88023 25.671C4.76621 25.557 4.70215 25.4024 4.70215 25.2411V24.2531C4.71276 23.1279 5.16722 22.0523 5.96668 21.2603C6.76614 20.4684 7.84595 20.0241 8.97126 20.0241C10.0966 20.0241 11.1764 20.4684 11.9758 21.2603C12.7753 22.0523 13.2298 23.1279 13.2404 24.2531V25.2411C13.2404 25.4024 13.1763 25.557 13.0623 25.671C12.9483 25.7851 12.7936 25.8491 12.6324 25.8491ZM5.91815 24.6331H12.0244V24.2531C12.0154 23.4493 11.6898 22.6814 11.1182 22.1162C10.5466 21.5509 9.77514 21.2339 8.97126 21.2339C8.16737 21.2339 7.39592 21.5509 6.82433 22.1162C6.25273 22.6814 5.92712 23.4493 5.91815 24.2531V24.6331ZM29.029 19.668C28.4771 19.6681 27.9375 19.5045 27.4786 19.1979C27.0197 18.8914 26.662 18.4556 26.4507 17.9457C26.2395 17.4358 26.1842 16.8747 26.2919 16.3334C26.3995 15.7921 26.6653 15.2949 27.0555 14.9046C27.4458 14.5144 27.943 14.2486 28.4843 14.141C29.0256 14.0333 29.5867 14.0886 30.0966 14.2998C30.6065 14.5111 31.0423 14.8688 31.3489 15.3277C31.6554 15.7866 31.819 16.3262 31.8189 16.8781C31.8181 17.6178 31.5239 18.3269 31.0009 18.85C30.4779 19.373 29.7687 19.6672 29.029 19.668ZM29.029 15.3037C28.7176 15.3037 28.4132 15.3959 28.1542 15.5689C27.8953 15.7418 27.6934 15.9877 27.5742 16.2753C27.455 16.563 27.4238 16.8796 27.4845 17.185C27.5452 17.4904 27.6951 17.771 27.9152 17.9912C28.1354 18.2114 28.4159 18.3614 28.7213 18.4221C29.0267 18.4829 29.3433 18.4518 29.631 18.3326C29.9187 18.2135 30.1646 18.0117 30.3376 17.7528C30.5106 17.4939 30.6029 17.1895 30.6029 16.8781C30.6024 16.4608 30.4365 16.0607 30.1414 15.7655C29.8464 15.4704 29.4463 15.3043 29.029 15.3037ZM32.6899 25.8491H25.3677C25.2064 25.8491 25.0518 25.7851 24.9378 25.671C24.8237 25.557 24.7597 25.4024 24.7597 25.2411V24.2531C24.7703 23.1279 25.2248 22.0523 26.0242 21.2603C26.8237 20.4684 27.9035 20.0241 29.0288 20.0241C30.1541 20.0241 31.2339 20.4684 32.0334 21.2603C32.8328 22.0523 33.2873 23.1279 33.2979 24.2531V25.2411C33.2979 25.4024 33.2339 25.557 33.1198 25.671C33.0058 25.7851 32.8512 25.8491 32.6899 25.8491ZM25.9757 24.6331H32.0819V24.2531C32.0729 23.4493 31.7473 22.6814 31.1757 22.1162C30.6041 21.5509 29.8327 21.2339 29.0288 21.2339C28.2249 21.2339 27.4535 21.5509 26.8819 22.1162C26.3103 22.6814 25.9847 23.4493 25.9757 24.2531V24.6331ZM21.8584 13.2054C21.7599 13.2054 21.6629 13.1816 21.5757 13.1358L19 11.78L16.4244 13.1343C16.3241 13.187 16.211 13.2107 16.098 13.2026C15.985 13.1945 15.8765 13.1549 15.7847 13.0884C15.693 13.0219 15.6216 12.9311 15.5787 12.8262C15.5359 12.7213 15.5231 12.6065 15.542 12.4948L16.036 9.62692L13.9525 7.59582C13.8713 7.51672 13.8138 7.4165 13.7866 7.30646C13.7593 7.19643 13.7634 7.08097 13.7983 6.97312C13.8332 6.86527 13.8975 6.76932 13.9841 6.69611C14.0706 6.62289 14.1759 6.57533 14.288 6.5588L17.1673 6.1408L18.4551 3.53134C18.5053 3.42956 18.583 3.34386 18.6793 3.28393C18.7757 3.22401 18.8869 3.19225 19.0004 3.19225C19.1139 3.19225 19.2251 3.22401 19.3215 3.28393C19.4178 3.34386 19.4955 3.42956 19.5457 3.53134L20.8335 6.1408L23.7128 6.5588C23.8251 6.5751 23.9305 6.62249 24.0173 6.69561C24.104 6.76873 24.1686 6.86465 24.2036 6.97255C24.2387 7.08044 24.2429 7.19599 24.2157 7.30613C24.1885 7.41628 24.1311 7.51662 24.0498 7.59582L21.9663 9.62692L22.458 12.4948C22.473 12.582 22.4687 12.6715 22.4454 12.7569C22.4222 12.8423 22.3806 12.9217 22.3235 12.9893C22.2665 13.057 22.1953 13.1114 22.115 13.1487C22.0348 13.186 21.9473 13.2054 21.8588 13.2054H21.8584ZM19 10.488C19.0986 10.488 19.1958 10.5118 19.2831 10.5575L21.052 11.4863L20.7146 9.51748C20.6979 9.42028 20.705 9.32047 20.7355 9.22666C20.7659 9.13285 20.8188 9.04786 20.8894 8.97902L22.3197 7.5848L20.3437 7.29752C20.2465 7.28308 20.1542 7.24529 20.0748 7.18738C19.9954 7.12947 19.9312 7.05317 19.8877 6.96502L19 5.1737L18.1161 6.96502C18.0723 7.05312 18.0077 7.12927 17.928 7.18693C17.8482 7.24458 17.7557 7.282 17.6582 7.296L15.6822 7.58328L17.1126 8.9775C17.1832 9.04634 17.236 9.13133 17.2665 9.22514C17.2969 9.31895 17.3041 9.41876 17.2874 9.51596L16.948 11.4863L18.7158 10.5564C18.8036 10.5109 18.9011 10.4874 19 10.488Z" fill="#2D2D2D"/>
</svg>
