<svg width="38" height="38" viewBox="0 0 38 38" fill="none" xmlns="http://www.w3.org/2000/svg">
<path d="M19 1.78125C15.5593 1.78125 12.2832 2.85162 9.52899 4.8764C9.26459 5.07123 9.20776 5.44232 9.40143 5.70673C9.51855 5.8656 9.6983 5.9491 9.88037 5.9491C10.0033 5.9491 10.1262 5.91199 10.2318 5.83429C12.7819 3.95911 15.8132 2.96875 19 2.96875C21.4237 2.96875 23.728 3.53351 25.849 4.64563C26.1378 4.79755 26.4984 4.68622 26.6503 4.3963C26.8034 4.10638 26.6909 3.74689 26.401 3.59497C24.1408 2.40863 21.5814 1.78125 19 1.78125ZM35.0312 17.8125C35.0312 15.2311 34.4039 12.6717 33.2175 10.4115C33.0656 10.1216 32.705 10.0114 32.4162 10.1622C32.1263 10.3141 32.0138 10.6736 32.1669 10.9635C33.279 13.0845 33.8438 15.3888 33.8438 17.8125C33.8438 25.9974 27.1849 32.6562 19 32.6562C10.8151 32.6562 4.15625 25.9974 4.15625 17.8125C4.15625 14.6257 5.14661 11.5944 7.02179 9.04425C7.21545 8.77985 7.15863 8.40875 6.89423 8.21393C6.6333 8.02258 6.26105 8.07593 6.0639 8.34149C4.03912 11.0957 2.96875 14.3718 2.96875 17.8125C2.96875 24.8031 7.47319 30.7466 13.7262 32.9342L11.4552 35.2052C11.2233 35.4371 11.2233 35.8129 11.4552 36.0448C11.5712 36.1608 11.7231 36.2188 11.875 36.2188C12.0269 36.2188 12.1788 36.1608 12.2948 36.0448L15.017 33.3226C16.2931 33.6507 17.6228 33.8438 19 33.8438C20.3772 33.8438 21.7069 33.6507 22.983 33.3226L25.7052 36.0448C25.8212 36.1608 25.9731 36.2188 26.125 36.2188C26.2769 36.2188 26.4288 36.1608 26.5448 36.0448C26.7767 35.8129 26.7767 35.4371 26.5448 35.2052L24.2738 32.9342C30.5268 30.7466 35.0312 24.8031 35.0312 17.8125Z" fill="#2D2D2D"/>
<path d="M19 30.2813C25.8757 30.2813 31.4688 24.6882 31.4688 17.8125C31.4688 14.588 30.2282 11.6552 28.2125 9.43956L28.7458 8.90625H30.875C31.0327 8.90625 31.1835 8.84363 31.2948 8.7323L34.8573 5.1698C35.0266 5.00049 35.0776 4.74421 34.986 4.52271C34.8944 4.30121 34.6776 4.15625 34.4375 4.15625H32.6562V2.375C32.6562 2.13495 32.5113 1.9181 32.2898 1.82648C32.0695 1.73603 31.8132 1.78473 31.6427 1.9552L28.0802 5.5177C27.9689 5.62903 27.9062 5.77979 27.9062 5.9375V8.06665L27.3729 8.59996C25.1573 6.58431 22.2245 5.34375 19 5.34375C12.1243 5.34375 6.53125 10.9368 6.53125 17.8125C6.53125 24.6882 12.1243 30.2813 19 30.2813ZM29.0938 6.18335L31.4688 3.80835V4.75C31.4688 5.07819 31.7343 5.34375 32.0625 5.34375H33.0042L30.6292 7.71875H29.0938V6.18335ZM19 6.53125C21.8969 6.53125 24.5336 7.63823 26.5335 9.43941L24.855 11.1179C23.2877 9.74542 21.2422 8.90625 19 8.90625C14.0888 8.90625 10.0938 12.9013 10.0938 17.8125C10.0938 22.7237 14.0888 26.7188 19 26.7188C23.9112 26.7188 27.9062 22.7237 27.9062 17.8125C27.9062 15.5703 27.0671 13.5248 25.6946 11.9575L27.3731 10.279C29.1743 12.2789 30.2812 14.9156 30.2812 17.8125C30.2812 24.033 25.2205 29.0938 19 29.0938C12.7795 29.0938 7.71875 24.033 7.71875 17.8125C7.71875 11.592 12.7795 6.53125 19 6.53125ZM23.1562 17.8125C23.1562 20.104 21.2915 21.9688 19 21.9688C16.7085 21.9688 14.8438 20.104 14.8438 17.8125C14.8438 15.521 16.7085 13.6563 19 13.6563C19.9316 13.6563 20.7836 13.9756 21.4775 14.4954L18.5802 17.3927C18.3483 17.6246 18.3483 18.0004 18.5802 18.2323C18.6962 18.3483 18.8481 18.4063 19 18.4063C19.1519 18.4063 19.3038 18.3483 19.4198 18.2323L22.3171 15.335C22.8369 16.0289 23.1562 16.8809 23.1562 17.8125ZM22.3169 13.656C21.4027 12.9246 20.2593 12.4688 19 12.4688C16.0533 12.4688 13.6562 14.8658 13.6562 17.8125C13.6562 20.7592 16.0533 23.1563 19 23.1563C21.9467 23.1563 24.3438 20.7592 24.3438 17.8125C24.3438 16.5533 23.8879 15.4098 23.1565 14.4956L24.8552 12.7969C26.0138 14.1474 26.7188 15.8978 26.7188 17.8125C26.7188 22.0685 23.256 25.5313 19 25.5313C14.744 25.5313 11.2812 22.0685 11.2812 17.8125C11.2812 13.5565 14.744 10.0938 19 10.0938C20.9147 10.0938 22.6651 10.7987 24.0156 11.9573L22.3169 13.656ZM7.66417 6.47668C7.43231 6.70854 7.43231 7.08449 7.66417 7.31635C7.89603 7.54821 8.27198 7.54821 8.50392 7.31635C8.73578 7.08449 8.73578 6.70854 8.50392 6.47668C8.27198 6.24482 7.89603 6.24482 7.66417 6.47668Z" fill="#2D2D2D"/>
</svg>
