<svg width="52" height="52" viewBox="0 0 52 52" fill="none" xmlns="http://www.w3.org/2000/svg">
<g clip-path="url(#clip0_710_1441)">
<path d="M33.995 25.4962C34.4094 25.4962 34.7588 25.1712 34.7831 24.7569C34.7913 24.5944 34.7994 24.4319 34.7994 24.2612C34.7994 19.8006 30.8506 16.1687 26 16.1687C21.1494 16.1687 17.2006 19.8006 17.2006 24.2612C17.2006 24.4319 17.2087 24.5944 17.2169 24.7569C17.2413 25.1712 17.5906 25.4962 18.005 25.4962H25.22V30.2494L20.4587 33.9544C20.2941 34.0827 20.187 34.2711 20.1611 34.4783C20.1352 34.6855 20.1926 34.8944 20.3206 35.0594C20.5888 35.4006 21.0844 35.4656 21.4256 35.1975L26 31.6387L30.5744 35.1975C30.7206 35.3112 30.8913 35.36 31.0538 35.36C31.1738 35.3592 31.2921 35.3318 31.4003 35.2798C31.5085 35.2279 31.6038 35.1526 31.6794 35.0594C31.8074 34.8944 31.8648 34.6855 31.8389 34.4783C31.813 34.2711 31.7059 34.0827 31.5413 33.9544L26.7881 30.2575V25.4962H33.995ZM26 17.7531C29.8512 17.7531 33.0119 20.4912 33.215 23.9281H18.785C18.9881 20.4912 22.1488 17.7531 26 17.7531ZM26 14.7631C27.1457 14.761 28.2439 14.3049 29.0541 13.4947C29.8643 12.6845 30.3204 11.5863 30.3225 10.4406C30.3204 9.29486 29.8643 8.19667 29.0541 7.38651C28.2439 6.57634 27.1457 6.12025 26 6.1181C24.8543 6.12025 23.7561 6.57634 22.9459 7.38651C22.1357 8.19667 21.6796 9.29486 21.6775 10.4406C21.6775 12.8294 23.6194 14.7631 26 14.7631ZM26 7.69435C27.5112 7.69435 28.7463 8.92935 28.7463 10.4406C28.7463 11.9519 27.5112 13.1869 26 13.1869C24.4888 13.1869 23.2537 11.9519 23.2537 10.4406C23.2537 8.92935 24.4888 7.69435 26 7.69435ZM8.79937 36.5544C3.94875 36.5544 0 40.1862 0 44.6469C0 44.8175 0.008125 44.98 0.01625 45.1425C0.040625 45.5569 0.39 45.8819 0.804375 45.8819H16.7944C17.2087 45.8819 17.5581 45.5569 17.5825 45.1425C17.5906 44.98 17.5987 44.8175 17.5987 44.6469C17.5987 40.1862 13.65 36.5544 8.79937 36.5544ZM1.58438 44.3056C1.7875 40.8687 4.94 38.1306 8.79937 38.1306C12.6587 38.1306 15.8112 40.8687 16.0144 44.3056H1.58438ZM8.79937 35.1487C9.94511 35.1466 11.0433 34.6905 11.8535 33.8803C12.6636 33.0702 13.1197 31.972 13.1219 30.8262C13.1197 29.6805 12.6636 28.5823 11.8535 27.7721C11.0433 26.962 9.94511 26.5059 8.79937 26.5037C7.65364 26.5059 6.55544 26.962 5.74528 27.7721C4.93512 28.5823 4.47902 29.6805 4.47688 30.8262C4.47902 31.972 4.93512 33.0702 5.74528 33.8803C6.55544 34.6905 7.65364 35.1466 8.79937 35.1487ZM8.79937 28.08C10.3106 28.08 11.5456 29.315 11.5456 30.8262C11.5456 32.3375 10.3106 33.5725 8.79937 33.5725C7.28813 33.5725 6.05312 32.3375 6.05312 30.8262C6.05312 29.3069 7.28813 28.08 8.79937 28.08ZM43.2006 36.5544C38.35 36.5544 34.4012 40.1862 34.4012 44.6469C34.4012 44.8175 34.4094 44.98 34.4175 45.1425C34.4419 45.5569 34.7913 45.8819 35.2056 45.8819H51.1956C51.61 45.8819 51.9594 45.5569 51.9837 45.1425C51.9919 44.98 52 44.8175 52 44.6469C52 40.1862 48.0512 36.5544 43.2006 36.5544ZM35.9856 44.3056C36.1888 40.8687 39.3412 38.1306 43.2006 38.1306C47.0519 38.1306 50.2125 40.8687 50.4156 44.3056H35.9856ZM43.2006 35.1487C44.3464 35.1466 45.4446 34.6905 46.2547 33.8803C47.0649 33.0702 47.521 31.972 47.5231 30.8262C47.521 29.6805 47.0649 28.5823 46.2547 27.7721C45.4446 26.962 44.3464 26.5059 43.2006 26.5037C42.0549 26.5059 40.9567 26.962 40.1465 27.7721C39.3364 28.5823 38.8803 29.6805 38.8781 30.8262C38.8803 31.972 39.3364 33.0702 40.1465 33.8803C40.9567 34.6905 42.0549 35.1466 43.2006 35.1487ZM43.2006 28.08C44.7119 28.08 45.9469 29.315 45.9469 30.8262C45.9469 32.3375 44.7119 33.5725 43.2006 33.5725C41.6894 33.5725 40.4544 32.3375 40.4544 30.8262C40.4544 29.3069 41.6894 28.08 43.2006 28.08Z" fill="#4BBA72" stroke="#4BBA72" stroke-width="0.5"/>
</g>
<defs>
<clipPath id="clip0_710_1441">
<rect width="52" height="52" fill="white"/>
</clipPath>
</defs>
</svg>
